<svg width="201" height="180" viewBox="0 0 201 180" fill="none" xmlns="http://www.w3.org/2000/svg">
<g clip-path="url(#clip0_639_1237)">
<path d="M140.494 78.9549C140.377 79.8016 140.268 80.6567 140.134 81.5034C140.109 81.6795 140 81.8388 139.958 82.0148C139.841 82.4927 139.657 82.9621 139.64 83.4484C139.582 84.8149 139.624 86.1814 139.557 87.5479C139.49 88.9982 139.331 90.4485 139.239 91.8905C139.138 93.3492 139.08 94.8079 138.988 96.2666C138.896 97.6918 138.795 99.1169 138.686 100.542C138.611 101.489 138.536 102.437 138.41 103.384C138.26 104.507 138.059 105.614 137.883 106.737C137.866 106.855 137.858 106.981 137.85 107.098C137.732 108.825 137.657 110.56 137.498 112.287C137.347 114.006 137.147 115.716 136.929 117.426C136.803 118.382 136.418 119.338 136.485 120.268C136.586 121.819 135.841 123.253 136.05 124.804C136.126 125.382 135.866 126.003 135.757 126.606C135.682 127.042 135.59 127.486 135.523 127.922C135.331 129.28 135.121 130.639 134.979 131.997C134.895 132.776 134.937 133.564 134.937 134.344C134.937 137.01 134.937 139.667 134.937 142.333C134.937 143.214 134.971 144.102 134.92 144.974C134.879 145.687 134.745 146.391 133.891 146.634C133.749 146.676 133.607 146.827 133.531 146.961C132.996 147.9 132.067 147.825 131.263 147.665C130.033 147.414 128.803 147.062 127.665 146.55C127.246 146.366 126.853 145.62 126.836 145.117C126.744 142.551 126.794 139.986 126.753 137.421C126.736 136.247 126.535 135.082 126.552 133.916C126.577 132.433 126.543 130.898 126.895 129.473C127.322 127.746 127.313 126.019 127.439 124.284C127.556 122.624 127.849 120.972 128.033 119.321C128.133 118.466 128.159 117.602 128.259 116.747C128.426 115.213 128.619 113.679 128.803 112.145C128.853 111.751 128.895 111.348 128.928 111.047C128.912 110.468 128.862 109.973 128.895 109.487C128.928 108.967 129.071 108.456 129.121 107.936C129.238 106.771 129.221 105.589 129.439 104.449C129.916 101.951 129.941 99.4355 130.025 96.9121C130.075 95.4031 130.376 93.9025 130.544 92.3935C130.585 91.9827 130.552 91.5719 130.577 91.1611C130.686 88.906 130.753 86.6424 130.92 84.3873C131.046 82.719 131.322 81.0675 131.489 79.4076C131.606 78.2339 131.632 77.0435 131.749 75.8614C131.883 74.5117 132.092 73.1703 132.251 71.8206C132.309 71.2924 132.301 70.7559 132.326 70.2277C132.435 67.8972 132.527 65.5582 132.653 63.2276C132.711 62.0791 132.812 60.9306 132.92 59.7904C132.971 59.2539 133.13 58.7173 133.188 58.1808C133.238 57.6694 133.188 57.1496 133.238 56.6383C133.297 55.9592 133.439 55.2885 133.489 54.6179C133.615 52.8909 133.632 51.1555 133.824 49.4369C133.966 48.1794 134.351 46.9554 134.594 45.7063C134.745 44.9686 134.828 44.2141 134.954 43.4679C135.113 42.4955 136.126 41.8751 137.105 41.8332C137.406 41.8248 137.774 41.7074 137.983 41.5146C138.394 41.1374 138.829 40.9194 139.364 40.9948C140.067 41.0954 140.712 40.6846 141.465 40.9278C142.503 41.2547 143.423 41.7242 144.302 42.3529C145.172 42.9733 145.649 43.862 146.126 44.759C146.218 44.935 146.252 45.1614 146.26 45.3626C146.294 46.0919 146.31 46.8045 146.762 47.4668C146.963 47.7519 146.812 48.2716 146.854 48.674C147.022 50.2836 147.248 51.8849 147.373 53.5029C147.457 54.4921 147.415 55.4897 147.407 56.479C147.407 58.0131 147.407 59.5557 147.365 61.0898C147.34 61.8695 147.089 62.6492 147.147 63.412C147.315 65.5498 147.624 67.6708 147.817 69.8086C147.942 71.1332 147.917 72.4745 148.043 73.7991C148.11 74.5368 148.336 75.2578 148.478 75.9955C148.528 76.2554 148.52 76.5237 148.57 76.7836C148.737 77.6638 148.913 78.5441 149.089 79.4243C149.105 79.5166 149.131 79.6172 149.139 79.7094C149.331 81.5118 149.532 83.3142 149.708 85.1167C149.758 85.6197 149.7 86.1394 149.75 86.6424C149.901 88.0173 150.152 89.3838 150.21 90.7587C150.227 91.2198 150.235 91.6725 150.294 92.142C150.461 93.5001 150.495 94.8749 150.637 96.2331C150.788 97.7505 150.712 99.3768 151.256 100.752C151.817 102.185 151.641 103.569 151.775 104.977C151.917 106.444 152.118 107.911 152.244 109.387C152.327 110.367 152.302 111.365 152.361 112.354C152.411 113.226 152.537 114.09 152.579 114.953C152.629 115.959 152.553 116.982 152.654 117.98C152.804 119.43 152.578 120.872 152.738 122.557C152.955 122.347 153.206 122.222 153.215 122.079C153.34 120.763 153.399 119.438 153.533 118.131C153.658 116.974 153.867 115.833 154.026 114.685C154.068 114.375 154.043 114.048 154.11 113.746C154.16 113.494 154.286 113.251 154.403 113.017C154.47 112.874 154.637 112.757 154.654 112.606C154.771 111.717 154.888 110.829 154.964 109.94C155.089 108.481 155.156 107.022 155.29 105.564C155.457 103.719 155.667 101.875 155.842 100.031C156.052 97.8427 156.127 95.6378 156.503 93.4749C156.821 91.6473 156.872 89.8198 157.073 88.0006C157.416 84.9155 157.6 81.8388 157.625 78.7453C157.625 78.2171 157.96 77.6471 158.261 77.1692C158.478 76.8255 158.537 76.6662 158.16 76.4398C158.035 76.3644 157.909 76.138 157.926 75.9955C157.993 75.3165 158.085 74.6374 158.202 73.9667C158.345 73.1116 158.537 72.2565 158.663 71.4014C158.746 70.8314 158.721 70.2445 158.771 69.6661C158.93 67.8804 159.123 66.0947 159.257 64.3091C159.332 63.2528 159.282 62.1881 159.366 61.1318C159.441 60.1928 159.792 59.2623 159.742 58.3401C159.675 57.0742 160.378 55.7999 159.684 54.534C159.541 54.2741 159.65 53.8717 159.692 53.5364C159.742 53.1172 159.926 52.7064 159.918 52.2873C159.918 51.5579 159.943 50.8621 160.42 50.2585C160.462 50.2082 160.487 50.116 160.479 50.0573C160.144 48.5734 160.805 47.1734 160.805 45.7063C160.805 44.4488 161.767 43.7278 162.73 43.0907C163.408 42.638 164.119 42.3613 164.964 42.4535C165.558 42.5122 166.169 42.4787 166.772 42.42C167.483 42.3529 167.977 42.8056 168.504 43.1158C168.99 43.4009 169.425 43.8452 169.776 44.2979C170.312 44.9937 170.136 45.7734 169.852 46.5363C169.776 46.7291 169.81 46.9638 169.776 47.1734C169.6 48.2046 169.416 49.2273 169.241 50.2585C169.232 50.3339 169.207 50.401 169.207 50.4765C168.99 52.7148 168.797 54.9532 168.554 57.1832C168.496 57.7365 168.236 58.273 168.169 58.8263C168.069 59.7066 168.061 60.6036 167.985 61.4922C167.826 63.345 167.651 65.1977 167.483 67.0504C167.466 67.2181 167.466 67.3858 167.45 67.5618C167.349 69.2637 167.266 70.9655 167.132 72.6673C167.09 73.1787 166.897 73.6817 166.805 74.1931C166.713 74.7548 166.638 75.3165 166.588 75.8865C166.462 77.4878 166.37 79.0974 166.245 80.6986C166.186 81.5034 165.943 82.325 166.044 83.1046C166.161 83.9933 166.102 84.84 165.994 85.7035C165.801 87.179 165.617 88.6461 165.45 90.1216C165.341 91.0689 165.249 92.0162 165.173 92.9551C165.048 94.4809 164.947 96.0067 164.822 97.5241C164.73 98.5972 164.621 99.6702 164.521 100.743C164.429 101.741 164.337 102.739 164.244 103.728C164.052 105.681 163.885 107.634 163.667 109.588C163.508 111.03 163.374 112.488 163.048 113.897C162.68 115.49 162.755 117.124 162.445 118.684C161.751 122.171 162.119 125.676 161.876 129.155C161.742 131.049 161.7 132.936 161.608 134.83C161.567 135.702 161.483 136.582 161.349 137.446C161.257 138.049 160.813 138.678 160.922 139.223C161.115 140.179 160.671 141.017 160.705 141.931C160.738 142.652 160.428 143.381 160.269 144.111C160.043 145.167 159.817 146.223 159.591 147.28C159.575 147.372 159.625 147.489 159.583 147.565C158.629 149.325 158.713 151.446 157.658 153.182C157.449 153.525 157.449 153.986 157.324 154.38C156.947 155.512 156.453 155.822 155.29 155.923C154.57 155.99 153.867 156.25 153.148 156.409C153.039 156.434 152.888 156.459 152.796 156.409C151.75 155.789 150.562 155.596 149.423 155.244C149.114 155.143 148.771 154.825 148.628 154.523C148.076 153.307 147.557 152.092 147.39 150.725C147.239 149.468 146.863 148.235 146.603 146.986C146.561 146.777 146.603 146.55 146.57 146.332C146.411 145.385 146.235 144.438 146.084 143.482C146.017 143.079 146.017 142.66 145.976 142.258C145.95 142.048 145.884 141.847 145.875 141.638C145.875 141.403 145.9 141.16 145.925 140.85C145.867 140.69 145.699 140.439 145.691 140.179C145.658 139.332 145.716 138.477 145.674 137.639C145.616 136.448 145.708 135.191 145.348 134.092C144.67 132.03 145.005 129.918 144.72 127.847C144.528 126.438 144.578 125.005 144.494 123.588C144.411 122.037 144.285 120.495 144.201 118.944C144.093 116.907 143.992 114.869 143.9 112.832C143.808 110.778 143.775 108.724 143.641 106.679C143.557 105.463 143.281 104.273 143.147 103.057C143.072 102.353 143.139 101.632 143.088 100.919C143.013 99.6619 142.896 98.4044 142.795 97.1468C142.695 95.9816 142.628 94.8163 142.486 93.651C142.36 92.645 142.118 91.6557 142 90.6497C141.917 89.9036 141.959 89.1491 141.917 88.403C141.833 86.9694 141.733 85.5442 141.615 84.1107C141.54 83.1885 141.465 82.2663 141.323 81.3525C141.197 80.5309 140.971 79.7261 140.795 78.9213C140.703 78.9381 140.62 78.9549 140.528 78.9716L140.494 78.9549Z" fill="black"/>
<path d="M117.982 143.985C117.714 143.759 117.422 143.566 117.187 143.314C116.794 142.895 116.417 142.459 116.049 142.015C114.944 140.665 115.48 139.181 115.714 137.723C115.815 137.085 115.965 136.448 116.016 135.803C116.149 134.151 116.3 132.5 116.334 130.84C116.392 128.174 116.267 125.508 116.401 122.85C116.459 121.668 116.158 121.081 115.07 120.62C113.379 119.916 111.739 119.103 109.957 118.608C109.354 118.441 108.818 118.013 108.249 117.728C107.697 117.451 107.128 117.2 106.567 116.94C105.797 116.588 105.036 116.227 104.191 115.842C104.115 115.976 103.881 116.202 103.906 116.395C104.048 117.351 103.37 118.055 103.195 118.91C103.052 119.598 102.852 120.277 102.684 120.956C102.567 121.434 102.475 121.92 102.366 122.398C102.09 123.605 101.872 124.829 101.521 126.019C101.111 127.394 101.069 128.895 99.9643 130.035C99.5878 130.421 99.4873 131.058 99.0689 131.527C97.9642 132.776 95.9892 132.5 94.8594 131.921C94.7757 131.879 94.7172 131.779 94.6418 131.754C94.1899 131.653 93.6041 131.703 93.7129 130.965C93.7799 130.513 93.8803 130.068 93.9807 129.616C94.0728 129.205 94.1899 128.794 94.282 128.375C94.3908 127.872 94.4494 127.352 94.5665 126.849C94.9431 125.223 95.3532 123.605 95.7047 121.97C95.9474 120.83 96.098 119.665 96.3323 118.525C96.5834 117.284 96.893 116.051 97.1441 114.811C97.2194 114.459 97.1608 114.081 97.211 113.721C97.3366 112.857 97.5123 112.002 97.6378 111.139C97.7132 110.653 97.7299 110.158 97.7717 109.672C97.8722 108.448 97.9475 107.224 98.0814 106C98.232 104.658 98.4329 103.317 98.6421 101.976C98.6923 101.657 98.8764 101.364 98.935 101.054C99.1442 99.8295 99.3283 98.6056 99.5124 97.3816C99.7133 96.0738 99.797 94.7324 100.165 93.4749C100.4 92.6869 100.425 91.8569 100.835 91.0689C101.27 90.2305 101.354 89.1659 101.395 88.185C101.421 87.4473 101.546 86.785 101.805 86.1143C101.956 85.7203 102.015 85.2927 102.107 84.8736C102.232 84.3119 102.349 83.7418 102.467 83.1717C102.55 82.7861 102.617 82.3921 102.709 81.998C102.852 81.3693 103.011 80.7405 103.161 80.1118C103.195 79.9693 103.245 79.8351 103.27 79.6926C103.421 78.6363 103.488 77.5968 104.006 76.5991C104.333 75.9788 104.266 75.1656 104.442 74.453C104.776 73.1368 105.178 71.8374 105.521 70.5212C105.663 69.993 105.697 69.4397 105.831 68.9032C106.149 67.6373 106.484 66.3798 106.835 65.1223C107.069 64.2923 107.354 63.4791 107.622 62.6659C107.881 61.8863 108.191 61.115 108.442 60.3353C108.86 59.0191 109.245 57.6862 109.655 56.3616C109.714 56.1688 109.856 56.0011 109.948 55.8167C110.743 54.1903 111.505 52.5472 112.342 50.9459C113.087 49.5291 113.923 48.171 114.71 46.7794C115.555 45.2787 116.325 43.7362 117.237 42.2859C118.175 40.7852 119.497 39.6367 120.945 38.6056C121.79 38.002 122.627 37.9517 123.573 37.9936C124.326 38.0271 125.104 37.784 125.849 37.8511C126.602 37.9181 127.38 38.1361 128.075 38.4379C129.782 39.184 130.786 40.5924 131.406 42.3026C132.117 44.256 132.058 46.2764 131.966 48.2968C131.916 49.3447 131.816 50.401 131.715 51.4489C131.548 53.2597 131.355 55.0622 131.18 56.873C131.171 56.9904 131.18 57.1161 131.163 57.2335C130.97 58.9605 130.728 60.6874 130.611 62.4228C130.51 63.9402 130.56 65.4744 130.552 67.0001C130.552 68.5511 130.611 70.102 130.535 71.6529C130.493 72.5667 130.226 73.4721 130.083 74.3859C130.016 74.7883 130.016 75.2075 129.949 75.6099C129.832 76.2806 129.673 76.9429 129.531 77.6051C129.481 77.8399 129.447 78.0746 129.414 78.3094C129.23 79.5501 129.004 80.7824 128.862 82.0232C128.778 82.7693 128.878 83.5322 128.803 84.2699C128.644 85.6867 128.418 87.1035 128.209 88.5119C128.15 88.9311 128.058 89.3419 127.974 89.7611C127.874 90.2725 127.723 90.7839 127.682 91.3036C127.548 92.9552 127.439 94.6067 127.347 96.2666C127.238 98.3121 127.163 100.358 127.054 102.395C126.987 103.594 126.962 104.801 126.769 105.975C126.493 107.651 126.033 109.294 125.715 110.963C125.531 111.918 125.481 112.891 125.347 113.855C125.179 115.045 124.937 116.227 124.811 117.418C124.719 118.223 124.786 119.036 124.744 119.849C124.719 120.335 124.619 120.822 124.568 121.308C124.552 121.459 124.61 121.618 124.635 121.769C124.669 121.953 124.744 122.138 124.727 122.314C124.652 123.144 124.577 123.965 124.468 124.795C124.418 125.181 124.292 125.558 124.234 125.952C124.209 126.128 124.259 126.313 124.301 126.497C124.334 126.631 124.476 126.774 124.451 126.874C124.125 127.998 124.619 129.13 124.426 130.261C124.342 130.756 124.46 131.292 124.468 131.804C124.468 132.483 124.275 133.137 124.409 133.849C124.501 134.386 124.234 134.973 124.158 135.551C124.058 136.281 124.008 137.018 123.907 137.748C123.74 138.938 123.539 140.12 123.388 141.311C123.321 141.839 123.238 142.392 123.347 142.903C123.539 143.826 122.861 144.597 122.393 144.656C121.748 144.739 121.12 145.083 120.535 145.024C119.748 144.949 118.995 144.513 118.225 144.236C118.116 144.195 117.999 144.194 117.882 144.178C117.924 144.111 117.974 144.035 118.016 143.968L117.982 143.985ZM124.409 46.2177C124.359 46.2093 124.309 46.1925 124.259 46.1842C124.133 46.444 124.05 46.7291 123.882 46.9638C123.43 47.5758 123.321 48.3638 122.736 48.9423C122.058 49.6214 121.514 50.4681 121.003 51.298C120.392 52.2873 119.89 53.3436 119.33 54.3664C119.129 54.7268 118.878 55.0622 118.685 55.431C117.915 56.8395 117.388 58.3401 116.911 59.8742C116.601 60.8635 116.191 61.8276 115.84 62.8084C115.405 64.0408 114.978 65.2732 114.559 66.5139C114.384 67.0253 114.25 67.5451 114.091 68.0648C113.789 69.0289 113.446 69.9846 113.17 70.9571C112.651 72.7512 112.149 74.5452 111.672 76.3476C111.371 77.471 111.095 78.6111 110.835 79.7513C110.609 80.7322 110.417 81.7298 110.199 82.7106C110.149 82.9286 110.04 83.1382 109.982 83.3562C109.831 83.943 109.689 84.5298 109.538 85.1167C109.488 85.3179 109.362 85.5358 109.396 85.7203C109.63 86.852 108.902 87.7742 108.743 88.8221C108.576 89.8952 108.182 90.9264 107.931 91.9911C107.772 92.6534 107.906 93.4665 107.563 93.9863C106.802 95.16 107.203 96.5097 106.793 97.7253C106.525 98.5217 106.601 99.4271 106.425 100.257C106.157 101.54 105.797 102.797 105.881 104.13C105.881 104.248 105.881 104.382 105.839 104.491C105.404 105.715 105.237 106.989 105.312 108.28C105.329 108.54 105.58 108.875 105.814 109.009C106.392 109.328 107.028 109.571 107.647 109.814C108.818 110.258 109.998 110.686 111.178 111.105C111.957 111.382 112.752 111.617 113.513 111.935C114.585 112.388 115.631 112.916 116.702 113.385C116.995 113.511 117.17 113.402 117.229 113.033C117.388 111.994 117.614 110.963 117.773 109.923C117.999 108.456 118.191 106.981 118.392 105.505C118.409 105.363 118.443 105.22 118.476 105.086C118.635 104.482 118.861 103.887 118.961 103.275C119.104 102.378 119.171 101.473 119.238 100.576C119.355 98.9409 119.463 97.2978 119.556 95.663C119.597 94.8246 119.463 93.9528 119.639 93.148C119.84 92.2593 120.066 91.4126 119.899 90.5072C119.874 90.3731 119.982 90.2054 120.033 90.0545C120.141 89.7192 120.334 89.3922 120.351 89.0569C120.392 88.1515 120.292 87.2377 120.384 86.349C120.535 84.8065 120.777 83.2723 120.978 81.7382C121.095 80.816 121.213 79.8854 121.33 78.9633C121.43 78.2004 121.514 77.4459 121.631 76.683C121.798 75.6015 121.982 74.5284 122.158 73.4554C122.183 73.2877 122.175 73.12 122.208 72.9524C122.476 71.72 122.828 70.5044 122.987 69.2637C123.179 67.7798 123.313 66.2624 123.263 64.7702C123.171 61.7941 123.514 58.8599 123.891 55.9173C123.949 55.4897 123.891 55.0454 123.949 54.6262C124.1 53.6454 124.393 52.6813 124.443 51.7004C124.535 50.0321 124.493 48.3555 124.493 46.6872C124.493 46.5363 124.434 46.3854 124.401 46.2428L124.409 46.2177Z" fill="black"/>
<path d="M180.43 50.7196C179.099 50.8537 177.994 50.8872 176.931 51.0968C176.053 51.2729 174.772 50.5267 174.446 49.8225C174.086 49.0345 173.793 48.2129 173.492 47.4081C173.392 47.1482 173.274 46.88 173.274 46.6117C173.266 45.2117 173.065 43.7613 173.869 42.5038C174.069 42.1853 174.571 41.8835 174.94 41.8751C177.308 41.8248 179.676 41.8332 182.045 41.8751C184.639 41.9338 187.233 42.0763 189.828 42.135C191.66 42.1769 193.502 42.1098 195.334 42.1433C196.096 42.1601 196.866 42.2859 197.619 42.4116C197.82 42.4451 198.063 42.6044 198.171 42.7805C198.623 43.5098 199.025 44.2643 199.468 45.0021C199.544 45.1362 199.711 45.2452 199.853 45.3039C200.607 45.5722 200.59 46.1758 200.623 46.8297C200.657 47.5171 200.841 48.1878 200.95 48.8668C200.975 49.0345 201.042 49.2525 200.975 49.3782C200.121 50.9291 198.757 51.3819 196.958 50.9291C196.221 50.7447 195.41 50.8621 194.631 50.8956C193.326 50.9459 192.02 51.0717 190.715 51.0968C189.736 51.1136 189.694 51.122 189.526 52.0777C189.267 53.528 188.924 54.9616 188.715 56.4119C188.589 57.2502 188.673 58.1137 188.623 58.9688C188.572 59.7485 188.413 60.5281 188.405 61.3078C188.372 66.1283 188.388 70.9571 188.355 75.7775C188.355 76.8255 188.146 77.865 188.104 78.9129C188.087 79.3908 188.355 79.877 188.313 80.3465C188.213 81.5118 187.995 82.6687 187.853 83.834C187.811 84.1945 187.886 84.5634 187.886 84.9322C187.869 85.9969 187.828 87.0616 187.819 88.1263C187.794 91.1527 187.978 94.2043 187.71 97.2055C187.468 99.9301 187.585 102.638 187.459 105.346C187.417 106.184 187.275 107.022 187.258 107.861C187.225 110.2 187.233 112.53 187.233 114.869C187.225 117.51 187.225 120.143 187.192 122.783C187.192 123.295 186.957 123.806 186.966 124.317C186.974 124.963 187.208 125.617 187.192 126.262C187.125 129.046 186.974 131.837 186.915 134.621C186.865 136.825 186.949 139.03 186.907 141.235C186.848 144.035 186.698 146.827 186.639 149.627C186.597 151.706 186.681 153.793 186.606 155.881C186.564 156.929 186.296 157.968 186.129 159.008C186.112 159.1 186.062 159.218 186.095 159.293C186.514 160.274 185.945 161.23 186.028 162.219C186.104 163.158 185.376 163.761 184.497 164.08C183.744 164.357 182.815 164.164 182.212 164.86C182.187 164.885 182.12 164.893 182.07 164.885C181.275 164.7 180.48 164.524 179.693 164.323C178.965 164.139 178.254 163.895 177.509 163.77C176.873 163.661 176.706 163.468 176.948 162.839C176.982 162.755 177.015 162.655 177.015 162.563C177.015 161.682 176.957 160.794 177.04 159.922C177.166 158.606 177.484 157.298 177.567 155.982C177.668 154.389 177.618 152.787 177.626 151.186C177.626 150.239 177.526 149.283 177.66 148.353C178.178 144.765 177.743 141.16 177.969 137.572C178.036 136.574 177.919 135.593 177.961 134.612C178.003 133.581 178.153 132.558 178.145 131.527C178.12 128.367 178.27 125.206 178.212 122.054C178.178 119.899 178.195 117.736 178.237 115.582C178.254 114.568 178.463 113.553 178.463 112.539C178.455 109.588 178.547 106.628 178.563 103.678C178.563 102.747 178.522 101.825 178.547 100.894C178.622 97.8175 178.731 94.7408 178.806 91.6641C178.831 90.7419 178.781 89.8197 178.806 88.906C178.823 88.403 179.099 87.8664 178.99 87.4053C178.781 86.5586 178.973 85.846 179.275 85.0831C179.384 84.8149 179.091 84.4124 179.107 84.0687C179.158 83.0124 179.308 81.9645 179.342 80.9166C179.392 79.4159 179.384 77.9153 179.384 76.4147C179.384 71.6864 179.35 66.9666 179.4 62.2384C179.425 60.0587 179.584 57.8874 179.71 55.7077C179.76 54.7771 179.852 53.8466 179.978 52.9244C180.07 52.2705 180.254 51.6334 180.455 50.7279L180.43 50.7196Z" fill="black"/>
<path d="M61.9788 108.263C62.347 108.054 62.7989 107.886 63.1337 107.584C64.3555 106.511 65.2761 105.161 65.9372 103.728C66.5063 102.504 66.7322 101.104 66.9833 99.7541C67.3264 97.9349 67.5607 96.0905 67.8034 94.2462C67.9541 93.0976 68.021 91.9324 68.1466 90.7754C68.3307 89.1742 68.5566 87.5898 68.7156 85.9885C68.8495 84.6975 68.883 83.3897 69.0169 82.0986C69.1592 80.707 69.3851 79.3237 69.519 77.9405C69.5943 77.1692 69.5274 76.3895 69.5692 75.6183C69.6697 73.732 69.7617 71.8457 69.9207 69.9595C69.9877 69.2133 69.9877 68.484 69.9709 67.7379C69.9375 65.8851 70.2471 64.0324 70.4145 62.1797C70.4229 62.0791 70.4396 61.9869 70.4396 61.8863C70.5316 59.212 70.5902 56.5376 70.7409 53.8633C70.8246 52.3543 71.176 50.8621 71.243 49.3531C71.3434 47.274 71.2681 45.1865 71.3267 43.1074C71.3602 41.9924 71.4522 40.8775 71.6447 39.7876C71.7033 39.469 72.1384 39.075 72.4732 38.9744C73.1929 38.7732 73.9796 38.8151 74.6993 38.6139C75.5529 38.3876 76.2642 38.7816 76.9839 39.0331C77.6953 39.2762 78.4066 39.6786 78.9422 40.19C79.277 40.517 79.3774 41.1709 79.4276 41.6906C79.5029 42.3865 79.4527 43.0907 79.4025 43.7949C79.3355 44.8177 79.3858 45.8907 79.0845 46.8548C78.7414 47.9614 78.8753 49.0345 78.8083 50.1243C78.7246 51.4405 78.5907 52.7483 78.4987 54.0645C78.3982 55.4981 78.3397 56.9317 78.2141 58.3568C78.0719 59.9245 77.8459 61.4922 77.712 63.0599C77.5614 64.8624 77.4107 66.6648 77.3605 68.4756C77.3019 70.5128 77.4275 72.5499 77.3522 74.5787C77.3019 75.9704 76.9756 77.3536 76.8835 78.7453C76.7831 80.1621 76.85 81.5872 76.7831 83.0124C76.7161 84.3789 76.5906 85.737 76.4734 87.0951C76.4065 87.9251 76.3144 88.7467 76.2056 89.5682C76.0717 90.591 75.896 91.6138 75.7454 92.645C75.7035 92.9048 75.6952 93.1647 75.6617 93.4246C75.4692 95.0007 75.2683 96.5768 75.0926 98.1528C75.0424 98.6055 75.0926 99.0834 75.0257 99.5277C74.9169 100.198 74.7327 100.852 74.5821 101.506C74.557 101.624 74.4984 101.733 74.4817 101.85C74.239 104.113 73.2431 106.042 71.9794 107.894C70.7911 109.638 69.109 110.72 67.3348 111.675C66.1464 112.312 64.8995 112.866 63.6191 113.276C62.6985 113.57 61.7445 113.276 60.7737 113.05C59.192 112.69 58.33 111.399 57.058 110.669C55.6353 109.856 54.7566 108.515 53.995 107.182C53.3507 106.05 52.8151 104.792 52.6393 103.409C52.4636 102.043 52.2544 100.676 52.0535 99.3097C51.7355 97.1636 52.3046 95.0761 52.1372 92.9551C52.02 91.488 52.1456 90.0042 52.179 88.5203C52.2627 84.3454 52.3548 80.1705 52.4468 75.9955C52.5305 72.4661 52.6142 68.9367 52.7314 65.4073C52.7732 64.0408 52.9155 62.6743 53.0075 61.3078C53.0912 60.0922 53.1749 58.8766 53.2753 57.661C53.3507 56.7556 53.5264 55.867 53.5515 54.9616C53.6687 51.231 53.7691 47.5003 53.8444 43.7697C53.8779 42.4116 53.8528 41.0535 53.8444 39.6954C53.8444 39.1756 53.8611 38.6978 54.2545 38.2535C54.4135 38.069 54.2294 37.5912 54.2126 37.2642C55.1248 36.7947 56.0454 37.1217 56.9492 37.2558C57.7526 37.3732 58.6397 37.4906 59.3092 37.9013C60.3051 38.5133 60.8658 39.4942 60.8072 40.7769C60.7486 42.1014 60.8072 43.426 60.8156 44.759C60.8156 45.9829 60.598 47.2656 60.8658 48.4309C61.1587 49.7052 61.1001 50.9459 61.0582 52.1867C61.008 53.4861 60.7319 54.7771 60.5645 56.0682C60.5394 56.2442 60.6482 56.437 60.6482 56.6215C60.6482 57.5269 60.6398 58.4239 60.6147 59.3293C60.6063 59.7569 60.5645 60.1928 60.5394 60.6204C60.3971 62.9258 60.1963 65.2396 60.1209 67.5451C60.0122 70.8062 59.9703 74.0757 59.9285 77.3369C59.9034 79.592 59.9452 81.8387 59.9452 84.0939C59.9452 89.6269 59.9034 95.16 59.9452 100.693C59.9536 101.783 60.372 102.864 60.4724 103.963C60.5478 104.843 60.6398 105.673 61.0917 106.461C61.3763 106.955 61.5771 107.492 61.9286 108.255L61.9788 108.263Z" fill="black"/>
<path d="M32.2196 60.2515C32.0857 62.4731 31.684 64.6444 31.91 66.757C32.1192 68.6768 32.0523 70.5799 32.1108 72.4829C32.1276 73.0865 31.8514 73.7069 31.8682 74.3105C31.9184 76.1967 32.1108 78.083 32.1108 79.9693C32.1108 80.9166 31.8263 81.8555 31.6589 82.8029C31.6338 82.9454 31.5669 83.0711 31.5501 83.2136C31.3828 84.7059 31.1987 86.1981 31.0564 87.6988C31.0062 88.1934 31.0815 88.6964 31.0564 89.1994C31.0313 89.7527 31.0397 90.3228 30.8806 90.8425C30.8221 91.0521 30.3785 91.1946 30.0856 91.2617C29.6504 91.3539 29.1902 91.3539 28.6211 91.3958C28.6378 91.4294 28.5625 91.2952 28.4872 91.1527C28.1859 91.5551 27.8763 91.8318 27.3993 91.3539C27.2905 91.2449 27.0227 91.2449 26.8469 91.2785C26.1607 91.4042 25.8176 90.9599 25.4661 90.5156C25.3573 90.3731 25.1983 90.1299 25.0979 90.1467C24.3112 90.2976 24.0769 89.5599 23.5831 89.2497C23.4911 89.191 23.4492 88.9646 23.4576 88.8221C23.5329 86.7263 23.4827 84.6221 23.7589 82.5514C23.8844 81.5789 23.9932 80.4387 24.3949 79.6507C24.9305 78.6028 24.7045 77.6303 24.8719 76.6411C24.9556 76.1884 25.0225 75.7273 25.0979 75.2746C25.1146 75.1823 25.1481 75.0817 25.1313 74.9895C24.8552 73.4889 25.1732 71.9967 25.1815 70.496C25.2067 67.478 25.2903 64.46 25.4828 61.4503C25.5832 59.8994 25.9682 58.3652 26.2276 56.8311C26.2276 56.8059 26.2444 56.7808 26.2444 56.764C26.0017 54.9197 26.7967 53.1675 26.6628 51.3148C26.5791 50.1076 26.9641 48.8752 27.1064 47.6513C27.1649 47.1734 27.1147 46.6872 27.1398 46.2009C27.2486 43.8871 27.349 41.5817 27.4829 39.2679C27.5164 38.6894 27.6503 38.1193 27.734 37.5409C27.734 37.5157 27.7424 37.4906 27.734 37.4654C27.2403 36.4091 28.119 36.3588 28.7215 36.1157C28.8303 36.0738 29.0228 36.0319 29.0646 36.0822C29.5082 36.6019 29.9768 36.1492 30.253 35.9816C31.5167 35.1935 32.8389 34.7911 34.3202 34.5145C35.701 34.263 37.04 34.2965 38.3874 34.3636C39.2996 34.4055 40.2034 34.833 41.0905 35.16C42.2705 35.5959 43.4839 35.9816 44.438 36.8618C44.756 37.1552 45.1326 37.4151 45.3502 37.7756C46.0364 38.899 46.9402 39.8966 46.9821 41.3637C47.0072 42.3865 47.3419 43.4009 47.4591 44.4236C47.5093 44.8512 47.3754 45.3123 47.2415 45.7315C46.9737 46.5866 46.7226 47.4584 46.3209 48.2465C45.1995 50.4429 44.0363 52.6142 42.8144 54.7604C42.3458 55.5903 41.7014 56.3197 41.0905 57.0574C40.9398 57.2335 40.6051 57.267 40.4461 57.4179C39.8101 58.097 39.1741 58.7676 38.5129 59.4635C39.1071 60.6707 39.4753 61.9366 39.7348 63.2695C39.9189 64.2085 40.513 65.0803 40.965 65.9606C41.6596 67.3271 42.4881 68.6265 43.0655 70.0433C43.4672 71.0242 43.509 72.1476 43.7685 73.1871C43.9275 73.8159 44.2204 74.4027 44.4045 75.0231C44.5886 75.6434 44.7309 76.2722 44.8731 76.9093C45.0573 77.7141 45.2246 78.5189 45.3836 79.3321C45.5175 79.986 45.6263 80.6399 45.7519 81.2938C45.9527 82.4005 46.1619 83.5071 46.3544 84.6137C46.5553 85.7957 46.6975 86.9946 46.9486 88.1682C47.1411 89.0736 47.4842 89.9539 47.7185 90.8509C47.8692 91.421 47.9277 92.0162 48.0533 92.5947C48.137 93.0055 48.2792 93.4079 48.3629 93.8186C48.5805 94.8498 48.7646 95.8893 48.9822 96.9205C49.0659 97.3313 49.1412 97.7588 49.3169 98.1277C49.6601 98.8487 49.7772 99.6032 49.568 100.358C49.4843 100.66 49.1496 101.045 48.8818 101.095C48.1453 101.23 47.3838 101.221 46.639 101.221C46.413 101.221 46.187 101.028 45.9611 100.928C45.7184 100.819 45.4506 100.743 45.2246 100.609C44.8229 100.366 44.3878 100.14 44.0614 99.8044C43.3752 99.1086 42.4546 98.5888 42.1952 97.5493C42.0864 97.1049 42.0696 96.6355 41.9776 96.1828C41.6847 94.7157 41.4252 93.2402 41.0654 91.7899C40.7808 90.6497 40.2536 89.5599 40.0862 88.4113C39.9774 87.6904 39.5506 86.9526 39.9105 86.1814C39.944 86.1059 39.944 85.9634 39.9021 85.8963C39.0402 84.8065 39.6092 83.4819 39.3163 82.3082C38.9732 80.925 39.0234 79.4495 38.287 78.1668C38.1865 77.9992 38.2702 77.7393 38.2284 77.5297C38.061 76.7584 37.8685 75.9955 37.7012 75.2243C37.6509 74.9895 37.6426 74.7464 37.6509 74.5033C37.6677 73.7153 37.4836 72.9859 37.1405 72.2649C36.9229 71.8122 36.9312 71.2505 36.7806 70.7559C36.4877 69.7834 36.2115 68.8026 35.8433 67.8553C35.4416 66.8325 34.9562 65.8349 34.4792 64.8372C34.3118 64.4935 34.0105 64.2169 33.8515 63.8731C33.4666 63.0683 33.0816 62.2635 32.7971 61.4252C32.4456 60.4276 32.4874 60.4108 32.2447 60.2599L32.2196 60.2515ZM33.1486 55.255C33.2323 55.1293 33.2574 55.0203 33.3327 54.9783C35.2491 53.7376 36.2283 51.6837 37.5254 49.9232C38.2619 48.9255 38.605 47.6261 39.0736 46.444C39.2828 45.9075 39.308 45.2955 39.559 44.7841C40.1113 43.6272 40.6218 42.4535 40.4963 41.1457C40.421 40.3409 40.1365 39.5445 39.9105 38.7565C39.877 38.6391 39.6594 38.4882 39.5172 38.4882C38.4878 38.4714 37.4166 38.4379 36.4961 38.9661C35.7512 39.3936 35.0064 39.7289 34.1612 39.8379C33.9687 39.8631 33.7176 40.0643 33.6005 39.9972C33.0733 39.7038 33.023 40.014 33.0063 40.3996C32.9896 40.6846 32.9477 40.9781 32.9812 41.2631C33.0481 41.8667 33.2406 42.4619 33.2323 43.0572C33.2323 43.7111 32.9812 44.3566 32.9728 45.0105C32.9477 46.9219 33.0314 48.8249 32.9979 50.7363C32.9812 51.8094 32.7887 52.8741 32.7552 53.9472C32.7385 54.3664 32.4707 54.928 33.1486 55.2634V55.255Z" fill="black"/>
<path d="M95.3199 52.4885C96.4413 51.8513 97.0941 50.8034 97.7385 49.7471C98.1318 49.1099 98.6423 48.5399 99.0774 47.9279C99.5043 47.3159 99.8809 46.6704 100.316 46.0668C100.651 45.5973 101.027 45.153 101.396 44.7003C101.797 44.2224 102.232 43.7697 102.609 43.2667C103.597 41.9589 104.567 40.6259 105.555 39.3181C105.672 39.1588 105.864 38.9912 106.04 38.9576C106.793 38.8319 107.572 38.6055 108.317 38.6894C109.245 38.79 110.183 38.8822 111.087 39.3433C112.024 39.8211 112.359 40.6343 112.744 41.4307C112.877 41.7074 112.693 42.2356 112.509 42.5541C111.882 43.6356 111.204 44.6835 110.509 45.7231C109.932 46.5782 109.321 47.4081 108.693 48.2213C108.015 49.0932 107.379 50.0321 106.576 50.7615C105.237 51.9771 104.693 53.746 103.412 55.0035C102.584 55.8167 101.889 56.7808 101.245 57.7532C100.852 58.3485 100.609 59.061 100.391 59.7485C100.015 60.9222 99.7051 62.1126 99.3704 63.303C99.2113 63.8647 99.0523 64.418 98.9352 64.9881C98.7092 66.0612 98.5251 67.1426 98.2992 68.2157C97.9728 69.7583 97.6129 71.3008 97.2949 72.8517C97.2531 73.0697 97.4539 73.338 97.4204 73.5727C97.2782 74.6793 97.0857 75.7692 96.9267 76.8758C96.9016 77.0434 96.9267 77.2195 96.8848 77.3788C96.6338 78.5273 96.366 79.6758 96.1233 80.8327C95.9727 81.5621 95.8722 82.2998 95.7049 83.0208C95.4705 84.0687 95.1944 85.1083 94.9433 86.1562C94.9015 86.3406 94.8847 86.5334 94.8596 86.7263C94.6755 87.858 94.483 88.9814 94.3073 90.1132C94.2654 90.3982 94.2571 90.6916 94.2738 90.985C94.3324 92.4773 94.1399 93.9276 93.7466 95.3695C93.6713 95.663 93.7633 95.9983 93.7131 96.3001C93.5374 97.348 93.3114 98.3876 93.1357 99.4439C93.0018 100.232 92.9013 101.02 92.8176 101.808C92.7005 102.923 92.6335 104.038 92.4996 105.153C92.4494 105.581 92.2486 106 92.1565 106.427C92.0979 106.696 92.1398 106.981 92.123 107.257C92.0896 107.727 92.031 108.188 92.0059 108.657C91.9724 109.311 92.0059 109.965 91.9306 110.619C91.7967 111.742 91.5874 112.857 91.4201 113.972C91.3866 114.207 91.395 114.459 91.3782 114.693C91.1941 116.672 90.9933 118.642 90.8175 120.62C90.7589 121.266 90.7422 121.92 90.7506 122.574C90.7506 123.27 90.7924 123.957 90.2903 124.544C90.1899 124.653 90.1815 124.963 90.2652 125.097C90.4828 125.449 90.215 125.676 90.1564 125.969C89.9221 127.101 88.8425 126.631 88.2483 127.059C87.6123 127.512 86.9512 127.461 86.2649 127.042C85.4197 126.522 84.4322 126.195 83.679 125.575C83.135 125.131 82.2647 124.745 82.3735 123.798C82.4906 122.75 82.6915 121.702 82.8254 120.654C82.8505 120.461 82.7082 120.243 82.7584 120.067C82.8003 119.916 83.0095 119.807 83.135 119.681C83.0681 119.539 82.9509 119.396 82.9509 119.254C82.9174 117.921 82.9509 116.596 83.4279 115.305C83.5869 114.869 83.5451 114.341 83.5116 113.863C83.4447 112.866 83.6874 111.935 84.0389 111.013C84.0723 110.921 84.0807 110.82 84.0891 110.728C84.2062 109.345 84.2899 107.961 84.4406 106.587C84.5745 105.346 84.7753 104.105 84.9427 102.864C84.9594 102.747 84.9594 102.621 84.9678 102.504C85.0682 101.263 85.0598 99.9972 85.3109 98.79C85.6624 97.1133 85.813 95.445 85.8967 93.7432C85.9553 92.4605 86.2482 91.1862 86.449 89.912C86.6332 88.7215 86.7922 87.5143 87.0432 86.3406C87.3612 84.8316 87.788 83.3478 88.1312 81.8387C88.2902 81.1429 88.3404 80.4303 88.4994 79.7345C88.8341 78.2842 89.2107 76.8506 89.5622 75.4087C89.6794 74.9057 89.7965 74.4027 89.8719 73.8997C90.0894 72.4745 90.2819 71.0409 90.4911 69.6074C90.7757 67.6708 90.8761 65.7091 91.5958 63.848C91.9389 62.9426 92.0394 61.9449 92.2235 60.9808C92.349 60.3102 92.4494 59.6227 92.5164 58.9437C92.5331 58.7257 92.4327 58.4826 92.3239 58.2814C91.6125 56.9233 90.9347 55.54 90.148 54.2154C89.286 52.7651 88.2985 51.3818 87.4114 49.9399C86.4658 48.4141 85.5703 46.8548 84.6581 45.3123C84.3903 44.8596 84.0891 44.432 83.8464 43.9709C83.3275 42.9649 82.8505 41.9421 82.3316 40.9361C82.2228 40.7265 81.9467 40.6008 81.8379 40.3828C81.6789 40.081 81.4864 39.7205 81.5115 39.4103C81.5366 39.1505 81.8295 39.1002 82.2061 39.1421C82.9007 39.2343 83.6288 39.1505 84.3318 39.0415C84.8339 38.9576 85.2021 38.9996 85.6205 39.3517C86.0306 39.6954 86.6332 39.8044 87.0683 40.1229C87.4784 40.4247 87.8634 40.8104 88.1228 41.2463C88.7839 42.3613 89.3363 43.5434 89.989 44.6667C90.8259 46.1087 91.6711 47.559 92.6084 48.9423C93.4369 50.1579 94.391 51.2896 95.3115 52.4968L95.3199 52.4885Z" fill="black"/>
<path d="M12.7121 33.6761C15.3232 33.6761 17.2563 34.1624 19.1142 35.2773C20.2858 35.9816 21.2566 36.7444 21.7587 37.9936C22.0181 38.6307 22.1771 39.3517 22.219 40.0391C22.2943 41.3302 22.378 42.6464 22.2023 43.9123C22.0265 45.1781 22.0098 46.486 21.4574 47.7099C21.1059 48.498 21.0223 49.4034 20.7628 50.2417C20.6875 50.4848 20.4448 50.7615 20.2105 50.8621C19.767 51.0381 19.8423 51.2729 20.085 51.4992C21.1227 52.4885 21.6667 53.7711 22.1688 55.0622C22.3947 55.6322 22.4617 56.2778 22.5203 56.9065C22.6542 58.382 22.8048 59.8575 22.8048 61.3413C22.8048 62.8671 22.7127 64.4097 22.5119 65.9187C22.3864 66.8828 21.9679 67.8049 21.7169 68.7523C21.5579 69.3559 21.4072 69.9762 21.3905 70.5966C21.3654 71.4014 21.198 72.1308 20.88 72.8685C20.3946 74.0254 20.1101 75.2829 19.541 76.3812C18.9468 77.5297 18.1769 78.6028 17.34 79.592C16.5534 80.5226 15.6663 81.3777 14.4193 81.7801C13.2728 82.1489 12.2016 82.7358 10.9296 82.61C10.1011 82.5262 9.23073 82.719 8.42733 82.5513C7.56535 82.3669 6.74522 81.9394 5.93345 81.5621C5.06311 81.1597 4.22623 80.707 3.38099 80.2711C3.18014 80.1621 2.98766 80.0279 2.82029 79.877C2.68639 79.7597 2.56923 79.4579 2.47717 79.4663C1.67377 79.5669 1.33902 78.9129 0.853639 78.5022C0.703002 78.3764 0.477046 78.259 0.426834 78.0914C0.209247 77.3956 -0.209189 76.6997 0.175772 75.9368C0.435203 75.4255 0.133929 74.9224 0.19251 74.4027C0.284566 73.6398 0.251091 72.8601 0.19251 72.0889C0.12556 71.0493 0.326409 70.0768 0.71137 69.1295C0.719739 69.1044 0.728108 69.0792 0.728108 69.0625C0.937326 67.5367 1.13818 66.0109 1.3725 64.4851C1.51477 63.5126 1.71562 62.5402 1.86625 61.5677C1.91647 61.2324 1.88299 60.8886 1.91647 60.5533C2.10895 58.5581 2.32653 56.5712 2.50228 54.5759C2.63618 53.0585 2.68639 51.5328 2.83703 50.0154C2.92908 49.0848 3.1383 48.171 3.28057 47.2488C3.32241 46.989 3.30567 46.7207 3.34752 46.4608C3.53163 45.2536 3.8329 44.0464 3.88312 42.8308C3.91659 42.0176 4.31829 41.2212 3.98354 40.3828C3.88312 40.1397 3.88312 39.7373 4.01702 39.5361C4.87899 38.3205 5.38112 36.9205 6.6448 35.9061C7.6323 35.1097 8.67003 34.4977 9.78307 34.1037C10.8459 33.7264 12.0677 33.7767 12.7289 33.6929L12.7121 33.6761ZM9.22236 78.4602C9.85002 77.9656 10.4777 77.6387 10.8794 77.1273C11.3899 76.4818 11.7497 75.7021 12.1012 74.9476C12.528 74.017 12.9297 73.0613 13.2477 72.0889C13.4486 71.4685 13.4569 70.7894 13.5825 70.1439C13.7582 69.1966 13.9507 68.2576 14.1264 67.3187C14.1683 67.1091 14.1515 66.8828 14.2018 66.6732C14.3524 65.9774 14.6369 65.2815 14.662 64.5773C14.7374 62.7665 14.7876 60.9473 14.6871 59.1365C14.6035 57.5353 14.3273 55.9424 14.0762 54.358C14.0427 54.1484 13.7164 53.8885 13.4737 53.813C12.8962 53.637 12.2853 53.6035 11.7079 53.4358C11.2476 53.3017 10.8208 53.0585 10.3772 52.8825C10.2768 52.8406 10.1011 52.8154 10.0425 52.8741C9.94207 52.9663 9.85839 53.1256 9.84165 53.2681C9.82491 53.419 9.9337 53.5867 9.9086 53.7292C9.7747 54.6598 9.59059 55.5736 9.49016 56.5041C9.35626 57.7197 9.28931 58.9353 9.19726 60.1593C9.17215 60.5198 9.20562 60.8886 9.16378 61.2491C9.00478 62.4731 8.73698 63.6803 8.66166 64.9127C8.53613 66.8576 8.65329 68.7942 8.10932 70.7391C7.68252 72.2817 7.74947 73.9751 7.73273 75.6099C7.72436 76.792 8.34365 77.7393 9.2391 78.4602H9.22236ZM14.4026 38.069C13.2477 38.1193 12.3857 38.4966 11.7916 39.3936C11.5656 39.7373 11.2392 40.0894 11.2141 40.4583C11.1053 42.0763 11.2476 43.6775 10.7036 45.3123C10.2936 46.553 10.4777 48.0033 10.4024 49.3866C11.2057 49.4621 11.9589 49.3195 12.4192 48.5818C12.7623 48.0369 13.0552 47.4333 13.2226 46.8129C13.6578 45.2536 14.1264 43.6859 14.3608 42.0847C14.5449 40.8104 14.3942 39.4858 14.3942 38.069H14.4026Z" fill="black"/>
<path d="M156.462 28.3527C156.537 29.0233 156.169 29.0485 155.575 29.0988C154.704 29.1742 153.993 28.7886 153.374 28.3946C152.905 28.0928 152.721 27.3718 152.386 26.852C152.252 26.6424 152.06 26.4664 151.758 26.1311C151.599 25.2592 151.332 24.1777 151.231 23.0795C151.131 22.0735 151.047 21.0256 151.248 20.0531C151.482 18.8962 151.407 17.7477 151.499 16.5991C151.541 16.0123 151.708 15.4338 151.817 14.8554C151.742 14.8218 151.666 14.7799 151.591 14.7464C150.98 15.4758 150.386 16.2219 149.742 16.9177C149.465 17.2195 149.055 17.4123 148.762 17.7057C148.536 17.9321 148.436 18.2926 148.202 18.5022C147.666 18.9968 147.089 19.4579 146.511 19.9022C146.377 20.0112 146.168 20.0279 145.992 20.0615C145.85 20.0866 145.674 20.0196 145.566 20.0866C145.356 20.2208 145.13 20.598 144.996 20.5561C144.068 20.3046 143.08 20.1118 142.277 19.6255C141.8 19.3321 141.624 18.5357 141.314 17.9656C141.281 17.9069 141.314 17.7896 141.272 17.756C140.41 17.0937 140.042 16.1632 139.791 15.1404C139.624 14.4446 139.348 13.7739 139.113 13.0529C138.101 13.9416 137.331 15.065 136.653 16.2638C136.042 17.3453 135.406 18.4016 134.736 19.4495C134.134 20.3884 133.556 21.3693 132.82 22.1909C132.619 22.4172 132.176 22.5849 131.958 22.8531C131.322 22.7693 130.711 22.6855 130.192 22.6184C129.933 22.2915 129.749 21.998 129.498 21.7549C128.677 20.9501 128.803 20.8076 129.046 19.592C129.288 18.4016 130.443 17.7812 130.602 16.6159C131.607 16.4147 131.171 15.3249 131.707 14.8051C132.042 14.4781 132.226 14.0003 132.502 13.6063C133.205 12.6002 133.816 11.502 134.661 10.6301C135.624 9.63252 136.36 8.32471 137.791 7.83847C138.385 7.63727 138.971 7.27679 139.565 7.2684C140.201 7.2684 140.846 7.57859 141.457 7.81332C141.783 7.93907 142.059 8.42531 142.268 7.87201C142.494 8.09836 142.653 8.35824 142.879 8.46723C143.49 8.7355 143.465 9.3894 143.557 9.81696C143.783 10.8565 144.185 11.7871 144.729 12.6841C144.787 12.7847 144.812 12.902 144.871 13.0781C145.264 12.7679 145.624 12.4745 145.992 12.1811C147.474 10.9822 148.896 9.69959 150.461 8.60975C151.281 8.03968 152.194 7.33547 153.315 7.53667C154.462 7.74626 155.658 7.73787 156.688 8.50076C157.307 8.95347 157.625 9.57384 157.993 10.1774C158.094 10.3451 157.859 10.6972 157.859 10.9655C157.842 13.1452 157.859 15.3249 157.859 17.5045C157.859 18.2758 157.901 19.0555 157.859 19.8267C157.817 20.4471 157.6 21.0675 157.6 21.6795C157.6 22.5681 157.759 23.4568 157.792 24.3454C157.809 24.8065 157.625 25.2759 157.633 25.737C157.65 26.2484 157.909 26.7682 157.834 27.246C157.767 27.6736 157.416 28.0676 157.123 28.4281C157.047 28.5119 156.721 28.3862 156.462 28.3527Z" fill="black"/>
<path d="M57.6439 23.2555C57.9954 22.543 58.3218 21.5872 58.9076 20.8411C59.2758 20.3717 59.1754 19.6004 59.87 19.374C59.9202 19.3573 59.9704 19.2567 59.9704 19.198C59.9453 18.1417 60.8993 17.5045 61.1002 16.5488C61.368 15.241 62.2551 14.3105 63.0501 13.3212C63.4853 12.7763 63.9121 12.223 64.3807 11.7116C64.5397 11.5439 64.8075 11.4769 65.1925 11.284C65.2176 10.781 65.5775 10.5212 66.3139 10.7056C66.5148 10.7559 66.7658 10.5715 67.0001 10.5212C67.1759 10.4792 67.3767 10.4289 67.5441 10.4709C68.1383 10.6301 68.7074 10.8481 69.3015 10.999C69.7702 11.1164 70.4397 11.9463 70.4397 12.6673C70.4397 13.6146 71.059 14.2602 71.4272 15.0314C71.8707 15.9452 72.331 16.859 72.7913 17.7644C73.0173 18.2004 73.2767 18.6279 73.578 19.1561C73.6365 19.1309 73.8458 19.0974 73.9462 18.9716C74.7077 18.0159 75.4693 17.0602 76.1974 16.0794C76.7832 15.2829 77.3188 14.4362 77.8879 13.623C78.5406 12.6673 79.2352 11.7451 79.8545 10.7643C80.3483 9.99301 80.683 9.12113 81.227 8.39178C81.6287 7.83847 82.2312 7.43607 82.7585 6.98336C82.7836 6.9666 82.9342 7.14265 83.0263 7.14265C83.3861 7.14265 83.746 7.10912 84.1058 7.07558C84.1979 7.07558 84.2899 7.00851 84.382 7.0169C84.633 7.04205 84.8841 7.09235 85.1435 7.13427C85.3946 7.25163 85.6875 7.38577 85.9804 7.52829C86.5495 7.80494 87.2776 7.80494 87.6123 8.50076C87.6793 8.63489 87.9471 8.67681 88.2232 8.81095C88.1479 9.7918 88.0726 10.8146 87.9889 11.9631C87.6542 11.7703 87.5119 11.6948 87.4449 11.6529C87.2943 12.1559 87.1688 12.6422 87.0014 13.1032C86.9344 13.2793 86.742 13.5727 86.6332 13.556C85.6373 13.4218 85.6122 14.4278 85.1017 14.8554C84.7251 15.1656 84.4322 15.6015 84.156 16.0207C83.6288 16.8339 83.1183 17.6554 82.6664 18.5022C82.3233 19.1477 82.0973 19.8519 81.7877 20.5226C81.5952 20.9417 81.3944 21.3777 81.1014 21.7298C80.4487 22.543 79.7457 23.3142 78.9674 24.2113C78.9005 24.0352 78.8503 23.9011 78.7666 23.6747C77.9715 25.1418 76.507 25.3598 75.3354 25.9969C74.9421 26.2065 74.214 25.8796 73.6616 25.7286C72.2892 25.343 71.6783 24.1777 71.0255 23.0543C70.992 23.004 70.9334 22.9454 70.8749 22.9286C70.1803 22.6519 69.7786 22.0986 69.4354 21.4699C69.0254 20.7238 68.5149 20.0279 68.1132 19.2734C67.6027 18.301 67.1675 17.2949 66.6905 16.3057C66.5901 16.0877 66.4562 15.8865 66.3306 15.6686C65.6863 16.8674 65.0586 17.9992 64.4728 19.1393C64.1129 19.8435 63.9372 20.6902 63.4351 21.2603C62.8744 21.8974 62.7321 22.8448 61.8617 23.2555C61.6107 23.3729 61.4684 23.7753 61.3429 24.0687C61.0332 24.8065 60.414 24.8987 59.7277 24.9406C59.2758 24.9741 58.8323 25.1586 58.3804 25.234C58.1795 25.2676 57.8364 25.2676 57.7862 25.167C57.6272 24.84 57.5268 24.4711 57.4849 24.1023C57.4598 23.8591 57.577 23.6076 57.6523 23.2304L57.6439 23.2555Z" fill="black"/>
<path d="M170.078 10.0852C170.63 9.6912 171.074 9.34748 171.542 9.05406C172.396 8.51752 173.266 8.01452 174.137 7.50313C174.63 7.2181 175.132 6.73186 175.635 6.73186C176.413 6.73186 176.982 6.27916 177.576 6.01089C179.074 5.3486 180.455 6.43006 181.886 6.07795C181.961 6.06119 182.087 6.23724 182.187 6.32946C182.397 6.52227 182.572 6.83246 182.815 6.89953C184.028 7.25163 184.606 8.09835 184.865 9.26365C185.133 10.4625 184.74 11.4685 184.12 12.4661C183.535 13.405 183.116 14.453 182.522 15.3835C182.254 15.7943 182.079 16.2973 181.543 16.5824C181.116 16.8087 180.882 17.3955 180.522 17.7896C179.978 18.4016 179.426 19.0052 178.831 19.5668C177.643 20.6818 176.438 21.7801 175.225 22.8615C174.764 23.2723 174.271 23.6496 173.768 24.0017C173.668 24.0771 173.35 23.9011 173.291 23.9681C173.049 24.2783 172.747 24.6137 172.689 24.9741C172.521 25.9801 172.521 27.0113 172.346 28.0089C172.27 28.4449 172.103 28.9479 171.4 28.8976C171.141 28.8808 170.848 29.3251 170.572 29.3251C169.517 29.3251 168.538 29.0652 167.86 28.1514C167.835 28.1179 167.76 28.0928 167.76 28.0676C167.868 27.1203 167.099 26.5083 166.873 25.6867C166.856 25.6197 166.847 25.5442 166.856 25.4688C166.948 24.6304 166.99 23.7753 167.157 22.9537C167.383 21.822 167.726 20.7154 167.994 19.592C168.12 19.0806 168.212 18.5692 168.287 18.0495C168.404 17.2866 168.446 16.5153 168.605 15.7692C168.831 14.7129 169.14 13.6817 169.408 12.6338C169.45 12.4745 169.45 12.2984 169.458 12.1308C169.475 11.5942 169.392 11.0493 169.936 10.6469C170.086 10.5379 170.044 10.1607 170.061 10.0768L170.078 10.0852ZM176.99 12.0302C176.957 11.9463 176.915 11.8625 176.882 11.7787C176.07 12.2314 175.199 12.6086 174.48 13.1787C174.237 13.3715 174.438 14.0673 174.287 14.4781C173.994 15.2662 173.952 15.2494 174.229 15.5344C175.141 14.3775 176.061 13.2038 176.982 12.0386L176.99 12.0302Z" fill="black"/>
<path d="M7.57363 21.1429C7.47321 21.0591 7.38115 20.9753 7.14683 20.7657C6.92924 21.495 6.74513 22.1154 6.56102 22.7358C6.39364 23.2975 6.20116 23.8508 6.04216 24.4125C5.90826 24.8735 5.7911 25.343 5.69067 25.8209C5.5484 26.5083 5.48145 26.6089 4.99607 26.7598C4.60274 27.7742 4.25125 28.6964 3.9165 29.5599C3.03779 29.367 2.22602 29.191 1.47283 29.0233C1.3222 28.4449 1.10461 27.9167 1.07114 27.3718C1.0544 26.9862 1.29709 26.5921 1.42262 26.1981C1.47283 26.0472 1.62347 25.846 1.57326 25.7706C1.10461 25.0496 1.54815 24.3286 1.65695 23.6663C1.82432 22.6016 1.84943 21.4866 2.4185 20.4974C2.66119 20.0782 2.65282 19.5165 2.77836 19.0303C2.83694 18.7956 2.94573 18.5692 3.03779 18.3345C3.33906 17.5297 3.67381 16.7333 3.92487 15.9201C4.20104 15.0147 4.80359 14.2434 4.8538 13.229C4.87054 12.835 5.46472 12.5499 5.43124 11.9715C5.40613 11.6361 5.67393 11.284 5.66557 10.9403C5.64046 9.83372 5.83294 8.78579 6.26811 7.77978C6.3518 7.57858 6.51918 7.41091 6.67818 7.26001C6.87066 7.07558 7.09662 6.92468 7.30583 6.86599C7.56527 6.78216 7.85817 6.76539 8.07576 6.61449C9.12185 5.91867 10.1428 5.18093 11.1889 4.47672C11.2893 4.40966 11.4818 4.46834 11.7245 4.46834C11.7413 4.41804 11.7831 4.25037 11.8082 4.14977C12.2769 4.09109 12.7539 4.12462 13.1388 3.94857C13.9088 3.60485 14.7038 3.6803 15.4904 3.6803C15.8754 3.6803 16.2771 3.64677 16.6453 3.7306C17.3985 3.88989 18.3107 3.91504 18.8547 4.36774C19.8254 5.17255 20.8966 6.01927 21.0808 7.44445C21.1059 7.64565 21.3402 7.83847 21.3234 8.01452C21.2732 8.40854 21.1644 8.80256 21.0138 9.17143C20.7711 9.7415 20.5117 10.3116 20.202 10.8481C19.8338 11.4769 19.4907 12.1643 18.9802 12.6505C17.6831 13.8745 16.319 15.0314 14.9214 16.1464C14.1598 16.75 13.2476 17.1608 12.4442 17.7309C11.8082 18.1836 11.2893 18.8207 10.6198 19.2147C9.80808 19.6842 9.26412 20.6315 8.17618 20.6483C7.9837 20.6483 7.79122 20.9501 7.5569 21.1513L7.57363 21.1429ZM9.69929 14.2099C9.75787 14.2266 9.82482 14.2434 9.8834 14.2602C10.1345 14.0841 10.3939 13.9332 10.6282 13.7404C11.4902 13.0194 12.3522 12.2901 13.2058 11.5607C13.5238 11.284 13.8502 11.0074 14.1096 10.6804C14.3105 10.4373 14.369 10.0601 14.5866 9.83372C15.2394 9.16305 15.4068 8.39177 15.1808 7.3187C13.5991 8.44207 12.1346 9.49 10.6282 10.5631C10.6282 10.999 10.6282 11.4601 10.6282 11.9128C10.6282 12.4493 10.7286 12.9775 10.1177 13.3464C9.89177 13.4889 9.83319 13.9081 9.69929 14.2015V14.2099Z" fill="black"/>
<path d="M38.4125 14.6793C37.2241 15.5344 36.0274 16.3896 34.839 17.2447C34.8642 17.2782 34.8893 17.3117 34.9144 17.3369C34.68 17.362 34.4457 17.3872 33.9603 17.4375C34.2783 17.8902 34.5043 18.2339 34.747 18.5692C34.7805 18.6195 34.9144 18.6028 34.9311 18.6531C35.4165 19.81 36.4709 20.5477 37.0651 21.6376C37.3246 22.1154 37.8267 22.4675 38.0777 22.9538C38.3958 23.5657 38.4794 24.3035 38.8226 24.9071C39.2828 25.7119 38.4711 26.4161 38.8895 27.2628C38.3455 27.1622 37.8685 28.2353 37.4501 26.9275C37.3831 27.3383 37.3497 27.5814 37.2911 27.9335C36.6467 27.7239 35.9437 27.6401 35.4081 27.288C34.8307 26.9107 34.2114 26.4748 34.1277 25.6113C34.0859 25.1837 33.6758 24.8065 33.5084 24.3789C33.2908 23.8089 33.1653 23.2053 32.9896 22.6268C32.9226 22.4005 32.8389 22.1657 32.7134 21.9645C32.136 21.0004 31.5501 20.0363 30.956 19.0806C30.6547 18.6112 30.3116 18.1585 29.868 17.5297C29.617 18.1165 29.4077 18.5776 29.2236 19.0471C29.1065 19.3573 29.0312 19.6842 28.9224 20.0028C28.6378 20.8747 28.3366 21.7465 28.052 22.6268C27.8512 23.2388 27.7089 23.8843 27.4411 24.4712C27.2319 24.9322 26.9139 25.3682 26.554 25.7287C26.4117 25.8712 25.8427 25.8796 25.7925 25.779C25.4912 25.1921 24.8886 25.2005 24.42 24.949C24.0434 24.7478 23.876 24.4041 24.0434 23.943C24.1522 23.6412 24.1857 23.3142 24.2777 23.0041C24.3447 22.7609 24.4451 22.5346 24.5371 22.2999C24.738 21.7801 24.964 21.2687 25.123 20.7322C25.3824 19.8687 25.5832 18.9884 25.8427 18.1249C26.077 17.3285 26.3532 16.5321 26.6042 15.7357C27.098 14.2266 27.3741 12.6338 28.2278 11.2505C28.4119 10.9487 28.6462 10.5547 28.5876 10.2529C28.3784 9.17983 28.9726 8.44209 29.5165 7.69597C29.8597 7.2265 30.2781 6.78218 30.73 6.42169C31.2321 6.02767 31.8179 5.7091 32.387 5.4073C32.7803 5.19772 33.1988 4.97975 33.634 4.92945C34.9981 4.77855 36.3789 4.57735 37.743 4.6528C38.5631 4.69471 39.3916 4.97975 40.0946 5.70072C40.7725 6.40493 41.0989 7.03368 41.1658 7.99777C41.2076 8.61814 41.1323 9.12953 40.9147 9.67445C40.8478 9.84212 40.7808 10.1272 40.8729 10.2361C41.4671 10.9823 40.8394 11.4601 40.5214 11.9967C40.1532 12.6086 39.6594 13.1619 39.4084 13.8242C39.1908 14.4111 38.8644 14.5201 38.3455 14.4865C38.3623 14.5536 38.3874 14.6123 38.4041 14.6793H38.4125ZM30.5794 14.3859L30.7718 14.4865C31.3158 14.1847 31.8849 13.9165 32.4038 13.5811C33.5419 12.8518 34.9478 12.3823 35.4751 10.9739C35.701 10.3703 36.1446 9.72475 35.768 8.97863C35.1068 9.4984 34.6131 10.2194 33.6842 10.1439C33.1151 11.0661 31.6255 11.0158 31.4162 12.3907C31.3158 13.0781 30.8723 13.7236 30.5794 14.3859Z" fill="black"/>
<path d="M122.66 28.8641C121.781 28.9563 120.953 29.0485 120.124 29.1491C120.032 29.1575 119.949 29.3084 119.857 29.3251C119.103 29.4341 118.342 29.5012 117.589 29.6353C116.953 29.7443 116.325 30.0377 115.706 30.0126C115.237 29.9874 114.693 30.1299 114.233 29.7275C113.973 29.5012 113.538 29.3587 113.187 29.3587C112.266 29.3671 112.032 28.5036 111.463 28.0928C111.162 27.8748 111.019 27.4305 110.802 27.0868C110.726 26.9694 110.584 26.8604 110.567 26.7431C110.442 25.8209 110.199 24.8819 110.274 23.9681C110.358 23.0208 110.768 22.1154 111.028 21.1849C111.254 20.3465 111.454 19.5082 111.689 18.6698C111.856 18.083 112.049 17.5045 112.249 16.9261C112.534 16.1045 112.869 15.2913 113.128 14.4614C113.363 13.732 113.513 12.9691 113.722 12.2314C113.764 12.0721 113.923 11.938 113.982 11.7787C114.199 11.0912 114.35 10.387 114.601 9.71637C114.944 8.77743 114.777 7.58698 115.898 7.14266C116.141 7.11751 116.384 7.09236 116.626 7.05883C116.785 7.03368 116.936 6.97499 117.087 6.94984C117.806 6.84924 118.534 6.67319 119.254 6.68996C120.024 6.70673 120.802 6.87439 121.564 7.04206C122.066 7.15105 122.576 7.31033 123.045 7.53668C123.497 7.75465 123.949 8.03969 124.309 8.38341C124.577 8.64329 124.711 9.05408 124.903 9.3978C124.861 9.43971 124.811 9.48163 124.769 9.52355C124.945 9.55708 125.121 9.58223 125.313 9.61577C125.062 9.96787 124.836 10.2864 124.518 10.7391C123.982 10.7391 123.196 10.9403 122.602 10.6888C121.656 10.2948 120.652 10.6805 119.723 10.2361C119.296 10.0349 118.693 10.2026 118.183 10.2026C118.074 11.326 118.124 12.4661 118.049 13.6063C117.999 14.3272 117.706 15.0314 117.564 15.7524C117.505 16.0542 117.555 16.3728 117.555 16.8255C118.66 16.7081 119.765 16.5908 120.836 16.4818C120.978 16.7668 121.012 17.0099 121.154 17.1105C121.823 17.58 121.957 18.368 122.342 19.0052C122.401 19.1058 122.284 19.3657 122.183 19.5082C121.639 20.2459 120.936 20.598 119.974 20.6651C119.413 20.707 118.718 20.6316 118.216 21.1597C118.108 21.2771 117.731 21.2184 117.522 21.1346C117.262 21.034 117.062 20.7154 116.802 20.6819C116.593 20.6483 116.342 20.8914 115.999 21.0675C115.789 22.2915 115.563 23.6077 115.296 25.1418C116.141 24.9742 116.735 24.8484 117.338 24.7394C117.405 24.7227 117.488 24.7227 117.555 24.7394C118.367 25.0328 119.162 24.6807 119.965 24.664C120.827 24.6472 121.681 24.4209 122.501 24.2951C122.886 24.9658 123.129 25.4939 123.915 25.6029C124.903 25.737 125.204 26.9946 124.501 27.7071C124.1 28.1095 123.782 28.6126 123.07 28.5119C122.928 28.4952 122.735 28.8054 122.652 28.8892L122.66 28.8641Z" fill="black"/>
<path d="M189.351 9.90917C189.451 9.97623 189.56 10.0517 189.727 10.1607C189.761 10.0433 189.828 9.93432 189.803 9.8924C189.192 8.95346 190.071 8.46722 190.447 7.86362C190.774 7.34385 191.343 6.96659 191.669 6.43844C191.92 6.03604 192.221 6.07795 192.556 6.03604C193.611 5.89352 194.657 5.66717 195.711 5.61687C196.138 5.6001 196.69 5.86837 196.992 6.18694C197.485 6.70671 197.837 7.37738 198.222 7.99775C198.272 8.08158 198.23 8.31632 198.146 8.39177C197.485 8.97861 197.058 9.81695 196.146 10.1691C195.711 10.3367 195.401 10.8313 195.058 11.2002C194.874 11.4014 194.69 11.6278 194.573 11.8709C194.406 12.2062 194.28 12.5667 194.18 12.9272C194.071 13.3296 193.937 13.7488 193.945 14.1595C193.962 14.6374 194.037 15.1572 194.247 15.5763C194.715 16.5153 195.343 17.3704 195.795 18.3093C196.121 18.9884 196.289 19.7429 196.481 20.4806C196.615 21.0004 196.724 21.5286 196.766 22.0651C196.807 22.6603 196.883 23.2975 196.715 23.8508C196.581 24.3118 196.322 24.8149 196.071 25.1921C195.468 26.1059 194.64 26.8688 193.878 27.6736C193.736 27.8245 193.485 27.8748 193.309 28.0005C192.623 28.4952 191.995 29.082 191.267 29.4844C190.489 29.912 189.644 30.2808 188.782 30.482C188.037 30.6581 187.175 30.7503 186.472 30.5323C185.761 30.306 184.765 30.2221 184.539 29.1658C184.497 28.9898 184.154 28.8808 183.97 28.7215C183.861 28.6293 183.669 28.4616 183.694 28.3946C183.894 27.8664 184.02 27.1957 184.405 26.852C185.351 26.0221 186.422 25.3346 187.443 24.5885C187.744 24.3705 188.012 24.0603 188.347 23.9262C189.158 23.6076 189.46 22.9286 189.861 22.2328C190.096 21.822 190.523 21.495 190.732 20.992C191.142 19.9944 191.092 18.9968 190.774 18.0243C190.439 17.0099 189.769 16.0877 189.577 15.0566C189.276 13.3883 189.242 11.6697 189.1 9.97623C189.184 9.9427 189.259 9.91755 189.343 9.88402L189.351 9.90917Z" fill="black"/>
<path d="M106.467 7.97263C107.078 8.43371 107.588 8.90318 108.174 9.23014C108.81 9.58224 109.145 10.5715 108.785 11.1751C108.567 11.5356 108.5 11.9799 108.425 12.1895C108.007 12.2565 107.638 12.332 107.253 12.3655C106.743 12.3991 106.224 12.4326 105.714 12.4074C104.776 12.3571 103.839 12.2733 102.893 12.1979C102.5 12.1643 101.529 13.0194 101.521 13.4638C101.513 13.9165 101.345 14.2266 101.019 14.5704C100.684 14.9225 100.55 15.4674 100.366 15.9452C99.9643 16.9848 99.6128 18.0411 99.1944 19.0639C98.8345 19.9357 98.391 20.7825 98.006 21.646C97.9391 21.8052 97.9725 21.9981 97.9474 22.1825C97.9307 22.3166 97.9307 22.4591 97.8721 22.5765C97.6462 23.0711 97.4621 23.6077 97.144 24.0352C96.8093 24.4795 96.3574 24.8316 95.9055 25.167C95.8134 25.234 95.5121 25.0077 95.3029 24.9239C95.0184 24.8065 94.7338 24.6891 94.3154 24.5215C94.3238 24.555 94.3321 24.3789 94.2568 24.3119C93.1019 23.4232 93.7045 22.3502 94.0141 21.3777C94.2819 20.5393 94.7673 19.7765 95.1523 18.9716C95.4284 18.3764 95.6711 17.7644 95.9557 17.1692C96.2904 16.465 96.6587 15.786 97.0018 15.0901C97.37 14.3608 97.7298 13.623 98.1567 12.7595C97.7215 12.7595 97.4621 12.7595 97.2026 12.7595C96.4913 12.7428 95.7799 12.7931 95.2192 12.1727C95.0267 11.9547 94.5163 12.0218 94.3238 11.8038C93.8551 11.2757 93.5204 10.6385 93.0768 10.0769C92.7923 9.71637 92.4241 9.42296 91.9722 9.1966V8.6433C92.2734 8.3415 92.4827 8.11514 92.6751 7.93071C92.9597 7.98101 93.2861 8.06484 93.6208 8.10676C94.918 8.26605 96.2151 8.12353 97.5123 8.08999C99.2446 8.03969 100.985 7.98939 102.701 7.76304C103.747 7.62052 104.743 7.98939 105.772 7.83011C106.032 7.78819 106.325 7.94748 106.467 7.98939V7.97263Z" fill="black"/>
<path d="M178.388 170.015C178.923 170.141 179.459 170.259 179.994 170.384C180.019 170.384 180.045 170.401 180.061 170.393C181.451 169.973 182.463 171.038 183.668 171.323C183.97 171.39 184.321 171.65 184.48 171.918C184.974 172.732 185.995 173.352 185.71 174.484C185.392 175.724 185.668 177.183 184.606 178.172C184.112 178.625 183.501 178.986 182.882 179.262C182.145 179.589 181.367 179.916 180.58 179.983C178.471 180.176 176.747 179.229 175.249 177.845C173.927 176.622 173.986 175.062 174.379 173.503C174.555 172.807 174.889 172.12 175.274 171.508C175.986 170.393 177.049 169.965 178.388 170.032V170.015Z" fill="black"/>
<path d="M51.9198 8.32471C52.3801 8.45884 52.7315 8.55106 53.0747 8.65166C53.4261 8.76064 54.1961 9.82534 54.2044 10.2194C54.2212 10.8565 54.1207 11.4182 53.7776 12.0218C53.4931 12.5248 53.6437 13.2709 53.6019 13.9081C53.5852 14.1847 53.6939 14.4949 53.2337 14.5452C53.15 14.5452 53.0495 14.847 53.0328 15.0147C52.9826 15.5847 53.1249 16.1464 52.514 16.6075C52.2294 16.8255 52.3047 17.471 52.1457 17.8902C51.7106 19.0387 51.2168 20.1621 50.7984 21.3106C50.6059 21.8471 50.4469 22.4172 50.405 22.9873C50.3046 24.2951 48.9238 24.7478 48.0702 24.2113C47.6266 23.9346 47.1747 23.6579 46.7646 23.4064C46.6307 22.9034 46.4717 22.4004 46.3797 21.889C46.3546 21.7717 46.5471 21.604 46.6558 21.4615C46.7395 21.3525 46.932 21.2184 46.9069 21.1597C46.4968 20.1453 47.1998 19.3824 47.3923 18.5022C47.6015 17.5632 48.1287 16.8003 48.3798 15.9033C48.4551 15.635 48.6225 15.3835 48.748 15.1236C48.815 14.9895 48.974 14.8302 48.9489 14.7212C48.7564 13.8494 49.4008 13.2374 49.6016 12.4913C49.7355 11.9715 49.9699 11.4769 50.1289 10.9655C50.4301 10.0014 50.5724 8.94508 51.7691 8.59298C51.8612 8.56783 51.903 8.35824 51.9198 8.32471Z" fill="black"/>
<path d="M55.97 0C56.5725 0.435937 57.1081 0.83834 57.6688 1.19883C57.8111 1.29104 58.0705 1.17368 58.2295 1.24913C59.2087 1.7186 59.6773 2.61562 59.9535 3.5881C60.1459 4.26715 59.284 5.17256 58.5559 5.18932C58.4555 5.18932 58.3634 5.17256 58.263 5.18932C57.1081 5.34861 56.1875 4.92106 55.3088 4.1917C54.8402 3.80606 54.246 3.57971 54.087 2.91742C54.0117 2.59047 53.8861 2.23837 53.9196 1.91142C53.9782 1.4671 54.1707 1.03954 54.3213 0.544921C54.6812 0.645522 55.0996 0.762889 55.4595 0.86349C55.677 0.494621 55.8361 0.217968 55.9616 0.0083834L55.97 0Z" fill="black"/>
</g>
<defs>
<clipPath id="clip0_639_1237">
<rect width="201" height="180" fill="currentColor"/>
</clipPath>
</defs>
</svg>
