<svg fill="none" xmlns="http://www.w3.org/2000/svg" viewBox="0 0 3000 1170"><mask id="a" style="mask-type:alpha" maskUnits="userSpaceOnUse" x="0" y="0" width="3000" height="1170"><path fill="#D9D9D9" d="M0 0h3000v1170H0z"/></mask><g mask="url(#a)"><path d="m3915 361 80 25 196-55 48 55v1112H958l-82-792 257-72 147-89 82-37 45 37 168 89 55 72 262 83h81l88 34 277-154 56-35h57l140-89h123l46-73h57l79-86h29l33-55 173-116 66-34h61l99 73h145l28 25 113-25 85 47 51-22 38 52h51l47 30Z" fill="url(#b)"/><path d="m3715 477 71 29 183-47 42 57-50 1111-3011-135-41-795 240-61 138-83 77-34 40 39 150 96 47 74 237 94 75 4 79 37 261-143 53-32 52 2 133-83 112 5 55-35 115 5 54-53 29-38 38-50 107-141 62-32 56 3 88 76 133 6 25 27 105-21 75 51 48-20 32 53 48 2 42 32Z" fill="#000" fill-opacity=".2"/><path d="m-63 421-72 25-179-55-44 55v1112h2990V883l-160-189-95-162-116-22-136 95h-145l-66 153-133 91h-74l-80 34-253-154-51-35h-51l-128-89h-112l-42-73h-52l-72-86h-26l-30-55-158-116-60-34h-56l-90 73H314l-26 25-103-25-77 47-47-22-34 52h-47l-43 30Z" fill="url(#c)"/><path d="m-37 429-74 22-175-64-47 53-56 1110 2985 152 34-675-149-196-87-167-115-28h-115l-89 86-160 48-159 122-214 35-121-77-39-40-20 21-86 19-111-62-118-119-39-75-51-3-68-89-26-1-27-57-140-57-70-104-56-3-153 62h-73l-27 24-119 63-61-51-46-24-37 50-47-2-44 27Z" fill="#000" fill-opacity=".2"/><path d="M2259 396v5l-1 18v13l-9-7c-10-9-12-10-12-3 0 2 4 8 9 13 9 7 10 10 10 20 1 7 0 10-2 10l-2-5c0-1-1-3-3-3-1 0-2-3-2-7 0-9-6-16-10-11-1 2-2 4-1 6 1 3-6 1-10-3-2-2-5-3-7-3-6 0-5 6 3 14 9 9 10 10 3 12-3 0-4 2-3 5 1 4 8 5 12 1 4-3 4-2 4 5 1 6 0 7-8 3s-10-4-10 0c0 3 4 7 8 10 6 3 7 4 3 4-3-1-6 0-7 2-2 4-3 4-19-5l-17-7c-5 2-2 9 5 13l7 3h-7c-3 1-7 2-7 4-2 3 4 6 8 4 1-1 2 0 2 1l4 2c4 0 4 1 1 1-2 1-2 2 2 5l6 4-10 1c-10 2-13 5-6 9 2 2 4 2 7 1 5-3 13-1 13 1 0 1 2 2 5 2s5-1 5-2 2-2 5-2h6l-6 4c-5 4-6 5-3 6 4 2 10 1 13-3 1-1 1 1 1 4-2 4-1 5 3 5 3 0 5-1 5-2 0-2 1-2 2 0 0 2 2 2 4-2l3-5 3 6c2 3 2 6 1 7s-9 2-19 2c-16 1-18 0-29-5-10-6-18-7-18-3 0 1 3 4 6 5l7 4-8-2c-9-1-23-7-29-12-2-2-5-3-8-3-5 0-6 4-2 7 1 2-2 3-10 3l-14 2c-8 4 11 11 25 10l10-2-7 4c-4 2-6 4-6 6 1 5 12 4 18-3 3-3 8-4 10-4 3 1 3 1-2 3-8 3-11 6-6 8 2 1 3 2 3 4-1 1 0 3 2 3h4c0-2 7-5 13-5l8-4 5-3c0 3-5 7-11 9l-6 5c0 4 8 4 12 1 5-3 5-3 3 1-1 5 4 5 8-1 3-4 5-5 7-3 1 2 2 2 4 0l6-2c10 1 23-6 23-13 0-4 1-4 2 1 2 4 0 6-7 11-5 4-15 10-23 13l-15 7-12-5-14-5c-5-1-4 3 1 8 4 3 4 4 0 1-2-1-5-2-6-1l-9-2c-9-4-12-4-10 0 1 3 0 4-6 4l-8-2c-3-2-11 2-11 5s1 4 5 3c5-1 5-1 1 3-5 4-4 5 5 4 4 0 5 1 4 3-1 3 0 4 5 3s5-1 4 2c-1 5 1 5 7 2 6-2 13 6 8 10-3 2-3 2-4 0s-5-3-10-3c-5-1-8 0-7 1l-4 1c-6-2-6 2 0 5 3 1 4 4 3 7-1 7-2 7-10 0l-11-5c-4 0-4 1-1 6 2 4 1 4-17 1-6-1-9 0-9 1 0 3 12 9 18 9 3 0 3 0 1 2-3 3-3 4 0 5h6c5 0 8 1 8 3-1 2 2 3 6 3 5-1 6 0 6 4s1 4 5-1c4-4 5-4 5-1l2 2c2-1 4 1 5 4s4 5 6 6 4 2 4 4 2 3 4 3 5 1 7 3c3 4 3 4 8 0l6-4-4 4c-3 3-11 6-21 8-21 4-26 4-35-1-8-4-12-4-10 2 1 3 1 4-5 4l-10-2c-1-1-3-1-7 1-4 3-4 3 3 6 6 3 8 5 7 8-1 2 0 3 2 3 7-1 9 0 8 3-2 5 7 8 13 4 5-3 5-3 3-1-4 5 0 9 6 7 9-2 12 2 3 5-12 3-23 3-27-1-5-4-12-4-11 0 2 3 0 3-9 2-13-1-15 2-3 6 6 1 8 3 7 6-1 4 7 6 13 3 3-1 4-1 4 3s0 5 5 4c4-1 5 0 3 3-1 2 0 3 4 2l4 1c0 3 6 2 12-4 8-7 12-8 18-6 7 3 5 5-3 4s-10 2-4 9c4 5 4 5-1 5-2 0-6 1-8 3s-5 3-7 3l-5 2-11 2-13 1c-1 1-6 2-10 1-7 0-8 1-9 4 0 4-2 5-7 5l-8 1h-7l-4 2c0 2 13 8 19 8s6 0 2 4c-5 4-5 4 1 4 5 0 6 1 5 3-1 3 0 3 6 2l8-1c8 0 9 1 8 3-2 6 4 5 7 0 4-5 4-5 4-1l2 5c15 1 17 1 20-5l3-6 2 5 2 4 5-5c5-5 5-5 5 0 0 6 4 6 6-1l4-5v2c-1 2 1 2 7 1 5-1 7-1 6 1-1 4-16 10-24 10-3 0-6 2-7 3l-12 2c-7 0-12 1-12 2 0 4 9 8 15 7l8 1c1 4-13 6-48 7-38 1-54 2-54 5h-6l-6 1c0 3 8 7 14 7 3 0 5 1 5 2l-2 2-8 4-5 4 7-1c6 0 8 0 8 2s2 2 5 2c3-1 5-1 5 1 0 3 6 2 9-1l6-3c1 0 1 2-2 4l-4 5c0 2 10 1 11-1 3-3 6-2 8 2 1 5 4 5 13 0l7-4-2 6c-1 8 3 8 13 2 6-5 6-5 4-1-3 5-2 7 3 6 2-1 5 0 7 1 3 2 4 2 4 0l4-2c2 0 3 1 3 3s2 3 7 2c25-2-8 10-37 14-19 3-21 2-27-1l-10-4c-5 0-3 4 3 6 4 2 2 2-6 1l-17-1-17-3-13-2c-3 2 13 10 21 12l11 1h-9c-7 0-9 1-9 3s1 4 4 4l6 1h6c3 0 3 1-1 3-6 4-3 7 4 4 4-2 5-2 5 1 0 2 1 3 7 2l13-2c5-2 5-2 0 1-4 4-3 4 4 4 3 0 5 1 5 3 0 4 2 4 7-2l5-4-4 5-4 8c0 3 12 1 18-4 5-3 5-3 3 2-3 7-6 8-28 14-18 4-19 4-29 1-11-3-26-4-26-2l3 5c2 1-2 1-10-1-7-2-15-3-17-2-3 1-3 2 2 6l6 5-9-2c-10-3-23-3-25 0s15 8 24 8h8l-7 5c-7 5-7 11 0 8 2 0 3 1 3 4 0 4 1 5 5 5l8 3c3 3 5 3 9 1l5-4 4 2c4 4 6 8 2 8v3c1 1-1 1-6 1h-8c0 2-4 3-10 3-12 0-14 1-8 6 3 1 8 2 15 1l12-1-9 4c-6 2-9 5-8 7s3 2 6 2l7-2h1c-6 2-3 5 3 4 5-1 6-1 3 1-6 3 0 4 7 1l8-2c0 2-1 3-3 3-2 1-2 2-1 3s5 1 9-1c5-1 6-1 5 1s0 2 3 2c4-2 4-1 2 1-3 2-11 3-38 2-21 0-35 1-35 2l4 2c2 0 5 1 7 3 3 2 3 3 0 4l-12 1c-9 0-15 3-13 6 3 3 15 4 25 1 13-4 14-4 7 2-9 7-8 11 1 9l10-3c1-1 2 1 3 3v6l2 3c2 2 17-5 17-7 0-1 1-2 2-1v6l-2 8c0 2 11-5 22-14 9-7 10-6 2 2-2 2-3 5-2 6 2 4 2 3 8-1l6-5-1 5c0 5-2 6-20 8-12 2-20 2-23 1-6-3-19-5-19-3 0 1 2 3 4 3h-7c-10-1-12 0-10 2 5 4 4 5-3 4s-18 1-16 4l7 2c10 0 8 2-4 7-22 7-17 12 5 6 11-4 16-3 7 1-2 1-5 3-5 5s2 3 7 2c6-1 6-1 3 2-6 6 1 6 11 0 5-3 6-3 4 1-1 4-1 5 3 2 3-3 4-2 2 1-1 3-1 3 5-1s9-4 7 1c-2 4 4 3 13-1l8-2c0 1 3 2 7 1s5-1 3 1l-17 4c-16 2-21 5-18 8 1 2 5 2 19-1 4-1 3 0-3 5l-8 7c0 2 14 0 21-4 9-3 10-2 4 4-4 5-4 8 2 6 3 0 5 0 5 2 0 4 2 4 7 0s5-4 4 0c-1 6 12 4 19-3l6-5-2 7c-2 8 4 9 14 0l7-6 1 5c1 8 5 10 10 5 4-3 4-3 7 0s4 3 5-1c1-3 3-4 5-4 2 1 4 0 5-4s2-5 3-3 4 3 7 3c4 1 6-1 10-8 6-9 11-13 8-5-1 5 0 5 8 1 3-2 6-6 6-8 0-3 0-4 1-1 2 6 6 2 6-6 0-6 0-7 2-4 2 2 5 4 8 4 5 0 5 1 3 15-1 11-3 19-7 26l-5 9h59c3-2 2-5-1-10-4-9-6-27-2-27 1-1 4 2 6 5 5 6 10 8 8 3-3-6 1-3 4 4 3 5 5 7 9 6l10 2c2 2 3 1 4 0 1-2 2-1 6 1 6 5 9 5 7 0 0-3 0-4 1-3 3 3 11 5 11 3s13-1 20 1c4 2 4 1 3-1s0-4 1-5c3 0 3-1 0-3-5-5-3-6 6-2 10 4 13 4 8-1-2-3-3-4 0-2 2 2 5 2 6 2h4l3 6c3 3 4 4 8 1 3-2 4-2 7 2l4 5 3-5c2-5 2-5 5-1 4 4 5 4 10 0 3-2 3-4 1-6l-2-3c1 0 1-2-1-5s-1-3 6 2c15 11 16 12 20 8 2-2 3-4 2-5-1-2 0-2 3 0 12 9 25 10 17 2-4-3-4-4 2-5l7-1-7-5c-10-6-5-7 9 0 5 3 11 5 13 5 5 0 4-3-2-6-5-2-5-2 4-2 5 0 12-1 14-3 5-3 5-3-2-3-10 0-47-6-55-8-9-4-11-9-2-6s13 1 7-3c-4-2-3-2 7-2 11 1 14-1 5-5-5-2-4-2 6-2 14 1 18-3 6-6l-8-1 8-1c9-1 10-3 2-6-4-2-2-2 11-2 14 1 15 1 11-2l-9-3-6-2c-1-1 0-2 4-2 10 1 17 0 17-2l-17-3c-10 0-17-2-16-3s7-3 15-4c15-3 24-7 21-9-1-2-14 0-32 4-6 1-6 1 2-4 12-9 5-10-13-2s-28 9-48 3c-22-6-59-22-62-26-3-6-1-5 5 0 3 3 5 4 5 3s1-1 3 1c3 2 4 2 4-1s1-3 8 2l7 6-1-7c-2-6-2-6 5-4l10 5c9 6 10 6 9-1-2-6-1-7 1-5 4 4 14 3 14 0 0-4 4-4 7-1 1 2 4 5 8 7 6 3 7 3 7 0 0-1-2-4-5-6s-5-5-5-6l2-1c0 1 3 0 5-2s6-3 13-2c6 1 9 0 10-2s3-2 9 0c21 5 25-1 5-7-14-4-16-7-3-4 17 4 38 1 29-4l-14-2c-10 0-10 0-4-1l8-4c1-3-3-3-24-2-24 1-24 1-21-3 4-5 1-6-11-3-6 2-14 3-21 2-14-2-60-14-65-18-6-5-6-8 0-6 3 1 5 0 5-1 0-2 4-1 16 3 4 2 12 3 19 3h15c5 1 6 0 2-4-3-3-2-3 2 1 9 6 11 6 11 2 0-3 1-3 6 0 4 2 7 3 8 2l9-5c7-2 7-2 2-5-5-4-4-4 5-1 5 1 6 1 6-1 0-1 6-3 16-5l16-5h2c1 1 4 0 6-1 4-2 4-2-2-3-5-1-6-3-5-5 1-3 0-4-4-5-4 0-2-2 9-4 17-5 21-9 6-6-13 2-46 2-46 0l2-1c2 0 3-1 3-2 0-2-6-2-12-2-16 0-41-4-42-8-1-2 0-3 4-3s6 0 6-2h4c2 0 3 0 3-2 0-1 2-1 6 1 3 2 8 3 11 3h6l-11-7 12-1 11-1-8-3-8-4h7c5 0 9-2 13-5l8-5c2 0 4-2 6-4 4-6-1-7-15-3-15 4-18 4-17-1 2-5 2-5-14-1-11 3-12 3-31-1-24-6-31-12-12-11 2 1 5 0 6-2 1-1 3-1 6 2 4 3 7 3 15 2 11-2 11-2 5-7-4-3-2-2 8 1 4 1 4 1 3-2-1-2 0-3 3-3 4 0 5-1 4-3s0-3 2-4 1-2-1-4c-4-2-4-3 1-7 9-7 7-9-5-5-32 8-44 9-51 2-5-4-5-5-2-6 2-1 7 0 11 1 10 3 12 0 4-6-6-4-7-5-3-4 9 0 14-1 14-3 0-1-2-2-5-2s-3 0 1-2c3-1 6-3 7-5s1-3-4 0c-8 4-59 3-69-1-8-3-8-3-3-4 5 0 5-1 4-4-1-4-1-4 3-1 5 3 13 6 13 3h4c3 0 5 0 5-2l6-2c8 0 8-2-1-8l-8-6 13 2c13 2 18 1 15-2-2-4 4-8 12-8s9-3 1-5c-3 0-2-1 3-1 6 1 8 0 8-2l2-2c2 0 2-1 0-3s-6-3-10-2h-3c6-3 3-6-3-4-5 1-5 0-4-3 1-2 0-3-2-1l-9 2-13 2-6 1 7-5c8-5 9-9 2-5-7 3-12 2-8-1 6-4 3-8-2-4-3 3-9 6-13 7-14 6-54-2-54-11l-3-5c-2-2-2-3 0-3l4 3c1 2 4 3 9 3l13 2c5 1 6 0 6-3v-4l8 4c6 3 9 3 10 1 1-1 0-3-2-4h21c1 1 5 0 8-1 5-1 5-1 2-5-4-3-4-3 2-4 7-2 8-6 2-6-3 0-2-1 3-3l14-7 7-5-9-2c-4 0-8-2-8-3l-7-1c-6 2-6 1-4-1 5-5-2-7-9-2-3 2-11 3-18 3-9 0-11 0-6-2 4-1 5-3 3-11l-9 4c-4 2-11 4-16 4-15 0-41-9-57-19-6-4-5-4 2-1 4 2 5 1 5-2s0-3 3 0l4 3c1-1 5 0 8 2 7 3 7 3 7-3 0-3 0-4 1-3 2 3 12 7 15 7 2 0 3-2 3-5 0-4 0-4 2 1l3 4 6 1c4 2 5 2 8-1 2-2 4-4 5-3 2 1 2-1 1-4-2-5-1-5 5-3 8 2 10 1 6-3-3-3-2-3 1-3 4 0 4-1 0-4-2-2-3-5-2-5 2-1 5 0 7 3 4 3 6 3 15 2l-1-3c-4-3-2-5 4-5l10-4 6-4-7-1h-14c-5 1-5 0-2-3 5-5 1-5-8 0-10 6-16 7-11 2 2-2 2-3-1-1-5 1-6-2-1-5 6-5-1-5-8 1-15 10-17 11-34 6-18-4-30-10-33-15-3-4-2-4 3-4 3 0 7 2 7 3 1 2 4 4 7 4 4 0 4-1 3-4-1-4 0-4 5 1 3 3 8 5 11 5 4 0 5 0 4-6-2-7 3-9 9-3 4 4 18 7 18 4l-8-7c-6-4-7-6-3-6 2 0 4 1 5 3s3 3 4 2l3 1 8 2c6 0 6 0 2-3-5-2-5-3 2-5l9-2c2 0 1-1-3-3-6-3-6-3 4-2 5 0 10 0 12-2 6-5 2-7-10-7-7 0-10-1-9-2 3-4-6-4-16 0-13 5-15 5-13 1 1-2 0-3-2-3-3 0-4-1-3-3 2-4 1-4-7-1-5 1-6 1-5-2 2-4-2-6-5-2l-11 6c-9 4-11 4-20 2-8-2-9-3-6-4 3-2 4-4 4-5 0-3-2-3-10-3-9 0-12 0-16-3-5-5-10-21-7-23 2-1 3 4 2 9l5 9c4 5 6 5 9 4 1-2 3-5 3-8 0-4 1-5 2-1 2 6 8 11 14 11 5 0 6-1 3-4-3-5-3-7 0-5l3-1 2-2 3 2c0 4 14 14 17 13l2-5c0-3 1-4 2-4 2 0 2-1 1-3l3 2c3 3 6 4 7 3l7-2c6-1 16-5 16-7l-7-3-7-5c0-2-3-3-7-3-8 0-20-5-16-6 2-1 3-2 3-4 0-3-12-4-16-1-3 3-13 5-13 3l6-4c6-1 6-1 4-4-3-2-2-3 1-3 6 0 15-5 13-7l-13-2c-12-1-12-1-8-7 2-4 3-4 8-1s6 3 7-1c1-2 3-4 4-3s2 0 2-1l5-2c3 0 5-1 5-3 0-3-5-5-12-5-6 0-6-4-1-5 2-1 3-2 2-3 0-1 2-3 5-4 8-4 6-7-4-7h-9l6-7c5-5 6-7 4-9-3-2-5-1-11 5-8 6-8 7-11 3l-5-3c-3 0-11 11-12 18-1 5-24 21-27 19l-1-12c0-6-1-11-2-11l-1-8c1-6 2-7 7-9 6-1 7-1 6 3-2 5 3 7 8 2 3-3 5-4 6-3 1 2 11 1 11-1s-12-12-14-11l-6-1c-7-2-2-4 5-3 12 2 23 1 24-1 1-1-1-3-2-3-2 0-5-1-7-3l-5-2h-2c0-1 3-4 7-6 7-4 9-7 5-7-5 0-20 6-22 9-2 1-2 1-1-2s0-5-1-6c-3-1-12 12-12 17 0 2-1 2-2 2-1-1-3 0-5 2-3 3-3 2-2-6s4-12 12-21c6-6 11-12 11-14 0-4-12-1-14 4-4 9-9 6-8-5 1-8 0-11-4-15l-5-4Zm-16 71 6 5c5 4 7 8 7 13l-1 7c-1 0-4-6-5-11 0-2-2-6-4-7l-4-7h1Zm-6 30c4 0 15 6 17 10 3 7 1 8-4 3l-7-4c-3 0-10-8-8-9h2Zm65 16h3c3 1 3 2-7 8l-15 8c-3 0-5 1-5 2l-2 1c-2 0-3-2-2-4 0-4 2-5 10-4 7 0 9 0 9-3 0-2 1-3 3-3s4-1 4-3l2-2Zm-27 29 5 2c3 2 8 2 12 2h5l-2 2-5 1c-2 1-6 0-10-3l-5-4Zm26 5 2 1c3 2 4 2 4 1 0-2 1-2 3-1s1 2-2 4c-6 4-8 3-8-2l1-3Zm36 7c2 0 3 1 3 3-2 2-6 2-6 0s1-3 3-3Zm-56 33c1 0 2 4 2 10 0 10 0 11-3 9s-2-19 1-19Zm-19 27 2 1c0 1-1 2-3 2-3 0-3-1 0-3h1Zm20 4v7c0 2-1 1-1-3l1-4Zm-30 1 2 1-2 2c-2 1-3 1-3-1 0-1 1-2 3-2Zm-12 4 2 1-2 2c-2 1-3 1-3-1 0-1 1-2 3-2Zm-51 0 6 3c5 5 13 6 17 1 4-3 10-3 7 0-1 1 0 2 2 2l5-2c2-2 6-2 6 0l-6 5-21 3c-12 1-14 0-16-3l-2-7 2-2Zm222 107 2 2c0 3-2 3-4 0 0-1 0-2 2-2Zm-202 25c2 0-1 1-6 4-9 4-14 5-14 3s17-7 20-7Zm208 86 7 1c3 1 2 1-6 1h-10l9-2Zm54 11h3c2 1 1 1-2 2-2 0-4-1-3-2h2Zm1 50 6 2c2 1 3 2 1 2l-6-2c-1-1-2-1-1-2Zm-420 82 1 1-4 2c-3 0-3-1 2-3h1Zm39 17 5 5 6 5 4-5c4-5 4-5 6-2s3 3 5 1c1-1 2-1 3 2 2 4 6 6 6 2 0-1 3-2 7-2h7l-8 4c-4 2-10 2-17 2-6-1-10 0-9 1 2 2-2 2-9-1-4-2-7-2-7-1h-5c-4-1-4-1 1-6l5-5Zm56 3h1c2 0 1 1-2 2-4 1-5 1-3-1l4-1Zm-25 83 2 1-2 2c-4 0-4-1 0-3ZM786 70v6l1 22v15l9-9c10-11 12-11 12-4-1 3-5 10-10 16-8 9-9 12-9 24-1 9 0 13 2 12l2-5 2-4c2 0 3-4 3-9 0-11 6-18 10-12l1 6c-1 3 6 1 10-3l7-4c6 0 5 7-3 16-9 11-10 13-4 15 3 1 4 3 4 6-2 5-8 6-13 1-3-3-3-3-3 6-1 8 0 8 8 3 8-4 9-4 9 1 0 3-3 8-7 11-6 5-7 6-3 5 3-1 5 0 6 2 2 6 4 5 20-5 8-5 16-9 17-8 5 1 2 11-5 15l-7 3 6 1c4 1 7 2 8 4 1 4-5 7-8 5-1-1-3 0-3 1 0 2-1 3-4 3s-3 0-1 1c3 1 2 3-2 6l-5 4 10 2c10 2 12 5 6 11-2 2-5 2-7 0-5-2-13-1-13 2 0 2-3 3-5 3-3 0-5-2-5-3s-2-2-5-2h-6l6 5c5 4 5 5 3 7-4 2-10 0-13-4-1-1-2 1-1 4 1 6 1 7-3 7-3 0-5-1-5-3s-1-2-2 0c-1 3-2 2-4-2l-3-6-3 7c-2 3-3 7-2 8l20 3c16 1 18 0 29-7 10-6 18-7 18-2 0 1-3 4-7 6l-6 3 8-1c8-2 22-9 29-15 1-2 5-3 7-3 5 0 7 5 3 8-2 2 2 3 10 4l14 1c8 5-11 14-26 12l-9-1 6 4c5 2 7 5 6 8-1 5-11 4-18-4-3-3-7-6-9-5-4 1-3 2 2 4 8 3 11 7 6 9-3 1-4 3-3 5 1 1-1 3-2 4-2 1-4 0-4-1 0-2-8-5-14-6-1 0-5-2-7-5l-5-2c0 2 5 7 11 10 3 2 5 4 5 6 0 4-7 5-12 1-4-4-4-4-3 1 2 7-3 6-8-1-3-5-4-6-6-3-1 2-2 2-4-1l-6-2c-10 1-23-8-23-16-1-4-1-4-2 1-2 5-1 8 7 14l23 16 15 7 11-5 15-7c4-1 4 4-1 10-4 4-4 5 0 2 2-2 5-3 6-2l9-2c9-5 11-5 10 0-1 4 0 4 6 4l8-1c3-3 11 1 11 6 0 3-1 4-5 3-5-1-5-1-1 4 4 4 4 5-6 4-4 0-5 1-3 4 1 3 0 4-5 3s-6 0-5 3c2 5 0 6-6 2-6-3-13 7-9 12 3 2 4 2 5-1 1-1 5-3 10-3 4 0 8 1 7 2s1 1 3 1c6-2 7 2 1 5-4 2-4 5-4 9 2 8 2 8 11 0l11-6c4 0 4 2 1 7s-1 5 17 2c6-1 9-1 9 1 0 3-12 10-18 10-3 0-4 0-1 3 2 3 2 4-1 5l-5 1c-5-1-9 1-8 3 0 2-2 3-6 3-5 0-7 1-7 5 0 5 0 5-5-1-3-4-4-5-4-1 0 2-1 3-3 2-1-1-3 1-4 5l-6 8c-2 0-4 2-4 4s-2 4-4 4-5 1-7 4c-3 4-3 4-9-1l-5-5 4 5c2 4 11 7 21 9 21 6 26 5 35 0 8-6 12-5 9 2-1 4 0 5 6 5 4 0 8-1 9-3 2-1 4-1 7 1 5 4 5 4-3 8-5 3-7 6-6 9s0 4-2 4c-7-1-10 0-8 4 2 6-7 9-14 4-4-3-5-3-3 0 5 5 1 10-6 8-9-3-11 2-2 5 11 4 23 4 27 0 5-5 12-5 10 0-1 2 1 3 10 2 13-2 14 2 2 6-6 2-8 4-7 7 1 5-6 8-12 5-3-2-4-1-4 3 0 5-1 6-5 5s-5-1-4 3c2 3 1 4-3 3-3-1-5 0-5 1 0 4-5 2-11-5-8-8-13-10-18-7-7 3-5 6 3 5s9 2 3 11c-3 5-3 5 1 5 3 0 7 2 9 4s5 3 7 3 4 1 5 3l11 2c5 0 10 0 12 2l11 1c6-1 8 0 9 5 0 4 2 5 6 6l9 1h6c3-1 5 0 5 1 0 4-14 11-20 11-5 0-5 0-1 4 4 5 4 5-2 5-5 0-6 1-5 4s0 3-5 2l-8-2c-8 1-10 1-8 4 2 7-4 7-8 0-3-6-3-6-3-1l-2 6c-15 2-18 1-20-6l-3-7-3 5-2 6-4-6c-5-6-5-6-5-1 0 8-4 7-6 0l-4-6c-1 0-2 1-1 2 1 2 0 3-6 1-6-1-7-1-7 2 2 4 17 12 24 12 4 0 7 1 8 3 0 2 5 3 12 2 6 0 11 1 11 2 0 5-8 10-15 9-4 0-7 0-7 2-1 4 13 6 47 7 39 2 55 3 55 6l6 1c3-1 6 0 6 1 0 3-8 8-15 8l-5 2 3 2 8 5 5 6-8-1c-5-1-8-1-8 1s-2 3-4 2c-3-1-5 0-5 2 0 3-6 3-10-1l-5-4c-2 0-1 2 1 4l4 6c0 3-9 2-11 0-2-4-5-3-7 2-2 6-5 6-13 0l-7-5 1 7c2 9-2 10-12 2-7-5-7-5-4 0 3 6 1 8-4 6-2 0-5 0-7 2s-3 2-3 0l-4-2c-2 0-3 1-3 3s-3 3-7 3c-25-3 7 12 36 16 19 3 21 3 28-1l9-4c5 0 4 4-2 7-4 2-3 2 5 1l17-2 18-3 13-3c2 3-13 13-22 14l-10 2h9c6 0 9 1 9 4 0 2-2 4-4 4l-7 1-6 1c-2 0-2 1 2 3 5 5 3 8-4 4-4-2-5-2-5 2 0 3-2 3-8 2l-13-2c-4-2-4-2 0 2 5 3 4 4-4 4-2-1-4 1-4 3 0 5-2 5-8-2l-5-5 4 6c3 4 4 8 4 9 0 4-12 1-17-4-5-4-5-4-3 2 2 8 5 10 28 17 18 5 19 5 29 1 11-4 26-5 26-2 0 1-1 4-3 5-2 2 1 2 10-1 7-2 14-3 16-2 3 1 3 2-2 7l-5 6 8-2c11-3 23-3 25 0s-14 10-24 10h-7l7 5c7 6 7 13 0 10-2 0-4 1-4 5s-1 6-4 6-6 2-8 4c-4 3-5 3-9 0-3-1-5-4-5-5l-4 3c-5 4-6 10-3 10 2 0 2 1 1 3s0 2 6 1c5-1 7-1 7 1 0 1 5 2 11 2 11 0 13 2 7 8-2 2-7 2-15 1l-11-1 9 4c6 4 8 6 7 9-1 2-3 3-5 2l-8-2c-2 0-2 0 0 0 6 2 3 6-4 5-5-1-5-1-3 1 7 4 1 5-7 1l-7-2c0 2 1 3 3 4 1 0 2 2 1 3s-5 1-9-1c-6-2-7-2-6 1s0 3-3 2c-4-1-4-1-1 2 2 2 11 3 38 3 21-1 35 0 35 1 0 2-2 3-4 3s-6 1-7 3c-3 3-3 4 0 5l11 1c9 0 15 3 13 7s-14 5-24 1c-13-4-14-4-7 3 8 8 7 14-2 11l-9-4c-2-1-3 1-3 3l-1 7-2 5c-2 2-16-6-16-9 0-1-1-2-2-1-2 1-2 4 0 8l2 8c0 3-11-5-23-16-8-9-10-7-2 2 2 2 3 6 2 8-1 4-2 3-7-2l-7-5 1 6c1 5 3 6 20 9 13 2 21 2 23 1 6-4 19-6 19-4s-1 3-4 4h8c10-1 12-1 9 2-5 5-3 6 3 5 8-1 19 1 17 4-1 2-4 3-7 3-10 0-9 3 4 8 21 9 16 15-6 7-11-4-15-3-7 1 3 2 5 5 5 7 0 3-1 3-6 2-6-1-6-1-4 2 7 8 0 8-11 0-5-4-5-3-4 2 2 5 1 5-2 2-4-3-4-3-3 1 2 4 1 4-4-1-6-5-10-5-8 1 2 5-3 4-13-1-4-3-7-4-7-2 0 1-3 2-7 1-5-1-6-1-3 1l17 4c15 4 20 6 18 10-2 3-5 3-19-1-4-1-3 0 3 6l7 9c0 2-13-1-21-5s-9-3-4 4 5 10-1 8c-3-1-5 0-5 2 0 5-2 5-8 0-4-4-4-4-4 0 2 8-12 5-19-3l-5-6 1 7c2 11-4 11-13 1l-8-7-1 6c0 9-4 12-9 6-4-4-5-5-8-1s-3 4-4-1c-1-3-3-5-5-4s-4-1-5-5-2-6-3-3l-7 3c-4 1-7-1-11-10-5-10-11-15-8-6 2 6 1 6-7 1-3-2-6-6-6-9 0-4-1-4-2-1-1 7-5 2-5-7 0-7-1-8-3-5-1 3-4 5-7 5-5 0-5 0-3 18 1 13 3 23 7 30l5 11h-60c-2-2-1-6 2-12 4-10 6-31 2-32-1-1-4 2-6 6-5 8-10 10-8 4 3-8-1-4-5 4-2 6-4 8-9 8l-9 2c-2 2-3 2-4 0s-3-2-6 2c-6 6-9 5-8-1v-3c-3 4-11 6-11 3 0-2-13-1-20 2-4 1-4 1-3-2 1-2 0-5-2-5-2-1-2-2 0-4 6-6 4-7-5-2-10 5-13 4-8-2 2-4 2-4 0-2s-5 2-7 2c-1-1-3-1-3 1l-3 6c-3 4-4 5-8 2-3-3-4-3-8 2l-3 6-3-6c-2-6-2-6-5-2-4 5-5 5-10 1-3-3-3-5-1-7l2-4c-1 0-1-2 1-5 2-5 1-5-6 1-15 14-16 14-20 10-2-2-3-5-2-7l-3 1c-12 10-25 12-17 3 4-5 4-5-2-7l-7-1 7-6c10-7 5-8-9 0l-13 6c-5 0-4-4 2-7 5-2 5-2-4-2-5 0-12-2-14-4-5-3-5-4 2-4 10 0 47-6 55-10 9-3 11-9 2-6s-13 1-7-4c4-2 3-2-7-2-11 1-14-2-5-6 5-3 4-3-6-2-14 0-18-4-6-7l8-2-8-1c-9-1-10-4-2-7 4-3 2-3-11-2-14 1-15 1-11-2l9-4c3 0 5-1 6-3 1-1 0-2-4-2-10 1-17 0-17-2 0-1 8-3 17-4 10-1 17-2 16-3s-8-4-15-5c-15-4-24-9-21-12 1-1 14 1 32 6 6 1 6 1-2-6-12-10-5-11 13-2 18 10 28 11 48 4 22-8 59-26 62-31 3-7 1-6-5 0l-5 4c0-2-2-1-4 1-3 2-3 2-3-2 0-3-1-3-8 3l-7 7 1-8c2-7 2-7-5-5l-10 6c-9 7-10 7-9-2 1-6 1-7-1-5-4 4-14 4-14 0 0-5-4-5-7-1l-8 8c-6 3-7 3-7 0 0-2 2-5 5-7l5-7c0-2-1-2-2-1 0 1-3 0-5-2-2-3-6-4-13-3-6 1-9 0-10-2s-3-3-9-1c-21 6-25-1-5-8 14-5 16-8 3-4-17 5-38 1-29-5l14-3c10 0 10 0 4-1-4-1-7-3-8-5-1-3 3-3 24-2 24 2 24 2 21-3-4-7-1-8 11-4 6 2 14 3 21 2 14-2 60-17 65-22 6-5 6-8 0-6l-5-1c0-3-4-2-16 3-4 2-12 3-19 3l-15 1c-5 1-6-1-2-6 3-3 2-3-2 1-9 8-11 9-11 3 0-3-1-3-6 1-4 2-7 3-8 1l-9-5c-7-3-7-3-2-6 5-4 4-5-5-2-5 2-6 2-6 0s-6-5-16-7c-8-1-16-4-16-5l-2-1c-1 1-4 1-6-1-4-2-4-2 2-4 5-1 6-2 5-6-1-3 0-4 4-5 4 0 2-2-9-5-17-6-21-10-6-8 13 3 46 4 46 1l-2-2c-2 0-3-1-3-2s5-2 12-2c16 0 41-5 42-9 1-3 0-4-4-4s-6-1-6-2-2-2-4-1-4 0-4-1c0-2-1-2-5 1-3 2-8 3-11 3h-6l11-9-12-1-11-1 8-4 8-4h-7c-5 0-9-2-13-6l-8-6c-2 0-4-2-6-5-4-7 1-8 15-4 15 6 18 5 17-1-2-5-2-5 14 0 11 3 12 3 31-2 24-7 31-14 12-13-2 1-5-1-6-2-1-2-3-1-6 2-4 3-7 4-15 2-11-2-11-3-5-7 4-4 2-4-8 0-4 2-4 1-3-2s0-4-3-4c-4 0-5-1-4-3s0-4-2-5-1-2 1-5c4-3 4-3-1-8-9-9-7-11 5-6 32 10 43 10 51 2 5-5 5-6 2-7-2-1-7 0-11 1-10 4-12 0-4-7 6-4 7-5 3-5-9 1-14 0-14-3 0-1 2-2 5-2s3-1-1-3c-3-1-6-3-7-5-1-4-1-4 4-1 8 4 59 4 69-1 7-4 8-4 3-4-5-1-6-2-5-6 2-4 1-4-2-1-6 4-13 7-13 4l-5-1c-2 1-4 0-4-1 0-2-3-3-6-3-8 0-8-2 1-10l8-6-13 2c-13 2-18 1-15-3 2-4-4-9-12-9s-9-4-1-6c3-1 1-1-3-1-6 0-8 0-8-2s-1-3-2-3c-2 0-2-2 0-4s6-3 10-3h3c-6-2-3-6 3-4 5 1 5 0 4-3s-1-3 2-2l9 3 12 2 6 1-6-5c-8-7-9-11-2-7s12 3 8 0c-6-6-4-10 2-5l13 8c14 7 54-2 54-13 0-2 1-5 3-6 2-2 2-3 0-3l-4 3c-1 3-4 4-9 4l-13 1c-5 2-6 1-6-3v-5l-8 5c-6 3-9 4-10 2s0-4 2-5c2-2-12-2-21 0l-8-1c-5-2-5-2-2-6 4-4 4-4-2-6-7-2-8-6-2-6 3 0 2-1-3-4-4-1-10-6-14-9l-7-6 8-1c5-1 9-3 9-4 0-2 3-2 7-1 6 1 6 1 4-2-5-6 2-7 9-2 3 2 11 4 18 4 9 0 10 0 6-2s-5-4-3-14l8 5c5 2 12 5 17 5 15 0 40-10 57-23 6-4 5-5-2-1-4 2-5 1-5-2 0-4 0-4-3 0l-4 3c-2-1-5 0-9 2-6 4-6 4-6-3 0-3-1-5-2-4-2 3-11 8-14 8-2 0-3-2-3-5 0-5-1-5-2 1l-3 5c-1-1-3 0-6 1-4 2-6 2-8-2-2-2-4-4-6-3v-5c1-6 1-6-5-4-8 3-10 2-6-3 2-3 2-4-1-4-4 0-4 0 0-4 2-3 3-6 1-6-1-1-4 0-6 3-4 4-6 4-15 3-1-1 0-2 1-4 3-4 2-6-4-6-3 0-7-2-10-5l-6-5h20c6 0 6 0 3-3-5-7-1-7 8 0 10 6 16 8 11 2-2-3-2-4 1-2 5 1 5-2 1-6-6-6 1-5 8 1 15 13 17 13 34 8 18-5 30-12 33-19 2-4 2-4-3-4-4 0-7 2-8 4 0 2-3 4-6 4-4 0-5-1-3-5 1-4 0-4-5 2-3 3-8 6-11 6-4 0-5-1-4-7 2-9-4-12-9-4-4 5-18 8-18 4l8-8c6-5 7-6 3-7-2 0-5 2-5 4-1 2-3 3-4 2-1 0-2 0-3 2l-8 2c-6 0-6 0-2-3 5-4 5-4-2-6l-9-3c-2 0-1-2 3-4 6-3 5-3-4-2-6 1-10 0-12-3-6-5-2-8 10-8 7 0 10-1 9-2-3-5 6-5 16 0 12 5 15 6 13 1-1-2 0-4 2-4 3 0 4-1 3-3-2-4-1-5 7-2 5 2 6 2 4-2-1-5 3-7 6-2l11 7c9 5 11 5 20 2 8-2 9-3 5-5-2-1-4-4-4-6 0-3 3-3 11-3 8 1 12 0 16-4 5-5 10-24 7-26-2-2-3 4-3 10 1 2-1 6-4 10-4 6-6 7-9 5-2-2-3-6-3-9-1-5-1-6-2-2-2 8-8 14-14 14-5 0-6-1-4-5 4-6 4-8 0-6l-2-1c0-2-1-3-2-3-2 0-3 2-3 3 0 5-14 17-17 15l-2-6c0-3-1-5-2-5-2 0-2-1-2-3l-2 3c-3 3-6 4-7 4-1-1-4-3-7-3-6-1-16-6-16-8l7-5c4-1 7-4 7-5-1-2 2-3 7-3 8-1 20-6 16-8l-3-4c0-4 12-5 15-2 4 4 13 6 13 3 0-1-2-3-6-3-5-2-5-3-3-6 2-2 2-3-2-3-5 0-14-7-12-9l13-2c12-2 12-2 8-8-2-5-3-5-8-1-6 3-6 3-7-2-1-2-3-4-4-3-2 1-3 0-3-1 0-2-2-3-4-3-3 0-5-1-5-3 0-4 5-7 12-7 6 0 6-4 1-6-2-1-3-2-2-3l-5-5c-8-4-6-8 4-8h8l-6-8c-4-7-5-9-3-11 3-2 5-1 11 6 7 8 8 8 11 4 1-3 4-5 5-5 3 0 10 14 12 22 1 6 23 25 27 23l1-15 1-13c2 0 2-4 2-9-1-7-2-9-8-10-5-2-6-2-5 2 2 7-4 9-8 3-3-4-5-5-6-3-2 2-11 1-11-2 0-2 12-13 14-13l6-1c6-2 2-5-5-4-12 3-23 2-24-1-1-1 0-3 2-3s5-1 7-3c1-2 4-3 5-3h2l-7-7c-8-5-10-8-5-8 4 0 20 7 22 10 1 2 2 1 1-2s-1-6 1-7c2-2 12 14 12 20 0 2 1 3 2 2 0-1 3 0 4 2 3 4 4 3 3-7s-4-14-13-25c-5-7-10-14-10-16 0-5 12-2 14 5 4 10 9 7 8-6-1-10 0-13 4-18l5-5Zm16 84-7 6c-4 5-7 10-7 16l1 8c2 0 5-7 6-13 0-3 2-7 4-9l4-7-1-1Zm6 36c-5 0-16 8-17 12-4 9-2 10 4 4 2-3 5-5 7-5 3 0 9-9 8-11h-2Zm-66 19-2 1c-4 1-3 2 7 9 6 5 13 9 15 9 3 0 5 1 5 2l2 2c2 0 2-2 2-5-1-5-2-6-10-5-7 1-9 0-9-3 0-2-1-4-3-4s-4-1-4-3-1-3-3-3Zm28 35-5 3c-4 1-9 2-12 1s-6 0-6 1 1 2 3 2l5 2c2 0 6-1 9-4l6-5Zm-26 6-3 1c-2 3-3 3-3 1s-1-3-3-2c-2 2-1 3 2 5 6 5 8 4 8-1l-1-4Zm-36 9c-3 0-4 1-3 2 2 3 6 3 6 0 0-1-1-2-3-2Zm56 38-2 12c0 12 0 13 3 11 3-3 2-23-1-23Zm19 32-2 2 2 2c4 0 4-1 0-3v-1Zm-20 5v8c0 3 1 1 1-3l-1-5Zm30 2-2 1 2 2c1 1 2 1 2-1l-2-2Zm12 4-2 1 2 3c1 1 3 0 3-1l-3-3Zm50 1-5 3c-5 6-13 7-17 1-4-4-10-4-7 0 0 2-1 3-3 3s-4-1-5-3c-2-3-6-3-6 0 0 2 3 4 7 5 4 2 13 3 20 4 12 1 14 1 17-4l2-7c0-2-1-3-3-2ZM634 468l-2 2c0 3 2 3 3 0 1-1 1-2-1-2Zm202 29c-2 0 1 2 6 5 9 4 14 6 14 3 0-1-17-8-20-8ZM628 600l-7 1c-3 1-2 1 5 2l11-1-9-2Zm-54 13h-3c-2 1-1 1 2 2 2 0 4-1 3-2h-2Zm-1 60-6 2c-2 1-3 2-1 2l6-2 1-2Zm420 97c-2 0-2 0-1 1l3 3c4 0 3-2-1-4h-1Zm-39 21-6 5-5 6-4-6c-4-6-5-6-7-2-2 3-3 3-4 1s-2-1-4 2c-1 5-6 8-6 3l-6-2h-7l7 4c5 2 11 3 18 2l9 1c-2 3 1 3 9-1 3-2 6-3 7-1h5c4-1 4-2-1-7l-5-5Zm-56 2h-2c-2 1 0 2 3 3 4 1 5 1 3-1l-4-2Zm24 99-1 2 2 2c3 0 3-1 0-3l-1-1ZM1202 789v10l-1 6-3-3c-4-4-4-4-4-1l3 5c3 4 4 5 4 9l-1 5-1-2-1-1-1-4c0-4-2-7-3-4l-1 2-4-1-2-2c-3 0-2 3 1 7s4 4 1 5l-1 2c0 2 3 3 5 1 1-1 1-1 1 2s0 3-3 1c-3-1-4-1-4 1l3 4c2 1 3 2 1 2h-2c-1 3-2 2-8-2l-6-3c-2 1-1 4 2 6l3 1-3 1-3 1c0 2 2 3 3 2h1l2 1v1c-1 0-1 1 1 2l2 2h-4c-4 1-5 3-2 4l3 1c1-1 5-1 5 1h1l2-1h4l-2 1c-2 2-2 2-1 3s4 0 5-1v1l1 3 2-1h1c0 1 1 1 2-1l1-2 1 2v3l-7 1c-6 1-7 1-11-2s-7-3-7-1l3 2 2 2-3-1c-3-1-8-3-11-6l-3-1c-2 0-2 2-1 3s0 1-3 2h-6c-3 2 5 6 10 5l4-1-3 2c-2 1-2 2-2 3 0 2 4 1 7-2 1-1 2-2 3-1 2 0 1 0-1 1-3 1-4 3-2 3l1 2 1 2h2l5-3 3-2 2-1c0 1-2 3-5 4l-2 2c0 2 3 2 5 1 1-2 1-2 1 0-1 3 1 3 3 0 1-2 2-2 2-1h2l2-1c4 0 9-3 9-6 0-2 0-2 1 0 0 2 0 3-3 5l-9 6-5 3-5-2-5-2c-2-1-2 1 0 3s2 2 0 1l-2-1-4-1c-3-1-4-1-3 1l-3 1h-3c-1-2-4 0-4 2 0 1 1 2 2 1 2 0 2 0 0 1-1 2-1 2 2 2 2 0 2 0 2 2-1 1 0 1 2 1 2-1 2 0 1 1 0 2 1 2 3 1s5 2 3 4h-2l-3-1h-3l-1 1c-3-1-3 0 0 2l1 3c-1 3-1 3-4 0l-4-2c-2 0-2 0-1 3 1 1 1 2-6 0l-4 1 7 3c1 0 2 1 1 2v2h2l3 1 2 1c2 0 3 1 3 2 0 2 0 2 1 0l2-1 1 1 2 2 2 3 2 2 1 1 3 1c1 2 1 2 3 0l2-2-1 2-8 4c-8 2-10 2-13-1-4-2-5-1-4 1 0 2 0 2-2 2l-4-1-2 1c-2 1-2 1 1 3 2 1 3 2 2 3l1 1c2 0 4 0 3 2s2 3 5 1h1c-1 2 0 4 2 3 4-1 5 1 1 2-4 2-8 2-10 0s-4-2-4 0c1 1 0 1-3 1-5-1-6 1-1 2 2 1 3 2 2 3 0 2 3 3 5 2 1-1 1-1 1 1s1 2 2 2c2-1 2 0 2 1-1 1 0 2 1 1h2c0 2 2 1 4-1 3-3 5-4 7-3s2 2-1 2c-3-1-4 1-1 4 1 2 1 2-1 2l-3 1-3 2-2 1h-4l-5 1-4 1c-2-1-3 0-3 2l-2 2h-6l-2 1c0 1 5 4 8 4 2 0 2 0 0 1-2 2-2 2 1 2 2 0 2 1 2 2h5l3 1c-1 3 1 3 3 0 1-2 1-2 1 0l1 2c5 1 6 0 7-2l2-3v2l1 2 2-2c2-2 2-2 2 0 0 3 1 2 2 0l1-3 1 1c-1 1 0 1 2 1h3c-1 2-7 5-9 5l-3 1-5 1-4 1c0 1 3 3 5 3h3c1 2-5 3-18 3-14 1-20 2-20 3h-5c0 2 3 3 6 3l1 1-1 1-2 2-2 2h5l2 1h2c0 2 2 2 4 0l2-1-1 1-1 3 4-1c1-1 2-1 3 1 0 3 1 3 5 0l2-2v3c-1 4 1 4 4 1 3-2 3-2 2 0s-1 3 1 2l3 1h1l2-1 1 1 3 1c9-1-3 5-14 6-8 2-8 2-11 0l-3-2c-2 0-2 2 1 3h-9l-7-1-4-1c-1 1 5 4 8 5h4l-4 1-3 1 1 2h5v2c-3 1-2 2 1 1 2-1 2-1 2 1l3 1 5-1c1-1 1-1 0 0-2 2-2 2 1 2l2 1c0 2 1 2 3 0l2-3-2 3-1 3c0 2 4 1 6-1s2-2 1 0c-1 4-2 4-10 7-7 2-7 2-11 0-4-1-10-2-10 0l1 1h-4l-6-1c-1 1-1 1 1 3l2 2-3-1h-10c0 2 6 4 9 4h3l-3 2c-2 2-2 5 0 4 1 0 2 0 2 2 0 1 0 2 2 2l3 1c1 2 1 2 3 1l2-2 1 1c2 1 3 4 1 4v1h-5l-4 1c-4 0-5 1-3 3l6 1 4-1-3 2-3 3 2 1 3-1c1 0 1 0 0 0-2 1-1 3 1 2h2c-3 2-1 2 2 1l3-1-1 2v1h6c2 0 2 0 1 1l-15 1-13 1 2 1 2 1v2h-4c-3 0-6 2-5 3 1 2 6 2 9 1 5-2 6-2 3 0-3 4-3 6 0 5l4-2 1 1v3l1 2 6-4h1v3l-1 3c0 1 5-2 9-6 3-3 4-3 1 1l-1 3c0 1 1 1 3-1l2-2v2c0 2-1 3-8 4h-8l-8-1 2 1h-3c-4 0-4 0-3 1 1 2 1 2-2 2-3-1-7 0-6 2h3c4 0 3 2-2 4-8 3-6 5 2 2 4-1 6-1 3 1l-2 2 3 1c2-1 2 0 1 1-3 3 0 3 4 0 2-2 2-2 1 0 0 2 0 2 1 1 2-1 2-1 1 1l2-1c2-2 4-1 3 1s1 1 5-1l3-1 2 1h1l-6 2c-6 1-8 2-7 4 1 1 2 1 8-1l-2 3-3 3c0 1 6 0 8-2 4-2 4-1 2 2-2 2-2 3 0 3h2c0 2 1 2 3 0h2c-1 3 4 2 7-1l2-2v3c-1 4 1 4 5 0l2-3 1 3c0 3 2 4 3 2 2-2 2-2 3 0 1 1 1 1 2-1 0-1 1-2 2-1l2-2 1-2 3 2 4-4c2-4 4-6 3-2-1 2-1 2 2 0l3-3v-1c1 3 2 1 2-2s1-4 1-2l3 1c2 0 2 1 1 7l-2 12-2 4h22v-5c-2-4-2-11-1-12l2 3c2 2 4 3 3 1-1-3 1-1 2 2l3 3h5l3 1c2 2 3 2 3 0v-1l4 1h9v-4c-2-2-1-2 2-1 4 2 5 2 3 0v-1l3 1h1l1 3h3c1-1 2-1 3 1l2 2v-2c1-2 1-2 2-1 2 2 2 2 4 0l1-2-1-2v-2l2 1c5 5 6 5 7 4l1-3h1c5 4 10 5 7 1-2-1-2-1 0-2l3-1-3-2c-3-3-1-3 4 0l5 3c2 0 1-2-1-3s-2-1 2-1l5-1c2-2 2-2-1-2-4 0-18-2-21-4-3-1-4-3 0-2 3 1 4 0 2-1-1-1-1-1 3-1s5-1 2-3h2c5 0 7-2 2-3l-3-1h3c4-1 4-1 1-3h4c6 0 6 0 4-1l-3-2-2-1 1-1h6l-6-2-6-1 6-2c5-1 9-3 8-4s-6 0-13 2c-2 0-2 0 1-2 5-4 2-5-4-1-7 4-11 4-19 1s-22-10-23-12-1-2 2 1l2 1h2c0-2 1-1 3 1l3 2-1-3c0-2 0-2 2-1l4 2c4 2 4 2 4-1v-2c2 2 5 2 5 0s2-2 3 0l3 3h3l-2-3-2-3 2-1 5-1c3 1 4 0 4-1h4c8 2 9 0 1-3-5-2-5-3-1-2 7 2 15 1 11-1l-5-1c-4 0-4-1-2-1s3-1 3-2c1-1-1-1-8-1-9 1-10 1-9-1 2-2 1-3-4-1l-8 1c-5-1-22-7-24-9s-2-3 0-2l2-1 6 2 7 1h5c3 1 3 0 1-2h1c3 3 4 4 4 2s1-2 3 0h3l3-2c3-1 3-1 1-2-2-2-2-2 2-1h2l6-2 6-2 1-1h2c2-1 2-1-1-1-2-1-2-1-2-3 1-1 0-1-1-2-2 0-1 0 3-2 7-2 8-4 3-2h-18l1-1 1-1-4-1c-6 0-16-2-17-3l2-1 3-1 1-1h3l5 2h2l-4-4h8l-3-2-3-2h3c2 0 3 0 5-2l3-2 2-2c2-3 0-3-6-1-5 1-6 1-6-1 1-2 1-2-5 0-4 1-5 1-12-1-9-2-12-5-4-5h4c1 1 3 2 6 1 4-1 4-1 2-3l3 1 1-1c-1-1 0-2 1-2s2 0 1-1l1-2v-2c-2-1-2-1 0-3 4-3 3-4-2-2-12 4-16 4-19 1-2-2-2-3-1-3l4 1c4 1 5 0 2-3-3-2-3-2-1-2l5-1-2-1 1-1 2-2c1-1 0-2-1-1-4 2-23 2-27 0-2-1-3-1-1-1l2-2c0-2 0-2 1-1 2 2 5 3 5 2l2-1h1l3-1c3 0 3-1-1-4l-3-2h5c5 1 7 1 6-1-1-1 1-3 4-3s4-2 1-2c-1-1-1-1 1-1l3-1 1-1v-1c-1-1-3-2-4-1h-1c2-1 1-3-1-2l-2-1-1-1-3 1-5 1-2 1 2-3c3-2 4-3 1-2h-3c2-2 1-4-1-2l-5 3c-5 3-20-1-20-5l-1-2v-1l1 1 4 1 5 1 2-1v-2l3 2h4l-1-2 8 1 3-1c2-1 2-1 1-2-2-2-2-2 0-2 3-1 4-3 1-3l1-1 6-4 2-2h-3l-3-2h-3c-2 0-2 0-1-1 2-2-1-3-4-1l-6 2c-4 0-4 0-3-1 2-1 2-2 1-5l-3 1c-2 2-4 2-6 2-6 0-15-3-22-8-2-2-2-2 1-1h2c0-2 0-2 1 0l2 1 3 1c2 1 2 1 2-1s0-3 1-2l5 3 2-2c0-2 0-2 0 0l1 2 3 1c1 1 2 0 3-1l2-1v-2c-1-2-1-2 2-1s4 0 2-2c-1-1-1-1 1-1v-2l-1-2 2 1c2 2 3 2 6 1v-1c-2-2-1-3 1-3l4-1 2-2h-8c-1 0-2 0-1-2 2-2 1-2-2 0-4 3-7 3-5 1v-1c-2 1-2 0-1-2 3-2 0-2-3 1-5 4-6 5-12 3-7-2-12-5-13-7s-1-2 1-2l3 1 2 2c2 0 2 0 2-2-1-2 0-2 2 1l4 2c1 0 2 0 1-3 0-3 2-4 4-1 1 2 7 3 7 2l-3-4c-3-1-3-2-2-2l2 1 2 1 1 1 3 1c2 0 2-1 1-2-2-1-2-1 0-2l4-1-1-1c-2-2-2-2 1-1l5-1c2-2 1-3-4-3l-3-1c1-2-3-2-7 0s-5 2-4 0l-1-1-1-2h-3c-2 1-2 1-2-1 1-2-1-2-2-1l-4 3c-3 2-4 2-7 1s-4-1-3-2l2-2c0-2-1-2-4-2-3 1-5 0-6-1-2-2-4-9-3-10s2 1 1 4l2 4c2 2 2 2 3 1l2-3v-1c1 3 3 5 6 5 2 0 2 0 1-1v-3h1l1-1 1 1c0 2 5 6 6 6l1-3 1-1v-1h1c1 2 2 2 3 2l2-1c3 0 7-2 7-3l-3-2-3-2-2-1c-3 0-8-2-6-3l1-2c0-1-5-2-6 0l-5 1 2-1c2-1 2-1 1-2l1-2c2 0 6-2 5-3l-5-1c-5-1-5-1-3-3 1-2 1-2 3 0 2 1 2 1 3-1l1-1 1-1 2-1 2-1c0-1-2-2-5-2-2 0-2-2 0-3l1-1 1-2c3-1 3-3-1-3h-3l2-3c2-2 2-3 1-4s-2-1-4 2c-3 3-3 3-4 2l-2-2-5 8c0 2-9 10-10 9v-6l-1-5v-3c0-3 0-3 3-4 2-1 2 0 2 1-1 3 1 3 3 1l2-1 4-1-5-5h-2c-3-1-1-2 1-2h10l-1-1-3-1c-1-1-1-2-2-1l-1-1 3-2c3-2 4-3 2-3s-8 2-9 4v-4c-1 0-5 5-5 8v1h-2c-1 2-1 1-1-2 0-4 1-6 5-10l4-6c0-2-5-1-6 2-1 4-3 3-3-2 1-4 0-5-1-7l-2-2Zm-6 32 2 2 3 6v3l-2-5-2-3-2-3h1Zm-3 13c2 1 6 3 7 5 1 3 1 4-1 1l-3-1-3-4v-1Zm25 8h1c2 0 1 1-2 4l-6 3-2 1h-1l-1-2c1-1 1-2 4-1 3 0 4 0 4-2l1-1 1-1 1-1Zm-10 13 2 1h4l2 1v1h-3l-3-1-2-2Zm10 2 1 1h1l1-1v2c-3 2-4 2-4 0l1-2Zm14 3v1c0 2-2 2-2 0l2-1Zm-22 15 1 5c0 4 0 5-1 4v-9Zm-7 12 1 1-1 1v-2Zm7 2h1v3c-1 1-1 1-1-1v-2Zm-11 1h1l-1 1h-1l1-1Zm-4 1v2l-1-1 1-1Zm-19 1 2 1c1 2 4 2 6 0h3c-1 1 0 1 1 1l2-1h2c0 1-1 2-3 2l-7 2c-5 0-6 0-7-2v-3h1Zm83 48 1 1h-1v-1Zm-76 11-2 2-6 1 8-3Zm79 39h2c2 1 1 1-2 1l-4-1h4Zm20 5h1c1 0 1 0 0 0h-2 1Zm0 22h1l2 1v1l-2-1-1-1Zm-158 37v1l-2 1c-1 0-1-1 1-2h1Zm14 8 2 2 2 2 2-2c1-2 2-2 2-1 1 2 2 2 2 1 1-1 1-1 1 1 1 2 3 2 3 1l2-1h3l-3 1-7 1-3 1c1 1-1 1-3-1h-5c-2-1-2-1 0-3l2-2Zm21 1h1l-1 1h-1l1-1Zm-9 38h1l-1 1v-1Z" fill="#230020"/><path d="M480 460v19l1 10 6-6c6-7 7-7 7-2 0 2-2 6-6 10-5 6-6 8-6 16-1 6 0 9 1 8l2-3 1-3c1 0 2-2 2-6 0-7 4-12 7-8v4c-1 2 4 1 7-2l5-2c4 0 3 4-2 10-7 8-7 9-3 10 2 1 3 2 3 4-1 4-6 4-9 1-2-2-2-2-2 4-1 6 0 6 5 2 6-3 7-3 7 1 0 2-3 5-6 7-3 3-4 4-1 4 2-1 3 0 4 1 1 4 3 4 13-3l12-6c3 1 1 7-4 10l-4 3h4c2 0 5 2 5 3 1 2-3 5-5 3l-2 1c0 1-1 2-3 2s-2 0 0 1c1 0 1 1-2 4l-4 2 7 2c7 1 9 3 5 7h-6c-3-2-8-1-8 2l-4 1-3-1c0-1-1-2-4-2h-3l4 3c3 3 3 4 2 5-3 1-7 0-9-2-1-1-1 0-1 2 1 4 1 5-2 5-2 0-3-1-3-2 0-2-1-1-1 0-1 2-2 1-3-2l-2-3-2 4c-1 2-2 5-1 6l13 1c11 1 12 1 19-4 7-4 13-5 13-2 0 1-2 3-5 4l-4 3 5-1c6-1 15-6 20-10l5-2c3 0 4 3 1 6l7 2 10 1c5 3-8 9-17 8l-7-1 5 3c2 1 4 3 4 5-1 4-8 2-13-3l-6-3c-2 1-2 1 1 3 6 2 8 4 4 6l-2 3c1 1 0 2-1 3l-2-1-10-4-5-3-3-2c0 2 3 5 7 7l4 4c0 3-5 4-8 1s-3-3-2 0c1 5-2 5-6 0-2-4-3-4-4-2h-2c-1-2-3-2-5-2-7 1-15-5-15-11-1-3-1-3-2 1-1 3 0 5 5 9l16 11 10 5 8-4 9-4c3-1 3 2 0 6-3 3-3 3 0 1l4-1c1 1 3 0 6-1 6-3 8-3 7 0s0 3 3 3l6-1c2-2 7 1 7 4 0 2 0 3-3 2s-3-1-1 3c3 3 3 3-3 3-3-1-4 0-3 2s0 3-3 2c-3 0-4 0-3 2 1 4 0 4-4 2s-9 5-6 8c2 1 2 1 3-1 0-1 3-2 7-2 3 0 5 0 4 1l3 1c4-1 4 1 0 4-2 1-3 3-2 6 1 5 1 5 7 0l7-4c3 0 3 1 1 4-2 4-1 4 11 1l7 1c0 2-9 7-13 7-2 0-2 0 0 2 1 2 1 3-1 4h-4c-3-1-5 0-5 2s-1 2-4 2-4 1-4 3c0 4-1 4-4 0-2-3-3-3-3-1l-1 2c-1-1-3 0-4 3l-4 5-2 3c0 1-1 2-3 2l-5 3c-2 3-2 3-5 0l-4-3 3 3c1 2 7 4 14 6 14 4 17 3 23 0 6-4 8-3 7 1-1 3 0 3 3 3l7-1h5c3 3 3 3-3 6-3 2-5 4-4 6s0 3-1 2c-5 0-7 0-6 3 2 4-4 6-9 3l-2-1c3 4 1 7-4 6-6-2-8 1-2 3 8 3 16 3 19 0s8-3 7 0c-1 2 0 2 6 2 9-2 10 1 2 4-4 1-5 3-5 5 1 3-4 5-8 3-2-1-3-1-3 2 0 4 0 4-3 3-3 0-4 0-3 2 1 3 1 3-2 2l-3 1c0 3-4 1-8-3-5-6-8-7-12-5s-3 4 2 3c6-1 6 2 2 8-2 3-2 3 1 3l6 3 5 2 3 2 7 1 9 1c1 1 4 2 7 1 4 0 5 1 6 4 0 2 1 3 4 4h11l2 1c0 3-9 7-13 7-3 0-3 0 0 4 2 3 2 3-2 3-3 0-4 0-3 2s0 3-4 2l-5-1c-5 0-6 0-6 2 2 5-2 5-5 0-2-4-2-4-2-1l-1 4c-10 2-12 1-14-4l-2-5-1 4-2 4-3-4c-3-4-3-4-3 0 0 5-3 4-4-1l-3-4v2l-5 1h-4c1 3 11 9 16 9 2 0 5 0 5 2 1 1 4 2 8 1 5 0 8 1 8 2 0 3-6 6-10 6-3-1-5 0-5 1-1 2 9 4 32 5 26 1 37 2 37 4h4l4 1c0 2-6 5-10 5-2 0-3 1-3 2l1 1 6 4 3 3h-5c-4-1-5 0-5 1s-2 2-4 1l-3 1c0 3-4 2-6-1l-4-2c-1 0-1 1 1 3l3 4c0 2-7 1-8-1s-3-1-5 2c-1 4-3 4-9 0l-4-3 1 5c1 6-2 6-9 1-4-3-4-3-2 0 2 4 1 5-3 4l-4 1c-2 2-3 2-3 0l-2-1c-2 0-3 1-3 2s-1 2-4 2c-17-2 5 8 24 11 13 2 15 2 19-1l6-3c4 0 3 3-1 5h3l12-1c2 1 7 0 12-2l8-2c2 2-8 9-14 10l-7 1h6c4 0 6 1 6 3 0 1-1 2-3 2l-4 1-4 1c-2 0-2 0 1 2 4 3 2 5-3 3-2-2-3-2-3 1 0 2-1 2-5 2l-9-2c-3-2-3-2 0 1s3 3-3 3c-1-1-3 0-3 2 0 3-1 3-5-1l-3-4 3 5 2 6c0 2-8 0-12-3-3-3-3-3-2 1 2 6 4 7 19 11 13 4 13 4 20 1 7-2 17-3 17-1 0 1 0 2-2 3-1 2 1 2 7 0 5-2 10-2 11-2 2 1 2 2-1 5l-4 4 6-1c7-2 15-2 17 0 1 2-10 6-16 6h-5l4 4c5 4 5 9 0 7-1-1-2 0-2 3s-1 4-3 4l-6 2c-2 3-3 3-5 1l-4-3-3 1c-3 3-4 7-1 7v2c-1 1 0 1 4 1h5c0 1 3 2 7 2 8 0 9 1 5 5-1 1-5 2-10 1l-8-1 6 3c5 2 6 4 5 6 0 1-1 2-3 1l-5-1h-1c4 2 2 4-2 3-3-1-4 0-2 1 4 3 0 3-5 1-3-2-5-2-5-1l2 2c1 0 2 1 1 2h-6c-4-2-5-2-4 0s0 2-2 1c-3-1-3 0-1 2 2 1 7 2 26 1 14 0 23 1 23 2l-2 1c-2 0-4 1-5 3-2 1-2 2 0 3l8 1c6 0 10 2 8 4-1 3-9 4-16 1-9-3-10-3-5 2 6 6 5 9-1 7l-6-2c-1-1-2 0-2 2l-1 5-1 3c-1 1-11-4-11-6l-1-1v5l1 6c0 2-8-3-15-11-6-6-7-5-2 1 2 2 2 4 2 6-1 2-2 2-5-1l-5-4 1 4c0 4 2 4 13 6 9 1 14 2 16 1 4-3 13-4 13-3l-3 3h5c7-1 8 0 6 1-3 3-2 5 2 4 6-1 13 1 12 3l-5 1c-7 0-6 2 3 6 14 6 11 10-4 5-7-3-10-3-5 0 2 1 4 3 4 5s-1 2-5 1-4-1-2 2c4 5 0 5-8 0-3-3-3-3-2 1 1 3 1 3-2 1-2-2-3-2-2 1s1 3-2 0c-5-4-7-4-6 0 2 3-2 3-8-1-3-2-6-2-6-1l-4 1h-2l11 3c11 3 14 4 12 7-1 2-3 2-13-1-2-1-2 0 2 4l6 6c0 2-9 0-15-3-5-3-6-2-2 3 3 4 3 6-1 5-2 0-3 0-3 2 0 3-2 2-6-1-3-3-3-3-2 0 1 5-8 4-13-2l-4-4 1 5c1 7-3 7-9 1l-5-5-1 4c0 6-3 8-6 4-3-3-3-3-5 0-2 2-2 2-3-1-1-2-2-3-4-3-1 1-2-1-3-3-1-3-1-4-2-3s-3 3-5 3c-3 0-4-1-7-7-3-7-7-10-5-4 1 4 0 4-5 1l-4-6c-1-3-1-3-1-1-2 5-4 1-4-5 0-5 0-6-2-3-1 1-3 3-5 3-3 0-3 0-2 12 1 9 2 15 5 21l3 7h-40c-2-1-1-4 1-8 3-7 4-21 2-22l-5 4c-3 5-6 7-5 3 2-5-1-3-3 3-2 4-3 5-6 5l-6 1c-2 2-3 2-3 0-1-1-2-1-4 1-4 5-6 4-5 0 0-2 0-3-1-2-2 2-7 4-7 2 0-1-9-1-14 1-2 1-3 1-2-1s0-3-1-4v-2c4-4 3-5-4-2-6 4-8 3-5-1 2-2 2-3 0-1l-4 1-2 1-3 4c-2 3-2 3-5 1-2-2-3-2-5 2l-3 3-1-4c-1-3-2-3-4-1-2 4-3 4-7 1-2-2-2-3 0-5l1-2 1-4c1-3 1-3-4 1-10 9-11 10-14 7-1-2-2-4-1-5l-2 1c-9 6-17 8-11 1 2-3 2-3-2-4l-4-1 4-4c7-5 3-5-6 0l-9 4c-3 0-2-2 2-4 3-2 3-2-3-2-4 0-8-1-10-3-3-2-3-2 2-2 7 0 32-5 37-7 6-2 7-6 1-4s-8 0-4-3c2-1 1-1-5-1-8 1-9-1-4-4 4-2 3-2-4-2-9 1-12-2-4-4l6-2h-6c-6-1-6-3-1-5 3-2 1-2-7-1-10 0-11 0-8-2l6-3 4-1c1-1 0-2-2-2-7 1-12 0-12-1l12-3c6 0 11-1 10-2l-10-4c-10-2-16-5-14-7 1-1 10 0 22 4 4 1 3 0-2-4-8-7-3-8 9-1 12 6 19 7 32 2 16-5 40-18 42-21 2-4 1-4-3 0l-3 2-3 1c-2 2-2 2-2-1 0-2-1-2-5 2l-5 5 1-5c1-6 0-6-4-4l-7 4c-6 5-7 5-6-1v-3c-3 2-10 2-10-1s-3-3-4 0l-6 5c-4 2-5 2-5 0l4-5 3-5h-1l-4-2c-1-1-4-2-8-1-4 0-7 0-7-2-1-1-2-2-6 0-15 4-17-1-4-6 10-3 11-5 2-3-11 4-25 1-19-3l9-2c7 0 7 0 3-1l-5-3c-1-2 2-2 15-1 17 1 17 1 15-3-3-4-1-5 7-2 4 1 10 2 14 1 10-1 41-11 45-15 3-3 3-5-1-4-2 1-3 0-3-1s-3-1-11 3l-13 2h-10c-3 1-4 0-1-4 2-2 1-2-2 1-5 5-7 6-7 2 0-2-1-2-4 0l-5 2-6-4c-5-2-5-2-2-4 4-3 3-3-3-1-3 1-4 1-4-1 0-1-5-3-11-4s-11-3-11-4h-1c-1 1-3 0-5-1s-2-1 2-2 4-2 4-4c-1-3 0-3 2-4 3 0 1-1-6-4-11-3-14-6-4-4 9 1 31 2 31 0l-1-1-2-2 8-1c10 0 27-4 28-6s0-3-3-3l-4-1-2-1c-2 1-3 0-3-1s-1-1-3 1l-8 2h-4l7-6-7-1h-8l5-3 6-3h-5c-3 0-6-1-9-4l-5-4-4-3c-3-5 1-6 10-3 10 4 12 4 11 0s0-4 10-1c7 3 8 3 21-1 16-5 21-9 8-8l-4-2c-1-1-2-1-4 1-3 2-5 3-10 2-7-1-8-2-4-5 3-3 2-3-5 0-2 1-3 1-2-1s0-3-2-3c-3 0-3-1-3-3 1-1 0-2-1-3-1 0-1-1 1-3s2-2-1-6c-6-5-5-6 3-4 22 7 30 8 35 2 3-3 3-4 1-5l-7 1c-7 3-9 0-3-5 4-3 4-3 2-3-6 0-9 0-9-2 0-1 1-2 3-2s2 0-1-1l-4-4c-1-3-1-3 2-1 6 3 40 3 47-1 5-2 5-2 2-2s-4-1-3-4 0-3-2-1c-4 3-8 5-8 3l-4-1c-2 1-3 0-3-1l-4-1c-5 0-5-2 1-7l5-4-8 1c-9 1-13 1-11-2s-3-6-8-6-6-3-1-4c2 0 2-1-2-1-3 1-5 0-5-1l-1-2c-2 0-1-1 0-3l6-2h2c-3-1-2-4 2-3s4 1 3-2c0-2 0-2 2-1l6 2 8 1 4 1-4-3c-5-5-6-7-2-5 5 2 8 2 6 0-4-4-2-7 1-3l9 5c10 5 37-1 37-8l1-5c2-1 2-2 1-2l-3 2c-1 2-3 3-6 3l-9 1c-3 1-4 0-4-3v-3l-6 3c-4 3-5 3-6 2s0-3 1-4c2-1-8-1-14 1l-6-1c-3-1-3-2-1-4 3-3 3-3-1-4-5-1-6-4-2-4 2 0 2-1-2-3l-9-6-5-4 6-1 6-3h4c4 1 5 1 3-2-3-3 1-5 6-1 3 1 7 3 12 3 6 0 7-1 5-2-4-1-4-3-2-9l5 3c3 2 8 3 11 3 10 0 28-6 39-14 4-4 3-4-2-2-2 2-3 1-3-1 0-3 0-3-2 0-1 2-2 3-3 2l-6 2c-4 2-4 2-4-2 0-3 0-4-1-3-1 2-7 6-10 6l-2-4c0-4 0-4-1 0l-2 4-4 1c-3 1-4 1-6-2l-3-2c-1 1-1-1-1-3 1-4 1-4-3-3-5 2-7 1-4-2 2-2 2-2-1-2s-3-1 0-4c2-1 2-3 1-4l-4 3c-2 2-4 3-10 1l1-2c2-2 1-4-3-4l-7-3-4-4h14c3 0 4 0 2-2-4-4-1-4 5 0 7 5 11 5 8 1-2-2-2-2 0-1 3 1 4-1 1-4-4-4 0-3 5 1 10 8 12 9 23 5 12-3 20-8 23-12 1-3 1-4-3-3l-5 2c0 2-2 3-4 3-3 0-3 0-2-3 0-3 0-3-3 1l-8 4c-3 0-3 0-2-5 1-6-3-7-7-2-3 3-12 5-12 3l5-6c4-3 5-4 3-4l-4 2-2 2h-3l-5 2c-4 0-4 0-1-2 3-3 3-3-1-4l-7-2 2-2c4-3 4-3-2-2-4 0-7 0-9-2-3-3-1-5 7-5 5 0 7-1 7-2-2-3 4-4 10 0 9 4 10 4 9 1-1-2 0-3 2-3 1 0 2-1 1-2-1-3 0-3 5-1 3 1 4 1 3-2s2-4 4-1l7 5c6 3 8 3 14 1 5-1 6-2 3-3l-2-4c0-2 1-3 7-2 6 0 8-1 10-3 4-4 7-17 5-18-1-1-2 3-1 7l-4 7c-2 4-3 5-5 3-2-1-3-4-3-6 0-3 0-4-1-1-1 5-5 9-9 9s-4-1-3-3c2-4 2-6 0-4l-1-1-2-2-1 2c0 3-10 11-12 10l-1-4c0-2-1-3-2-3l-1-2-2 2c-2 2-3 3-4 2l-5-2c-4 0-11-3-11-5l5-3c3-1 5-3 4-4 0-1 2-2 5-2 6 0 14-4 11-5l-2-3c0-3 8-3 11-1 2 2 8 4 8 2 0-1-1-2-4-2-3-1-4-2-2-4s1-2-1-2c-4 0-10-5-8-6l8-2c8-1 8-1 6-5-2-3-2-3-6-1-3 2-4 2-5-1 0-2-2-3-2-2l-2-1c0-1-1-2-3-2s-3-1-3-2c0-3 3-4 8-4 4 0 4-3 1-5-2 0-2-1-2-2l-3-3c-6-3-4-6 2-6h6l-4-5c-3-4-4-6-2-7 2-2 3-1 7 3 5 6 6 6 8 3l3-3c2 0 7 9 8 15 1 4 16 17 18 15l1-9 1-9 1-6c0-5-1-6-5-7s-4-1-4 1c2 5-2 6-5 2l-4-2c-1 2-8 1-8-1s8-9 10-9l4-1c4-1 1-3-4-2-8 2-15 1-16-1l2-2 4-2c1-2 3-2 4-2h1l-5-5c-5-3-6-6-3-6s14 5 15 7 1 1 1-1v-5c2-1 8 10 8 14l1 1c1 0 3 0 4 2 2 2 2 2 1-5s-2-10-8-17c-4-4-7-9-7-11 0-3 8-1 9 4 3 7 6 4 6-5-1-6 0-8 2-11l4-4Zm11 57c-1 0-3 1-5 4-3 3-5 7-5 11l1 5 4-9 3-6 2-5Zm4 24c-3 0-11 5-12 8-2 6-1 7 3 3l5-4c2 0 6-6 5-7h-1Zm-45 13h-1c-3 1-2 2 4 7l11 6 3 1 2 2 1-4c-1-3-2-4-7-3-5 0-6 0-6-2s-1-3-2-3c-2 0-3-1-3-2s0-2-2-2Zm19 23-4 2c-2 1-5 2-7 1l-4 1 1 2h4c1 1 4 0 6-2l4-4Zm-18 4-1 2h-3c0-1-1-2-2-1s-1 2 2 3c4 3 5 3 5-1l-1-3Zm-24 6-2 2c2 2 4 2 4 0l-2-2Zm38 26-1 9c0 8 0 8 2 7 1-2 1-16-1-16Zm13 22-1 1 1 2c2 0 2-1 0-3Zm-14 4v5c0 1 1 1 1-2l-1-3Zm21 0-2 1 2 2 1-1-1-2Zm8 4h-2l2 2c1 1 1 0 1-1l-1-1Zm34 0-4 2c-3 4-9 5-12 1-2-3-6-3-4 0 0 1 0 2-2 2l-3-2c-2-2-4-2-4 0l4 3 14 3c8 1 9 0 11-3l2-5-2-1Zm-150 86-1 1c0 3 1 3 2 0l-1-1Zm136 19 5 4c6 3 9 4 9 2 0-1-11-6-14-6Zm-140 70h-5c-2 1-1 2 4 2l7-1-6-1Zm-36 9h-2c-1 0-1 1 1 1l2-1h-1Zm-1 40-4 2-1 1 4-1 1-2Zm283 66v1l2 1c3 0 2-1-1-2h-1Zm-26 14-4 4-3 4-3-5c-3-4-3-4-4-1-2 2-2 2-3 1-1-2-2-1-3 1-1 4-4 5-4 2l-4-2h-5l5 3c3 2 7 2 12 2 4-1 6 0 6 1-1 2 1 1 6-1 3-2 5-2 5-1h3c3-1 3-1 0-5l-4-3Zm-38 1-1 1 2 1h2l-3-2Zm17 67-1 1 1 2c2 0 2-1 0-2v-1ZM2550 1126c1-10 0-24-1-33-1-15-2-15-6-14l-12 2-7 1c0 1-3 2-7 1-5 0-8 1-9 5-1 5-8 6-8 1 0-4-4-4-9-1-2 1-3 1-2-2 1-2 0-3-4-2-3 0-4 0-2-1 4-1 3-6-1-4-2 1-5-1-7-4l-4-6v6c0 3-1 5-2 5-2 0-3-1-3-2s-2-2-6-1c-3 1-6 0-6-1 0-2 2-3 5-3 2 0 6-2 7-4l10-5c11-2 10-5-2-5l-18-2c-4 0-9 0-12 2-4 2-5 2-6 0s-2-2-3-2c-3 2-19-1-18-4h9c7 1 8 0 10-6 3-6 2-7-2-7-3-1-4 0-2 3 2 2 2 3-1 4-2 1-5 1-5-1l-4-2c-1 0-4-2-5-5-2-4-5-6-8-6-13-1-14-1-8-5 5-3 5-4 2-7-2-1-5-6-6-10-1-10 3-11 11-2 8 8 18 12 24 9s7-8 3-8c-1 0-2-1-2-3 1-1-1-2-2-2-2 0-3-1-3-2l-5-1h-4l-3-8c-4-7-2-10 8-12 6-1 8-2 7-4-2-1-4-1-8 1-6 3-10 3-10 0 0-1 2-2 5-2 8 0 8-5 0-9l-8-3 7-2 7-1-6-6-7-7c0-1 13 1 19 3l5 1 4 2c4 4 25 1 25-3l-6-2c-3 0-7-3-10-6-4-3-8-5-10-4-3 1-3 0-2-3 1-4 1-4-1-2-4 3-8 0-11-8-1-4-3-5-6-4s-4-1-5-5c-1-6 1-9 4-4 2 4 11 3 12-1 1-2 3-4 5-4s3-1 3-2c0-2-1-3-3-3l-4-2-4-2c-3 0-3-1-1-4 3-4 1-7-3-3-3 1-3 1-3-3 0-2 1-4 3-3l-2-3-4-5c0-3 5-1 15 6l12 7c4 0 1-7-6-13-5-6-6-8-4-9h-3c-5 1-7 0-7-3 0-2 2-4 5-4s4 0 3-1c-2-1-3-3-3-5s0-3 1-2 5 0 8-2c3-3 9-4 15-3 7 0 11-1 11-3 1-2 0-3-1-3h-5c-4 0-4 0 0-2 3-2 3-3-1-3s-8-10-6-14c1-1 7 1 14 5 10 7 13 7 14 4 4-5 3-8 0-5l-6 3c-3 0-3-1-1-3 2-3 2-5-1-8s-3-5-2-5l3-3c0-2-2-2-5-1s-5 1-3-1c0-2 0-3-3-3-2 0-3-1-3-2 0-5 4-5 12 0 7 4 9 4 13 1 3-2 7-3 9-2 2 0 4 0 5-2 1-1 1-2-1-2l-2-4c0-4-1-4-4 0-4 6-5 3-1-4 3-5 3-5-2-1-5 5-5 5-8-3-2-4-5-7-7-7-2 1-4-1-4-5-1-5 0-5 5-4 8 2 14-1 11-5-2-2-2-5-1-7 1-3 0-3-4-1-7 4-10 3-8-4 1-3 1-6-1-6s-2-1-1-2c0-2 0-5-2-7s2 0 8 6c5 5 14 11 18 13 4 1 7 4 7 5v2l10 2c5 0 8-1 8-2 0-2 1-2 3-2 2 1 2 2 3-1 0-3 0 0-2-1-4-3-11 0-11-3 0-1-2-2-5-2l-9-4c-3-2-6-3-7-2l-1-2v-6c0-4 16-2 26 3l10 2v-2c0-5-1-7-5-8-5-1-7-6-2-6v-4c-3-5-15-4-14 0 0 2-2 4-6 5s-7 1-7-1-1-1-3 0c-2 2-4 2-5 1-1-2 1-4 4-5 22-9 26-11 27-14s1-3-2-1c-2 1-4 2-5 1l-14-1c-12 0-15-1-5-3 8-1 13-6 12-13-1-5-1-5 3-2 3 1 5 3 4 4l8 2c4 0 7-1 7-2-1-1 0-5 2-8 3-5 2-6 0-5-3 1-4 0-4-4 0-3-1-5-3-5s-4-2-5-4c-1-4 0-4 8 0l9 6c-1 1 3 2 7 2 8 1 8 1 5-3l-4-5-7-5c-4-2-7-4-6-6 1-1 0-4-2-5l-6-10c-2-8-2-8 2-5 3 1 4 4 4 5-1 1 2 3 6 3s7-1 7-3 1-3 4-2 3 1-1-4c-6-6-6-16 0-15 2 0 4-2 5-5 1-2 3-4 4-3s2 0 3-1-1-3-3-4c-3 0-5-3-5-5 0-3 1-3 3-1 4 4 7 4 7-1 0-2 1-3 2-3l9-5c4-3 7-4 7-3 1 3-8 13-11 11-2-1-2 0-1 2s0 4-1 4c-2 0-3 2-3 5 0 5 0 5 10 0l14-9c3-2 5-3 6-1s0 4-3 4c-3 1-6 4-7 6 0 3-2 4-3 4-2-2-5 4-6 12-1 4-3 8-6 9-6 5-2 7 6 3l9-4 11-6c7-6 7-6 7-2 0 3-2 6-4 7-3 1-5 3-5 4 1 2-1 3-3 3-3 0-6 8-3 8l9-3 8-3c1 1 0 2-2 2s-2 0 0 2c4 2-1 8-8 8-6 0-6 0-5 8 1 7 0 8-4 8l-8-2c-2-2-3-1-4 2-1 5-1 5 9 4l19-6c7-4 8-4 6-1-4 7-11 15-13 15-4 0-16 13-14 15 3 3 23-4 32-13 6-5 9-6 11-4 1 1 1 2-1 2s-2 1-1 3l-5 8c-5 4-5 6-3 8 1 2 2 3 0 3-5-2-13 3-13 7 0 3-2 6-5 7-2 0-5 2-5 3h-4c-2-1-3 0-2 2 3 5 13 0 29-16l10-8c4-3 4-3 3 1-1 2-1 4 1 4l-2 5c-6 7-7 16-2 17 4 0 4 0 0 2l-5 2-5 5c-2 3-6 5-9 5-8 0-8 3 0 7 4 2 8 2 12 0h6c0 1 2 0 6-4 3-3 7-5 9-5s4-3 5-5c1-6 4-6 8 0 3 4 2 5-1 5-4 0-4 0-1 2s3 2-1 4c-2 1-3 3-3 5 1 1 0 4-2 6-2 3-3 4-1 5 3 2-2 9-6 9l-4 2c0 2 4 2 12 1 6-1 10-1 9 1-2 2-4 2-16 4l-7 2h-7c-5 0-5 0-2 1 8 2 11 7 7 10-1 2-4 3-7 3s-3 1-1 3c1 2 2 4 1 5s0 2 3 3c2 1 3 2 2 4-4 6 30-4 35-10 2-3 15-10 16-9l-2 6c-2 4-5 6-8 6-4-1-4-1 0 2 4 4 4 4 1 4-4 0-8 7-5 10 0 1-1 2-4 2s-5 2-6 6-5 8-9 10-6 5-5 7l2 4c4 0 37-17 40-22 5-5 14-7 14-2l-6 2c-3 0-4 1-2 2 4 3 2 13-2 13-1 0-2 1-1 2s0 2-1 2c-2 0-2 1-1 3l-4 3c-3 0-6 2-6 4s-3 4-7 4l-6 4c0 2-3 5-6 7-4 4-4 4-1 4s4 1 3 2c-2 4 9 0 16-4l8-5 10-6c8-6 12-5 9 2 0 2-2 3-4 3-2-1-3 0-3 2s2 4 4 4 2 1 1 1c-2 1-3 3-2 5 1 3 1 4-4 1-5-2-7 1-2 4 4 2-6 11-11 9-2-1-4 0-4 1 0 2 2 4 4 4 2 1 3 3 2 5s-2 3-4 2c-1-1-2 1-2 3 0 6 6 4 18-9 13-13 24-20 27-17 0 1-1 4-3 5-4 4-4 14 1 20 3 3 3 5 0 9-2 3-4 5-6 4s-3 0-3 1-2 2-4 1c-4-2-4 2 0 6 2 3 2 3-2 1-6-3-8-2-8 5 0 4-2 4-7 3s-6-1-3 1c4 2 1 7-4 5-2 0-3 0-2 3s2 3 10 0c5-2 14-8 19-13l10-10-1 10c-1 6-2 11-4 12-3 1-9 14-6 16l2 3c0 3-13 5-16 3-3-4-6-3-6 1 0 1 4 4 9 5 10 3 19 1 24-6 3-3 3-3 3 1 0 3-2 7-5 10l-3 6c2 0-1 1-5 4-5 2-8 4-7 6 2 3-6 5-9 2-3-2-4-1-8 2-2 3-6 5-9 5-8-1-11 0-5 2 3 1 8 1 12-1 7-3 8-3 11 0 1 2 4 3 6 3l11-3 12-2c4-2 4-1-2 6-3 5-8 8-10 8-4-2-11 4-11 9l-2 4c-1-1-4 2-7 5-2 3-6 5-7 4-4-3-6 4-2 7 3 2 0 2-12 2-13 0-15 1-15 4s-1 4-4 3c-2-1-5 0-7 1l-10 1c-9-1-6 4 4 7l9 2-12-1-11 1c0 2 2 3 5 3 5 0 5 0 1 2s-7 1-11-4c-6-5-11-7-9-3 1 1 1 2-1 2-5 0-2 5 6 6 7 2 7 2 3 4-2 2-6 2-8 1-3-1-5-2-6-1l-5-7c-4-9-6-9-7-1-1 5-2 7-4 6-14-3-15-3-15 8 0 9 4 37 6 50 2 6 1 7-8 7h-9l1-17Zm-38-51c2 0 3-1 1-1-2-1-2-3-2-5 2-3 1-4-3-2-7 3-11 3-15 0-2-1-3-1-3 1 0 1-2 3-4 3-3 1-3 1 1 3 5 2 13 2 25 1Zm-60-39-4 2-3 6c0 4 7-4 7-8Zm34-11c0-2-2-3-3-3-2 0-2-2-1-4 1-4 1-4-2 0s-4 4-7 1c-4-3-21-5-21-1l-4 2c-5 0-4 4 1 5 9 2 37 2 37 0Zm24 0c0-3-4-3-6 0-1 1 0 2 2 2l4-2Zm34-5c1-1 0-2-2-1-4 2-5 3-1 3l3-2Zm103-5-4-2c-2 0-3 1-3 2s1 2 3 2l4-2Zm-198-3-4-2h-4c1 3 8 4 8 2Zm199-4c-2-3-4-3-4 0l3 2c1 0 2-1 1-2Zm-188-10c1-1-1-2-4-2-4 0-5 0-2 2 5 3 4 3 6 0Zm11-2c0-2-1-2-2-1-3 2-3 3 0 3l2-2Zm-39-3c2-2 4-2 6 0s5 1 11-1l6-5c-2-1-5 0-7 2-3 2-4 2-6 0-1-3-4-3-12 0-8 2-9 3-7 5 5 2 6 2 9-1Zm247-9c2-2-2-3-16 0l-2 2c0 3 14 2 18-2Zm-236-10c1-1 0-2-2-1-4 2-5 4-1 4l3-3Zm12-34c-1-3-3-3-3 0 0 2 1 3 2 3 2 0 2-1 1-3Zm4-11c4-3 1-9-4-7-2 1-6 0-10-2-3-3-8-3-12-3-7 2-6 4 8 9 12 5 13 5 18 3Zm241-13c0-4-8-10-9-8s-4 3-6 4c-8 3-5 7 5 7 5 0 10-1 10-3Zm-228-8h-5c-1 1 1 1 3 1 3 0 3-1 2-1Zm11-30c-3-2-3-2 1-3 4 0 4 0 2-2h-7c-2 2-3 2-4 0-1-1 0-2 2-3s4-3 4-5-1-2-2 0c-3 4-10 6-12 3 0-1-2-2-3-1-2 1-3 0-3-1s-2-2-5-2c-4 0-5-1-5-4 0-2-1-4-4-4-17 0-5 16 16 21 18 4 25 4 20 1Zm140-29a2 2 0 0 0-5 0l2 2c2 0 3-1 3-2Zm-149-2c2-2 2-3-2-3-3 0-6 1-6 3 0 3 3 3 8 0Zm27-32c3-4-3-9-6-5-3 3-1 8 3 8l3-3Zm12-4c-2-4-3-4-3 0l2 2c2 0 2-1 1-2Zm98-15c0-1-1-2-3-2-1 0-2 1-1 2 2 3 4 3 4 0Zm-95-10-1-2-4 2c-1 2-1 3 1 3l4-3Zm-14-3c-1-3-5-3-6 1-1 1 1 2 3 2s3-1 3-3Zm-9-4c0-4-6-5-8-2-3 5-2 7 3 5 3 0 5-2 5-3Zm108-15c9-5 9-6 0-5-4 1-7 2-6 3 1 2-1 3-4 3-4 1-4 2-1 2l11-3Zm-29-27-4-1c-2 0-3 1-2 2 2 3 6 2 6-1Zm-31-36c0-2-2-2-8-2-8 2-8 2-2 3 9 3 10 3 10-1Zm-96 375h5c2 1 1 1-2 1-2 1-4 0-3-1Zm43-388c-3-6-3-7-1-7 4 0 8 9 6 10-1 1-4 0-5-3Zm36-73 2-2 6-1c2-1 4-1 4 1 0 1-3 3-6 3-3 1-6 0-6-1Zm21-18c-3-4-2-4 2-2 5 1 5 1 0-2-4-3-3-4 4-3l9 1-10 10-5-4Zm0-17c-4-5-4-6-1-5h4c0-2 1-3 3-3s2 1 0 3c-3 4-1 8 6 10 4 1 3 1-2 1-4 0-7-2-10-6Zm1-16c-4-3-3-6 1-6 3 0 7 6 4 8-1 1-3 0-5-2Zm1-19 1-7c2-2 2-1 3 4 0 7-2 8-4 3ZM2008 1131l-1-22c-1-11-1-11-5-10l-8 1-5 1-5 1c-3 0-5 0-6 3s-5 4-5 0c0-2-3-2-7 0-1 1-1 0-1-1 1-2 0-2-3-2h-1c2-2 2-4-1-3l-5-3-2-4v4c0 2-1 3-2 3l-2-1-4-1c-2 1-4 0-4-1s1-2 3-2l5-2 7-4c8-1 7-3-2-3l-12-1c-3-1-6-1-8 1h-5c0-2-1-2-2-1-2 1-13-1-12-3l6-1c5 1 6 1 7-4 2-4 2-4-1-5-2 0-3 1-1 2 1 2 1 3-1 4l-4-1c0-1-1-2-3-2l-3-4c-1-2-3-3-6-3-9-1-9-1-5-4 3-2 3-3 1-4l-4-8c-1-7 2-7 8-1 5 6 12 8 17 6 3-2 4-5 1-5l-1-2-1-2-3-1-3-1h-3l-2-6c-2-5-1-6 6-8 4 0 5-1 4-2h-5c-4 2-7 2-7 0l4-2c5 0 5-3 0-5l-6-3 5-1 5-1-5-4-4-5 13 2 4 1 2 2c3 2 18 0 18-3l-4-1-8-4c-2-3-5-4-6-3-3 0-3 0-2-3 1-2 1-2-1-1-2 3-5 0-7-5-1-3-2-4-4-3-2 0-3 0-4-4s1-6 3-2c1 2 7 2 8-1l4-3 2-1-2-2c-2 0-3-1-3-2l-3-1c-2 0-2-1 0-3 2-3 0-5-3-2-2 1-2 1-2-2 0-2 1-3 2-2 1 0 1-1-1-2l-3-3c0-3 4-1 11 4l8 5c3 0 1-5-4-10-3-4-4-5-3-6h-2c-4 1-5 0-5-2 0-1 2-3 4-3s3 0 2-1c-2 0-3-2-3-3 0-2 1-2 2-2l5-1c2-2 6-2 10-2 5 0 8-1 8-2 1-1 0-2-1-2h-3c-3 0-3 0 0-2 2-1 2-1-1-1s-6-7-4-10c1-1 5 0 10 3 7 5 8 5 10 3 2-3 2-6-1-3l-4 2c-2 0-2-1 0-3 1-2 1-3-1-5s-3-3-1-4l2-2-4-1h-2c0-1 0-2-2-2l-2-2c0-3 3-3 8 0s6 3 9 1c2-1 5-2 7-1l3-1c1-1 0-2-1-2l-1-3c0-3-1-3-3 0-3 4-3 2 0-3 1-3 1-3-2 0-4 3-4 3-6-2-1-3-3-5-4-5-2 0-3-1-4-4 0-3 0-4 4-3 6 2 10 0 8-3-1-1-2-3-1-5s0-2-2-1c-6 3-7 2-6-2 1-3 0-4-1-4l-1-2c1-1 0-3-1-5l5 4c4 4 10 8 13 9s5 3 5 4v2h7c3 1 5 0 5-1l3-1c1 1 1 1 1-1v-1c-3-1-9 1-9-2l-3-1-6-3c-2-1-4-2-5-1l-1-2v-4c0-3 12-1 18 3l7 1v-2c0-3-1-5-3-5-3-1-5-4-2-4v-3c-2-3-10-3-9 0l-4 3h-5c0-2-1-1-2 0h-4l3-3c15-6 18-8 19-10s0-2-1-1c-2 1-3 2-4 1l-10-1c-8 1-10-1-3-2 5 0 9-4 8-9-1-3 0-3 2-2l3 3 5 2c3 0 6 0 5-1 0-1 0-4 2-6 1-4 1-4-1-3-1 0-2-1-2-3l-2-4c-2 0-3-1-3-3-1-3-1-3 5 1l6 4 5 1c6 1 6 0 3-2l-2-4-5-3c-3-1-5-3-4-4l-1-4c-2-1-4-4-5-7-1-5-1-5 2-3 1 1 3 2 2 3l4 2c4 1 5 0 5-2 0-1 1-2 3-1s2 0-1-3c-4-4-4-11 0-10 2 0 4-2 4-3l3-3h2l-2-3c-2-1-4-2-4-4s1-2 2-1c3 3 5 3 5 0 0-2 1-3 2-3l6-3c2-2 5-3 5-2 1 2-6 9-8 8-1-1-1 0-1 1 1 2 0 3-1 3l-1 3c0 4 0 4 7 0l10-6c2-1 3-2 3 0 1 1 0 2-2 3-2 0-4 2-4 4l-3 2c-1-1-3 3-4 9 0 2-2 5-4 6-4 3-2 4 4 2l7-3 7-4c5-4 5-4 5-1 0 2-1 4-3 4l-3 3-2 2c-3 0-5 6-2 6l6-2 6-2-2 1c-2 0-2 0 0 1 3 2 0 6-6 6-4 0-4 0-3 6 1 5 0 5-3 5l-6-1c-1-2-2-1-2 1-1 4-1 4 6 3 4-1 10-2 13-4 5-3 6-3 5 0-3 4-8 10-10 10-3 0-11 9-9 10 2 2 16-3 22-9 4-3 6-4 7-3 2 1 1 2 0 2l-1 1c1 1-1 4-3 6-3 3-4 5-2 6v2c-4-1-9 2-9 5 0 2-2 4-4 4l-3 3h-3c-2-1-2 0-1 1 2 4 8 0 20-11l7-6c2-2 3-2 2 1v3l-1 3c-4 5-5 12-1 12 3 0 3 0 0 2l-4 1-3 3-7 4c-5 0-5 2 0 5h13c0 1 2 0 4-3l6-4c2 0 3-1 4-3 1-4 3-4 5 0 2 3 2 3 0 3-3 0-3 1-1 2s2 2 0 3c-2 0-3 2-3 3 1 1 0 3-1 5-2 1-2 3-1 3 2 2-1 6-4 6-2 0-3 1-3 2l8 1h7l-11 3-5 1h-5c-3 0-4 0-1 1 5 1 7 4 5 7l-5 2c-2 0-3 0-1 2l1 3c-1 1 0 2 1 3 2 0 3 1 2 2-2 4 21-2 25-7l10-6-1 5c-1 2-3 4-5 3-4 0-4 0 0 2 3 2 3 3 0 3s-5 4-4 7c1 1 0 1-2 1s-4 2-4 5l-6 6c-3 2-5 4-4 5 0 2 1 3 2 3 2 0 25-12 28-15 3-4 9-5 9-2l-4 2c-3 0-3 0-1 1 2 2 1 9-2 9l-1 1v2c-1 0-2 1-1 2l-3 2c-2 0-4 1-4 3 0 1-2 3-5 3-2 0-4 1-4 3l-4 4c-3 3-3 3-1 3s3 1 2 2c-1 2 7 0 12-4l5-3 7-4c5-4 8-4 6 1 0 2-2 3-3 2l-2 2c0 1 1 3 3 3 1 0 2 0 1 1-2 0-2 2-1 3 0 2 0 2-3 1-4-2-5 0-2 2s-4 8-7 7h-3c0 2 1 3 2 3 2 1 2 2 2 4-1 1-2 2-3 1l-1 2c0 4 4 3 13-6 8-9 16-14 18-12l-2 4c-3 2-3 9 0 13 3 3 3 4 1 7-1 2-3 3-5 2l-2 1-2 1c-3-1-3 1-1 4 2 2 2 2-1 0-4-2-6-1-6 4 0 3 0 3-4 2-3-1-4 0-3 1 3 2 1 5-2 4-2-1-2 0-1 1 0 3 1 3 7 0 3-1 9-5 13-9l7-7-1 8-3 8c-2 1-6 10-4 11l1 2c0 2-9 4-10 2-3-2-5-2-5 0s3 4 6 5c7 2 14 0 17-5 2-2 2-2 2 1 0 2-1 5-3 7l-2 4-4 2-5 5c2 2-4 3-6 1-2-1-3-1-5 2-2 2-5 3-7 3-6 0-7 0-4 2 2 1 6 0 9-1 5-2 6-2 7 0l5 2 7-2 9-2c3-1 3-1-1 5-3 3-6 6-7 5-3-1-8 3-8 7l-2 2-4 4-5 3c-3-2-4 2-2 4s1 2-8 2-10 0-10 3c0 2-1 3-3 2h-5l-7 1c-6 0-4 3 2 5l7 2-8-1c-5-1-8 0-8 1l4 1c3 1 3 1 0 2s-5 0-8-3c-4-4-7-5-5-2l-1 2c-4 0-2 3 3 4s6 1 3 3h-6l-4-1-3-5c-3-6-5-6-5 0l-3 4c-10-2-10-2-10 5l4 35c1 5 1 5-6 5h-6l1-12Zm-27-35c2 0 2-1 1-1-2 0-2-2-1-4 0-2 0-2-3-1-5 2-8 2-10 1-1-2-2-1-2 0s-1 2-3 2c-2 1-2 1 1 2 3 2 9 2 17 1Zm-42-27c0-1-1-1-2 1-2 1-3 3-3 5s5-4 5-6Zm24-8-2-2c-1 0-2-1-1-3s1-2-1 0c-2 3-3 3-5 1-3-2-15-3-15-1l-2 1c-4 0-3 3 0 4 7 2 26 1 26 0Zm16 0c0-2-2-2-4 0 0 1 0 2 2 2l2-2Zm25-4h-2c-3 1-3 2-1 2l3-2Zm71-3c0-1-1-2-3-2l-2 2 2 2c2 0 3-1 3-2Zm-138-2-3-2c-2 0-3 0-2 1l5 1Zm139-3c-2-2-3-2-3 0l2 2 1-2Zm-131-7c1-1-1-1-3-1-3 0-3 0-1 1 3 2 3 2 4 0Zm8-1c0-1-1-2-2-1-2 1-2 2 0 2l2-1Zm-28-2c2-2 3-2 5 0 1 1 3 1 7-1 3-2 5-3 4-4l-5 2c-2 2-2 2-3 0s-3-2-9 0c-5 1-7 2-5 3 3 2 4 2 6 0Zm172-7h-11l-1 2c0 2 10 1 12-2Zm-164-6c1-1 0-2-1-1-3 1-4 2-1 2l2-1Zm9-24c-2-2-3-2-3 0l2 2 1-2Zm2-8c3-2 1-6-3-5-1 1-4 0-6-1-3-2-6-3-9-2-5 1-4 3 5 6 9 4 10 4 13 2Zm168-9c0-3-5-7-7-5l-4 2c-5 2-3 5 4 5 4 0 7-1 7-2Zm-159-6h-3c-1 1 0 1 2 1s2 0 1-1Zm8-20c-2-2-2-2 1-2 2 0 3 0 1-2h-8s0-2 2-2l2-3c0-2 0-2-1-1-2 3-7 5-8 3l-3-1-1-1-4-1c-3 0-4-1-3-3 0-1-1-3-3-3-12 1-4 12 11 15 13 3 17 3 14 1Zm97-21a2 2 0 1 0-3 0 2 2 0 0 0 3 0Zm-104-1c2-2 2-2-1-2l-4 2c0 2 2 2 5 0Zm20-22c1-3-3-6-5-4s-1 6 2 6l3-2Zm8-3c-1-3-3-3-3 0l2 1 1-1Zm68-10-2-2-1 2c2 2 3 2 3 0Zm-66-7-1-2-3 2 1 1 3-1Zm-10-2c-1-3-4-2-4 0-1 1 0 2 2 2l2-2Zm-6-3c0-3-4-4-6-2-2 4-1 5 2 4l4-2Zm75-11c6-3 6-4 0-3-3 0-5 1-4 2 0 1-1 2-3 2-3 1-3 1-1 1l8-2Zm-20-19h-3c-1 0-2 0-1 1 1 2 4 1 4-1Zm-22-24c0-2-1-2-5-2-6 1-6 1-2 2 7 2 7 2 7 0Zm-66 261h3c1 0 1 1-1 1l-2-1Zm29-271c-2-4-2-5 0-5s5 6 4 8l-4-3Zm25-50 2-2 4-1c2-1 3 0 3 1l-4 2h-5Zm15-13c-2-3-2-3 1-2 4 1 4 1 1-1s-3-2 3-2l6 1-8 7-3-3Zm0-12c-3-4-3-4-1-3l3-1 2-1v2c-2 2 0 5 4 6 3 1 3 1-1 1-2 0-5-1-7-4Zm1-11c-3-2-3-4 0-4s5 4 3 5c-1 1-2 0-3-1Zm1-13v-5c1-2 2-1 2 2 0 5-1 6-2 3Z" fill="#230020"/><path d="m2771 1215 1-49c3-22 3-23 11-21 4 2 12 3 17 3 6 0 10 1 10 2s5 2 11 2c8-1 11 1 13 6 2 8 12 9 12 1 0-5 6-5 14-1 3 2 3 2 2-2s0-5 6-4h4c-6-3-5-9 1-7 3 1 7-2 11-6l5-9v9c0 4 2 8 4 8s4-2 4-4c0-1 4-2 9-1s9 0 9-2-4-4-7-4c-4 0-9-3-11-5-3-3-9-7-15-8-17-4-15-8 3-8l27-2c6-2 13-1 18 2 6 3 8 3 9 0s3-4 5-3c4 3 28-2 26-5-1-2-7-2-13-1-11 1-12 0-16-9-3-9-3-10 3-11 5 0 6 1 3 5-3 3-2 5 2 7 4 1 7 0 8-2s3-3 5-3c3 0 6-4 8-9s7-8 13-8c19-1 20-1 11-7-7-5-7-6-2-10 3-2 6-9 7-16 3-14-4-16-16-3s-26 18-36 13c-8-4-10-11-4-11 2 0 3-2 3-4-1-3 1-4 4-4 2 1 4 0 4-2s3-3 7-2 7 1 7-1c-1-2 1-7 3-11 6-11 4-15-12-17-8-2-11-4-9-6 2-3 6-2 11 0 9 5 15 5 15 0 0-2-4-3-7-3-12 0-12-7 0-12l11-5-10-3-11-2 10-9 10-10c0-2-20 1-29 4l-7 2-5 3c-6 6-38 2-38-5 0-1 4-3 8-3 5 0 12-4 17-9s10-7 14-6c4 2 5 1 3-5-2-5-2-6 2-2 5 5 11-1 15-13 2-5 5-7 9-5 5 1 7-1 8-8 2-9-1-13-6-6-3 6-16 5-18-1-1-3-5-6-7-6-3 0-5-1-5-3s2-4 5-4 5-2 5-4 3-3 6-3c5 0 5-1 2-5-5-6-1-11 5-6 4 3 5 2 4-3 0-4-2-7-4-6l3-3 6-7c0-5-8-2-23 8l-18 11c-6 0-1-11 9-21 7-7 9-11 6-13h5c8 2 10 1 10-3s-3-6-8-6c-4-1-6-2-3-3 2-1 4-4 4-7s-1-5-2-3c-2 1-7 0-11-3-5-4-15-5-23-5-10 1-16-1-17-4-1-2 0-4 1-4h9c5 0 5 0 0-4-5-3-5-3 1-3s12-15 8-21c-1-2-9 1-20 7-15 10-19 11-22 6-4-7-4-12 1-7 3 2 7 4 10 4 4 0 4-1 0-5-3-4-3-7 2-12 4-4 5-6 2-7-2-1-4-3-4-5s4-3 8-1c5 1 7 1 5-2-1-2 0-4 3-4s6-1 6-3c0-7-7-8-19-1-10 7-12 7-19 2-5-3-11-4-14-3s-6 0-7-2c-2-2-1-4 1-4s4-3 4-6c0-6 1-6 6 1 6 8 6 4 1-7-4-7-4-7 3-1 8 7 8 7 12-4 3-7 7-11 10-11 4 1 6-2 7-7 1-8 0-9-8-6-13 3-22-1-16-8 2-2 3-7 2-10-2-5-1-5 4-2 12 6 15 5 13-5-2-6-1-9 2-9 2 0 3-2 2-4-2-2-1-6 2-10l-11 9c-9 8-22 16-28 19-6 2-11 6-10 8s1 3-1 3l-14 2c-7 1-12 0-12-2 0-3-2-4-5-3-2 1-3 3-4-1 0-6-1-1 2-3 7-3 18 1 18-4 0-2 3-3 6-3 4 0 10-3 14-6s9-4 10-3c1 2 2 0 2-3v-9c0-6-24-3-38 5l-16 3v-4c0-6 3-10 7-11 8-2 11-8 4-8-2 0-2-3 1-7 4-7 21-7 20 0-1 2 3 5 9 7s10 1 10-1 1-2 5 0c3 3 6 3 7 1s-1-5-6-7c-32-13-39-17-40-21-2-5-1-5 2-2s6 3 8 2c1-1 10-2 21-2 18 1 22-1 7-4-12-2-19-10-17-19 1-7 1-8-5-4-4 2-7 5-6 6s-4 2-11 3c-7 0-12 0-11-2s0-7-3-12c-4-8-4-10 0-8 4 1 5 0 5-5s3-8 5-8c3 0 6-3 7-7 2-6 1-6-12 1-7 4-13 8-12 9 0 1-5 3-12 3-11 1-11 1-6-5 3-3 5-6 5-8l11-7c6-3 10-6 9-9-2-2-1-5 2-7s7-9 9-16c4-11 4-11-2-7-4 2-7 6-6 8s-3 4-9 4c-7 1-10-1-10-4s-2-4-6-3c-5 2-5 1 1-5 9-10 9-25 0-24-3 0-7-3-8-6-1-4-3-6-5-5s-4 0-5-2 1-4 5-5c4-2 7-5 7-9s-1-4-4-1c-6 6-10 5-10-1 0-3-2-6-4-6l-14-7c-5-4-10-6-10-4-2 5 13 19 17 17 2-1 3 0 1 3-1 3 0 6 2 6s4 3 4 7c0 7 0 7-15 0l-21-13c-5-4-7-4-9-1-1 2 1 5 5 6s9 5 10 8c1 4 3 6 5 5 3-2 8 7 9 20 1 4 4 10 8 13 9 7 4 9-8 3-5-3-12-5-15-5-2 0-9-4-15-9-11-9-11-9-11-2 0 4 3 8 7 9s7 4 6 7c0 2 2 4 5 4 5 0 10 13 4 13l-13-6c-6-3-11-5-12-4-1 2 0 2 3 2 4 0 4 1 1 3-7 5 0 13 11 13 9 0 10 0 8 12-2 11-1 12 6 12 5 0 10-2 12-4 3-3 4-1 6 4 2 8 1 8-13 6l-28-9c-12-6-13-6-10-1 5 10 17 22 20 22 6 0 23 19 20 22-5 5-34-7-47-19-9-8-14-10-16-7-3 3-3 4 0 4s4 2 3 4c-2 2 1 7 6 12 7 6 8 9 5 12-2 3-2 4-1 4 9-2 20 5 20 12 0 4 3 8 7 9s8 3 8 5c0 1 2 2 6 1 4-2 5-1 3 2-5 7-19 0-44-23l-14-13c-6-5-6-5-4 1 1 3 1 6-1 6s-1 3 2 7c9 11 10 26 2 26-5 0-5 0 1 4l8 3c1-1 4 2 7 6 3 5 9 8 14 8 11 0 11 5 0 10-6 3-12 3-18 1s-9-2-9 0-4-1-9-6c-5-4-11-8-14-8s-6-4-7-8c-2-9-7-9-12 0-4 7-4 8 1 8 6 0 6 0 1 3-4 3-4 4 2 6 3 1 5 4 4 7s1 7 4 10c3 4 4 6 1 8-5 3 2 12 10 12 2 0 5 2 5 4 0 3-6 3-18 2-9-2-15-2-14 0 3 3 6 4 24 7l11 2h11c7 0 7 1 2 2-12 3-16 10-11 15 3 2 8 4 11 4 5 0 5 1 2 5-2 3-3 6-2 7 2 2 0 4-3 5-4 1-5 4-4 5 5 9-45-5-53-14-3-4-22-16-23-14-1 1 1 5 3 10 3 6 7 8 12 8 6-1 6-1-1 4-6 5-6 6-1 6 6 0 12 9 8 15-1 1 2 3 6 3 5 0 8 3 9 9 2 5 7 11 13 14 7 4 9 8 8 11s-3 5-4 5c-6 0-54-25-60-31-7-8-20-11-20-5 0 2 4 4 8 4 6 0 7 1 3 3-5 4-2 19 4 19 2 0 2 1 1 3s0 4 2 4 3 1 2 3 2 4 6 5c5 0 8 3 8 6s4 6 10 7c6 0 10 3 10 6 0 2 4 7 8 10 7 5 7 6 2 6-4 0-6 1-5 3 3 5-13 0-24-7l-11-7c-2 0-8-4-15-9-12-9-18-8-14 3 1 3 4 5 7 4 2-1 4 1 4 4s-2 6-6 6c-3 0-4 1-1 2 2 1 3 4 2 7-2 5-1 5 6 1 8-4 11 1 4 6-6 3 9 16 16 14 3-2 5-1 5 1 0 3-2 5-5 7-3 1-4 4-3 7 1 2 3 4 5 3s3 0 3 3c0 10-9 6-27-12-19-20-36-31-39-26-1 2 1 6 4 8 7 6 6 21-1 29-4 5-5 7-1 14 3 4 7 7 10 6 2-1 4-1 4 1s3 3 6 2c6-3 7 2 0 9-3 4-3 4 4 1 8-5 12-3 12 7 0 6 1 7 10 5 6-2 8-1 4 1-6 4-2 12 6 9 3-1 4 0 3 3-2 5-4 5-16 0-7-3-19-11-28-19l-15-15 2 16c1 8 4 16 6 17 5 2 13 21 10 24-2 1-4 3-4 5 0 4 19 7 23 3 5-4 9-4 9 2 0 2-5 6-12 9-15 4-29 0-37-9-4-6-4-6-4 1 0 4 3 11 7 15s6 8 4 8l9 6c7 3 11 7 10 9-3 5 9 8 14 3 3-3 6-2 11 4 3 4 10 7 14 6 12-1 16 1 8 4-5 2-12 1-19-2-10-4-12-4-16 1-2 3-7 4-10 3l-15-3-18-4c-7-3-7-2 2 10 6 7 12 12 15 11 6-3 18 6 18 14 0 3 1 6 2 5 1 0 6 3 10 8 4 4 9 7 11 6 6-4 9 6 3 10-5 3-1 4 17 4 20 0 23 1 23 6 0 4 2 6 6 4 3-1 8 0 11 1 4 2 10 2 15 2 13-1 9 6-6 10l-13 4 17-2c10-1 17 0 17 2s-4 4-8 4c-8 0-8 0-1 3 5 2 10 1 16-5 10-9 17-12 13-5-2 1-1 3 1 3 9 0 3 7-8 9-10 2-10 3-5 6 4 2 9 2 13 1l8-2c2 0 5-4 7-10 6-14 10-14 11-1 1 6 3 9 7 8 20-4 21-3 21 12s-5 55-9 75c-2 10-1 10 12 10h14l-2-25Zm57-76c-3 0-4-1-1-2s3-4 2-8c-2-4-1-5 5-3 11 5 17 5 22 2 3-3 5-3 5 0 0 2 2 4 6 5 5 1 5 2-2 5s-19 3-37 1Zm90-58c0-2 3-1 6 2l5 10c0 5-11-7-11-12Zm-50-17c0-2 2-4 4-4s3-3 2-6c-2-6-2-6 2 0 4 5 6 6 10 2 6-6 32-8 32-3 0 2 3 4 6 4 7 0 6 6-1 8-14 2-55 2-55-1Zm-36 0c0-5 6-5 9 0 1 2 0 3-4 3-3 0-5-1-5-3Zm-52-7c-1-2 0-3 3-2 6 3 8 5 2 5-2 0-4-1-5-3Zm-153-8c0-2 2-3 5-3s6 1 6 3-3 4-6 4-5-2-5-4Zm295-5 7-3c4-1 6 0 5 2-2 3-12 4-12 1Zm-297-5c3-5 6-5 6 0 0 2-2 3-4 3s-3-1-2-3Zm281-15c-2-2 1-3 6-3 6 0 7 0 3 3-7 5-7 5-9 0Zm-17-4c0-2 2-2 4-1 5 3 5 5 0 5-2 0-4-1-4-4Zm59-4c-3-3-6-3-9 0-4 3-8 3-17-2-7-3-10-6-8-7s7 1 10 3c4 4 6 4 8 0 2-3 6-3 19 0 11 3 14 5 10 7-7 5-8 4-13-1Zm-369-13c-3-4 4-4 24-1l2 4c0 5-21 2-26-3Zm352-15c-2-2 0-2 3-1 6 2 7 5 2 5-2 0-4-2-5-4Zm-18-50c3-5 5-5 5 0 0 2-2 4-4 4s-2-2-1-4Zm-5-18c-7-4-2-12 6-9 3 1 9-1 14-4 5-4 12-5 18-3 11 2 9 5-11 13-18 7-21 7-27 3Zm-360-18c0-7 11-16 14-12l8 6c12 4 7 10-8 10-8 0-14-2-14-4Zm341-13h7c1 1-1 2-5 2s-5-1-2-2Zm-18-45c5-3 5-3-1-3s-7-1-2-4c3-2 7-2 9 1 3 2 5 2 7 0 1-2-1-5-4-6s-5-4-5-6c0-3 1-4 3-1 4 6 14 9 17 5 1-2 4-3 5-2 2 2 4 1 4-1s3-4 8-3c6 0 8-1 7-6 0-3 2-6 6-6 26 0 8 24-24 31-27 6-37 6-30 1Zm-208-43c0-2 2-3 4-3s3 1 3 3-1 4-3 4-4-2-4-4Zm223-3c-5-3-4-4 2-4 5 0 9 2 9 4 0 4-4 4-11 0Zm-42-47c-3-6 5-13 10-8 4 4 1 11-4 11l-6-3Zm-18-7c3-5 6-5 6 0 0 2-2 3-4 3s-3-1-2-3Zm-145-22c0-2 2-3 4-3s3 1 1 3c-3 5-5 5-5 0Zm142-14c-1-2-1-4 1-4s5 2 6 4 1 3-1 3-5-1-6-3Zm21-5c1-5 7-4 9 1 1 2-2 4-5 4s-5-2-4-5Zm13-6c0-6 8-8 11-3 5 8 4 10-4 8-4-1-7-4-7-5Zm-162-24c-13-6-13-8 0-6 6 1 10 3 9 5s2 4 6 4c6 2 7 2 2 2-3 1-11-2-17-5Zm43-39 6-2c3 0 5 2 3 4-2 3-9 2-9-2Zm47-53c0-4 4-5 12-3 11 2 11 2 3 4-14 4-15 4-15-1Zm143 560c-1-1-4-2-7-1-3 2-2 2 2 3 4 0 6-1 5-2Zm-64-580c4-9 5-11 1-11-5 0-12 13-8 16 2 1 5-1 7-5Zm-54-109c0-2-1-3-3-3l-9-2c-3-2-6-1-6 1s4 4 9 5 9 1 9-1Zm-32-27c5-6 5-6-2-4-7 3-7 2 0-3 6-4 5-5-7-4-7 0-13 1-13 2l16 15 6-6Zm1-25c7-9 7-10 1-8-3 2-6 1-6-1s-1-3-4-3-3 1 0 4c5 6 1 12-8 15-6 1-6 1 2 2 5 0 11-3 15-9Zm-2-24c6-6 6-10 0-10s-11 10-7 12c2 1 5 0 7-2Zm-2-29c1-3 1-7-1-10-2-4-3-2-3 5 0 11 2 12 4 5Z" fill="#230020"/><path d="M2959 1044c1-8 0-22-1-29-1-14-1-14-6-13l-10 2-6 1-7 1c-4 0-6 1-7 4-2 4-8 5-8 1 0-3-3-4-8-1-2 1-2 1-1-1 1-3 0-3-4-3h-2c3-2 3-5-1-4-1 1-4-1-6-4l-4-5v5c0 3-1 5-2 5l-2-2-5-1c-4 1-6 0-6-1l4-2c3 0 6-2 7-4l9-4c10-2 9-5-2-5l-16-1c-4-1-8-1-11 1s-5 2-5 0c-1-1-2-2-3-1-3 1-17-2-16-4h8c6 1 7 0 9-6 2-5 2-6-2-6-3 0-3 0-1 2 2 3 1 4-2 5-2 1-4 0-4-1l-3-2c-2 0-4-2-5-5-2-3-4-5-8-5-11-1-12-1-6-5 4-3 4-3 1-5l-5-10c-1-9 3-9 10-2 7 8 16 11 22 8 4-2 6-6 2-6l-2-3c1-2 0-3-2-2l-2-2-5-1h-4c1-1 0-4-2-7-3-6-2-9 8-10 4-1 6-3 5-4h-6c-6 3-9 3-9 1s1-3 4-3c7 0 7-4 0-7l-7-3 6-1 6-2-6-5-6-6c0-1 13 0 18 2l4 2 3 2c4 3 23 0 23-3 0-1-2-2-5-2s-7-3-10-6-6-4-8-4c-3 2-3 1-2-2 1-4 1-4-1-2-3 3-7 0-9-7-1-3-3-4-6-4-3 1-4 0-5-4-1-6 1-8 4-4 2 4 10 3 11-1l4-3c2 0 3-1 3-2s-1-2-3-2-3-1-3-2c0-2-2-3-4-3s-3 0-1-2c3-4 1-7-3-4-2 2-3 1-2-2 0-2 1-4 2-3l-1-2c-3-2-4-4-4-5 0-2 5-1 14 6l10 6c4 0 1-6-5-12-4-5-6-7-4-8h-3c-4 1-6 0-6-2s2-4 5-4 4-1 2-1l-2-5c0-2 0-3 1-2s4 0 6-2c3-2 9-3 14-2 6 0 10-1 10-2 1-2 0-3-1-3h-5c-2 0-2 0 0-2 3-2 3-2 0-2-4 0-7-9-5-13 1-1 6 1 12 5 9 5 11 6 13 3 3-4 2-7-1-4l-5 2c-3 0-3 0-1-3s2-4-1-7c-2-2-3-4-1-4l2-3c0-2-2-2-4-1-3 1-4 1-3-1 0-1 0-2-2-2l-4-2c0-5 5-5 12-1 6 4 7 4 11 2 3-2 7-3 8-2 2 0 4 0 5-2 1-1 0-2-1-2l-2-4c0-3-1-3-4 1-3 5-4 3 0-4 2-5 2-5-2-1-5 5-5 5-8-2-1-4-4-7-6-7-2 1-3-1-4-4 0-5 0-5 5-4 8 2 13 0 10-4-1-2-2-5-1-6 1-3 0-3-3-1-7 3-9 2-8-4 1-3 1-5-1-5-1 0-2-1-1-2 1-2 0-4-1-6l7 5c5 5 12 10 16 11 4 2 7 4 6 5s0 2 1 2l8 1c4 1 7 0 7-1 0-2 2-2 3-2 2 1 2 2 3-1 0-3 0 0-2-1-3-2-10 0-10-2s-2-3-4-3-6-1-8-3l-6-2c-1 1-2 0-2-2v-5c0-4 15-2 24 3l9 2v-2c0-4-2-6-5-7-4-1-6-5-2-5 2 0 2-2 0-4-3-4-13-4-12 0 0 1-2 3-5 4-4 1-6 1-6-1 0-1-2-1-3 1h-5c-1-1 1-3 4-4 19-8 23-10 24-13 1-2 1-3-2-1-1 2-3 2-4 1l-13-1c-11 1-13-1-4-2 7-1 11-6 10-12-1-4 0-4 3-2 3 1 4 3 4 4l6 1c5 1 7 0 7-1-1-1 0-4 2-7 2-5 2-6-1-5-2 1-3 0-3-3s-1-5-3-5c-1 0-3-1-4-4s0-3 8 1l7 5c0 1 3 2 7 2 7 1 7 0 4-3l-3-5-7-4c-4-2-6-4-5-5s0-3-2-5c-1-1-4-5-5-9-2-6-2-7 2-4l3 4c-1 2 2 3 5 3 4 0 6-1 6-3s2-2 4-1c3 1 3 0-1-4-5-5-5-14 0-14 2 0 4-1 5-4 1-2 2-3 3-2l3-1c1-1 0-3-3-4-2-1-4-3-4-5s0-3 2-1c4 4 6 4 6 0 0-2 2-3 3-3l8-5 6-2c1 3-8 11-10 10-1-1-2 0-1 2s0 3-1 3-2 2-2 5c0 4 0 4 9-1l12-7c3-3 4-3 6-1 0 1-1 3-3 3-3 1-5 3-6 6l-3 3c-2-2-5 4-6 11 0 3-2 7-4 8-6 4-3 6 4 2l9-3c2 0 6-3 9-6 7-5 7-5 7-1 0 3-2 5-4 6-3 1-4 2-4 4 0 1-1 2-3 2-3 0-6 8-3 8l8-3c4-2 7-3 8-2l-2 1c-2 0-2 0-1 1 5 3 0 8-6 8s-6 0-5 7c1 6 0 7-4 7l-7-2c-2-2-3-1-3 2-2 5-1 5 7 4 5-1 13-3 17-6 7-3 8-3 6 0-3 6-10 13-12 13-3 0-14 11-12 13 3 3 21-4 29-11 5-5 7-6 9-4 2 1 2 2 0 2s-2 1-2 2c1 2-1 5-4 8-4 3-5 5-3 7l1 2c-5-1-12 3-12 7 0 3-2 5-4 6-3 0-5 2-5 3h-3c-3-1-3 0-2 1 3 5 11 1 26-13l8-8c4-3 4-3 3 1-1 2 0 3 1 3l-2 5c-5 6-6 15-1 15 3 0 3 0-1 2l-4 2-4 4c-2 3-6 5-9 5-7 0-7 3 0 6 4 1 7 2 11 0h5c0 1 3 0 6-3s6-5 8-5 4-2 4-5c2-5 4-5 8 0 2 4 2 5-1 5-4 0-4 0-1 2 3 1 3 2-1 3-2 1-3 3-2 5l-2 6c-3 2-3 3-1 4 3 2-2 8-6 8-2 0-3 1-3 2s3 2 10 1h9c-2 2-4 2-15 4l-6 1-7 1c-4 0-4 0-1 1 7 2 10 5 6 9l-6 2c-3 0-3 1-1 3l1 4c-1 1 0 2 2 3s3 2 2 3c-3 6 27-3 32-8 2-3 13-10 14-9l-2 6c-2 4-4 5-7 5-4-1-4-1 0 3 4 2 4 3 1 3-4 0-7 6-5 9 1 1-1 2-3 2-3 0-5 2-6 5s-4 7-7 9c-4 2-6 4-5 6l2 4c3 0 33-16 36-20 4-4 12-6 12-2 0 1-2 2-5 2s-4 1-2 2c3 2 2 11-2 11l-1 2c1 1 1 2-1 2-1 0-2 1-1 2s-1 3-4 3c-2 0-5 2-5 4s-2 4-5 4c-4 0-6 2-6 3 0 2-3 5-5 7-4 3-5 3-1 3 2 0 3 1 3 2-2 3 7 0 14-4l7-4 9-6c7-5 11-4 8 2-1 2-2 3-4 2-1 0-3 1-3 3s2 3 4 3 2 1 1 1c-2 1-2 3-2 5 1 3 1 3-3 1-5-3-7 0-2 3 3 2-6 10-10 8-2-1-3 0-3 1 0 2 1 3 3 4l2 4c-1 2-2 3-3 2-2-1-2 0-2 2 0 6 5 4 16-7 11-12 21-19 23-16 1 1 0 4-2 5-4 3-4 13 0 17 3 4 3 5 1 9-2 2-4 4-6 3l-2 1c0 1-2 2-3 1-4-2-5 2-1 5 2 3 2 3-2 1-5-3-7-1-7 5 0 3-1 3-6 2-4-1-5 0-3 1 4 2 1 7-3 5-2-1-3 0-2 2 1 3 2 3 9 0 4-1 12-7 17-12l9-8-1 9-3 10c-4 2-9 13-6 15l2 3c0 2-12 4-14 2-3-3-6-3-6 1 0 1 4 4 8 5 9 3 17 1 22-5 2-4 3-3 3 0s-2 7-5 9l-2 5-6 4c-4 2-6 4-5 5 1 3-6 5-9 2-2-1-4-1-6 2s-6 4-9 4c-7 0-9 1-5 2 3 1 7 1 12-1s7-2 9 1l6 2 9-2 11-3c4-1 4-1-1 6-4 5-7 8-9 7-4-2-11 4-11 8l-1 4c-1-1-4 1-6 4s-5 5-7 4c-3-2-5 3-1 6 2 2 0 2-11 2-12 0-14 1-14 4 0 2-1 3-3 2l-7 1-9 1c-7-1-5 3 4 6l8 2-10-1-11 1c0 2 3 3 5 3 5 0 5 0 1 2-3 1-6 0-10-4-6-5-10-7-8-3v2c-6 0-2 4 4 6 6 1 7 1 3 3-2 2-5 2-7 1s-4-2-5-1l-5-7c-3-8-5-8-6 0-1 4-2 6-4 5-12-3-13-2-13 7s3 33 6 45c1 6 0 6-7 6h-9l1-15Zm-34-45c2-1 2-1 1-2-2 0-2-2-2-4 1-3 1-3-2-2-7 3-11 3-14 1-2-2-2-2-2 0l-4 3c-3 1-3 1 1 3s11 2 22 1Zm-54-35c0-1-1-1-3 1l-3 6c0 3 6-4 6-7Zm30-11-2-2c-1 0-2-1-1-3 1-4 1-4-2 0-2 3-3 3-6 1-3-4-19-5-19-2 0 1-1 2-3 2-5 0-4 4 0 5 9 2 33 1 33-1Zm22 0c0-2-4-2-6 0 0 2 1 3 2 3 2 0 4-1 4-3Zm31-4c1-1 0-1-2-1-4 2-4 3-1 3l3-2Zm92-4-4-2-3 2 3 2 4-2Zm-177-3-4-2c-3-1-4 0-3 1 1 2 7 3 7 1Zm178-4c-2-2-4-2-4 0s2 3 3 3l1-3Zm-168-8c0-1-1-2-4-2-4 0-4 0-2 2 4 2 4 2 6 0Zm9-3h-2c-3 1-3 3 0 3 1 0 2-1 2-3Zm-35-2c2-2 4-2 6 0s4 1 10-1c4-2 6-4 5-5l-6 2c-3 3-4 3-5 0-2-2-4-2-11 0s-9 3-7 5c4 2 5 2 8-1Zm221-8c2-2-2-2-14 0l-1 2c0 3 12 1 15-2Zm-210-9-2-1c-4 2-5 3-2 3l4-2Zm10-30c-1-3-3-3-3 0l2 2c2 0 2-1 1-2Zm3-10c4-3 1-8-3-6-2 1-6 0-9-2-3-3-7-3-11-2-6 1-5 3 7 7 11 5 12 5 16 3Zm216-12c0-3-7-9-8-7l-5 4c-7 2-4 6 4 6 5 0 9-1 9-3Zm-204-7h-4l2 1c3 0 3-1 2-1Zm10-27c-3-2-2-2 1-2 4 0 4-1 1-2h-9c-1-1 0-2 2-3l3-4c0-2-1-2-2-1-2 4-8 6-10 3l-3-1c-1 1-2 1-2-1 0-1-2-2-5-1-4 0-5-1-5-4 0-2-1-3-3-3-16 0-5 14 14 18 16 4 23 4 18 1Zm125-26a2 2 0 0 0-4 0l2 2 2-2Zm-134-2c3-2 3-2-1-2-3 0-5 1-5 2 0 3 2 3 6 0Zm25-28c3-4-2-8-5-5s-1 7 2 7l3-2Zm11-4c-2-3-3-3-3 0l2 2c1 0 2-1 1-2Zm87-13-2-2c-1 0-2 1-1 2 2 3 3 3 3 0Zm-85-9c1-1 1-2-1-2l-3 2c-1 1 0 2 1 2l3-2Zm-12-2c-1-4-5-3-6 0 0 1 1 2 3 2s3-1 3-2Zm-8-4c0-4-5-5-7-2-3 5-2 6 2 5l5-3Zm97-14c8-4 8-5 0-4l-6 3c1 1-1 2-3 2-4 1-4 2-1 2l10-3Zm-26-24-4-1-2 2c2 2 6 1 6-1Zm-28-32c0-2-2-2-7-2-7 1-7 2-2 3 8 2 9 2 9-1Zm-86 336 4-1c2 1 2 2-1 2l-3-1Zm39-348c-3-5-3-7-1-7 3 0 7 9 5 10-1 1-3-1-4-3Zm32-65 2-2 5-1c2-1 4 0 4 1l-6 3-5-1Zm19-16c-3-3-3-4 1-2 4 1 4 1 1-2-4-3-4-3 3-3l8 1-9 9-4-3Zm-1-15c-3-5-3-6 0-5h3c0-2 1-2 3-2v2c-3 4-1 7 5 9 3 1 3 1-1 1s-7-2-10-5Zm1-14c-3-4-3-6 1-6 3 0 6 5 4 7-1 1-3 0-5-1Zm2-18v-6c2-2 2-1 2 3 0 7-1 8-2 3ZM1039 1126c-1-10 0-24 1-33 1-15 2-15 7-14l11 2 7 1c0 1 3 2 7 1 5 0 8 1 9 5 1 5 8 6 8 1 0-4 4-4 9-1 2 1 3 1 2-2-1-2 0-3 4-2 3 0 4 0 3-1-5-1-4-6 0-4 2 1 5-1 7-4l4-6v6c0 3 1 5 2 5 2 0 3-1 3-2s3-2 6-1 6 0 6-1c0-2-2-3-5-3l-7-4-10-5c-11-2-10-5 2-5l18-2c4 0 9 0 12 2 4 2 6 2 6 0 1-2 2-2 3-2 3 2 20-1 18-4h-9c-7 1-8 0-10-6-3-6-2-7 2-7 3-1 4 0 2 3-2 2-2 3 1 4s5 1 5-1l4-2c2 0 4-2 5-5 2-4 5-6 9-6 12-1 13-1 7-5-5-3-5-4-2-7 2-1 5-6 6-10 2-10-3-11-11-2-8 8-18 12-24 9-5-3-7-8-3-8 1 0 2-1 2-3l2-2c2 0 3-1 3-2l5-1h5c-1-2 0-5 2-8 4-7 2-10-8-12-6-1-8-2-6-4 1-1 4-1 7 1 6 3 10 3 10 0 0-1-2-2-5-2-8 0-8-5 0-9l8-3-7-2-7-1 7-6 6-7c0-1-13 1-19 3l-5 1-4 2c-3 4-25 1-25-3l6-2c3 0 8-3 11-6s7-5 9-4c3 1 4 0 2-3-1-4-1-4 1-2 4 3 8 0 11-8 1-4 3-5 6-4s4-1 5-5c2-6-1-9-4-4-2 4-11 3-12-1-1-2-3-4-5-4s-3-1-3-2c0-2 1-3 3-3l4-2 4-2c3 0 3-1 1-4-3-4 0-7 4-3 2 1 3 1 2-3 0-2-1-4-3-3l2-3 4-5c0-3-5-1-15 6l-12 7c-4 0-1-7 6-13 5-6 6-8 4-9h4c5 1 6 0 6-3 0-2-2-4-5-4s-4 0-3-1c2-1 3-3 3-5s0-3-1-2-4 0-7-2c-4-3-10-4-16-3-6 0-10-1-11-3s0-3 1-3h5c4 0 4 0 0-2-3-2-3-3 1-3s8-10 6-14c-1-1-7 1-14 5-10 7-13 7-14 4-4-5-3-8 0-5 2 2 5 3 7 3s2-1 0-3c-2-3-2-5 1-8s3-5 2-5l-3-3c0-2 2-2 5-1 4 1 5 1 4-1s0-3 2-3 3-1 3-2c0-5-4-5-12 0-7 4-8 4-13 1-3-2-7-3-9-2-2 0-4 0-5-2-1-1-1-2 1-2l2-4c0-4 1-4 4 0 4 6 5 3 1-4-3-5-3-5 2-1 5 5 5 5 8-3 2-4 5-7 7-7 2 1 4-1 4-5 1-5 1-5-5-4-8 2-14-1-11-5 2-2 2-5 1-7-1-3 0-3 4-1 7 4 10 3 8-4-1-3-1-6 1-6s2-1 2-2c-1-2-1-5 1-7l-7 6-19 13c-4 1-7 4-6 5l-1 2-10 2c-5 0-8-1-8-2 0-2-1-2-3-2-2 1-2 2-3-1 0-3 0 0 2-1 4-3 12 0 12-3 0-1 1-2 4-2l9-4c3-2 6-3 7-2l1-2v-6c0-4-16-2-26 3l-10 2v-2c0-5 2-7 5-8 5-1 7-6 2-6-1 0-1-1 1-4 2-5 14-4 13 0 0 2 3 4 6 5 4 1 7 1 7-1s1-1 3 0c2 2 4 2 5 1 1-2-1-4-4-5-21-9-26-11-27-14s-1-3 2-1c2 1 4 2 5 1l14-1c12 0 15-1 5-3-8-1-13-6-12-13 1-5 1-5-3-2-3 1-4 3-4 4l-7 2c-5 0-8-1-8-2 1-1 0-5-2-8-2-5-2-6 0-5 3 1 4 0 4-4 0-3 1-5 3-5s4-2 5-4c1-4 0-4-8 0l-9 6c1 1-3 2-7 2-8 1-8 1-5-3l4-5 7-5c4-2 7-4 6-6-1-1 0-4 2-5l6-10c2-8 2-8-2-5-3 1-4 4-4 5 1 1-2 3-6 3s-7-1-7-3-1-3-4-2-3 1 1-4c6-6 6-16 0-15-2 0-4-2-5-5-1-2-2-4-4-3-1 1-2 0-3-1s1-3 3-4c3 0 5-3 5-5 0-3 0-3-3-1-4 4-6 4-6-1 0-2-2-3-3-3l-9-5c-4-3-7-4-7-3-1 3 9 13 11 11 2-1 2 0 1 2s0 4 2 4c1 0 2 2 2 5 0 5 0 5-10 0l-14-9c-3-2-5-3-6-1s0 4 3 4c3 1 6 4 7 6l3 4c3-2 5 4 7 12 0 4 2 8 5 9 6 5 2 7-5 3l-10-4-11-6c-7-6-7-6-7-2 0 3 2 6 4 7 3 1 5 3 5 4-1 2 1 3 3 3 3 0 6 8 3 8l-9-3-8-3c-1 1 0 2 2 2s2 0 0 2c-4 2 1 8 8 8 6 0 7 0 5 8-1 7 0 8 4 8l8-2c2-2 3-1 4 2 2 5 1 5-8 4l-19-6c-8-4-9-4-7-1 4 7 11 15 14 15 4 0 15 13 13 15-3 3-23-4-32-13-6-5-9-6-10-4-2 1-2 2 0 2s2 1 2 3c-1 1 1 5 4 8 5 4 5 6 3 8v3c5-2 13 3 13 7 0 3 2 6 5 7 3 0 5 2 5 3h4c2-1 3 0 2 2-3 5-13 0-29-16l-10-8c-4-3-4-3-3 1v4c-2 0-1 2 1 5 6 7 7 16 2 17-4 0-4 0 0 2 3 2 5 3 6 2l4 5c2 3 6 5 10 5 7 0 7 3-1 7-4 2-8 2-12 0h-6c0 1-2 0-6-4-3-3-7-5-9-5s-4-3-5-5c-1-6-4-6-8 0-2 4-2 5 1 5 4 0 4 0 1 2s-3 2 1 4c2 1 3 3 3 5-1 1 0 4 2 6 2 3 3 4 1 5-3 2 2 9 6 9l4 2c0 2-4 2-12 1-6-1-10-1-9 1 2 2 4 2 16 4l7 2h7c5 0 5 0 2 1-8 2-11 7-7 10 1 2 5 3 7 3 3 0 3 1 1 3-1 2-2 4-1 5s0 2-2 3c-3 1-4 2-3 4 4 6-30-4-35-10-2-3-15-10-16-9l2 6c2 4 5 6 8 6 5-1 5-1 0 2-4 4-4 4-1 4 4 0 8 7 6 10-1 1 0 2 3 2s6 2 7 6c0 4 4 8 8 10s6 5 5 7l-2 4c-4 0-37-17-40-22-5-5-14-7-14-2l6 2c4 0 4 1 2 2-4 3-2 13 2 13 1 0 2 1 1 2s0 2 1 2c2 0 2 1 2 3-1 1 1 2 4 3 3 0 5 2 5 4s3 4 7 4l6 4c0 2 3 5 6 7 4 4 5 4 1 4-3 0-4 1-3 2 2 4-9 0-16-4l-8-5-10-6c-8-6-12-5-9 2l4 3c2-1 3 0 3 2s-2 4-4 4-2 1-1 1c2 1 3 3 2 5-1 3-1 4 4 1 5-2 7 1 2 4-4 2 7 11 11 9 2-1 4 0 4 1 0 2-2 4-4 4-2 1-2 3-2 5 1 2 3 3 4 2s2 1 2 3c0 6-6 4-18-9-13-13-24-20-27-17 0 1 1 4 3 5 4 4 4 14 0 20-4 3-4 5-1 9 2 3 4 5 6 4s3 0 3 1 2 2 4 1c4-2 4 2 0 6-2 3-2 3 2 1 6-3 9-2 9 5 0 4 1 4 6 3s6-1 4 1c-5 2-2 7 3 5 2 0 3 0 2 3s-2 3-10 0c-5-2-14-8-19-13l-10-10 1 10 4 12c4 1 9 14 7 16l-3 3c0 3 13 5 16 3 3-4 6-3 6 1 0 1-4 4-9 5-10 3-19 1-24-6-3-3-3-3-3 1 0 3 2 7 5 10l3 6 6 4c4 2 7 4 6 6-2 3 6 5 9 2 3-2 5-1 8 2 2 3 6 5 9 5 9-1 11 0 5 2-2 1-7 1-12-1-7-3-8-3-11 0-1 2-4 3-6 3l-11-3-12-2c-4-2-4-1 2 6 4 5 8 8 10 8 4-2 12 4 12 9l1 4c1-1 4 2 7 5 2 3 6 5 7 4 4-3 6 4 2 7-3 2 0 2 12 2 13 0 15 1 15 4s1 4 4 3c2-1 5 0 8 1l9 1c9-1 6 4-3 7l-9 2 11-1 11 1c0 2-2 3-5 3-5 0-5 0-1 2s7 1 11-4c7-5 11-7 9-3-1 1-1 2 1 2 6 0 2 5-6 6-6 2-7 2-3 4 2 2 6 2 8 1 3-1 5-2 6-1l5-7c4-9 6-9 7-1 1 5 2 7 5 6 13-3 14-3 14 8 0 9-4 37-6 50-2 6-1 7 8 7h9l-1-17Zm38-51c-2 0-2-1-1-1 2-1 3-3 2-5-1-3-1-4 3-2 8 3 12 3 15 0 2-1 3-1 3 1 0 1 2 3 4 3 4 1 3 1-1 3-5 2-13 2-25 1Zm60-39 4 2 3 6c0 4-7-4-7-8Zm-33-11c0-2 1-3 2-3 2 0 2-2 1-4-1-4-1-4 2 0s4 4 7 1c4-3 21-5 21-1l4 2c5 0 4 4-1 5-9 2-36 2-36 0Zm-24 0c0-3 4-3 6 0 0 1-1 2-3 2s-3-1-3-2Zm-35-5c-1-1 0-2 2-1 4 2 5 3 1 3l-3-2Zm-103-5 4-2 4 2-4 2-4-2Zm198-3 4-2h4c-1 3-8 4-8 2Zm-199-4c2-3 4-3 4 0 0 1-1 2-3 2-1 0-2-1-1-2Zm188-10c-1-1 1-2 4-2 4 0 5 0 2 2-5 3-4 3-6 0Zm-11-2c0-2 1-2 2-1 4 2 4 3 0 3l-2-2Zm39-3c-2-2-4-2-6 0s-5 1-11-1c-5-3-7-5-5-5 1-1 4 0 6 2 3 2 4 2 6 0 1-3 4-3 12 0 8 2 9 3 7 5-5 2-6 2-9-1Zm-247-9c-2-2 3-3 16 0l2 2c0 3-14 2-18-2Zm236-10c-1-1 0-2 2-1 4 2 5 4 1 4l-3-3Zm-12-34c2-3 3-3 3 0 0 2-1 3-2 3-2 0-2-1-1-3Zm-4-11c-4-3-1-9 4-7 2 1 7 0 10-2 4-3 8-3 12-3 7 2 6 4-7 9s-14 5-19 3Zm-241-13c0-4 8-10 10-8 0 2 3 3 5 4 8 3 5 7-5 7-5 0-10-1-10-3Zm229-8h4c1 1 0 1-3 1s-3-1-1-1Zm-12-30c3-2 3-2-1-3-4 0-4 0-1-2h6c2 2 3 2 4 0 1-1 0-2-2-3s-4-3-4-5 1-2 2 0c3 4 10 6 12 3 1-1 2-2 3-1 2 1 3 0 3-1s2-2 5-2c4 0 5-1 5-4 0-2 1-4 4-4 18 0 5 16-16 21-18 4-25 4-20 1Zm-140-29c0-1 1-2 3-2l2 2-2 2c-2 0-3-1-3-2Zm150-2c-3-2-3-3 1-3 3 0 6 1 6 3 0 3-3 3-7 0Zm-28-32c-3-4 3-9 6-5 3 3 1 8-2 8-2 0-3-1-4-3Zm-12-4c2-4 4-4 4 0l-3 2c-1 0-2-1-1-2Zm-98-15 3-2c1 0 2 1 1 2-2 3-4 3-4 0Zm95-10 1-2 4 2c1 2 1 3-1 3l-4-3Zm14-3c1-3 5-3 7 1 0 1-1 2-4 2-2 0-3-1-3-3Zm9-4c0-4 6-5 8-2 3 5 2 7-3 5-2 0-5-2-5-3Zm-108-15c-9-5-9-6 0-5 4 1 7 2 6 3-1 2 1 3 4 3 4 1 4 2 1 2l-11-3Zm29-27 4-1c2 0 3 1 2 2-1 3-6 2-6-1Zm31-36c0-2 3-2 8-2 8 2 8 2 2 3-9 3-10 3-10-1Zm96 375h-5c-2 1-1 1 2 1 2 1 4 0 3-1Zm-43-388c3-6 3-7 1-7-3 0-8 9-6 10s4 0 5-3Zm-36-73-2-2-6-1c-2-1-4-1-4 1 0 1 3 3 6 3 3 1 6 0 6-1Zm-21-18c3-4 2-4-2-2-4 1-4 1 0-2s4-4-4-3l-9 1c0 1 9 10 11 10l4-4Zm0-17c4-5 5-6 1-5h-4c0-2-1-3-3-3s-2 1 0 3c3 4 1 8-5 10-4 1-4 1 1 1 4 0 7-2 10-6Zm-1-16c4-3 4-6-1-6-3 0-7 6-4 8 1 1 3 0 5-2Zm-1-19-1-7c-2-2-2-1-2 4 0 7 1 8 3 3ZM86 982c-1-10 0-24 1-33 1-15 2-15 7-14l11 2 7 1c0 1 3 2 7 1 5 0 8 1 9 5 1 5 8 6 8 1 0-4 4-4 9-1 2 1 3 1 2-2-1-2 0-3 4-2 3 0 4 0 3-1-5-1-4-6 0-4 2 1 5-1 7-4l4-6v6c0 3 1 5 2 5 2 0 3-1 3-2s3-2 6-1 6 0 6-1c0-2-2-3-5-3l-7-4-10-5c-11-2-10-5 2-5l18-2c4 0 9 0 12 2 4 2 6 2 6 0 1-2 2-2 3-2 3 2 20-1 18-4h-9c-7 1-8 0-10-6-3-6-2-7 2-7 3-1 4 0 2 3-2 2-2 3 1 4s5 1 5-1l4-2c2 0 4-2 5-5 2-4 5-6 9-6 12-1 13-1 7-5-5-3-5-4-2-7 2-1 5-6 6-10 2-10-3-11-11-2-8 8-18 12-24 9-5-3-7-8-3-8 1 0 2-1 2-3 0-1 1-3 2-2 2 0 3-1 3-2l5-1h5c-1-2 0-5 2-8 4-7 2-10-8-12-6-1-8-2-7-4 2-1 5-1 8 1 6 3 10 3 10 0 0-1-2-2-5-2-8 0-8-5 0-9l8-3-7-2-7-1 7-6 6-7c0-1-13 1-19 3l-5 1-4 2c-3 4-25 1-25-3l6-2c3 0 8-3 11-6s7-5 9-4c3 1 4 0 2-3-1-4-1-4 1-2 4 3 8 0 11-8 1-4 3-5 6-4s4-1 5-5c2-6-1-9-4-4-2 4-11 3-12-1-1-2-3-4-5-4s-3-1-3-2c0-2 1-3 3-3l4-2 4-2c3 0 3-1 1-4-3-4 0-7 4-3 2 1 3 1 2-3 0-2-1-4-3-3l2-3 4-5c0-3-5-1-15 6l-12 7c-4 0-1-7 6-13 5-6 6-8 4-9h4c5 1 6 0 6-3 0-2-2-4-5-4s-4 0-3-1c2-1 3-3 3-5s0-3-1-2-4 0-7-2c-4-3-10-4-16-3-6 0-10-1-11-3s0-3 1-3h5c4 0 4 0 0-2-3-2-3-3 1-3s8-10 6-14c-1-1-7 1-14 5-10 7-13 7-14 4-4-5-3-8 0-5 2 2 5 3 7 3s2-1 0-3c-2-3-2-5 1-8s3-5 2-5l-3-3c0-2 2-2 5-1 4 1 5 1 4-1s0-3 2-3 3-1 3-2c0-5-4-5-12 0-7 4-8 4-13 1-3-2-7-3-9-2-2 0-4 0-5-2-1-1-1-2 1-2l2-4c0-4 1-4 4 0 4 6 5 3 1-4-3-5-3-5 2-1 5 5 5 5 8-3 2-4 5-7 7-7 2 1 4-1 4-5 1-5 1-5-5-4-8 2-14-1-11-5 2-2 2-5 1-7-1-3 0-3 4-1 7 4 10 3 8-4-1-3-1-6 1-6s2-1 2-2c-1-2-1-5 1-7l-7 6-19 13c-4 1-7 4-7 5v2l-10 2c-5 0-8-1-8-2 0-2-1-2-3-2-2 1-2 2-3-1 0-3 0 0 2-1 4-3 11 0 11-3 0-1 2-2 5-2l9-4c3-2 6-3 7-2l1-2v-6c0-4-16-2-26 3l-10 2v-2c0-5 2-7 5-8 5-1 7-6 2-6-1 0-1-1 1-4 2-5 14-4 13 0 0 2 3 4 6 5 4 1 7 1 7-1s1-1 3 0c2 2 4 2 5 1 1-2-1-4-4-5-21-9-26-11-27-14s-1-3 2-1c2 1 4 2 5 1l14-1c12 0 15-1 5-3-8-1-13-6-12-13 1-5 1-5-3-2-3 1-4 3-4 4l-7 2c-5 0-8-1-8-2 1-1 0-5-2-8-2-5-2-6 0-5 3 1 4 0 4-4 0-3 1-5 3-5s4-2 5-4c1-4 0-4-8 0l-9 6c1 1-3 2-7 2-8 1-8 1-5-3l4-5 7-5c4-2 7-4 6-6-1-1 0-4 2-5l6-10c2-8 2-8-2-5-3 1-4 4-4 5 1 1-2 3-6 3s-7-1-7-3-1-3-4-2-3 1 1-4c6-6 6-16 0-15-2 0-4-2-5-5-1-2-2-4-4-3-1 1-2 0-3-1s1-3 3-4c3 0 5-3 5-5 0-3 0-3-3-1-4 4-6 4-6-1 0-2-2-3-3-3l-9-5c-4-3-7-4-7-3-1 3 9 13 11 11 2-1 2 0 1 2s0 4 2 4c1 0 2 2 2 5 0 5 0 5-10 0l-14-9c-3-2-5-3-6-1s0 4 3 4c3 1 6 4 7 6l3 4c3-2 5 4 7 12 0 4 2 8 5 9 6 5 2 7-5 3l-10-4-11-6c-7-6-7-6-7-2 0 3 2 6 4 7 3 1 5 3 5 4-1 2 1 3 3 3 3 0 6 8 3 8l-9-3-8-3c-1 1 0 2 2 2s2 0 0 2c-4 2 1 8 8 8 6 0 7 0 5 8-1 7 0 8 4 8l8-2c2-2 3-1 4 2 2 5 1 5-8 4l-19-6c-8-4-9-4-7-1 4 7 11 15 13 15 5 0 16 13 14 15-3 3-23-4-32-13-6-5-9-6-10-4-2 1-2 2 0 2s2 1 2 3c-1 1 1 5 4 8 5 4 5 6 3 8v3c5-2 13 3 13 7 0 3 2 6 5 7 3 0 5 2 5 3h4c2-1 3 0 2 2-3 5-13 0-29-16l-10-8c-4-3-4-3-3 1v4c-2 0-1 2 1 5 6 7 7 16 2 17-4 0-4 0 0 2 3 2 5 3 6 2l4 5c2 3 6 5 10 5 7 0 7 3-1 7-4 2-8 2-12 0h-6c0 1-2 0-6-4-3-3-7-5-9-5s-4-3-5-5c-1-6-4-6-8 0-2 4-2 5 1 5 4 0 4 0 1 2s-3 2 1 4c2 1 3 3 3 5-1 1 0 4 2 6 2 3 3 4 1 5-3 2 2 9 6 9l4 2c0 2-4 2-12 1-6-1-10-1-9 1 2 2 4 2 16 4l7 2h7c5 0 5 0 2 1-8 2-11 7-7 10 1 2 5 3 7 3 3 0 3 1 1 3-1 2-2 4-1 5s0 2-2 3c-3 1-4 2-3 4 4 6-30-4-35-10-2-3-15-10-16-9l2 6c2 4 5 6 8 6 5-1 5-1 0 2-4 4-4 4-1 4 4 0 8 7 6 10-1 1 0 2 3 2s6 2 7 6c0 4 4 8 8 10s6 5 5 7l-2 4c-4 0-37-17-40-22-5-5-14-7-14-2l6 2c4 0 4 1 2 2-4 3-2 13 2 13 1 0 2 1 1 2s0 2 1 2c2 0 2 1 2 3-1 1 1 2 4 3 3 0 5 2 5 4s3 4 7 4l6 4c0 2 3 5 6 7 4 4 5 4 1 4-3 0-4 1-3 2 2 4-9 0-16-4l-8-5-10-6c-8-6-12-5-9 2l4 3c2-1 3 0 3 2s-2 4-4 4-2 1-1 1c2 1 3 3 2 5-1 3-1 4 4 1 5-2 7 1 2 4-4 2 7 11 11 9 2-1 4 0 4 1 0 2-2 4-4 4-2 1-2 3-2 5 1 2 3 3 4 2s2 1 2 3c0 6-6 4-18-9-13-13-24-20-27-17 0 1 1 4 3 5 4 4 4 14 0 20-4 3-4 5-1 9 2 3 4 5 6 4s3 0 3 1 2 2 4 1c4-2 4 2 0 6-2 3-2 3 2 1 6-3 9-2 9 5 0 4 1 4 6 3s6-1 4 1c-5 2-2 7 3 5 2 0 3 0 2 3s-2 3-10 0c-5-2-14-8-19-13l-10-10 1 10 4 12c4 1 9 14 7 16l-3 3c0 3 13 5 16 3 3-4 6-3 6 1 0 1-4 4-9 5-10 3-19 1-24-6-3-3-3-3-3 1 0 3 2 7 5 10l3 6 6 4c4 2 7 4 6 6-2 3 6 5 9 2 3-2 5-1 8 2 2 3 6 5 9 5 9-1 11 0 5 2-2 1-7 1-12-1-7-3-8-3-11 0-1 2-4 3-6 3l-11-3-12-2c-4-2-4-1 2 6 4 5 8 8 10 8 4-2 12 4 12 9l1 4c1-1 4 2 7 5 2 3 6 5 7 4 4-3 6 4 2 7-3 2 0 2 12 2 13 0 15 1 15 4s1 4 4 3c2-1 5 0 8 1l9 1c9-1 6 4-3 7l-9 2 11-1 11 1c0 2-2 3-5 3-5 0-5 0-1 2s7 1 11-4c7-5 11-7 9-3-1 1-1 2 1 2 6 0 2 5-6 6-6 2-7 2-3 4 2 2 6 2 8 1 3-1 5-2 6-1l5-7c4-9 6-9 7-1 1 5 2 7 5 6 13-3 14-3 14 8 0 9-4 37-6 50-2 6-1 7 8 7h9l-1-17Zm38-51c-2 0-2-1-1-1 2-1 3-3 2-5-1-3-1-4 3-2 8 3 12 3 15 0 2-1 3-1 3 1 0 1 2 3 4 3 4 1 3 1-1 3-5 2-13 2-25 1Zm60-39 4 2 3 6c0 4-7-4-7-8Zm-33-11c0-2 1-3 2-3 2 0 2-2 1-4-1-4-1-4 2 0s4 4 7 1c4-3 21-5 21-1l4 2c5 0 4 4-1 5-9 2-36 2-36 0Zm-25 0c0-3 5-3 7 0 0 1-1 2-3 2l-4-2Zm-34-5c-1-1 0-2 2-1 4 2 5 3 1 3l-3-2Zm-103-5 4-2 4 2-4 2-4-2Zm198-3 4-2h4c-1 3-8 4-8 2Zm-199-4c2-3 4-3 4 0 0 1-1 2-3 2-1 0-2-1-1-2Zm188-10c-1-1 1-2 4-2 4 0 5 0 2 2-5 3-4 3-6 0Zm-11-2c0-2 1-2 2-1 3 2 3 3 0 3l-2-2Zm39-3c-2-2-4-2-6 0s-5 1-11-1c-5-3-7-5-5-5 1-1 4 0 6 2 3 2 4 2 6 0 1-3 4-3 12 0 8 2 9 3 7 5-5 2-6 2-9-1Zm-247-9c-2-2 3-3 16 0l2 2c0 3-14 2-18-2Zm236-10c-1-1 0-2 2-1 4 2 5 4 1 4l-3-3Zm-12-34c2-3 3-3 3 0 0 2-1 3-2 3-2 0-2-1-1-3Zm-4-11c-4-3-1-9 4-7 2 1 7 0 10-2 4-3 8-3 12-3 7 2 6 4-7 9s-14 5-19 3Zm-241-13c0-4 8-10 10-8 0 2 3 3 5 4 8 3 5 7-5 7-5 0-10-1-10-3Zm229-8h4c1 1 0 1-3 1s-3-1-1-1Zm-12-30c3-2 3-2-1-3-4 0-4 0-2-2h7c2 2 3 2 4 0 1-1 0-2-2-3s-4-3-4-5 1-2 2 0c3 4 10 6 12 3 1-1 2-2 3-1 2 1 3 0 3-1s2-2 5-2c4 0 5-1 5-4 0-2 1-4 4-4 18 0 5 16-16 21-18 4-25 4-20 1ZM13 705c0-1 1-2 3-2l2 2-2 2c-2 0-3-1-3-2Zm150-2c-3-2-3-3 1-3 3 0 6 1 6 3 0 3-3 3-7 0Zm-28-32c-3-4 3-9 6-5 3 3 1 8-2 8-2 0-3-1-4-3Zm-12-4c2-4 3-4 3 0l-2 2c-1 0-2-1-1-2Zm-98-15 3-2c1 0 2 1 1 2-2 3-4 3-4 0Zm95-10 1-2 4 2c1 2 1 3-1 3l-4-3Zm14-3c1-3 5-3 7 1 0 1-1 2-4 2-2 0-3-1-3-3Zm9-4c0-4 6-5 8-2 3 5 2 7-3 5-2 0-5-2-5-3ZM35 620c-9-5-9-6 0-5 4 1 7 2 6 3-1 2 1 3 4 3 4 1 4 2 1 2l-11-3Zm29-27 4-1c2 0 3 1 2 2-1 3-6 2-6-1Zm31-36c0-2 3-2 8-2 8 2 8 2 2 3-9 3-10 3-10-1Zm96 375h-5c-2 1-1 1 2 1 2 1 4 0 3-1Zm-43-388c3-6 3-7 1-7-3 0-8 9-6 10s4 0 5-3Zm-36-73-2-2-6-1c-2-1-4-1-4 1 0 1 3 3 6 3 3 1 6 0 6-1Zm-21-18c3-4 2-4-2-2-4 1-4 1 0-2s4-4-4-3l-9 1 10 10 5-4Zm0-17c4-5 5-6 1-5h-4c0-2-1-3-3-3s-2 1 0 3c3 4 1 8-5 10-4 1-4 1 1 1 4 0 7-2 10-6Zm-1-16c4-3 4-6-1-6-3 0-7 6-4 8 1 1 3 0 5-2Zm-1-19-1-7c-2-2-2-1-2 4 0 7 1 8 3 3Z" fill="#230020"/><path d="M261 1017c-1-13 0-34 1-46 2-21 3-22 10-20 4 2 11 3 17 2 5 0 9 1 9 2 0 2 4 2 10 2 7 0 11 1 12 6 3 7 12 9 12 2 0-6 6-6 13-1 3 1 3 1 2-3s0-4 6-3c4 0 6 0 4-1-6-3-6-8 0-6 3 1 7-2 10-6l6-8v8c0 4 2 7 3 7 2 0 4-1 4-3 0-1 4-2 8-1 5 1 9 0 9-2s-3-4-7-4c-3 0-8-2-10-5s-9-6-14-7c-16-3-14-7 3-7 9 0 21-1 26-3 5-1 12 0 16 2 6 3 8 3 9 0 1-2 3-3 4-2 5 3 28-2 26-5-1-2-7-2-13-1-10 1-12 0-15-9-3-8-3-9 3-10 5 0 6 1 3 4-3 4-3 5 2 7 3 1 7 1 7-1 1-2 3-4 5-4 3 0 6-3 8-8 2-4 6-7 12-8 18 0 19-1 10-6-6-5-7-6-2-10 3-2 6-9 7-15 3-14-4-15-15-3s-25 17-34 13c-8-4-10-11-4-11 2 0 3-2 3-4-1-2 1-4 3-3 2 0 4-1 4-3 0-1 4-2 7-1 4 1 7 1 6-1l4-11c5-10 3-14-12-16-8-2-11-4-9-6s6-2 11 1c8 4 14 4 14 0 0-2-3-4-7-4-11 0-11-6 0-11l11-5-10-2-9-3 9-8c5-4 9-9 9-10s-19 1-27 4l-7 3c-2 0-4 1-5 3-6 5-36 1-36-5 0-2 4-3 8-3s11-4 15-9c5-5 10-7 14-6 4 2 5 1 3-4s-2-6 1-3c5 5 12 0 15-11 2-5 4-7 9-6 4 2 6 0 8-7 1-9-2-12-6-5-3 5-16 4-18-2-1-3-4-5-7-5-2 0-4-2-4-4 0-1 2-3 5-3s5-1 5-3 2-4 6-4 4-1 1-4c-5-6-1-11 5-6 4 3 5 2 4-3 0-4-2-6-4-5s-1-1 2-3c4-3 6-6 6-7 0-5-7-2-22 8-8 5-15 10-17 10-5 0 0-10 9-20 7-7 9-11 6-12h5c7 2 9 1 9-3s-3-6-7-6c-5 0-6-1-4-2s4-4 4-7-1-5-2-3c-1 1-6-1-10-3-5-3-14-5-22-5-9 1-15 0-16-3s0-4 1-4h8c5 0 5-1 0-4-4-3-4-3 1-3 6 0 12-14 8-20-1-2-9 1-19 7-14 9-18 10-20 6-5-7-4-12 0-7l9 4c4 0 4-1 1-5s-3-7 2-11c4-4 4-7 2-8-2 0-4-2-4-4s3-3 7-1c5 1 7 1 5-2-1-2 0-3 3-3s5-2 5-4c0-6-6-7-17 0-10 6-12 6-19 2-4-3-10-4-12-3-3 1-6 0-8-2-1-2 0-4 2-4s3-2 3-6c0-5 1-5 6 1 5 8 6 4 1-6-4-7-4-7 3-1 7 7 7 7 12-4 2-7 6-11 9-10 3 0 6-2 6-7 1-8 0-8-7-6-12 3-21-1-16-7 2-3 3-7 2-10-2-4-1-5 5-2 10 6 14 4 11-5-1-5 0-8 2-8s3-2 2-4 0-6 2-9c3-4-2 0-10 8l-27 18c-6 2-10 6-9 7 1 2 1 4-1 4l-14 1c-6 1-11 0-11-2s-2-3-4-2c-3 1-4 2-4-2-1-5-1 0 2-2 6-3 16 1 16-4 0-2 3-3 6-3 4 0 10-2 14-5s8-4 9-3 2 0 2-4v-8c0-6-23-2-37 5l-14 3v-4c0-6 2-9 7-10 7-2 9-8 3-8-2 0-2-3 1-7 4-6 20-6 19 1-1 2 3 4 8 6 6 2 10 1 10-1s1-2 5 0c3 3 5 3 7 1 1-2-2-5-6-7-31-12-37-16-39-20-1-4-1-4 3-1 3 2 6 3 7 2 1-2 10-2 20-2 17 1 21-2 7-4-11-2-18-9-16-18 1-7 0-8-5-4-4 2-6 5-6 6 1 1-4 2-10 2-7 1-11 0-10-1 1-2-1-7-3-12-4-8-4-9 0-7 3 1 5-1 5-6 0-4 2-7 4-7 3 0 6-3 7-6 1-6 1-6-11 1-8 4-13 8-12 9 0 0-4 2-11 2-11 1-11 1-7-4l6-8 10-7c6-2 9-6 8-8s0-5 3-7c2-3 6-9 8-15 4-10 4-11-2-7-4 2-6 6-5 8 0 1-4 3-9 4-6 0-10-1-10-5 0-3-2-4-6-2s-4 1 2-5c8-10 8-23 0-23-3 1-7-2-8-6-1-3-3-5-5-4-1 1-4 0-5-2s1-4 5-5 7-5 7-8c0-4-1-5-4-1-6 5-10 5-10-2 0-2-1-5-3-5s-8-3-13-7-10-5-10-3c-2 4 12 18 16 15 2-1 3 1 1 4-1 3 0 5 2 5s4 3 4 7c0 7 0 7-14 0l-21-13c-4-3-6-4-8-1-1 2 1 5 5 6s8 5 9 8c1 4 3 6 5 5 3-2 7 6 9 18 0 5 4 10 7 13 9 6 4 9-7 3-5-3-12-5-14-5-3 0-9-4-15-9-10-8-11-8-11-2 0 4 3 8 7 9s7 4 6 6c0 2 2 4 4 4 6 1 10 12 5 12l-13-5c-5-3-10-4-11-3s0 2 3 2 3 0 0 2c-6 4 1 12 11 12 9 0 10 1 8 12-2 10-1 11 6 11 4 0 9-1 11-3 2-3 4-2 5 3 2 7 2 8-12 6-8-2-20-5-27-9-11-5-12-5-9-1 5 10 16 21 19 21 6 0 22 18 19 21-5 5-32-6-45-18-8-7-12-9-15-6-3 2-2 3 1 3 2 0 3 2 2 4s1 7 6 11c7 6 8 9 5 12s-3 4-1 4c8-3 19 4 19 11 0 4 3 7 7 8 3 1 6 4 6 5 0 2 3 2 6 1 4-2 5-1 3 2-4 7-18 0-41-22l-14-12c-5-4-6-4-4 1 1 3 1 6-1 6s0 3 3 7c8 10 9 24 2 24-6 0-6 0 0 4l8 2 6 7c3 4 9 7 14 7 11 0 11 5 0 10-6 2-12 3-17 0-6-2-9-2-9 0s-4 0-8-5c-5-4-11-8-13-8-3 0-6-3-7-7-2-9-7-9-12 0-4 6-3 7 2 7s5 0 1 3c-5 3-4 4 1 6 3 1 5 4 4 6-1 3 1 7 3 10 4 3 4 6 2 7-5 3 2 12 9 12 2 0 4 2 4 4s-5 3-16 1c-9-1-15-1-13 1s5 3 23 6l10 2h10c7 0 7 1 2 2-11 3-15 9-10 14 2 2 7 4 10 4 4 0 5 1 2 5-2 2-3 5-2 7 2 1 0 3-3 4s-5 3-4 5c6 9-42-5-49-14-3-3-21-14-23-13l3 10c3 5 7 8 11 7 7-1 7-1 0 4-6 5-6 6-1 6 6 0 11 9 8 14-1 1 1 3 5 3s7 3 9 8c1 5 6 11 12 14s9 7 7 10l-3 5c-6 0-52-24-57-30-7-7-19-10-19-4 0 2 3 4 7 4 6 0 7 1 4 3-6 3-3 17 3 17 2 0 2 2 1 4-1 1 0 3 2 3s3 1 2 3 1 4 5 4c5 1 8 4 8 7s4 5 10 6c5 0 9 3 9 5 0 3 3 7 8 10 6 5 6 6 1 6-3 0-5 1-4 3 3 5-13 0-23-7l-11-6-14-9c-11-9-17-7-13 3 1 3 4 5 6 4 3-1 4 0 4 3s-2 6-5 6-4 1-1 2c2 1 3 4 2 7-2 4-1 4 5 1 8-4 11 1 4 5-6 3 9 16 15 13 3-1 5 0 5 2s-2 5-4 6c-3 1-4 4-3 6 1 3 3 4 4 3 2-1 3 1 3 4 0 9-8 5-25-12-18-19-34-29-37-24-1 1 0 5 3 7 6 6 6 20 0 28-5 5-5 7-1 13 2 4 6 6 8 5 3-1 5 0 5 2s2 2 5 1c6-2 7 3 1 9-4 3-3 4 3 1 8-5 11-3 11 7 0 5 2 6 10 4 6-1 7-1 4 1-6 4-2 11 5 9 4-2 5-1 3 3-2 5-3 5-14 0-7-3-19-11-27-19l-14-14 2 15 4 16c6 2 14 21 10 23-2 1-3 3-3 5 0 4 18 7 22 3s8-3 8 2c0 2-5 6-12 8-14 4-27 1-34-8-4-6-5-5-5 1 0 4 3 10 7 14s6 8 4 8l9 5c6 3 10 7 9 9-3 4 8 7 13 3 4-3 6-2 11 3 3 4 9 7 13 7 12-1 15 0 8 3-5 2-12 1-18-2-9-3-12-3-15 1-2 3-7 4-10 3l-15-3-16-4c-7-2-7-1 2 10 5 7 11 11 14 10 6-2 17 6 17 13 0 4 1 6 2 6 1-1 5 2 9 7 4 4 9 7 10 6 6-4 9 5 3 9-4 3 0 4 17 4 19 0 22 0 22 6 0 4 2 5 5 4h11c3 2 9 3 14 2 12-1 8 6-5 10l-13 3 16-1c9-1 16 0 16 2s-3 3-8 3c-7 0-7 1 0 3 5 2 9 1 15-5 9-8 16-11 12-5-1 2-1 4 1 4 9 0 3 6-7 8s-10 3-5 6c3 2 9 2 12 1 3-2 7-3 8-2l7-10c5-13 9-13 10-1 1 6 3 9 6 8 19-4 21-3 21 11s-5 53-9 72c-2 9-1 9 11 9h13l-1-24Zm54-72c-3 0-4-1-1-2 2-1 3-4 2-7-2-4-1-5 4-3 11 5 17 5 21 1 3-2 5-2 5 0s2 5 6 6c5 1 5 1-2 4-6 3-18 3-35 1Zm85-55c0-2 3-1 5 2 3 3 5 7 5 10 0 5-10-7-10-12Zm-47-16c0-2 1-4 3-4s3-2 2-6c-2-5-2-5 3 0 4 6 5 6 9 2 5-5 30-7 30-2 0 1 3 3 5 3 7 0 7 6 0 7-14 3-52 3-52 0Zm-35 0c0-5 6-5 9 0 1 2 0 3-3 3s-6-1-6-3Zm-49-7c-1-2 0-3 3-1 6 2 7 4 2 4-2 0-4-1-5-3Zm-145-7c0-2 2-3 5-3s5 1 5 3-2 3-5 3-5-1-5-3Zm280-5 7-3c3-1 5 0 4 2-1 3-11 4-11 1Zm-282-5c3-5 5-5 5 0 0 2-1 3-3 3s-3-1-2-3Zm266-14c-1-2 2-3 6-3 6 0 7 1 3 3-6 4-6 4-9 0Zm-15-3c0-2 2-3 3-2 5 3 5 5 0 5-1 0-3-1-3-3Zm55-4c-2-3-5-3-8 0-3 2-8 2-16-2-6-3-10-6-8-7 3-1 7 0 10 3 4 3 6 3 8 0 2-4 5-4 17 0 11 2 14 4 10 7-6 4-8 4-13-1ZM78 816c-3-3 4-4 23-1l2 4c0 5-19 2-25-3Zm334-14c-1-2 0-2 3-1 6 2 7 4 3 4-2 0-5-1-6-3Zm-17-48c3-4 5-4 5 0 0 2-1 4-3 4s-3-2-2-4Zm-5-16c-6-4-1-12 6-10 3 2 9 0 14-3s11-5 17-3c10 2 8 5-11 12-17 7-19 7-26 4ZM49 720c0-6 10-15 13-11 1 2 5 4 8 5 11 4 7 10-7 10-8 0-14-2-14-4Zm323-12h7c1 1-1 2-5 2-4-1-4-1-2-2Zm-16-42c4-3 4-4-2-4-5 0-6-1-2-3s7-2 9 0c3 2 5 2 7 0 1-2-1-4-4-5-2-1-5-4-5-6 0-3 1-3 3-1 4 6 14 8 16 5 1-2 4-3 5-2 2 1 4 1 4-1s3-4 7-3c6 1 8-1 8-5-1-4 1-6 5-6 25 0 8 23-23 29-25 6-35 6-28 2Zm-198-41c0-2 2-4 3-4 2 0 4 2 4 4 0 1-2 3-4 3l-3-3Zm212-4c-5-3-4-3 2-3 4 0 8 1 8 3 0 4-4 4-10 0Zm-40-45c-3-5 5-12 9-7 4 4 2 11-4 11-1 0-4-1-5-4Zm-17-6c3-4 5-4 5 0 0 2-1 3-3 3s-3-1-2-3Zm-138-21c0-1 2-3 4-3s2 2 1 3c-2 5-5 5-5 0Zm135-13c-1-2-1-4 1-4s5 2 6 4 0 3-2 3c-1 0-4-1-5-3Zm19-4c2-5 8-5 9 0 1 2-1 4-4 4s-5-2-5-4Zm13-7c0-5 8-7 11-2 5 7 3 9-4 7-4-1-7-3-7-5Zm-153-22c-13-6-13-7 0-5 5 0 9 2 8 4-1 1 2 3 6 4 6 1 6 2 2 2s-11-2-16-5Zm41-37c0-1 2-2 5-2s4 2 3 4c-2 3-8 1-8-2Zm44-51c0-3 3-4 11-3 11 2 11 2 3 5-13 3-14 3-14-2Zm136 532h-7c-3 1-2 1 2 2 4 0 6-1 5-2Zm-61-551c4-8 4-10 1-10-5 0-11 13-8 15 2 1 5-1 7-5Zm-51-103c0-2-1-3-3-3l-9-2c-3-1-5-1-5 1s4 4 8 5c5 1 9 1 9-1Zm-30-26c4-5 4-5-2-3-7 2-7 2-1-3 6-4 5-5-6-4l-12 1c0 2 13 15 15 15l6-6Zm1-24c5-8 6-9 1-7-4 2-6 1-6-1s-2-3-4-3c-3 0-3 1 0 4 4 6 1 12-8 14-6 1-5 2 2 2 5 0 10-3 15-9Zm-2-22c5-5 5-9-1-9s-10 9-6 11c2 1 5 0 7-2Zm-2-28c1-2 0-6-1-9-3-4-3-2-4 4 0 11 2 12 5 5Z" fill="#230020"/><path d="M348 800-2 698l4 1102h2997V931l-104 48-193 44-45 29-89 25h-118c-13 5-43 18-59 30-17 12-26-5-28-15l-101 15-38-30-214-25-75 25h-68l-41-34h-18l-47-20-33 10-74 44-77 15-64-15-68 15-28-15-42 8-36 22h-38l-101-32h-39l-140-32-102-76-167-64-227 27-177-130Z" fill="#230020"/></g><defs><linearGradient id="b" x1="2557.2" y1="363.5" x2="2557.4" y2="1498" gradientUnits="userSpaceOnUse"><stop stop-color="#FF6B41"/><stop offset=".9" stop-color="#FEB700"/></linearGradient><linearGradient id="c" x1="1136.8" y1="241" x2="1137" y2="1307" gradientUnits="userSpaceOnUse"><stop stop-color="#D6004D"/><stop offset="1" stop-color="#450000"/></linearGradient></defs></svg>