<svg id="Calque_1" data-name="Calque 1" xmlns="http://www.w3.org/2000/svg" viewBox="0 0 2500 1165.82"><defs><style>.cls-1{fill:#202850;}</style></defs><path class="cls-1" d="M577.42,695.09q0,46.65-37.71,79.11t-91.94,32.44q-52.93,0-91.28-33t-38.36-78.48V445.91q0-46.61,37.7-79t91.94-32.43q54.24,0,91.94,32.36t37.71,78.88v27.44q0,28.38-32.39,28.37t-33.76-28.37V445.7q0-22.69-18.52-38.59t-45-15.89q-26.47,0-45,16t-18.52,38.73V598.64q0,22.8,18.52,38.75t45,15.94q26.44,0,45-16t18.52-38.93V574.85q1.34-27.45,33.76-27.47t32.39,27.31Z"/><path class="cls-1" d="M901.61,772.52q0,34.13-31.75,34.12-18.55,0-29.1-18.16Q810.3,806.65,772,806.64q-52.92,0-91.28-33t-38.36-78.48V362.9q0-28.41,31.75-28.44,34.38,0,34.39,28.47V598.67q0,22.77,18.52,38.72t45,15.94q26.44,0,45-15.94t18.52-38.72V362.93q0-28.46,33.08-28.47t33.07,28.44Z"/><path class="cls-1" d="M1085.12,773.9c0,21.83-42.72,32.74-65.19,32.74-21.62,0-63.92-10.91-63.92-32.74L987.5,527.36q0-27.25,32.43-27.28t32.41,27.28Z"/><path class="cls-1" d="M2143.42,773.9c0,21.83-42.73,32.74-65.2,32.74-21.62,0-63.91-10.91-63.91-32.74l31.48-246.54q0-27.25,32.43-27.28t32.41,27.28Z"/><path class="cls-1" d="M1316.85,620.45q0,27.24-39.69,27.25h-115.1q-39.69,0-39.69-27.25,0-28.35,39.69-28.38h115.1Q1316.85,592.07,1316.85,620.45Z"/><path class="cls-1" d="M1959.91,772.52q0,34.13-31.76,34.12-18.54,0-29.1-18.16-30.45,18.16-68.79,18.16-52.93,0-91.28-33t-38.37-78.48V362.9q0-28.41,31.75-28.44,34.4,0,34.4,28.47V598.67q0,22.77,18.52,38.72t45,15.94q26.45,0,45-15.94t18.52-38.72V362.93q0-28.46,33.07-28.47t33.08,28.44Z"/><path class="cls-1" d="M1635.71,695.09q0,46.65-37.7,79.11t-91.94,32.44q-52.93,0-91.28-33t-38.37-78.48V445.91q0-46.61,37.7-79t92-32.43q54.23,0,91.94,32.36t37.7,78.88v27.44q0,28.38-32.39,28.37t-33.75-28.37V445.7q0-22.69-18.53-38.59t-45-15.89q-26.47,0-45,16t-18.52,38.73V598.64q0,22.8,18.52,38.75t45,15.94q26.45,0,45-16t18.53-38.93V574.85q1.32-27.45,33.75-27.47t32.39,27.31Z"/><line class="cls-1" x1="1001.54" y1="407.59" x2="1064.93" y2="350.78"/><path class="cls-1" d="M1001.54,422.07a14.48,14.48,0,0,1-9.66-25.26L1055.27,340a14.48,14.48,0,1,1,19.33,21.56l-63.4,56.82A14.38,14.38,0,0,1,1001.54,422.07Z"/><line class="cls-1" x1="1023.05" y1="451.15" x2="1079.88" y2="438.22"/><path class="cls-1" d="M1023,472.88a21.73,21.73,0,0,1-4.79-42.91L1075.06,417a21.72,21.72,0,0,1,9.63,42.36l-56.83,12.93A21.71,21.71,0,0,1,1023,472.88Z"/><line class="cls-1" x1="2068.03" y1="402.75" x2="2101.91" y2="367.89"/><path class="cls-1" d="M2067,425.26a21.24,21.24,0,0,1-14.42-6.62,23.13,23.13,0,0,1,.19-31.87l33.87-34.85a21.17,21.17,0,0,1,30.72.08,23.14,23.14,0,0,1-.18,31.87l-33.88,34.85A21.3,21.3,0,0,1,2067,425.26Z"/><line class="cls-1" x1="2065.63" y1="455.17" x2="2167.39" y2="426.13"/><path class="cls-1" d="M2064.94,470.19a14.56,14.56,0,0,1-13.29-11,15.15,15.15,0,0,1,10.18-18.47l101.77-29.05a14.38,14.38,0,0,1,17.76,10.5,15.15,15.15,0,0,1-10.18,18.48l-101.76,29A14.13,14.13,0,0,1,2064.94,470.19Z"/></svg>