<svg  xmlns="http://www.w3.org/2000/svg" viewBox="0 0 595.3 841.9"><g data-name="Traits de coupe"><path d="M198.4 381c-.3 2.2-.5 4.3-.5 6.4-.1 3.9.3 7.7.3 11.5 0 4-.2 8 .2 12a10.3 10.3 0 0 1-.6 4.5 6.7 6.7 0 0 1-3.2 3.8 2.8 2.8 0 0 1-3.5-.3c-2-2.4-3.8-4.7-4-8.3-.7-8.4 0-16.8.6-25.2a51.2 51.2 0 0 1 2.6-11.1l1.6-5.6a14.4 14.4 0 0 0-.1-6.4 2.6 2.6 0 0 0-1.6-2.1c-1.5 1.2-2.1 3-3 4.8a4.6 4.6 0 0 1-3.9 2.7 3.3 3.3 0 0 1-3.6-1.8c-1.8-3.7-2.8-7.4-1.4-11.6l2.7-6.9a5 5 0 0 0 .5-3.2 5.8 5.8 0 0 0-1.4 2.5 7.2 7.2 0 0 1-.9 1.7 1.2 1.2 0 0 1-1.4.6 1.2 1.2 0 0 1-.9-1.3 8.9 8.9 0 0 1 .4-2.6c.7-2.1 1.6-4.2 2.5-6.2.1-.4.4-.9.7-.9 2.3-.2 2.2-2.2 3-3.6l.3-1a3.2 3.2 0 0 0-4.2 1 10 10 0 0 0-.8 1.4 38.6 38.6 0 0 1-4.6 7.5 3 3 0 0 0-.7 1.7c-.3 3.7-1.6 7.2-1.8 10.9a13.8 13.8 0 0 1-3.4 8.5 10.7 10.7 0 0 0-2.2 4.2c-1.2 4-3.4 7.6-4.7 11.6a1.9 1.9 0 0 1-.2.4c-.6.8-1 2-2.3 1.8-1 0-1.7-1.2-1.8-2.7a17.7 17.7 0 0 1 .7-8.5 15.5 15.5 0 0 0 1.2-5.6 5.5 5.5 0 0 1 1.2-3c2.5-3.6 3-7.8 4-11.8.1-.4.2-1-.2-1.3s-1 0-1.4.3a79.6 79.6 0 0 0-8 4.6 30 30 0 0 1-20.3 5.1 10 10 0 0 1-5.7-2.7 5.5 5.5 0 0 1-2-5.2 16.3 16.3 0 0 0 0-6.4 2.4 2.4 0 0 1 .7-2.2 12.1 12.1 0 0 1 2.6-2.5 2.3 2.3 0 0 1 3.7 1.1 8.2 8.2 0 0 1 .6 2.3 12.8 12.8 0 0 0 1.8 5c1.6 2.7 3.3 3.3 6.2 2.4a56.6 56.6 0 0 0 17.3-9.1l2.9-2a6.5 6.5 0 0 0-3.7-2c-2.7-.8-5.3-1.7-8.2-1.5a14.5 14.5 0 0 1-7.4-1.8c-1.4-.7-2.9-1.5-3-3.5a1.5 1.5 0 0 0-.4-.8c-2.6-2.8-2.8-6.3-3-9.8 0-.8 0-1.6.8-2a1.7 1.7 0 0 1 2 .8 39.1 39.1 0 0 1 2.6 3.8 3 3 0 0 0 3.7 1.7 19.6 19.6 0 0 1 4.3-.6 6 6 0 0 0-3.7-1.3c-2.2 0-3-1.7-4-3.2-.5-1 .1-1.7 1-2.2l2.8-1.3a3.5 3.5 0 0 0 1.8-1 2 2 0 0 1 2.8-.8c3.2 1.5 6.7 2 10.1 2.6a9.9 9.9 0 0 1 5.7 3.2c2 2.1 4.6 2.9 7.5 3 2.5 0 5 0 7.3 1a4.5 4.5 0 0 0 2.4 0 4.5 4.5 0 0 1 3.1 1c.3.3.8.6.7.7-.3 1.8 1.6 3.6.1 5.5a18.5 18.5 0 0 0-1.7 3 10.8 10.8 0 0 0-1.5 5 7.5 7.5 0 0 1 3.4-1 1.3 1.3 0 0 0 1.3-1 13 13 0 0 0 .9-3 9.6 9.6 0 0 1 .1-1.2c.4-1.5 1.4-2.6 2.2-2.6s1.7 1 2.3 2.6c.5 1.3-1 1.5-1.2 2.4.8.4 1.4.3 1.7-.5.5-1.4 1.4-1.2 2.3-.6 1.5 1.1 2.8.8 4-.6 0-.8-.7-1-1.3-1.3l-3.6-1.8a10.4 10.4 0 0 1-3.3-2.3c-1-1.1-1-1.9.2-2.8 1-.8 1.5-1.4 1-2.8s.5-2.7 2.3-3.2a7.9 7.9 0 0 0 3.9-2.8c.3-.4.9-.6.5-1.1a1.2 1.2 0 0 0-1.7-.5 9.4 9.4 0 0 0-1.5 1.2c-1 1-2 2-3.4 2.5-.7.2-.9 1-1.2 1.5a24.2 24.2 0 0 1-1.5 2.1c-.6.8-1.4.9-2 0a4.5 4.5 0 0 0-2.5-2.1c-1-.4-1-1.5-1.5-2.4-.2-.5-.1-1.4-1-1.3-.7 0-.6.8-.8 1.3-.4 1.5-1.2 1.9-2.3.9-2.7-2.5-5.9-4-8.9-5.7a8.7 8.7 0 0 1-4.5-6c-.1-.7-.5-1.4.4-1.9a2 2 0 0 1 2.4.4 3.3 3.3 0 0 1 1 1.9 3.8 3.8 0 0 0 2.1 2.7 33.7 33.7 0 0 0 3.9 2.1l.3-.3c-1-1.3-1.7-2.7-2.7-3.9a96.6 96.6 0 0 0-6.4-7.5 16.8 16.8 0 0 1-3.6-5.9c-2.1-5.3-5.9-9.2-10.3-12.7a15.8 15.8 0 0 1-1.6-1.4c-1.2-1.2-1.2-1.2 0-2.6a1 1 0 0 0 .1-1.3l-1.1-1.5a13.8 13.8 0 0 1-2.8-7.8 1.9 1.9 0 0 1 1.7-2.2 1.8 1.8 0 0 1 2.2 1.4c.6 3.4 3.3 4.8 5.8 6.6a49.6 49.6 0 0 0 6.2 4 10.1 10.1 0 0 1 3.6 3.5c.4.6.6 1.4 1.6 2v-3.3c-.2-5 .6-10 .7-15 0-4.8.8-9.4.9-14.2a5.4 5.4 0 0 1 .5-2l3.8-8.8a21.3 21.3 0 0 1 1.8-2.9c1.9-3 4.4-2.4 6.6-1.2a14.4 14.4 0 0 1 2 1.4c1.6 1.3 1.4 3-.5 4a4.6 4.6 0 0 1-.6.2c-2.5.8-3.5 2-3.6 4.7l.1 2.4a18.3 18.3 0 0 1-1.3 8 21.2 21.2 0 0 0-1.6 6.7 8 8 0 0 1-.4 2.1c-1.2 3.2-.4 6.3.5 9.4 0 .2.3.3.5.5 1-.2 1-1.1 1.3-1.8a19.2 19.2 0 0 1 3.9-6 3.9 3.9 0 0 1 1.7-1.3 24.2 24.2 0 0 0 5.6-2c1-.6 2.2 0 2.9 1 .8 1.1.2 2-.6 2.7l-.5.5c-1.5 1.6-1.5 2.7.2 4.2 1 1 2.1 2 3.3 2.8a51.2 51.2 0 0 1 9.6 10 9.7 9.7 0 0 1 1.6 9.3 11.5 11.5 0 0 0-.4 3.8 18.6 18.6 0 0 0 4.5-2.5c3.1-2.3 5.5-5.3 8-8.1a2.7 2.7 0 0 0 .6-3.1c-2-5.8-2.4-12-4.4-17.9a5.9 5.9 0 0 1-.2-1.9 1.5 1.5 0 0 1 1.2-1.6 1.7 1.7 0 0 1 2 .5 16.7 16.7 0 0 1 1.2 2 31.4 31.4 0 0 0 4.8 6.8c.4.4.7 1 1.4 1 1-.7 1-1.7 1.2-2.7a21.4 21.4 0 0 1 2-6.1c1.3-2.8 2.4-5.8 3.5-8.7a8.7 8.7 0 0 1 3-4 2.5 2.5 0 0 1 3-.1 16.4 16.4 0 0 1 5.8 6c.9 1.5.6 3 .1 4.8a14.7 14.7 0 0 1 8.1-2 8.9 8.9 0 0 0 3.7-.9 11.6 11.6 0 0 1 3.5-.9 2.3 2.3 0 0 1 2.6 1.7 2.3 2.3 0 0 1-1 2.7l-2.8 1.8a20 20 0 0 0-4.3 4.4 48.4 48.4 0 0 1-11.4 11 14 14 0 0 1-7.1 2.4 1.5 1.5 0 0 0-1.6 1.2 24.4 24.4 0 0 1-6.3 9.2 18 18 0 0 0-3.6 4.4 45 45 0 0 0 4.5-2 41.5 41.5 0 0 1 7.5-2.5c9-2.2 18.2-4.3 27.2-6.6a77.8 77.8 0 0 0 8.6-3c2-.8 3.6 0 3.7 1.8a2.4 2.4 0 0 1-.6 1.7 44 44 0 0 0-2.8 3.6 15.4 15.4 0 0 1-5.3 4.7 94.8 94.8 0 0 0-10.1 6.5 27 27 0 0 1-7.9 4 135.5 135.5 0 0 1-14.3 4 9.6 9.6 0 0 0-3.2 1.3c.3 1.2 1.5 1.2 2.1 1.9a23.2 23.2 0 0 1 3.9 4.8 39.5 39.5 0 0 0 4.2 6.1 18.7 18.7 0 0 0 7 5c1 .3 2 .7 2.9 1.2a9 9 0 0 1 5.1 10.5 2.4 2.4 0 0 1-2.8 2 10.4 10.4 0 0 1-6.1-2.6l-3.1-2.6a15.8 15.8 0 0 0-4-2.5 12.3 12.3 0 0 1-6.8-7.4 4.4 4.4 0 0 0-2.2-3 6.8 6.8 0 0 1-2.2-2.2 3.1 3.1 0 0 0-2.5-1.5l-.2.5c1.4 2 1.4 2-.3 3.6a13.7 13.7 0 0 0-3.4 4.3c-.5 1-1 2-2.3 2.3-.6.1-.8.6-.6 1.3.6 3 .4 6.2 2 9a2.4 2.4 0 0 1 0 2.1 5.2 5.2 0 0 0-.3 2.1 3.6 3.6 0 0 0 2.8 3.8 48.7 48.7 0 0 0 17 2.4 34.4 34.4 0 0 0 12.4-3.2c3.7-1.6 7.7-3.3 12-2.1a2.8 2.8 0 0 0 2.8-1l7.6-7.3c7.1-6.8 14.5-13.3 21.8-20 11.3-10.3 23-20.3 35-29.8 5.2-4 10.6-7.8 15.9-11.7 1-.8 2.2-1.5 2.2-3.2a2.2 2.2 0 0 1 1-1.5 42.8 42.8 0 0 1 6.6-4.8l15.3-8.6 1.2-.7c1.6-1 1.7-1 1.1-3a5.5 5.5 0 0 1 .2-3.7c2.2-5.2 4-10.5 7.6-15a8.9 8.9 0 0 1 .7-1c1-1 2.2-.7 3 .6.5.9 0 2.4 1 2.7.7.2 1.8-.4 2.7-.6a2 2 0 0 1 2.4 1.3 3.3 3.3 0 0 0 2.5 1.9 6.8 6.8 0 0 1 3.7 2.2 3.3 3.3 0 0 1 .2 4.5 13 13 0 0 1-3.3 3.2 26 26 0 0 1-11.1 4.2 5.3 5.3 0 0 0-3.5 1.8c-1 1.2-2.7 1.7-4 2.5l-14.2 8.5-4.2 2.4a2 2 0 0 0 2 .2c9.5-2.3 19-4.7 28.4-7.8 1-.3 2.1-.8 3.3-.4.5.2.8 0 1.1-.5 2-2.7 5-3.4 7.9-4.2a75 75 0 0 1 16.3-3c.2-.8-.3-1-.6-1.4a2.6 2.6 0 0 1-.5-3 4 4 0 0 0 .4-3.3 1 1 0 0 1 0-.7c1.1-2.2.4-4.7 1-7 .2-.8-.1-1.2-1-1.3a13.8 13.8 0 0 1-9.1-4.8c-2-2.1-4-3-6.8-2-2.2.8-4.5.8-6.8 1.4a6.6 6.6 0 0 1-6.1-1.4 17 17 0 0 0-7.1-3.3 26 26 0 0 1-3.4-1 2 2 0 0 1-1.3-2.4 1.8 1.8 0 0 1 2.1-1.5c5.2.3 10.4-.5 15.5 1 .8.2 2 .6 2.5-.4.4-1-.6-1.5-1.2-2.1a5.8 5.8 0 0 0-4.9-2.1 10 10 0 0 1-3.7-.7c-1.4-.5-2.5-1.3-2.6-2.8a4.5 4.5 0 0 1 2.1-4 3.2 3.2 0 0 1 3.9 0 6.6 6.6 0 0 1 1.4 1.2 26.2 26.2 0 0 0 7 5.3l8.6 4.9a3.7 3.7 0 0 0 3.8.3l3.4-1.3c1-.4 1-1 .6-1.9a7.6 7.6 0 0 0-1.5-1.9 16.1 16.1 0 0 1-3-3.7c-.8-1.6-2.6-2.2-4-2.7-4.3-1.7-8-4.4-12-6.7a14.2 14.2 0 0 0-3-1.5 7 7 0 0 1-2.9-2c-1.4-1.5-2.5-3-2-5.3a1.1 1.1 0 0 0 0-.5c-1.2-4.4 2-7.3 6-8.8a3.7 3.7 0 0 1 5.1 2.6l.7 2.8a12.6 12.6 0 0 0 5.6 6.6l8.2 5.3a61.5 61.5 0 0 1 6.6 4.8 11.3 11.3 0 0 0-3-5.3c-1.6-1.7-3.5-3-5.2-4.6-1-1-2.3-1.6-2.3-3.2a8.8 8.8 0 0 1 1.4-5.5l3.1-4c1.2-1.5 2.8-1.4 3.5.5a37.7 37.7 0 0 1 1.8 4.1c.5 1.8 2 3 3.3 4.4.5.6 1 .2 1-.5v-2.2a1.9 1.9 0 0 1 1.5-2.1c1.3-.3 1.7.6 2 1.6.7 2.6 1.1 5.1 1.6 7.7a6 6 0 0 0 1.2 3.1c.8-.5.7-1.2.8-1.9a8.4 8.4 0 0 1 1.5-4.2 18.5 18.5 0 0 0 2.4-5.2 16 16 0 0 1 2.3-4.8 2.2 2.2 0 0 1 2.2-1c1 0 1.3 1 1.5 1.8a5 5 0 0 1-.2 3.6 5.3 5.3 0 0 1-.6 1c-3.6 4.4-4.5 9.8-5.9 15a23.5 23.5 0 0 1-.8 2.5 11.3 11.3 0 0 0-.6 3.8 40.5 40.5 0 0 1-1 9.4c-.8 2.8-1.4 5.5-1.9 8.2a32.7 32.7 0 0 1-2.3 7.6 4.7 4.7 0 0 0-.8 2.7c1.1 0 1.7-.7 2.4-1.1 2.8-1.8 5.2-4 7.8-6l7.7-5.6c5.3-4 11.3-7.4 15.2-13a69.6 69.6 0 0 1 5.3-6.3 14.3 14.3 0 0 1 1.8-1.6c.6-.5 1.4-1 2.2-.4a2.2 2.2 0 0 1 1 2.5 16 16 0 0 1-2 4.3 28.1 28.1 0 0 1-3.1 3.7 185 185 0 0 1-11 10.7 19.5 19.5 0 0 1-2.7 2c-4.1 2.5-8 5.4-12.3 7.8a58 58 0 0 0-9.5 7 11.8 11.8 0 0 0-1.6 1.8c-.5.7-.6 1.3.4 2 1.9 1.3 1.8 2.1.2 3.7-.5.5-1.4.5-1.6 1.4.9.4 1.6 0 2.4-.3l15.1-4.5c2.6-.8 2.7-1 2.8-3.7 0-.8 0-1.7 1-1.9a2 2 0 0 1 2.3 1.2c.8 1.7.3 3.2-.6 4.6a15 15 0 0 1-3.1 3c-.7.6-1.1 1.1-.5 2.2s.5 2.4 1.7 3.1c.4.2.5 1 .5 1.6a1.7 1.7 0 0 1-.7 1.4c-.6.4-1 0-1.5-.3-2.7-2-4.5-2.3-8-1.6.4.6 1.1.6 1.7.7a31.3 31.3 0 0 1 5.2 1.8 2.7 2.7 0 0 1 1.8 2.6 1.3 1.3 0 0 1-1 1.3 1.1 1.1 0 0 1-1.3-.3c-2.5-2.8-6-3-9.4-3.5-1.5-.2-3.2.2-4.4-1.3-.5-.5-1.2-.2-1.8 0-1.6.4-3 1-4.3-.8-.4-.6-1.7 0-1.5 1 .4 2.4 1 4.8 1.3 7.2 0 .6.6.5 1.1.6 2 .4 2.5 1 2.8 3 .7 4.7 1 9.6 3.3 14a16.9 16.9 0 0 1 1.1 4c.5 1.9 1.3 3.6 3.4 4.3 1.5.6 2 2.2 2.6 3.6a60.5 60.5 0 0 0 6.2 11.9 52 52 0 0 1 5.1 10.5 9.2 9.2 0 0 1 .8 4.2c-.2 1.9-1.5 2.7-3.2 2a6.2 6.2 0 0 1-3-3c-1.6-3.1-2.9-6.4-4.3-9.6-.6-1.6-1.3-3.2-2.2-4.8-.5 2.3-1.8 4.4-1.7 6.8a16.4 16.4 0 0 1-.5 4.5c-.9 3.7-1.2 7.4-2.2 11a64.2 64.2 0 0 1-2.7 7.4 5.2 5.2 0 0 1-.4.7c-1 1.6-1.8 2-3 1.7-1.4-.4-2-1.5-1.9-3.4.4-3.9 1.2-7.7 1.9-11.6l.6-4a7.1 7.1 0 0 0-4.6 2.6 25.5 25.5 0 0 0-3.9 7.9 36.5 36.5 0 0 1-1.6 3.7c-.7 1.5-1.2 1.7-2.4 1.4s-1.5-1.2-1.5-2.4l.2-3.3c0-1.1-.4-1.5-1.4-.9a13.3 13.3 0 0 1-4.5 1.7 2.7 2.7 0 0 1-3-1.4 2.8 2.8 0 0 1 .2-3.4 4.4 4.4 0 0 1 1-1c2.8-2 5.5-4.5 9-5.4a2.6 2.6 0 0 0 2-1.9c2-6.5 4.3-13 6.1-19.6a5.2 5.2 0 0 0 0-3.9l-2.9 3.5-3.6 4.4c-1 1.2-1.1 1.6-.1 3a8.8 8.8 0 0 1 1.5 3.4c.3 1 .3 2.1-.7 2.8s-1.7 0-2.4-.5a9.6 9.6 0 0 0-2.3-1.3 2.4 2.4 0 0 0-2.9.6c-4.3 5-10.3 7.3-16.3 9.7a2.5 2.5 0 0 1-3-.5 3 3 0 0 1-.1-3.5c1.9-3.3 4.6-6 7.2-8.7l1-1c2-2.3 2-2.8-.7-3.9-3.8-1.5-7.6-3.4-11.8-3.4-.6 0-.9-.4-1.3-.6a26.3 26.3 0 0 1-8.8-6.9c-1.2-1.2-2-2.5-1.7-4.3.1-.7-.3-1-.9-1.1-6-1.3-11.5-4.4-17.2-6.6a5.1 5.1 0 0 1-3.2-2.4c-.5-1.1-1.3-1-2.1-.4-3.5 2.3-6.7 4.7-10 7.1-5.6 4.2-11 8.6-16.5 12.8-4.6 3.5-8.9 7.4-13.2 11.1l-11.2 10.2c-6.9 6-13.4 12.3-20.2 18.5l-8.4 7.8c-.8.7-1 1.3-.5 2.2a2.1 2.1 0 0 1-.3 2.7 25.5 25.5 0 0 0-1.8 2.5c-1 1.7-2.3 3-4.5 3a3.5 3.5 0 0 0-2.2 1 4.2 4.2 0 0 1-3 1 2 2 0 0 0-1.6.6 53.3 53.3 0 0 0-5.6 5.2c-1 1.1-1 1.1.3 2a5.6 5.6 0 0 0 2.6 1 21.6 21.6 0 0 1 5.6 1.3 5.4 5.4 0 0 1 3.8 5 3.2 3.2 0 0 1-3 3.3 9.4 9.4 0 0 1-2.8.1c-4.7-.6-9.4-1.2-13-4.6a1.4 1.4 0 0 0-2.3 0 106.1 106.1 0 0 0-12.6 13.9c-1.4 2-1.4 2 1.2 3a15 15 0 0 1-.2-2.3c.1-1 .8-1.5 1.9-1.2a6.3 6.3 0 0 1 1 .6 1.4 1.4 0 0 0 2.1-.5 24.2 24.2 0 0 1 4.4-4 11.8 11.8 0 0 1 4.3-2.1c3.3-.9 5.7.5 6.7 3.9.4 1.4.6 1.5 2 1a14.8 14.8 0 0 1 4.6-1.3c2 0 3.1.6 3.3 2a3.4 3.4 0 0 1-3.5 3.5 5.5 5.5 0 0 0-5.1 3c-1 1.5-2.2 2.7-4.5 2.5s-3.2 2-4.9 3.6l9.3-1.5a4.3 4.3 0 0 0 3.3-3.1l.4-1.6a1.7 1.7 0 0 1 2-1.3 2.2 2.2 0 0 1 1.5 2.4 3.1 3.1 0 0 1-.3 1c-.3.7-.1 1.1.6 1.4a3.6 3.6 0 0 1 2.3 2.3c.2.8 1 1 1.6 1.4a7.5 7.5 0 0 1 3.6 6 46.4 46.4 0 0 1 0 8q-.8 8.5-2.2 16.9a15.3 15.3 0 0 1-2.4 6.4 13.4 13.4 0 0 0-1.1 3 58.3 58.3 0 0 0-3.8 12.5c-.4 2-.5 4.1 1.3 5.8 2.7 2.5 1.2 7.7-.6 9.7a3.6 3.6 0 0 1-3.6.8 3.2 3.2 0 0 0-2.5.3c-2 1.2-3 .6-3.1-1.6a38.5 38.5 0 0 1 .3-9.8 14.7 14.7 0 0 0 0-4.5 24.4 24.4 0 0 1 .8-10c.7-2.5 1-5.1 2.1-7.6-.9-.2-.8.6-1 .9a14.5 14.5 0 0 0-.8 2.2l-4.2 13a9.4 9.4 0 0 0-.7 2.5 2.6 2.6 0 0 1-1 2 3.7 3.7 0 0 0-1.2 1.8c-.4.9-1 1.6-2 1.5a2.6 2.6 0 0 1-2.2-2 4 4 0 0 1 0-2c1-5.6 2.5-11 4-16.3a11.2 11.2 0 0 0 .5-4.5 58.7 58.7 0 0 1 0-8.9 11 11 0 0 1 .8-4.4c.3-.8.5-1.6-.4-2.1-.7-.5-.8-1.2-1-1.9a13.8 13.8 0 0 0-1.7-3.7c-.5-.8-1-1.6-.3-2.4s1.4-.4 2.2-.2a.9.9 0 0 0 1 0c.2-.4 0-.8-.3-1.1l-4-5c-.8-1-1.2-1-2.5 0-.8.7-1.3 1.5-.2 2.2 1.8 1.3 2.3 3.1 2.6 5.2a3.1 3.1 0 0 0 .3 1.1c2.3 3.8 2.4 7.9 2 12l-.7 7.2c-.3 3-1.9 5.5-3.2 8.2-.4.8-1.4 1.2-2.2 1.7-2 1.2-4.3 1.9-5.6 4a.9.9 0 0 1-.5.5c-2.1.1-3 1.8-4 3.1a37.1 37.1 0 0 1-5.8 5.5 7 7 0 0 1-7 1.4c-1.6-.6-3.1 0-4.6.3s-2.3 0-2.9-1.4a4.4 4.4 0 0 1 2.3-6 12.5 12.5 0 0 0 3.7-2.6c4.8-4.5 9.3-9.4 15-13a9.6 9.6 0 0 0 1.3-1c1.5-1.3 1.4-1.3 0-2.8a10.2 10.2 0 0 1-2.4-5.2c-.2-1-.3-2.4-1.4-2.5s-1.2 1.4-1.7 2.3a94.5 94.5 0 0 0-3.3 9.4 9 9 0 0 1-4 5.1c-2 1.2-3.3 3.6-5.8 4.2l-.2.2c-1.2 1.8-2.9 2.4-5 1.2-1.4 4.3-2 8.7-3 13-1.6 6.5-2 13.2-2.9 19.9-1.2 9.7-2.5 19.3-4.1 29-1 6.1-1.8 12.3-2.6 18.5-.8 5.7-1.1 11.5-1.6 17.2-.4 5.5-1.1 11-2 16.4a68.5 68.5 0 0 0-.9 13.4c.2 3.4-.7 6.6-1 10-.3 4.1-1.6 8.1-1.3 12.3a2 2 0 0 1-1.9 2.4 2 2 0 0 1-2-2.2c.2-3.3-.2-6.5.6-9.8a27.1 27.1 0 0 0 .9-9.2c-.1-1.3 0-3.1 1.5-4.1a.8.8 0 0 0 .2-1.3c-1-1.2-.6-2.4-.2-3.6a31.8 31.8 0 0 0 1.3-7.3c.3-3.7.9-7.5 1.4-11.2l1.2-11.7c.5-5.8 1-11.7 1.7-17.6q1.5-11.4 3.4-22.8c1.5-8.8 2.4-17.7 3.3-26.6a121.8 121.8 0 0 1 2.8-16.5c1.2-4.9 2-9.9 2.8-14.8a94.7 94.7 0 0 1 2.4-10.5 179 179 0 0 0 4.6-24l.8-5c.2-1.7 0-1.7-1.5-1.5a3 3 0 0 1-3.5-2.3c-.6-1.5-1.7-2.7-2.2-4.2a2.2 2.2 0 0 0-1-1 19 19 0 0 1-6-7.4c-.3-.6-.3-1.4-1.4-1.5ZM426.5 278c-.1-1-.2-2-.5-2.8-.5-2-1.5-2.7-3.6-2.9h-4.7c-3.8-.4-7.6-1.1-11.3-1.8a26.4 26.4 0 0 0-3.3-.5c-2-.1-3.9-.5-5-2.2-1-1.7-2.4-1.6-4-1-5.5 1.9-11.2 3.3-16.8 4.9L361 276c-.4.1-1 0-1.2.6s.6 1 1 1.2a79.3 79.3 0 0 0 8 4 34.6 34.6 0 0 0 4.8 2c1.6.4 3.6.3 4.8 1.3 1.9 1.3 3.4 0 5 0a72.6 72.6 0 0 1 7.6 1 17.2 17.2 0 0 1 6 2c2.8 1.7 6 3 8 5.6a50.8 50.8 0 0 0 4.9 4.5c.9.9 1.6.8 2.3-.1l3.6-4.2a111.9 111.9 0 0 0 8.8-10.5 9.7 9.7 0 0 0 2-5.5ZM200 341a14.5 14.5 0 0 0 1.9 5.3 4 4 0 0 1 .6 2 29.5 29.5 0 0 1-.2 7.7 22.4 22.4 0 0 0-.3 6.1 21.5 21.5 0 0 0 3.2 10c3 4.7 5.5 9.7 9 14a4.8 4.8 0 0 1 1 1.7c0 .4 0 1 .6 1 1.3-4.6 1.8-9.3 3.4-13.8a3.1 3.1 0 0 0-1-3.8c-1.3-1.2-2.5-2.7-3.8-4a5.7 5.7 0 0 1-1.5-3.2c-.4-2.3.1-4.5.4-6.6.5-3.5-.9-6.5-2.2-9.4a3.5 3.5 0 0 0-1.4-1.4 41.3 41.3 0 0 1-6-5 3 3 0 0 0-3.7-.6Zm-12.2-44.7a9 9 0 0 1 .5-.8c1-1.2 2-1.6 3-1.1s1.2 1.3.7 3a13.9 13.9 0 0 0-.7 3.5 25.2 25.2 0 0 1-1.3 7c-1 3.3-.4 6.6-.2 10 0 .5.1 1.1.8 1.3.8.2 1.1-.4 1.5-1a10.7 10.7 0 0 0 1.8-3.8c.9-3.8 3.3-6.5 6.1-9 1.3-1 2.8-2 1.8-4a1.6 1.6 0 0 1 0-1c.8-3.5 0-7-.4-10.5a12.6 12.6 0 0 0-5-8.7 20.7 20.7 0 0 1-3.8-4c-.5-.7-1-1.4-1.7-2-.8-1-1-1-1.7.1a15.1 15.1 0 0 0-2.9 7.8 72.1 72.1 0 0 0 .2 7.9c.2 1.7 0 3.4 1.2 5.3Zm38.2 59.8a3 3 0 0 0-.3 2c.5 4.4 1 8.8 1.2 13.3a68.8 68.8 0 0 0 1.7 11.8c.1.8.1 1.8 1 2 .7.1 1.1-.7 1.5-1.3a10.2 10.2 0 0 1 1.3-1.5c3-3 6-6 9.3-9l2.7-2.7c-1.8-1.5-3.2-3-5.2-3.8a12 12 0 0 1-4.4-3.1l-4-4.4a12.1 12.1 0 0 0-4.8-3.3Zm-25.3-26.5a20.6 20.6 0 0 1 6 5.5 2.5 2.5 0 0 0 1.5.8c3.8 1 7.7 1.6 11.6 2.5a12.9 12.9 0 0 0-1-6.4c-.6-1.7-1.2-3.2-3-4.2a3.6 3.6 0 0 1-1.6-3.3 19.9 19.9 0 0 0-.5-4c-.8-3.6-1-3.6-4.4-2.6a7.5 7.5 0 0 0-1 .3c-2.2 1-4.4 2-6.7 2.7l-3.6 1c-.6.2-1.5.7-1.1 1.5.2.6 1 .3 1.5 0l1.5-.6a6.5 6.5 0 0 1 3.6-.2c.6.2 1 .5 1 1.2a1.1 1.1 0 0 1-1 1.1c-.6.1-1.1 0-1.7.2-1.8.4-3.7.8-4.9 2.6a1.6 1.6 0 0 0 2-.5 3.6 3.6 0 0 1 3.8-.6 7.3 7.3 0 0 1 3 2c.5.5 1 1 .5 1.8a1.4 1.4 0 0 1-1.8.2 15.1 15.1 0 0 1-1.5-.8 2 2 0 0 0-2.2-.2Zm29.2 62a4.2 4.2 0 0 0-2.4-1.7 2.5 2.5 0 0 1-2-2.8c.4-3.2-.7-6.2-1-9.2 0-.4 0-.8-.6-1a1.6 1.6 0 0 0-.5 1.4c-.6 6.3-2.5 12.3-4.3 18.4-1.3 4.7-3 9.4-3.4 14.4s-2 9.5-2.8 14.3l-1.2 7a3.7 3.7 0 0 0 1.1-2.1c.6-2 1.3-4 3-5.3a2.9 2.9 0 0 0 1-2.4 13.5 13.5 0 0 1 5.8-11.5 2.8 2.8 0 0 0 1-3.4 32.6 32.6 0 0 1-1.1-5.2c-.7-4.3.4-6.5 4.2-8.6a10.6 10.6 0 0 0 3.2-2.4Zm20 14.3c.8-.5.7-1.3 1-2 .4-.7.9-1.3 1.8-1.2a1.8 1.8 0 0 1 1.8 1.4 2.3 2.3 0 0 0 2.6 2.1 2.9 2.9 0 0 1 1.1.3c.8.4 1.6 1 1.6 2a2 2 0 0 1-1.5 1.8c-.4.2-.9 0-1 .8a18.2 18.2 0 0 0 1.7 2.5 21 21 0 0 1 3.6 7.2 4.7 4.7 0 0 0 .9 2c.9-1.6.8-3.2 1-4.8.2-1.4.8-2.8.5-4.2l-1.4-5.4c-.2-.8-.5-1.2-1.4-1.2a2.1 2.1 0 0 1-2.2-1.4c-1-2.2-3.2-3.3-4.8-5a1.3 1.3 0 0 0-1.4-.3c-2 .9-4.5.8-6.6 2.3a11.3 11.3 0 0 0 2.7 3.1Zm182-106a1.8 1.8 0 0 0-.7 1.4 51.6 51.6 0 0 1-2.5 10.7l-1.2 5.1c-.1.7.2 1 .8.8a6.4 6.4 0 0 0 4.4-5.1 39 39 0 0 1 .5-4.3c.7-3-.2-5.7-1.3-8.5Zm-179.4 57c-1.6.5-3.4 0-5.1.7-1.2.5-1.4 1-.5 2 1.4 1.3 3.1 2.4 4.4 4a.7.7 0 0 0 1 0l5-4.8c.5-.5.3-1-.3-1.1l-4.5-.7Zm-30.8 10.2a12 12 0 0 0 .3-1.4 71.8 71.8 0 0 0 .4-10v-.3a1.6 1.6 0 0 0-1.4-1.5c-1-.2-.9.7-1.1 1.3-1 2-.4 4.2-.4 6.3a8.6 8.6 0 0 0 2.2 5.5Zm21 25.2a4.2 4.2 0 0 1 0 1.9 1.1 1.1 0 0 0 .3 1.3c.5.4 1 0 1.4-.3 1-1 2.2-1.7 2.8-3 .4-.7 2-.8 1.5-1.8s-1.7-.7-2.5-1a.9.9 0 0 0-.3-.1 2.7 2.7 0 0 0-3.1 3ZM234 405a11.6 11.6 0 0 0 3.5-.7.9.9 0 0 0 .7-1.1c-.2-.7-.6-.6-1.1-.6-2.1 0-2.2 0-2.3-2 0-.8-.4-1-1.1-1-1.7-.2-2 .2-2 1.8a16.4 16.4 0 0 0 .5 2.1c.1 1 .7 1.6 1.7 1.4Zm5.6 7.5c-1.8 1.4-2 3-2.2 4.6 0 .5 0 1 .5 1.3s.8-.3 1.1-.6c1.3-1.6.8-3.3.6-5.3Zm17.9 21c1.6-2 3.5-3.8 4.5-6.3-1.1 2.4-4.4 3.2-4.5 6.3Zm4.5-33.8a.7.7 0 0 0-.6.6 3.5 3.5 0 0 0 1.8 2.7.6.6 0 0 0 .7-.3c.6-1-.8-3-1.9-3Zm159.8-169c0-1 0-1.7-1-1.6-.6 0-1.2.2-1.3 1s1 2.2 1.6 2c.9-.2.6-1 .7-1.5ZM250 384.4c.3 0 .6 0 .6-.2a.5.5 0 0 0-.5-.7c-.3 0-.7 0-.7.3s.3.5.6.6Zm-44.8-71c-.3 0-.6.2-.5.6a.4.4 0 0 0 .3.3.6.6 0 0 0 .6-.5c0-.3-.2-.4-.4-.4Z"/><path d="M447 275v2c0 .6-.4 1.2-1 1.4a1.5 1.5 0 0 1-1.8-1 17 17 0 0 1-.7-2.6 5 5 0 0 0-3.4-3.7c-2.8-1-5.6-2.3-8.7-2.6-1.8-.2-2.3-1.2-1.4-2.8 1.3-2.2 2.7-2.9 5.1-2 3.7 1.1 7.1 2.7 10 5.6a5.7 5.7 0 0 1 1.8 4.5v1.2ZM186.4 323.7l-7-.9a2.7 2.7 0 0 1-2.2-3.7 1.3 1.3 0 0 1 1.2-1c.6 0 .8.6.7 1 0 1.6 1 2 2.3 2.3 1 0 2 .2 2.9.3l2.1.1c.7.1 2.2 0 2.1 1.1 0 1.3-1.4.5-2 .8ZM222 156.5c0 .7-.5.7-.8.7s-1 0-1.2-.5.3-.7.7-.7a1.4 1.4 0 0 1 1.4.5ZM375.9 476.8c.1.2 0 .3-.1.3h-1l.3-.5a.6.6 0 0 1 .8.2ZM223.4 387c.4 0 .6.5.7.8.1.6.6 1.2.3 1.8a.4.4 0 0 1-.6.2 2.2 2.2 0 0 1-1-1.8.8.8 0 0 1 .6-1Z"/></g></svg>