<svg xmlns="http://www.w3.org/2000/svg" viewBox="0 0 595.3 841.9"><defs><style>.cls-1{fill:#322e28}</style></defs><g id="Traits_de_coupe" data-name="Traits de coupe"><path class="cls-1" d="M332.9 170.9a1.5 1.5 0 0 0 .3 1.3l.5 2.5a1.9 1.9 0 0 0 0 1.3 18.8 18.8 0 0 1 .3 5.3 1.4 1.4 0 0 0 .1.9c.2.3.4.3.8.6a7.4 7.4 0 0 1 1.6 1 3.2 3.2 0 0 1 .7 1c.3.6.2 1 .3 1.7a2.9 2.9 0 0 0 1.5 1.6.4.4 0 0 1 0 .2c-.2.2-.5.1-.9 0a2.5 2.5 0 0 0-1 .2 1.4 1.4 0 0 0-.7 1 8 8 0 0 1-1.8 2c-1 1-1.5.8-1.7.8a1.7 1.7 0 0 1-.8-.3c-.8-.5-1.2 0-1.3.8s-.8 1.6-.7 2.6c-1.7 1.8-2.4 4.2-3.6 6.3a15.3 15.3 0 0 0-1.9 3 9.5 9.5 0 0 0-2 2.2 1.2 1.2 0 0 0-.7.6 7.8 7.8 0 0 0-1.9 1.7 37.3 37.3 0 0 1-4.9 4.5.8.8 0 0 0-.3.7 1.9 1.9 0 0 0-1.3 1 1.3 1.3 0 0 0-1 1v.2a53.9 53.9 0 0 0-6 5 15.3 15.3 0 0 0-2.6 2l-.2.4c-.5-.2-.8.1-1 .4a6.3 6.3 0 0 0-2.4 1.4 15.2 15.2 0 0 0-2.9 1.4c-.7-.2-1.5.5-2.3 0-.6-.3-1-.7-.5-1.4a6.5 6.5 0 0 1 1.1-1.4 49.2 49.2 0 0 0 8.6-10 33.2 33.2 0 0 1 3.3-4c3.1-3.3 6-6.8 7.6-11.2l2.8-7.6c.3-.8 0-1.2-.8-1.5a24.3 24.3 0 0 0-5.5-.7c-3.3 0-6.4-1.3-9.7-1.7-1-.2-2.2-.6-3.3-.7a36.8 36.8 0 0 1-7-1.8 6 6 0 0 0-4.5 0 9.7 9.7 0 0 1-3.1.7 1.2 1.2 0 0 1-1.4-.8 1.3 1.3 0 0 1 .6-1.7 2.8 2.8 0 0 1 .4-.2c.5-.2 1-.5 1-1s-.8-.8-1.3-.9h-.4a1.1 1.1 0 0 1-1-1.3c0-.6.6-.9 1.1-1a5.7 5.7 0 0 1 1.8 0l3.9.6c4 .4 8-.1 12 0 4.5.1 8.8-1.2 13.3-1a7 7 0 0 0 4.2-1.2 3.5 3.5 0 0 1 .9-.3c1.8-.6 2.2-1 2-2.8-.4-3-.5-6-2.2-8.7a10.2 10.2 0 0 1-1-2.2 58.5 58.5 0 0 0-5.6-11.3c-1.4-2.3-3-4.5-4.6-6.7l-4.4-6a8.5 8.5 0 0 1-.8-1.4c-.2-.5-.5-1 0-1.5a1.3 1.3 0 0 1 1.5-.4c2.3 1.2 4.9 1.9 6.7 4a108 108 0 0 0 9.6 9.1 12.9 12.9 0 0 1 2.8 3.6c1 2 2.5 3.7 3.7 5.6a52.8 52.8 0 0 1 4.3 7.5 4.1 4.1 0 0 0 .6.8 7.5 7.5 0 0 0 1 4.2ZM471.4 263.5a3.6 3.6 0 0 1 1.8.4 4.2 4.2 0 0 0 1.2.5c.8.2 1.2-.2.9-1a14 14 0 0 0-1-2.1 8.3 8.3 0 0 1-.9-1.8c-.2-.7-.3-1.5.5-2a1.6 1.6 0 0 1 2.1.5 10.3 10.3 0 0 1 1.7 2.4 5.7 5.7 0 0 1 .4.9c.6 2.9 3 3.5 5.2 4.1a34 34 0 0 0 3.7.8 17.4 17.4 0 0 1 5.3 1.9 7.6 7.6 0 0 0 1.2.6c.9.3 2 .5 2.6-.2s-.3-1.3-.7-1.8a40.4 40.4 0 0 0-7.2-8.3 116.7 116.7 0 0 1-10-10.2 15 15 0 0 0-2.4-2.3 1.7 1.7 0 0 1-.8-1.9c.1-.5.5-1 1-.9 1 .4 2.3.1 3 1.3.7 1.6 2.2 2.3 3.6 3.2a36.8 36.8 0 0 1 8.3 6.6c1.8 2 4.1 3.4 6 5.3a38.1 38.1 0 0 1 5.6 5.7l4.9 6.7a6 6 0 0 1 .5.6l3.3 6a2.6 2.6 0 0 1-.5 3.3 19.6 19.6 0 0 1-2.5 2.5c-2.7 2-4 5.3-6.5 7.6-1 1-2.2 1.9-2.4 3.4 0 .5-.6.7-1 1a19.8 19.8 0 0 0-3.8 3.8 1.4 1.4 0 0 1-.5.5 5.2 5.2 0 0 0-3 3c-.5 1.3-2 2-3.2 2.8a4.8 4.8 0 0 0-1.1.8c-1.6 1.7-3.6 2.8-5.5 4.1a21.3 21.3 0 0 0-3.6 3.6c-.5.7-1 1.4-2.1 1.3-1.4-.2-2-1.3-1.2-2.5a5 5 0 0 1 1.1-1 28 28 0 0 0 5.6-6.7c1.5-2.1 2.4-4.5 4-6.6a38.8 38.8 0 0 0 2.4-4.7l4.5-8.1a10.8 10.8 0 0 0 1-4 2.6 2.6 0 0 0-1.8-2.6c-1.7-.7-2.9-2-4.3-3l-8-5.2a8.6 8.6 0 0 1-3-2.8 4.4 4.4 0 0 0-3.4-2 15.7 15.7 0 0 1-2.5-.6c-.5-.2-1.2-.5-1.1-1.2a1.7 1.7 0 0 1 1.3-1.6 10.2 10.2 0 0 1 1.3-.1ZM352 250.4a40.6 40.6 0 0 0-3-6.7c0-.3-.3-.5-.4-.8-.4-.9 0-1.3.9-1.2 1.1 0 2.3.3 2.7 1.6.5 1.8 1.8 3.2 2.8 4.7a45.6 45.6 0 0 1 2.7 5.7 3.8 3.8 0 0 0 .3.5.8.8 0 0 0 .8.4c.3 0 .4-.3.5-.6a11.6 11.6 0 0 0 .5-3.9 32 32 0 0 0-.3-4c-.6-3.7-.5-7.6-1.2-11.3a41 41 0 0 0-3-9.7c-.6-1.2-.6-1.8.2-2.2.9-.4 1.5 0 2.2.7a8.1 8.1 0 0 1 2 3.4c0 .3 0 .7.3 1 2.3 2.6 2.6 6.2 3.8 9.3A96.4 96.4 0 0 1 367 248a23.2 23.2 0 0 1 .8 4.5 8.5 8.5 0 0 0 2.6 5.6c2 1.7 3.4 4 5.5 5.5a9.2 9.2 0 0 1 2.8 3.8 3.1 3.1 0 0 1 .4 1.4 20 20 0 0 0 .1 2.4c.2 1.7.2 1.8-1.3 1.7-2.5-.2-5 .2-7.3-.1a14.7 14.7 0 0 1-7.3-3.3c-2.2-1.8-3.8-4.2-6-6a14.7 14.7 0 0 1-1.7-1.7 74.4 74.4 0 0 0-14.5-12.9c-.6-.4-1-1-.7-1.6a1.7 1.7 0 0 1 1.8-.9 5 5 0 0 1 2 .8c1.8 1 3.9 1.2 5.6 2.5a5.1 5.1 0 0 0 2.3.7ZM84.5 319.8a.5.5 0 0 0-.6.1.7.7 0 0 0-.8.4 1 1 0 0 0-.8.2 1 1 0 0 0-1 .4 4 4 0 0 0-2.2.7 1.4 1.4 0 0 0-1.6.3h-.8c-1.1-.5-2.4-.2-3.6-.3a1.2 1.2 0 0 0-.9-.3c-1.4-1.6-1.3-2 .5-3a2.2 2.2 0 0 1 .5-.4 29.7 29.7 0 0 0 5.3-2.5 16.6 16.6 0 0 0 4-2.7 29.2 29.2 0 0 0 5-5.3 31.8 31.8 0 0 0 3-5 1.5 1.5 0 0 0-.7-2.2 3.3 3.3 0 0 0-1.2-.6c-2.9-.6-5.2-2.5-7.7-3.9a29.8 29.8 0 0 0-6.6-3c-.8-.3-2-.2-2-1.3 0-.9 1-1 1.7-1.4 1.6-.7 1.5-.8 1.2-2.5a6.8 6.8 0 0 1 0-.8 1.5 1.5 0 0 1 1-1.7 1.4 1.4 0 0 1 1.8 1.2 14.1 14.1 0 0 0 1.1 2.5c.4 1 1 1.7 2.3 1.3a5.5 5.5 0 0 1 2.4 0c2.3.4 4.6.8 6.9.9 1.7 0 3.3-.2 5 .7 1.4.7 1.8.4 2-1.3.3-2.5 1.3-4.8 1.5-7.3.2-1.7.9-3.2 1-4.8.5-4.8 0-9.6-.3-14.4-.1-1.8 0-2 2-2a3.3 3.3 0 0 0 1.4 1.3c.2.5.3 1 .7 1.4a2.9 2.9 0 0 0 .7 2.7 4.2 4.2 0 0 0 .5 2.1 1 1 0 0 0 .3 1.1 1.8 1.8 0 0 0 0 .3s0 .1 0 .1c.2 1.4-.1 2.8.9 4a.3.3 0 0 0 0 .4 2 2 0 0 0 .4 2.4 1.8 1.8 0 0 0 .3 1.2c-.6 1.1.3 2 .5 3 .4 3.3 1.3 6.6 2 9.9a3.8 3.8 0 0 1 .1 1.5c-.3 1.4.4 2.8.2 4.1 0 .4.2.6.6.7a1.7 1.7 0 0 0 .8.7 5.6 5.6 0 0 1-1 6.2h-.2a1.1 1.1 0 0 0-1 .8.5.5 0 0 0-.5.2c-.9.2-2-.4-2.7.6a3.8 3.8 0 0 0-1.3 1c-1.4 0-2.2 1-3 1.8-1.6 1.2-3.4 2.1-4.3 4a.2.2 0 0 0-.3.2.7.7 0 0 0-1 .6.2.2 0 0 0-.2.2 1.6 1.6 0 0 0-1.7 1 .2.2 0 0 0-.3.2.9.9 0 0 0-1 .5 1.6 1.6 0 0 0-1.4.7 3.9 3.9 0 0 0-2.8 1.4c-.5 0-1.1 0-1.5.4a4.2 4.2 0 0 0-2.6 1.3ZM266.9 332.3a2 2 0 0 0-.7 1.8l-1.4 3.4a2.7 2.7 0 0 0-1 1.5c-1.2 2.2-2.2 4.5-4 6.3a1.7 1.7 0 0 0 0 2.5l.9 2.3a10.4 10.4 0 0 1 1 3.6 6.5 6.5 0 0 1-.6 2.8l1.5 3.2-3.9-1.7c-2.2 1.2-3.7 1-4.7.8a14 14 0 0 1-3.6-2.3c-.7-.6-1.4-1.2-2.2-1a2 2 0 0 0-1.2.6c-1 1-2.3 1.3-2.9 2.6-3.4.7-6.2 2.9-9.3 4.4a21.7 21.7 0 0 0-4.6 2 13.4 13.4 0 0 0-4 1 1.6 1.6 0 0 0-1.4.1 11 11 0 0 0-3.6.5 52.7 52.7 0 0 1-9.2 1.3 1.2 1.2 0 0 0-1 .5 2.6 2.6 0 0 0-2.4.2 1.8 1.8 0 0 0-2 .4h-.2c-3.6.3-7.4.4-11 1.2a21.6 21.6 0 0 0-4.5.3l-.5.2c-.4-.6-1-.4-1.6-.3a9 9 0 0 0-3.8-.3 21.5 21.5 0 0 0-4.4-.6c-.8-.8-2.2-.7-2.8-1.8-.4-1-.5-1.6.6-2a9.2 9.2 0 0 1 2.4-.8c6.2-.6 12.1-2.7 18-5a47 47 0 0 1 7-2 47.9 47.9 0 0 0 17.8-6.8l9.3-6.7c1-.7 1-1.4.3-2.3a34.4 34.4 0 0 0-5.9-5.2c-3.8-2.8-6.4-6.8-9.9-9.8-1.2-1-2-2.4-3.3-3.5a52 52 0 0 1-6.8-7.7 8.6 8.6 0 0 0-5.2-3.5 13.7 13.7 0 0 1-4.1-1.7 1.7 1.7 0 0 1-1-2.1 1.8 1.8 0 0 1 2-1.5 3.9 3.9 0 0 1 .6.1c.8.2 1.7.3 2-.5s-.3-1.3-.9-1.9l-.3-.4a1.6 1.6 0 0 1-.1-2.3 1.7 1.7 0 0 1 2-.1 8 8 0 0 1 2.1 1.4l4 3.7c4.4 3.7 9.5 6.3 14 9.6 5.2 3.8 11.3 5.7 16.4 9.5a10 10 0 0 0 5.8 2 4.9 4.9 0 0 1 1.3.3c2.6.8 3.4.7 4.6-1.7 2-3.7 4.3-7.4 4.4-11.9a14.4 14.4 0 0 1 .7-3.3 82.7 82.7 0 0 0 2.4-17.6v-11.4c0-3.6-.4-7-.3-10.6a12 12 0 0 1 .1-2.2c.1-.8.1-1.5 1-1.8a1.8 1.8 0 0 1 2.2.7c1.7 3.3 4.1 6.2 4.7 10a152.7 152.7 0 0 0 3.8 18.4 18.2 18.2 0 0 1 .4 6.3c-.3 3.2 0 6.4-.1 9.5-.2 4.1-.2 8.2-1 12.2a5.8 5.8 0 0 0 0 1.4h-.1v.2c-1.2 1.6-1.5 3.5-1.8 5.5Z"/></g></svg>