<svg fill="none" xmlns="http://www.w3.org/2000/svg" viewBox="0 0 800 43"><path fill-rule="evenodd" clip-rule="evenodd" d="M0 0h800v11l-5-1c-3 1-5 4-8 2-2 0-1-1-3-2-5 7-18 6-27 4-5-1-8 2-12 1-2 0-3-3-5-2-3 1-3 2-7 2l-4-4h-9l-2-4c-4 2-13 5-19 3-3-1-4-4-7-3l-2 1h-11l-9 3-7-1c-5 2-4 5-11 5-3-3-5-1-9-2l-1-1c-2 0-3 2-5 1-2 0-4-3-6-4h-8l-4-4-5-1-2-2c-3 0-3 1-4 2h-7c-2 0-3 2-5 1-2 0-3-3-5-3h-7l-3-1c-3-1-7 1-8 2h-7l-12 2h-9l-7 4c-5 1-8 10-11 11-9 1-15 9-23 11-5 1-16 8-21 10l-8 2-3-3-25-5c-2 0-1-2-3-2l-2 2h-12l-1 2h-18c-3-1-14-5-16-1l-1 4-2 1c-3-2-8 2-10 1s-2-2-5-2v1l1 1-4 1-2-2c-4 3-7-1-15-3h-17l-8-10c-2 1-2 2-5 1l-6-2-6-4-3 1-8-7c-2 0-4-7-5-8h-13l-2-2h-9l-9 6-15-1-1 2c-6 2-14-3-18-5-3-1-4 1-6 1-3-1-7-4-11-4-4 5-9 0-14-1-5 0-8 5-14 3-3-1-6-5-11-3l-10 5c-3 1-6-1-8-2-6-1-8 3-13 2-2-1-3-3-5-3l-7-2-2-2h-12l-2-2H99l-5 3c-3 1-4-1-6-1l-4 4-15-1c-1 2-2 2-4 2l-4-1-4 1c-2-2-4 0-7-1-2-1-7-5-10-4l-3 2c-3 0-4-4-7-2-4 2-7 5-12 6-7-6-13 1-18 2V0Z" fill="currentColor"/></svg>