<?xml version="1.0" encoding="utf-8"?>
<!-- Generator: Adobe Illustrator 25.4.1, SVG Export Plug-In . SVG Version: 6.00 Build 0)  -->
<svg version="1.1" id="Calque_1" xmlns="http://www.w3.org/2000/svg" xmlns:xlink="http://www.w3.org/1999/xlink" x="0px" y="0px"
	 viewBox="0 0 841.89 595.28" style="enable-background:new 0 0 841.89 595.28;" xml:space="preserve">
<g>
	<path d="M400.42,383.67c0.15-0.65,0.26-1.17,0.41-1.8c-1.42-0.2-2.8-0.14-4.38-0.05c0.63,1.11,0.18,2-0.41,2.86
		c-0.52,0.77-1.02,1.54-1.52,2.32c-0.3,0.46-0.69,0.74-1.24,0.44c-0.63-0.34-0.62-0.91-0.3-1.43c0.33-0.51,0.78-0.95,1.18-1.41
		c0.37-0.43,0.51-0.85-0.04-1.24c-0.3-0.22-0.62-0.44-0.64-0.86c-0.03-0.59-0.39-0.67-0.87-0.69c-0.86-0.03-1.72-0.11-2.58-0.15
		c-0.63-0.03-1.31-0.03-1.7,0.52c-0.9,1.25-2.27,2.08-3.07,3.41c-0.31,0.51-1.01,0.84-0.51,1.72c0.25,0.43-0.62,1.06-1.25,0.98
		c-0.64-0.08-1.11-0.68-1-1.31c0.09-0.5,0.41-0.89,0.73-1.27c0.72-0.84,1.46-1.67,2.17-2.51c0.28-0.32,0.72-0.64,0.61-1.09
		c-0.21-0.84,0.14-1.31,0.87-1.56c0.99-0.35,1.8-1.45,3.05-0.78c0.92,0.49,1.93,0.41,2.9,0.41c1.97,0,3.95,0.01,5.92-0.05
		c3.59-0.1,7.15,0.17,10.5,1.65c0.5,0.22,0.79,0.1,1.15-0.21c1.02-0.88,2.13-1.66,3.33-2.27c1.59-0.81,3.25-1.13,4.99-0.45
		c1.4,0.55,1.52,1.24,0.47,2.31c-0.31,0.32-0.84,0.25-1.12,0.81c0.78,0.64,0.68,1.58,0.55,2.48c-0.67,4.89-0.58,9.85-1.12,14.73
		c-0.55,4.98-0.13,9.99-0.84,14.93c-0.58,4.1-0.54,8.23-1.02,12.33c-0.34,2.91-0.71,5.94,0.11,8.83c0.71,2.52,1.17,5.15,2.68,7.69
		c-0.03-1.02,0.68-1.85-0.61-2.46c-0.62-0.3-0.36-1.09-0.2-1.7c0.6-2.2,0.98-4.44,1.42-6.68c0.57-2.96,0.95-5.94,1.39-8.91
		c0.73-4.87,1.38-9.76,1.82-14.67c0.34-3.69,1.31-7.27,1.98-10.89c0.59-3.23,0.74-6.48,1.2-9.71c0.11-0.78,0.14-1.57,0.22-2.58
		c-1.25,0.88-2.54,1.34-3.26,2.57c-0.03,0.05-0.07,0.11-0.11,0.15c-0.42,0.44-0.84,1.08-1.51,0.5c-0.66-0.59-0.11-1.1,0.31-1.56
		c0.37-0.41,0.74-0.82,1.11-1.23c-0.35-0.52-1,0.42-1.2-0.26c-0.13-0.44,0.21-0.82,0.56-1.09c2.09-1.63,4.18-3.26,6.28-4.87
		c0.55-0.42,1.14-0.78,1.85-0.3c0.79,0.54,0.31,1.21,0.19,1.84c-0.04,0.23-0.16,0.45-0.25,0.7c0.89,0.62,1.68,0.28,2.16-0.34
		c0.54-0.69,1.18-0.98,1.95-1.17c0.29-0.07,0.6-0.22,0.81-0.42c1.39-1.3,3.17-1.45,4.91-1.6c1.37-0.12,1.43,0.07,1.13,1.62
		c-0.09,0.47,0.06,0.95,0.53,1.36c0.7-0.29,1.05-0.97,1.49-1.51c0.9-1.12,1.96-2.05,3.06-2.94c0.37-0.3,0.8-0.41,1.14,0.03
		c0.34,0.45,0.08,0.82-0.3,1.09c-2.05,1.45-3.27,3.66-4.93,5.47c-0.49,0.53-0.95,1.19-1.04,1.93c-0.4,3.23-1.7,6.28-1.76,9.6
		c-0.03,2.01-0.89,3.95-1.15,5.98c-0.43,3.35-1.03,6.69-1.42,10.04c-0.68,5.92-1.08,11.88-1.93,17.78
		c-0.51,3.52-0.86,7.08-1.57,10.58c-0.73,3.61-1.28,7.26-2.02,10.86c-0.6,2.95-1.63,5.81-1.8,8.84c-0.04,0.68-0.39,1.12-1.04,1.39
		c-1.09,0.46-1.18,0.67-0.59,1.66c1.29,2.17,2.42,4.42,3.33,6.77c1.94,5.01,4.74,9.63,6.67,14.62c1.94,5,4.39,9.77,6.27,14.79
		c1.53,4.09,3.46,8.03,5.2,12.04c1.27,2.94,2.52,5.88,3.8,8.82c0.27,0.62,0.51,1.26,1.15,1.64c0.2,0.12,0.41,0.33,0.47,0.55
		c0.87,3.08,3.57,3.36,6,3.6c1.95,0.19,3.94,0.28,5.87,0.58c2.4,0.37,4.64,1.32,6.89,2.35c2.67,1.22,3.98,3.37,5.17,5.73
		c0.91,1.79,0.27,2.5-1.78,2.5c-1.76,0-3.43-0.27-5.08-0.8c-1.91-0.62-3.89-0.62-5.85-0.63c-3.03-0.01-6.02-0.2-9.03-0.52
		c-3.56-0.37-7.16-0.43-10.67,0.41c-1.35,0.32-2.58,1.09-3.92,1.55c-2.55,0.86-5.18,1.04-7.83,1.07c-0.82,0.01-1.49-0.31-2.05-1.04
		c-1.1-1.45-1.35-1.43-2.65-0.23c-0.6,0.55-1.28,0.68-2.06,0.54c-1.64-0.29-3.27-0.57-4.92-0.83c-0.66-0.1-1.24-0.36-1.85-0.61
		c-1.63-0.65-3.45-0.53-5.03,0.2c-1.37,0.64-2.87,1.01-4.11,1.99c-0.74,0.6-1.85,0.38-2.77,0.82c-3.56,1.7-7.32,2.88-11.08,4.05
		c-1.44,0.44-2.87,0.64-4.32-0.02c-0.81-0.37-1.52-0.82-1.93-1.64c-0.53-1.04-0.36-1.59,0.7-2.21c1.01-0.59,1.9-1.37,2.83-2.05
		c3.24-2.39,7.06-3.75,10.38-5.99c0.05-0.03,0.11-0.05,0.17-0.07c1.61-0.65,2.23-1.64,2.27-3.55c0.09-4.36,0.69-8.71,1.3-13.03
		c0.48-3.42,0.98-6.83,1.46-10.25c0.05-0.37,0.15-0.76,0.07-1.1c-0.82-3.46,0.31-6.84,0.37-10.27c0.03-1.41,0.21-2.83,0.15-4.25
		c-0.16-3.71,0.34-7.37,0.75-11.05c0.29-2.64,0.39-5.29,0.41-7.94c0.01-1.17,0.51-2.4,0.29-3.45c-0.22-1.06-1.3-1.91-1.86-2.92
		c-2.7-4.84-5.48-9.63-8.54-14.27c-1.49-2.25-2.41-4.86-4.19-6.95c-0.46-0.54-0.43-1.28-0.45-1.95c-0.1-3.15,0.11-6.31,0.69-9.39
		c0.41-2.17,0.42-4.32,0.17-6.44c-0.3-2.46-0.33-4.92-0.45-7.38c-0.31-6.77-0.11-13.55-0.14-20.32c-0.02-4.01,0.67-7.98,1.09-11.96
		c0.01-0.12,0.02-0.25,0.05-0.37c0.13-0.48,0.26-1.04,0.87-1.03c0.68,0.01,0.69,0.57,0.69,1.08
		C400.27,383.33,400.33,383.42,400.42,383.67z M423.2,527.12c0.69-0.51,1.3-0.62,2.02-0.43c1.07,0.29,2.16,0.63,3.25,0.67
		c1.25,0.05,2.2,0.46,3.11,1.3c0.92,0.85,1.93,0.96,3.18,0.29c1.78-0.96,3.67-1.79,5.73-1.98c0.88-0.08,1.23-0.35,1.02-1.25
		c-0.58-2.46-1.15-4.94-2.22-7.23c-1.31-2.79-2.34-5.69-3.4-8.57c-2.86-7.74-5.99-15.37-9.38-22.89c-0.7-1.57-1.61-3.04-2.47-4.53
		c-0.19-0.33-0.32-0.84-0.88-0.79c-0.31,0.21-0.27,0.54-0.32,0.83c-0.48,3.23-0.68,6.48-0.67,9.75c0.01,3.08-0.26,6.17-0.18,9.24
		c0.08,2.9,0.1,5.79,0.12,8.69C422.15,515.8,422.01,521.38,423.2,527.12z M402.09,382.04c0.79,0,1.43,0.99,2.64,0.13
		C403.64,382.23,402.93,381.63,402.09,382.04z M427,381.89c0.58,0.39,0.97,0.46,1.27,0.02c0.08-0.11,0.04-0.45-0.04-0.49
		C427.76,381.21,427.54,381.74,427,381.89z"/>
	<path d="M197.99,334.99c1.1-0.9,2.44-0.58,3.58-0.94c2.45-0.78,4.86-1.69,7.32-2.43c2.05-0.62,4.14-1.16,6.24-1.58
		c1.51-0.3,2.11,0.16,2.4,1.33c0.25,1.01-0.22,1.71-1.03,2.15c-0.75,0.41-1.57,0.71-2.39,0.99c-4.03,1.35-7.88,3.17-11.87,4.62
		c-0.32,0.12-0.72,0.21-0.77,0.66c0.24,0.32,0.53,0.19,0.82,0.12c0.36-0.09,0.72-0.23,1.08-0.22c0.54,0.01,1.14,0,1.42,0.64
		c0.3,0.67-0.69,0.61-0.65,1.16c0.44,0.39,0.92,0.18,1.37,0.06c0.42-0.11,0.83-0.24,1.27-0.19c0.33,0.04,0.59,0.19,0.67,0.53
		c0.06,0.28-0.11,0.47-0.35,0.57c-0.27,0.12-0.57,0.19-0.69,0.67c1.31,0.14,2.55,0.13,3.7-0.13c3.41-0.78,6.85-1.45,10.17-2.6
		c0.97-0.33,2.04-0.35,3.07-0.49c0.4-0.05,0.77,0.09,0.87,0.51c0.1,0.37-0.02,0.73-0.39,0.95c-0.26,0.16-0.52,0.35-0.8,0.47
		c-2.6,1.1-4.85,2.94-7.66,3.6c-0.21,0.05-0.51,0.01-0.63,0.37c1.78,0.31,3.52,0.22,5.24-0.31c0.29-0.09,0.64-0.19,0.91-0.11
		c2.83,0.84,5.1-0.79,7.47-1.75c2.51-1.02,5.11-1.71,7.67-2.55c0.57-0.19,1.22-0.17,1.83-0.18c0.36-0.01,0.79,0.05,0.77,0.57
		c-0.01,0.4-0.24,0.78-0.65,0.76c-1.93-0.11-3.52,1.07-5.34,1.39c-1.27,0.22-2.49,0.71-3.65,1.31c-0.45,0.23-1.09,0.33-0.65,1.15
		c0.17,0.32-0.26,0.54-0.58,0.49c-2.72-0.44-5,1-7.44,1.73c-0.88,0.26-1.39,1.01-2.08,1.5c-0.52,0.37-1.02,1.54-1.83,0.24
		c-0.17-0.28-0.57-0.01-0.84,0.13c-2.51,1.35-5.15,2.36-7.87,3.19c-0.77,0.24-1.52,0.55-2.33,0.55c-1.33,0.01-2.59,0.35-3.74,0.95
		c-2.66,1.38-5.55,1.4-8.42,1.67c-0.26,0.02-0.5,0.03-0.64-0.22c-0.47-0.83-1.3-0.83-2.1-0.91c-2.96-0.28-5.89-0.32-8.58,1.27
		c-0.42,0.25-0.91,0.39-1.38,0.51c-1.73,0.44-2.46-0.06-2.76-1.91c-0.99,0.18-1.99,0.88-2.98,0.2c-1.02-0.7-0.61-1.71-0.29-2.78
		c-1.41,0.37-2.46,1.09-3.48,1.85c-0.76,0.56-1.55,1.03-2.47,1.22c-1.11,0.23-1.63-0.31-1.43-1.45c0.02-0.12,0.11-0.22,0.13-0.34
		c0.26-1.08,0.15-1.26-0.88-0.98c-0.81,0.22-1.43,0.24-1.93-0.52c-0.38-0.57-0.48-1.01,0.33-1.24c1.2-0.34,1.87-1.32,2.65-2.1
		c-0.17-0.44-0.44-0.34-0.64-0.27c-3.59,1.15-7.08,2.53-10.4,4.32c-0.87,0.47-1.76,0.91-2.72,1.15c-1.32,0.33-2.22,0.13-2.51-0.54
		c-0.41-0.97,0.22-1.65,0.77-2.3c0.39-0.47,0.88-0.87,1.31-1.31c0.41-0.42,0.79-0.86,1-1.49c-1.25,0.85-2.54,1.65-3.75,2.55
		c-0.86,0.64-1.7,0.67-2.59,0.23c-1.34-0.66-1.54-1.65-0.6-2.82c2.5-3.09,5.5-5.5,9.39-6.56c3.27-0.89,6.29-2.49,9.57-3.34
		c6.99-1.81,13.73-4.38,20.56-6.67c4.2-1.41,8.25-3.26,12.46-4.65c4.79-1.58,9.65-3,14.36-4.79c4.45-1.69,9.12-2.59,13.65-3.99
		c5.25-1.62,10.42-3.36,15.43-5.61c2.4-1.08,4.95-1.87,7.4-2.89c2.63-1.09,5.08-2.53,7.53-3.94c4.38-2.51,8.68-5.15,13.06-7.66
		c5.37-3.08,10.31-6.75,15-10.78c2.61-2.24,5.32-4.4,7.63-6.95c2.19-2.42,4.45-4.76,6.77-7.05c2.81-2.77,5.97-5.14,8.85-7.81
		c3.08-2.86,6.36-5.46,9.67-8.01c4.3-3.31,8.34-6.93,12.53-10.37c2.43-2,4.94-3.87,7.49-5.7c6.45-4.63,12.83-9.34,19.51-13.65
		c3.78-2.43,7.62-4.76,11.4-7.2c4.8-3.1,9.7-6.06,14.64-8.94c3.96-2.3,8.18-3.97,12.22-6.07c1.64-0.85,3.27-1.79,5.02-2.32
		c2.32-0.7,4.5-1.67,6.67-2.68c1.5-0.71,2.98-1.48,4.45-2.25c1.42-0.75,2.85-1.44,4.41-1.88c2.03-0.57,3.74-1.86,5.65-2.71
		c2.08-0.92,4.16-1.89,6.29-2.66c3.27-1.18,6.31-2.77,9.36-4.39c3.59-1.91,7.25-3.69,10.86-5.56c2.31-1.2,4.26-2.87,6.12-4.69
		c2.87-2.81,5.43-5.91,7.82-9.08c2.87-3.81,6.07-7.46,7.81-12.06c0.45-1.18,1.08-2.35,1.99-3.31c0.21-0.22,0.39-0.49,0.5-0.77
		c1.49-3.8,4.32-6.72,6.64-9.95c2.08-2.9,4.12-5.83,6.27-8.68c0.86-1.13,2.01-1.97,2.95-3.03c1.1-1.25,1.96-2.67,3.12-3.85
		c3.03-3.08,6.09-6.12,9.03-9.27c2.06-2.21,4.11-4.42,6.5-6.28c1.85-1.44,3.71-2.83,5.75-3.99c2.29-1.31,4.49-2.79,6.64-4.32
		c0.99-0.71,2.13-0.95,3.19-1.39c3.4-1.43,6.87-2.72,10.33-4.03c1.57-0.6,3.24-0.75,4.9-0.88c3.38-0.26,6.76-0.41,10.14-0.66
		c4.59-0.35,9.2-0.69,13.79-0.45c4.62,0.25,9.23,0.01,13.85,0.16c1.36,0.04,2.72,0.08,4.03,0.46c3.84,1.11,7.75,1.91,11.55,3.19
		c2.47,0.83,4.76,1.98,7.13,2.97c1.54,0.65,3.13,1.15,4.31,2.39c2.15,2.27,4.47,4.36,6.07,7.14c1,1.74,2.02,3.48,2.92,5.26
		c0.51,1.01,2.01,1.24,2.11,2.1c0.14,1.12,0.54,1.95,1.12,2.8c2.25,3.31,4.11,6.86,5.79,10.47c0.72,1.54,1.32,3.18,1.82,4.82
		c0.38,1.25,1.29,2.17,1.65,3.44c0.19,0.7,0.64,1.42,0.8,2.2c0.6,2.86,2.19,5.35,3.06,8.11c0.06,0.18,0.18,0.34,0.2,0.51
		c0.29,2.57,2.09,3.14,4.27,3.45c3.84,0.54,7.69,1.01,11.49,1.81c4.15,0.87,8.37,1.43,12.45,2.64c1.47,0.43,3.03,0.55,4.51,0.92
		c5.07,1.27,10.15,2.47,15.08,4.26c0.4,0.14,0.85,0.15,1.27,0.21c3.53,0.53,6.8,1.63,9.56,4.04c0.92,0.8,1.83,1.63,2.78,2.39
		c0.55,0.44,0.87,0.97,0.83,1.74c-0.07,1.31-0.15,1.51-1.42,1.71c-4.93,0.78-9.89,1.31-14.86,1.83c-2.94,0.31-5.9,0.07-8.83,0.6
		c-1.57,0.28-3.21,0.24-4.79-0.15c-2.19-0.54-4.4-0.24-6.6-0.36c-5.77-0.33-11.53-0.83-17.3-1.02c-2.84-0.09-5.63-0.46-8.45-0.64
		c-0.55-0.03-1.13-0.04-1.65-0.2c-1.69-0.53-3.15,0.04-4.46,0.98c-1.9,1.36-3.71,2.84-5.58,4.24c-2.61,1.96-4.84,4.38-7.63,6.12
		c-0.16,0.1-0.31,0.2-0.43,0.34c-3.93,4.33-8.03,8.51-11.63,13.13c-2.16,2.77-4.08,5.67-5.86,8.72c-1.98,3.38-3.6,7-6.01,10.13
		c-0.18,0.24-0.32,0.53-0.41,0.82c-0.96,3.06-1.87,6.13-2.88,9.17c-0.7,2.1-1.3,4.23-1.77,6.39c-0.57,2.58-1.02,5.19-1.4,7.8
		c-0.26,1.73-0.88,3.36-1.55,4.9c-1.43,3.3-2.41,6.68-3.1,10.2c-0.53,2.7-1.55,5.27-2.64,7.82c-1.55,3.62-3.89,6.84-5.07,10.64
		c-1.46,4.71-3.67,9.12-5.72,13.59c-0.87,1.91-1.41,3.94-2.01,5.92c-1.14,3.74-2.78,7.26-4.7,10.6c-1.55,2.7-3.31,5.34-5.36,7.71
		c-1.49,1.73-2.61,3.73-4.16,5.42c-1.91,2.09-3.34,4.55-5.13,6.73c-1.29,1.57-2.75,2.98-3.96,4.62c-0.51,0.69-1.12,1.28-1.49,2.09
		c-0.25,0.54-0.7,1.01-1.13,1.44c-2.71,2.68-5.01,5.72-7.54,8.56c-2.95,3.31-5.73,6.78-9.11,9.69c-1.83,1.57-3.42,3.37-5.04,5.14
		c-0.54,0.59-1.03,1.33-1.97,0.93c-0.56-0.24-0.32-1.02,0.55-2.04c1.97-2.3,4.33-4.2,6.46-6.34c3.66-3.68,7.02-7.6,10.35-11.56
		c1.27-1.51,2.6-2.97,3.94-4.41c1.01-1.09,1.95-2.21,2.73-3.48c0.91-1.49,2.28-2.58,3.34-3.95c2.5-3.21,5.01-6.41,7.57-9.57
		c2.33-2.87,4.5-5.86,6.63-8.88c2.98-4.22,5.06-8.9,6.56-13.78c1.38-4.5,3.41-8.7,5.2-13.02c0.96-2.33,1.97-4.63,2.73-7.05
		c0.44-1.4,1.23-2.69,1.89-4.01c0.91-1.81,1.86-3.61,2.78-5.42c0.53-1.05,0.81-2.19,1.24-3.27c1.21-3.06,1.36-6.36,2.42-9.44
		c0.48-1.4,0.91-2.82,1.54-4.15c1.35-2.87,2.06-5.92,2.57-9c0.97-5.92,2.68-11.62,4.51-17.3c0.78-2.43,1.91-4.65,3.21-6.83
		c1.73-2.9,3.41-5.83,5.14-8.73c2.39-4.01,5.04-7.89,8.22-11.36c2.33-2.54,4.57-5.15,7.07-7.53c1.46-1.4,2.98-2.69,4.5-4.01
		c3.34-2.91,7.05-5.37,10.25-8.44c0.18-0.17,0.37-0.33,0.31-0.65c-0.62-0.49-1.41-0.25-2.1-0.44c-0.88-0.24-1.94-0.33-2.28-1.35
		c-0.35-1.05,0.52-1.71,1.13-2.37c0.7-0.76,1.72-1.18,2.36-2.02c-0.17-0.63-0.67-0.56-1.05-0.54c-1.19,0.04-2.33-0.3-3.49-0.38
		c-0.71-0.05-1.3-0.38-1.84-0.81c-0.99-0.78-1.06-1.8-0.17-2.68c0.39-0.39,0.84-0.71,1.34-1.14c-0.53-0.7-1.24-1.01-1.98-1.24
		c-1.66-0.5-3.2-1.27-4.77-2c-1.58-0.73-2.72-1.89-3.71-3.24c-0.97-1.33-0.26-3.05,1.39-3.05c2.06,0,4.14-0.31,6.17,0.72
		c1.14,0.58,2.64,0.39,3.96,0.66c3.83,0.78,7.69-0.05,11.57,0.33c0.33-1.48-0.43-2.69-0.86-3.93c-0.98-2.85-2.29-5.58-3.17-8.48
		c-0.3-0.99-0.83-1.92-1.23-2.88c-2.48-5.97-4.98-11.93-8.66-17.29c-0.24-0.35-0.49-0.71-0.76-1.04c-0.35-0.43-0.73-0.47-1.3-0.27
		c-3.21,1.14-6.58,1.9-9.91,1.32c-1.9-0.33-3.84,0.09-5.63-0.54c-1.82-0.64-3.77-0.77-5.53-1.44c-2.03-0.77-4.38-0.89-5.99-2.66
		c-0.3-0.33-0.86-0.49-1.33-0.61c-1.31-0.33-2.33-1.14-3.29-2c-1.39-1.25-0.99-3.11,0.76-3.84c0.47-0.2,0.95-0.24,1.45-0.23
		c0.67,0.01,1.34,0,1.93,0c0.27-0.43,0.02-0.56-0.15-0.71c-1.94-1.76-3.84-3.57-5.51-5.59c-1.15-1.39-0.94-2.15,0.57-3.09
		c0.16-0.1,0.33-0.17,0.49-0.26c1.92-0.98,1.87-0.97,1.2-2.93c-0.21-0.62-0.6-0.67-1.07-0.8c-2.05-0.58-4.16-0.39-6.25-0.43
		c-3.94-0.08-7.89,0.29-11.83-0.24c-1.6-0.21-3.2,0.1-4.8,0.14c-2.08,0.05-4.19,0.07-6.25,0.18c-2.24,0.12-4.57-0.03-6.75,0.74
		c-0.86,0.31-1.71,0.13-2.56,0.14c-2.34,0.01-4.7,0.02-6.92,0.77c-3.85,1.3-7.67,2.69-11.31,4.55c-3.57,1.83-6.96,3.97-10.3,6.14
		c-2.56,1.66-5.1,3.46-7.31,5.63c-0.79,0.77-1.38,1.74-2.15,2.53c-2.59,2.65-5.26,5.21-7.81,7.88c-2.08,2.17-4.17,4.34-5.86,6.85
		c-0.14,0.2-0.23,0.48-0.43,0.59c-1.71,1.04-2.53,2.84-3.67,4.35c-1.89,2.5-3.71,5.06-5.56,7.59c-0.36,0.5-0.7,1.02-1.1,1.48
		c-1.26,1.44-2.38,2.96-3.08,4.78c-0.35,0.9-1.01,1.69-1.55,2.51c-0.99,1.49-1.91,3.01-2.59,4.68c-0.54,1.31-1.31,2.51-2.13,3.68
		c-1.59,2.27-3.15,4.56-4.75,6.82c-0.39,0.55-0.87,1.04-1.32,1.55c-2.52,2.86-4.82,5.92-7.61,8.56c-1.49,1.4-2.98,2.74-4.76,3.76
		c-4.23,2.41-8.61,4.52-13.02,6.59c-1.66,0.78-3.18,1.81-4.84,2.61c-1.89,0.91-3.89,1.53-5.83,2.32c-2.34,0.95-4.69,1.85-6.88,3.12
		c-1.77,1.02-3.76,1.54-5.61,2.38c-2.91,1.32-5.67,2.96-8.66,4.15c-1.48,0.59-2.97,1.18-4.48,1.7c-2.99,1.01-5.66,2.67-8.5,4
		c-0.84,0.39-1.65,0.92-2.53,1.11c-1.31,0.28-2.4,1-3.47,1.66c-3.2,1.97-6.56,3.66-9.72,5.68c-2.79,1.78-5.61,3.53-8.39,5.34
		c-1.19,0.77-2.34,1.63-3.61,2.23c-1.8,0.85-3.35,2.07-5,3.14c-2.94,1.9-5.8,3.93-8.73,5.86c-4.01,2.64-7.74,5.68-11.7,8.39
		c-4.58,3.14-8.78,6.76-12.97,10.35c-5.11,4.37-10.57,8.29-15.67,12.66c-2.9,2.49-5.61,5.19-8.53,7.65
		c-3.59,3.03-6.43,6.8-9.87,9.95c-4.18,3.82-8.35,7.64-12.95,11c-3.99,2.91-8.11,5.6-12.43,7.94c-4.55,2.48-8.83,5.41-13.43,7.78
		c-2.02,1.04-4.07,2.03-6.22,2.82c-2.83,1.03-5.64,2.12-8.4,3.31c-5.79,2.48-11.82,4.32-17.89,5.85c-5.46,1.38-10.67,3.4-15.98,5.15
		c-3.86,1.27-7.74,2.5-11.59,3.81c-1.4,0.47-2.75,1.1-4.09,1.71c-0.38,0.17-1.06,0.16-0.82,0.93c0.19,0.63,0.63,0.95,1.24,0.88
		c1.46-0.17,2.97-0.03,4.37-0.61c0.7-0.29,1.43-0.35,2.18-0.3c0.48,0.03,1.05-0.12,1.28,0.48
		C198.76,334.34,198.01,334.46,197.99,334.99z M177.44,351.55c0.48,0.3,0.79,0,1.13-0.29c1.18-1.01,1.73-0.97,2.68,0.2
		c0.23,0.28,0.38,0.63,0.57,0.95c0.83,1.35,0.82,1.34-0.7,2.03c-0.39,0.18-0.98,0.21-0.93,0.96c0.88,0.11,1.61-0.18,2.33-0.53
		c3.03-1.48,6.27-1.37,9.4-0.75c1.7,0.34,3.09,0.36,4.55-0.52c1.3-0.78,2.92-1.26,4.25-0.92c2.01,0.51,3.81-0.09,5.58-0.51
		c3.54-0.84,6.91-2.25,10.12-3.99c0.6-0.33,1.38-0.4,1.95-1.11c-1.01-0.31-1.88-0.14-2.69-0.05c-1.89,0.2-3.88-0.08-5.66,0.63
		c-3.09,1.24-6.37,1.89-9.43,3.2c-0.7,0.3-1.12,0.15-1.59-0.4c-1.38-1.66-3.13-1.96-5.15-1.36c-1.47,0.44-2.97,0.81-4.49,1.08
		c-1.71,0.3-2.73-0.5-3.05-2.16c-0.08-0.41,0.28-0.84-0.05-1.24c-2.09,0.62-2.78,0.34-3.93-1.65c-0.13-0.23-0.34-0.33-0.52-0.49
		c-0.92-0.86-0.91-0.96,0.16-1.73c0.2-0.14,0.39-0.3,0.61-0.42c0.46-0.26,0.93-0.6,0.54-1.14c-0.32-0.45-0.37-1.3-1.23-1.17
		c-1.88,0.28-3.74,0.7-5.48,1.45c-0.78,0.34-1.52,0.75-2.37,0.99c-1.36,0.38-2.68,0.93-4.04,1.32c-3.08,0.87-5.93,2.44-9.11,3.03
		c-1.77,0.33-3.39,1.04-4.69,2.36c-1.01,1.02-2.06,1.99-2.95,3.39c1.11-0.1,1.88-0.44,2.63-0.86c2.64-1.46,5.32-2.81,8.24-3.64
		c2.01-0.57,3.91-1.49,5.95-2c0.79-0.19,1.48-0.61,2.1-1.13c0.29-0.25,0.66-0.57,0.98-0.38c0.94,0.56,1.8,0,2.7-0.03
		c0.72-0.02,1.66-0.27,1.96,0.58c0.26,0.72-0.63,1.09-1.02,1.61c-0.11,0.14-0.27,0.25-0.42,0.36c-1.99,1.46-3.84,3.08-5.68,4.72
		c-0.56,0.5-1.19,0.94-1.51,1.87c0.81-0.13,1.23-0.5,1.7-0.77c1.87-1.08,3.7-2.23,5.8-2.84c0.41-0.12,0.89-0.18,1.17,0.26
		c0.31,0.48-0.17,0.78-0.35,1.15c-0.33,0.37-0.81,0.65-0.82,1.48c0.35-0.39,0.58-0.61,0.78-0.87
		C177.6,352.01,177.57,351.77,177.44,351.55z M148.62,349.72c0.73,0.56,1.26,0.02,1.81-0.34c1.4-0.9,2.68-2.32,4.19-2.64
		c2.61-0.54,4.46-2.22,6.65-3.38c0.22-0.12,0.43-0.27,0.66-0.34c2.31-0.68,4.31-2.08,6.57-2.87c0.24-0.08,0.66-0.15,0.66-0.67
		c-0.29,0.05-0.53,0.08-0.76,0.15c-3.97,1.15-7.77,2.78-11.68,4.08c-2.96,0.98-5.33,2.77-7.49,4.92
		C148.94,348.93,148.53,349.18,148.62,349.72z M174.74,346.58c-0.36-0.06-0.54-0.13-0.71-0.11c-2.76,0.4-4.45,2.42-6.28,4.19
		c-0.44,0.42,0.03,0.78,0.32,1.07c0.37,0.37,0.67,0.36,1.05-0.08c1.17-1.33,2.48-2.52,3.92-3.56
		C173.62,347.68,174.11,347.15,174.74,346.58z M177.64,336.93c-0.57,0.03-1.07-0.1-1.27,0.67
		C176.86,337.54,177.27,337.44,177.64,336.93z M179.58,353.15c0.25,0,0.51,0.01,0.56-0.3c0.04-0.2-0.07-0.33-0.29-0.33
		c-0.26,0.01-0.47,0.13-0.56,0.37C179.19,353.17,179.46,353.09,179.58,353.15z"/>
	<path d="M556.12,249.84c-0.54-1.14-1.51-1.92-2.35-2.81c-2.16-2.27-4.16-4.7-6.55-6.75c-0.9-0.77-1.92-1.34-2.97-1.84
		c-0.9-0.43-1.69-0.99-2.46-1.61c-1.48-1.19-2.95-2.38-4.61-3.36c-2.55-1.5-4.78-3.49-6.74-5.71c-1.41-1.59-3.02-2.81-4.81-3.96
		c-3.32-2.13-6.92-3.75-10.26-5.84c-1.93-1.21-3.64-2.71-5.62-3.86c-3.46-2.01-6.76-4.27-10.13-6.42c-2.21-1.41-4.09-3.17-5.54-5.37
		c-0.58-0.88-0.99-1.81-1.22-2.87c-0.43-2,0-3.77,1.19-5.48c-0.85-0.52-1.68-0.74-2.6-0.91c-2.15-0.4-4.27-0.92-6.38-1.56
		c-2.6-0.79-5.27-1.55-8.05-0.3c-1.14,0.51-2.42,0.39-3.76,0.15c-3.11-0.55-6.07-1.39-8.78-3.02c-0.44-0.27-0.91-0.36-1.42-0.35
		c-1.5,0.03-2.89-0.52-4.33-0.79c-1.62-0.31-3.22-0.7-4.9-0.5c-2.33,0.27-4.67,0.25-7.01,0.2c-0.25,0-0.5,0-0.74-0.05
		c-0.25-0.05-0.46-0.21-0.48-0.47c-0.02-0.3,0.26-0.47,0.49-0.44c2.16,0.26,4.3-0.38,6.44-0.08c0.69,0.1,1.33,0.07,2,0.01
		c1.71-0.16,3.38,0.22,5.07,0.36c1.41,0.12,2.7,0.8,4.12,0.68c0.65-0.06,1.17,0.28,1.71,0.6c1.44,0.85,3.1,1.2,4.58,1.85
		c1.67,0.73,3.53,0.36,5.06,1.31c0.39,0.24,0.71,0,1.03-0.17c3.31-1.74,6.63-0.78,9.89,0.09c2.01,0.54,3.97,1.27,6.05,1.47
		c0.83,0.08,1.6,0.27,2.17,0.89c0.53,0.57,0.99,0.48,1.61,0.15c1.8-0.97,3.76-1.52,5.79-1.77c0.75-0.09,1.43-0.37,2.15-0.5
		c3.95-0.72,7.87-0.43,11.71,0.58c1.27,0.34,2.43,1.18,3.57,1.91c2.48,1.61,5.15,2.89,7.76,4.23c3,1.55,6.16,2.82,8.94,4.76
		c2.52,1.75,5.14,3.39,7.1,5.84c1.85,2.31,4.32,4.05,6.14,6.36c2.84,3.61,6.43,6.45,9.63,9.68c1.29,1.3,2.56,2.65,3.84,3.96
		c2.37,2.42,4.44,5.12,5.62,8.38c0.61,1.68,1.53,3.2,2.07,4.93c1.03,3.33,1.01,6.69,0.63,10.07c-0.17,1.51,0.07,3.08-0.82,4.5
		c-0.56,0.9-2.01,2.03-3.05,1.91c-0.66-0.07-1.46-0.13-1.94-0.52c-1.67-1.32-3.75-2.11-4.96-4.06c-0.95-1.54-2.43-2.6-3.94-3.58
		L556.12,249.84z"/>
	<path d="M528.72,162.95c-0.64-0.61-1.32-1.23-1.96-1.88c-1.01-1.03-0.95-1.67,0.2-2.56c0.69-0.53,1.47-0.9,2.25-1.28
		c0.65-0.32,1.39-0.51,2.08-1.25c-0.69-0.5-1.38-0.95-2.03-1.46c-1.57-1.22-1.62-2.7-0.18-4.05c1.24-1.16,2.68-1.99,4.31-2.43
		c0.91-0.24,1.78-0.55,2.55-1.05c2.04-1.34,4.42-1.83,6.65-2.68c0.86-0.33,1.8-0.36,2.73-0.39c2.08-0.08,3.62,0.68,4.33,2.69
		c0.27,0.77,0.85,1.18,1.39,1.67c1.36,1.24,2.85,2.38,4.03,3.77c1.63,1.92,1.31,2.87-0.97,3.88c-0.22,0.1-0.42,0.23-0.69,0.38
		c0.6,0.61,1.35,0.76,2,1.08c1.55,0.77,1.73,1.25,0.86,2.79c-0.28,0.49-0.01,0.67,0.29,0.87c0.38,0.25,0.83,0.27,1.25,0.25
		c1.7-0.08,3.09,0.75,4.45,1.58c1.47,0.89,1.92,2.67,1.18,4.2c-0.4,0.83-0.97,1.57-1.25,2.47c-0.15,0.46-0.54,0.84-0.98,1.07
		c-0.78,0.39-1.4,0.98-2.08,1.51c-1.11,0.87-2.55,0.81-3.85,1.13c-0.83,0.2-1.72,0.12-2.56,0.29c-2.67,0.54-5.28-0.14-7.89-0.46
		c-1.49-0.18-2.62-1.17-3.17-2.56c-0.49-1.23-1.42-1.84-2.52-2.28c-1.47-0.59-2.93-1.14-4.6-1.09c-1.4,0.04-2.84-0.12-4.2-0.55
		c-0.47-0.15-0.94-0.32-1.36-0.57c-1.44-0.86-1.51-1.37-0.42-2.67C528.62,163.27,528.64,163.13,528.72,162.95z"/>
	<path d="M579.27,154.36c-4.9-0.12-8.74-2.42-12.04-5.74c-1.78-1.79-3.4-3.71-4.49-6.05c-0.39-0.84-0.31-1.36,0.23-1.97
		c0.88-1.02,2.09-1.54,3.28-2.02c1.03-0.42,2.06-0.85,3-1.42c2.51-1.52,5.32-2.31,8.08-3.07c2.94-0.81,5.88-0.09,8.66,1.02
		c1.37,0.54,2.63,1.34,3.99,1.89c1.02,0.41,1.82,1.07,2.45,1.9c1.38,1.83,2.41,3.85,3.1,6.05c0.18,0.57,0.27,1.05-0.26,1.5
		c-3.45,2.9-7.12,5.44-11.32,7.16C582.42,154.22,580.84,154.33,579.27,154.36z M574.94,141.83c0.01-0.54-0.22-0.82-0.75-0.77
		c-0.46,0.04-0.82,0.28-0.83,0.77c-0.02,0.62,0.49,0.81,0.96,0.86C574.93,142.75,574.87,142.21,574.94,141.83z"/>
	<path d="M229.3,351.19c0.53-1.25,1.72-1.71,2.68-2.4c1.74-1.25,3.64-2.29,5.46-3.44c1.29-0.82,2.69-1.27,4.2-1.18
		c2.19,0.14,4.25-0.54,6.36-0.9c0.54-0.09,0.68-0.2,0.46-0.8c-0.18-0.5,0.41-0.66,0.81-0.8c1.14-0.42,2.32-0.34,3.48-0.16
		c2.14,0.33,4.28,0.32,6.43,0.34c3.31,0.03,6.65-0.13,9.91,0.74c1.49,0.4,3.03,0.52,4.57,0.52c0.79,0,1.63,0.04,2.38,0.29
		c2.74,0.93,5.65,1.24,8.37,2.2c1.55,0.55,3.17,0.46,4.73,0.75c3.25,0.62,6.47,0.76,9.72-0.07c0.88-0.22,1.84-0.16,2.76-0.14
		c3.39,0.07,6.76-0.29,10.16-0.22c3.25,0.07,6.51-0.41,9.77-0.59c2.58-0.14,5.18-0.31,7.76-0.27c3.08,0.05,6.1,0.77,9.14,1.23
		c2.37,0.36,4.73,0.82,7.11,1.19c0.66,0.1,1.37,0.13,2.03,0.03c1.97-0.29,3.93-0.04,5.89-0.03c1.78,0.01,3.58-0.07,5.33-0.34
		c2.35-0.36,4.68-0.25,7.01-0.14c2.03,0.1,4.07,0.22,6.1,0.37c1.7,0.13,3.3-0.42,4.9-0.81c2.33-0.57,4.62-1.28,6.93-1.95
		c2.49-0.72,5.02-1.16,7.59-1.5c4.83-0.65,9.7-0.86,14.53-1.45c3.42-0.42,6.8-1.2,10.26-1.14c2.79,0.05,5.54-0.18,8.27-0.71
		c0.6-0.12,1.21-0.22,1.81-0.37c2.17-0.54,4.32-0.9,6.58-0.46c2.03,0.4,4.04-0.29,6.06-0.45c1.84-0.15,3.63-0.66,5.36-1.36
		c4.21-1.71,8.65-2.39,13.14-2.8c2.6-0.24,5.1-0.94,7.46-1.94c3-1.27,6.08-2.36,9.04-3.71c2.36-1.08,4.77-1.97,7.25-2.72
		c3.33-1.01,6.13-3.08,9.08-4.83c2.8-1.67,5.72-3.14,8.41-5.01c0.71-0.49,1.42-0.97,2.06-1.53c1.49-1.3,3.09-2.46,4.6-3.72
		c3.16-2.64,6.39-5.21,9.21-8.23c1.97-2.11,4.41-3.83,5.96-6.29c2.24-3.57,5.94-5.46,8.88-8.22c0.49-0.46,1.05-0.81,1.34-1.48
		c0.22-0.5,0.61-0.92,1.09-1.24c2.95-1.93,5-4.75,7.01-7.52c1.09-1.5,1.44-3.52,2.54-5.1c0.24-0.35,0.39-0.8,0.68-1.09
		c2.94-2.91,4.83-6.62,7.44-9.79c0.7-0.85,1.16-1.84,1.25-3.02c0.08-1.04,0.55-2,1.24-2.83c0.3-0.36,0.65-0.65,1.09-0.3
		c0.35,0.28,0.25,0.7-0.02,0.98c-0.79,0.8-0.99,1.88-1.15,2.87c-0.24,1.49-0.99,2.63-1.93,3.7c-1.58,1.81-2.84,3.86-4.18,5.84
		c-0.31,0.46-0.51,1.01-0.98,1.33c-2.02,1.35-2.99,3.46-3.74,5.59c-1.11,3.16-3.28,5.46-5.57,7.71c-1.43,1.41-3,2.64-4.29,4.25
		c-1.35,1.69-3.31,2.94-5.12,4.21c-1.49,1.05-2.71,2.32-3.79,3.74c-1.33,1.76-2.87,3.33-4.35,4.96c-2.91,3.21-6.35,5.81-9.4,8.85
		c-0.78,0.78-1.73,1.38-2.59,2.08c-1.53,1.24-3.1,2.43-4.59,3.73c-2.57,2.24-5.65,3.73-8.59,5.4c-1.65,0.94-3.23,2-4.86,2.95
		c-2.66,1.55-5.36,2.96-8.37,3.73c-1.42,0.37-2.83,0.9-4.14,1.55c-2.37,1.18-4.92,1.9-7.33,2.99c-0.95,0.43-1.84,0.98-2.82,1.35
		c-3.18,1.23-6.46,2.01-9.86,2.26c-3.38,0.25-6.66,0.89-9.87,2.03c-3.23,1.15-6.53,2.16-9.99,2.4c-0.62,0.04-1.25,0.16-1.85,0.05
		c-2.99-0.57-5.9-0.05-8.78,0.62c-2.35,0.54-4.73,0.81-7.13,0.76c-3.71-0.06-7.37,0.14-10.99,1.05c-1.84,0.46-3.77,0.44-5.69,0.51
		c-2.45,0.09-4.91,0.31-7.34,0.74c-0.67,0.12-1.34,0.28-2.01,0.27c-3.26-0.07-6.29,0.9-9.32,1.96c-2.91,1.02-5.89,1.85-8.95,2.27
		c-2.52,0.35-5.04-0.11-7.56-0.26c-2.39-0.14-4.76-0.21-7.17,0.03c-2.36,0.24-4.74,0.73-7.17,0.24c-0.93-0.19-1.95,0.07-2.93,0.16
		c-3.3,0.33-6.5-0.5-9.72-0.98c-2.49-0.37-5.01-0.61-7.46-1.3c-1.95-0.55-3.92-0.02-5.89-0.01c-3.45,0.02-6.9,0.21-10.33,0.49
		c-5.1,0.42-10.21,0.36-15.32,0.57c-0.98,0.04-1.97,0.06-2.93,0.34c-2.07,0.6-4.16,0.42-6.23,0.07c-2.83-0.49-5.67-0.81-8.48-1.57
		c-3.65-0.99-7.3-2.11-11.19-2.23c-3.18-0.1-6.34-0.88-9.54-1.1c-0.68-0.05-1.32-0.1-2,0.01c-2.02,0.34-4.05,0.08-6.07-0.08
		c-0.35-0.03-0.95-0.27-1.02,0.08c-0.33,1.49-1.46,0.78-2.29,1.01c-4.85,1.3-9.98,1.7-14.44,4.3
		C233.3,348.75,231.4,350.12,229.3,351.19z"/>
	<path d="M304.91,329.04c1.86,0.29,3.28,0.9,4.77,1.2c3.48,0.7,6.97,0.8,10.49,0.55c4.36-0.3,8.69-0.74,13-1.52
		c5.52-1,10.98-2.23,16.4-3.66c6.31-1.67,12.64-3.28,18.86-5.27c8.86-2.83,17.63-5.88,26.23-9.45c3.98-1.65,7.75-3.73,11.75-5.31
		c0.23-0.09,0.44-0.23,0.66-0.32c0.32-0.14,0.62-0.09,0.77,0.25c0.13,0.28-0.12,0.45-0.28,0.62c-0.45,0.44-1.04,0.65-1.61,0.89
		c-2.72,1.17-5.33,2.57-7.95,3.93c-1.18,0.61-2.56,0.85-3.81,1.36c-2.27,0.93-4.46,2.11-6.79,2.86c-3,0.95-5.91,2.12-8.9,3.1
		c-3.1,1.01-6.21,2-9.32,2.99c-4.39,1.4-8.84,2.65-13.3,3.82c-5.71,1.51-11.43,3.01-17.22,4.24c-7.18,1.52-14.44,2.51-21.78,2.76
		c-3.16,0.11-6.28-0.22-9.31-1.16C306.65,330.61,305.7,330.32,304.91,329.04z"/>
	<path d="M517.27,250.6c-3.67,2.65-6.68,5.49-10.14,7.82c-4.09,2.75-8.25,5.35-12.51,7.81c-6.45,3.72-13.15,6.94-19.9,10.09
		c-4.85,2.26-9.79,4.31-14.68,6.47c-6.97,3.08-14.05,5.88-21.14,8.67c-4.23,1.67-8.42,3.45-12.64,5.14
		c-3.6,1.44-7.23,2.81-10.85,4.21c-1.55,0.6-3.1,1.18-4.65,1.79c-0.42,0.17-0.79,0.29-1.25-0.26c0.58-0.29,1.08-0.61,1.63-0.8
		c6.7-2.26,13.11-5.25,19.69-7.79c5.67-2.19,11.28-4.54,16.95-6.74c5.56-2.16,10.94-4.79,16.48-7.03c3.7-1.5,7.3-3.22,10.94-4.84
		c4.72-2.1,9.36-4.41,13.89-6.91c4.8-2.64,9.64-5.23,14.22-8.23c3.95-2.59,8.03-5.05,11.52-8.3
		C515.39,251.16,515.99,250.64,517.27,250.6z"/>
	<path d="M284.36,357.34c1.79-0.24,3.23-1.38,4.97-1.8c1.91-0.46,3.77-1.13,5.64-1.73c0.72-0.23,1.46-0.47,2.16-0.11
		c0.74,0.38,0.72,1.34,1.25,1.94c0.3,0.34-0.23,0.66-0.61,0.58c-0.34-0.08-0.64-0.34-0.93-0.55c-0.46-0.33-0.92-0.32-1.38-0.05
		c-1.89,1.08-3.68,2.27-4.75,4.25c-0.39,0.73-0.68,1.46,0.01,2.21c0.22,0.24,0.28,0.56-0.05,0.79c-0.28,0.19-0.61,0.17-0.87-0.02
		c-0.53-0.38-0.82-0.88-0.83-1.56c-0.01-0.48,0.25-0.96-0.01-1.53c-0.87,0.09-1.34,1.35-2.5,0.87c0.29-1.17,1.43-1.42,2.19-2.03
		c0.76-0.6,1.55-1.16,2.61-1.94c-2.29,0.11-3.85,1.3-5.62,1.84c-0.1,0.03-0.19,0.15-0.25,0.26c-0.23,0.43-0.34,1.06-0.93,1.03
		c-0.78-0.03-1.59-0.15-2.32-0.43c-0.46-0.18-0.78-0.67-1-1.24c-0.59-1.53-1.03-1.72-2.69-1.55c-0.92,0.1-1.83,0.23-2.67,0.69
		c-0.27,0.15-0.58,0.36-0.85,0.33c-2-0.24-3.71,0.77-5.55,1.22c-0.67,0.16-1.32,0.29-1.99,0.05c-1.13-0.41-1.53-1.56-0.83-2.53
		c0.13-0.17,0.4-0.31,0.62-0.33c0.35-0.04,0.59,0.18,0.56,0.55c-0.08,0.97,0.4,0.95,1.15,0.77c1.02-0.24,2.03-0.42,3.02-0.81
		c1.25-0.5,2.54-0.96,3.89-1.14c1.9-0.25,3.52-1.05,4.78-2.51c0.25-0.29,0.56-0.59,0.93-0.33c0.37,0.25,0.19,0.66,0.07,1.01
		c-0.19,0.56-0.74,0.81-1.17,1.35c1.02,0.37,1.58,1.24,2.28,2.1c1.18-0.93,2.18-1.94,3.41-2.65c0.53-0.31,1.07-0.63,1.65-0.81
		c0.4-0.13,0.91-0.07,1.02,0.5c0.08,0.46-0.28,0.57-0.64,0.73C286.73,355.38,285.42,356.15,284.36,357.34z"/>
	<path d="M481.95,297.51c0.21-0.68,0.8-0.8,1.27-1.05c6.77-3.65,13.6-7.21,20.31-10.96c6.17-3.44,12.43-6.74,18.27-10.76
		c2.63-1.81,5.15-3.81,7.37-6.09c1.74-1.79,3.25-3.84,4.42-6.11c1.19-2.3,2.29-4.63,3.38-6.98c0.49-1.06,1.13-2.05,1.68-3.08
		c0.28-0.51,0.69-0.48,1.1-0.27c0.46,0.24,0.58,0.63,0.26,1.07c-2.07,2.88-3.27,6.21-4.86,9.33c-1.85,3.64-4.56,6.55-7.62,9.18
		c-3.38,2.9-7.1,5.28-10.97,7.47c-3.53,2-7.11,3.91-10.67,5.85c-4.92,2.68-9.91,5.21-14.81,7.91c-2.74,1.51-5.59,2.83-8.28,4.44
		C482.58,297.59,482.36,297.7,481.95,297.51z"/>
	<path d="M472.52,373.59c-2.57,1.22-2.57,1.22-4.03,0.85c0.82-0.53,1.49-1.02,2.21-1.42c3.06-1.7,5.35-4.11,6.86-7.27
		c0.26-0.55,0.63-1.06,0.99-1.55c0.49-0.67,0.99-1.46,1.77-0.25c0.15,0.24,0.42,0.24,0.66,0.16c1.38-0.47,2.84-0.7,3.81-2.05
		c1.04-1.45,2.27-2.76,3.42-4.12c0.24-0.28,0.5-0.54,0.75-0.81c0.23-0.25,0.51-0.42,0.8-0.2c0.37,0.27,0.31,0.65,0.07,0.98
		c-0.9,1.18-1.76,2.38-2.72,3.5c-2.05,2.38-3.88,4.93-5.71,7.48c-1.06,1.49-2.43,2.76-3.11,4.52c-0.16,0.41-0.6,0.35-0.97,0.21
		c-0.45-0.16-0.55-0.58-0.39-0.9c0.37-0.71,0.77-1.42,1.29-2.01c0.69-0.78,1.11-1.73,1.7-2.59c-1.84,1.17-3.67,2.26-4.8,4.3
		c-1.09,1.98-2.47,3.81-3.77,5.67c-0.7,1-1.39,2.04-2.51,2.66c-0.34,0.19-0.69,0.31-0.99-0.05c-0.37-0.44,0.07-0.65,0.3-0.88
		C469.95,378.02,471.26,375.92,472.52,373.59z M478.76,366.62c0.92-0.13,1.28-0.7,1.71-1.11c0.21-0.2,0.18-0.44-0.06-0.6
		c-0.24-0.16-0.47-0.09-0.62,0.13C479.48,365.48,479.2,365.94,478.76,366.62z"/>
	<path d="M341.75,367.19c-2.25,0.23-4.13,1.12-6.12,1.66c-0.9,0.24-1.23,1.13-1.64,1.88c-0.51,0.94-0.9,1.07-1.49,0.23
		c-0.37-0.53-0.67-0.44-1.06-0.28c-2.34,0.93-4.92,1.08-7.15,2.32c-0.21,0.12-0.47,0.15-0.71,0.18c-0.46,0.05-1.1,0.36-1.27-0.27
		c-0.18-0.64,0.51-0.65,0.94-0.86c1.55-0.77,3.14-1.36,4.84-1.74c1.07-0.24,2.12-0.69,2.77-1.7c0.17-0.27,0.38-0.51,0.72-0.52
		c3.54-0.15,6.72-1.66,10.05-2.61c0.84-0.24,1.67-0.48,2.53-0.43c0.83,0.05,1.09,0.61,0.53,1.21c-0.64,0.69-1.23,1.38-1.4,2.33
		c-0.07,0.41-0.3,0.68-0.73,0.7c-1.66,0.04-2.18,1.43-2.88,2.53c-0.45,0.71-0.14,1.27,0.7,1.22c1.29-0.07,2.71,0.15,3.63-1.22
		c0.63-0.94,1.8-1.43,2.16-2.67c0.2-0.69,0.89-0.49,1.4-0.23c0.53,0.28,0.42,0.71,0.13,1.08c-0.45,0.58-0.94,1.13-1.42,1.68
		c-0.24,0.27-0.69,0.49-0.74,0.79c-0.26,1.52-1.4,1.61-2.51,1.52c-1.11-0.09-2.15,0.52-3.29,0.15c-0.78-0.25-1.67-0.36-1.81-1.3
		c-0.11-0.75-1.23-0.42-1.13-1.26c0.09-0.68,0.84-0.93,0.99-1.52c0.25-1,0.55-1.36,1.77-1.08
		C340.45,369.2,341.1,368.06,341.75,367.19z"/>
	<path d="M408.08,328.85c-0.02-0.19-0.01-0.39,0.2-0.44c3.95-0.9,7.91-1.76,11.91-2.41c2.85-0.47,5.72-0.84,8.56-1.4
		c2.6-0.51,5.22-0.86,7.82-1.27c6.51-1.02,12.94-2.27,19.29-4.06c4.51-1.27,8.83-2.96,13.03-5.03c1.94-0.95,3.48-2.28,4.82-3.92
		c0.42-0.51,0.73-1.15,1.58-1.25c0.36,0.78-0.02,1.4-0.43,2.01c-1.06,1.57-2.52,2.71-4.17,3.57c-6.53,3.44-13.46,5.7-20.69,7.11
		c-2.35,0.46-4.67,1.1-7.04,1.46c-3.16,0.48-6.32,0.95-9.48,1.45c-3.7,0.58-7.39,1.2-11.09,1.78c-2.61,0.41-5.23,0.75-7.84,1.18
		c-1.51,0.25-3.01,0.6-4.51,0.94c-0.67,0.15-1.32,0.3-2.01,0.23L408.08,328.85z"/>
	<path d="M441.8,203.5c0.79-0.53,1.57-1.07,2.39-1.62c-0.44-0.52-0.87-0.24-1.22-0.1c-2.85,1.15-5.73,2.25-8.6,3.35
		c-4.94,1.89-9.7,4.18-14.53,6.3c-3.21,1.41-6.33,3.03-9.38,4.77c-3.04,1.73-6.17,3.33-9.08,5.27c-3.85,2.56-7.85,4.86-11.67,7.46
		c-0.47,0.32-1.22,1.11-1.52,0.59c-0.54-0.93,0.72-0.88,1.17-1.2c5.23-3.68,10.65-7.08,16.15-10.31c6.37-3.74,12.93-7.12,19.77-9.97
		c5.05-2.1,10.07-4.29,15.13-6.37c1.53-0.63,3.14-1.06,4.73-1.54c0.33-0.1,0.78-0.22,1.02,0.15c0.24,0.35,0.03,0.75-0.17,1.04
		c-0.97,1.46-2.48,2.03-4.02,2.54C441.92,203.73,441.86,203.62,441.8,203.5z"/>
	<path d="M450.56,381.31c-1.28,0.93-2.54,1.6-3.58,2.57c-0.44,0.41-0.93,0.73-1.41,0.11c-0.4-0.52-0.01-0.9,0.36-1.26
		c2-1.92,3.99-3.85,6-5.76c0.46-0.44,0.93-0.75,1.62-0.24c0.79,0.57,1.25,0.44,1.3-0.39c0.06-1,0.64-1.54,1.28-2.13
		c1.69-1.55,3.54-2.86,6.02-3.97c-1.01,1.57-2.85,1.71-3.43,3.12c1.04,0.77,1.89,0.38,2.71-0.41c0.53-0.51,1.1-0.99,1.7-1.42
		c0.34-0.25,0.83-0.42,1.17,0.01c0.43,0.54,0.03,0.93-0.38,1.22c-1.53,1.06-2.74,2.46-4.15,3.65c-0.42,0.35-0.86,0.7-1.1,1.23
		c-0.27,0.57-0.82,0.71-1.19,0.25c-0.72-0.9-1.21-0.24-1.63,0.2c-1.14,1.2-2.24,2.45-3.32,3.72
		C451.54,382.95,451.34,382.93,450.56,381.31z"/>
	<path d="M499.53,360.82c-1.3,1.17-2.48,2.24-3.69,3.29c-0.37,0.32-0.69,0.72-1.2,0.84c-0.32,0.07-0.63,0.01-0.83-0.26
		c-0.23-0.31-0.06-0.58,0.18-0.79c0.51-0.45,1.02-0.89,1.53-1.32c2.51-2.11,4.54-4.65,6.55-7.21c1.94-2.46,3.92-4.89,5.89-7.34
		c0.12-0.14,0.27-0.26,0.38-0.41c0.44-0.6,0.92-1.23,0.46-2.01c-0.28-0.47-1.65-0.18-2.32,0.49c-0.43,0.43-0.66,1.06-1.27,1.3
		c-0.15,0.06-0.37,0.05-0.5-0.02c-0.17-0.1-0.15-0.29-0.08-0.49c0.63-1.75,2.12-2.47,3.71-2.95c0.87-0.26,1.55,0.31,1.93,1.09
		c0.56,1.16,0.25,2.37-0.38,3.29c-2.55,3.68-5.6,7-7.75,10.97c-0.26,0.49-0.55,0.95-0.74,1.48
		C500.93,362.05,500.63,362.06,499.53,360.82z"/>
	<path d="M357.63,379.36c-0.68,0.2-1.37,0.07-1.99-0.03c-1.12-0.19-2.2-0.08-3.3,0.12c-0.48,0.09-0.98,0.19-1.46,0.16
		c-0.59-0.03-1.35,0.15-1.63-0.56c-0.24-0.6,0.33-1,0.67-1.42c0.27-0.33,0.61-0.61,0.92-0.91c0.57-0.55,0.46-1.06-0.09-1.62
		c-0.54,0.32-1.04,0.66-1.58,0.94c-0.35,0.18-0.73,0.1-1.02-0.19c-0.35-0.36-0.36-0.79-0.08-1.17c0.59-0.79,1.33-1.44,1.83-2.31
		c0.27-0.47,1.01-0.58,1.31-0.22c0.73,0.87,1.22,0.43,1.83-0.07c0.44-0.36,0.87-1.21,1.51-0.63c0.72,0.65-0.15,1.17-0.46,1.72
		c-0.33,0.58-0.62,1.18-0.96,1.83c1.08,0.26,1.88-0.37,2.78-0.44c0.36-0.03,0.77-0.35,1.05-0.25c0.91,0.31,1.5-0.09,2.09-0.67
		c0.17-0.17,0.41-0.28,0.63-0.38c0.29-0.13,0.63-0.19,0.83,0.12c0.21,0.34,0.18,0.74-0.21,0.95c-1,0.56-1.66,1.46-2.37,2.31
		C356.84,377.96,356.85,377.96,357.63,379.36z M352.18,377.85c2.97,0.31,3.14,0.25,3.79-1.4
		C354.77,377.19,353.33,376.54,352.18,377.85z"/>
	<path d="M262.92,349.98c-0.02,0.77,0.9,0.74,0.93,1.47c-0.59,0.52-1.23,0.26-1.76-0.11c-1.03-0.73-1.98-0.6-3.09-0.15
		c-1.46,0.58-2.94,1.02-4.61,0.63c-1.54-0.36-3.04,0.38-4.55,0.65c-0.82,0.15-1.64,0.44-2.48,0.05c-0.23-0.11-0.45-0.17-0.47-0.47
		c-0.02-0.36,0.16-0.61,0.47-0.7c0.29-0.08,0.62-0.11,0.91-0.07c1.13,0.18,2.2-0.16,3.28-0.37c0.67-0.13,1.43-0.12,1.18-1.31
		c-0.12-0.59,0.6-1.14,1.24-1.46c1.58-0.78,3.25-0.94,4.81-0.19c1.98,0.95,3.86,0.71,5.8,0.05c0.75-0.26,1.54-0.4,2.33-0.53
		c0.3-0.05,0.6,0.14,0.66,0.5c0.04,0.27-0.1,0.52-0.33,0.6c-0.78,0.26-1.27,1.07-2.29,0.94
		C264.29,349.41,263.58,349.8,262.92,349.98z M258.49,349.3c-1.8-0.62-3.07-0.35-4.18,0.75C255.62,349.97,256.9,349.82,258.49,349.3
		z"/>
	<path d="M325.28,367.71c-1.17-0.3-2.45-0.11-3.71-0.2c-3.08-0.22-6.15-0.24-9.18,0.51c-0.53,0.13-1.11,0.19-1.64-0.05
		c-0.22-0.1-0.38-0.31-0.39-0.58c-0.01-0.28,0.18-0.45,0.43-0.52c0.24-0.07,0.48-0.15,0.72-0.15c1.79,0.05,3.15-0.91,4.5-1.91
		c1.68-1.25,3.36-2.5,4.91-3.91c0.41-0.37,0.78-0.81,1.32-0.99c0.51-0.17,1.02-0.15,1.22,0.45c0.17,0.48-0.13,0.75-0.53,1.03
		c-1.86,1.28-3.69,2.61-5.53,3.93c-0.12,0.09-0.16,0.3-0.33,0.66c2.2,0.06,4.26,0.13,6.33,0.18c0.37,0.01,0.77-0.11,1.1,0
		c1.78,0.59,3.12-0.13,4.27-1.39c0.39-0.42,0.74-0.42,1.08-0.04c0.37,0.42,0.18,0.84-0.22,1.09c-0.67,0.41-1.21,0.81-0.83,1.74
		c0.09,0.21-0.17,0.51-0.44,0.47c-0.98-0.13-1.39,0.62-1.95,1.16c-0.33,0.32-0.76,0.8-1.26,0.42c-0.48-0.37-0.28-0.88,0.07-1.29
		C325.33,368.18,325.41,368.02,325.28,367.71z"/>
	<path d="M312.8,361.43c-0.45-0.11-0.64,0.12-0.85,0.36c-0.6,0.7-1.17,0.9-1.7-0.09c-0.35-0.65-1-0.5-1.47-0.28
		c-1.38,0.66-2.9,1.14-3.9,2.39c-1.26,1.57-3.29,1.54-4.88,2.41c-0.2,0.11-0.49-0.05-0.64-0.26c-0.16-0.21-0.19-0.47-0.02-0.68
		c0.23-0.28,0.47-0.58,0.77-0.78c3.01-2.13,6.03-4.27,9.08-6.35c0.53-0.36,1.29-1.27,1.85-0.4c0.33,0.52-0.65,1.01-1.16,1.42
		c-0.09,0.07-0.16,0.17-0.39,0.4c1.24,0.17,2.29,0.32,3.35-0.37c0.61-0.4,1.52-1.05,1.5,0.55c0,0.21,0.22,0.38,0.36,0.3
		c1.32-0.7,1.14,0.89,1.82,1.22c0.49,0.23,0.08,0.97-0.36,0.81c-1.31-0.49-1.93,0.19-2.49,1.15c-0.22,0.38-0.52,0.8-1.01,0.51
		c-0.44-0.25-0.31-0.75-0.24-1.18C312.49,362.16,312.91,361.86,312.8,361.43z"/>
	<path d="M374.87,377.37c-1.07,0.78-1.63,2.02-2.93,2.5c1.8,0.17,3.5-0.99,5.54-0.22c-1.45,0.91-2.89,1.15-4.26,1.56
		c-0.98,0.3-1.93,0.28-2.89-0.14c-1.11-0.49-1.31-1.2-0.37-1.88c1.86-1.34,3.6-2.79,4.95-4.65c3.2-1.64,5.31-4.74,8.51-6.37
		c0.38-0.19,0.8-0.33,1.21-0.45c0.4-0.11,0.74,0.03,0.9,0.43c0.19,0.45-0.09,0.79-0.45,0.86c-1.6,0.31-2.69,1.45-3.91,2.37
		c-1.03,0.77-1.96,1.67-2.94,2.51c-0.39,0.34-0.74,0.65-0.29,1.22c0.27,0.35,0.09,0.77-0.23,0.97c-0.86,0.53-1.19,1.35-1.46,2.26
		c-0.14,0.46-0.41,0.98-1.05,0.76c-0.57-0.19-0.35-0.69-0.31-1.1C374.92,377.82,374.89,377.64,374.87,377.37z"/>
	<path d="M246.21,346.97c-1.92,0.18-3.48,1.11-5.01,2.11c-0.47,0.3-0.9,0.65-1.37,0.95c-0.23,0.15-0.48,0.13-0.64-0.11
		c-0.15-0.23-0.11-0.46,0.1-0.65c2.37-2.18,4.9-3.97,8.38-3.36c0.4,0.07,0.69,0.03,1.03-0.19c0.3-0.2,0.66-0.31,1.01-0.44
		c0.09-0.03,0.21,0.04,0.34,0.06c0.24,0.65-0.66,1.07-0.23,1.84c0.56,0.16,1.26,0.35,1.96,0.56c0.3,0.09,0.58,0.27,0.52,0.65
		c-0.07,0.4-0.43,0.45-0.72,0.39c-1.83-0.36-3.54,0.22-5.27,0.65c-1.45,0.36-2.83,0.89-4.1,1.66c-1.12,0.68-2.4,0.97-3.55,1.55
		c-0.29,0.15-0.66,0.19-0.83-0.11c-0.28-0.5,0.24-0.63,0.52-0.77c2.22-1.07,4.24-2.51,6.56-3.39
		C245.51,348.16,246.26,348.02,246.21,346.97z"/>
	<path d="M488.51,367.64c-0.46-0.06-0.71-0.27-0.66-0.73c0.06-0.45,0.36-0.77,0.59-1.13c1.46-2.28,3.2-4.35,4.74-6.57
		c0.94-1.36,2.24-2.28,3.31-3.46c1.27-1.41,2.37-2.98,3.5-4.51c0.37-0.5,0.73-0.94,1.32-0.45c0.51,0.43,0.4,0.98-0.05,1.45
		c-3,3.16-5.33,6.89-8.47,9.94c-1.28,1.24-2.26,2.74-2.97,4.38C489.55,367.19,489.15,367.56,488.51,367.64z"/>
	<path d="M368.85,373.53c-1.06,1.1-1.87,2.47-3.39,2.97c-2.09,0.69-3.33,2.38-4.64,3.98c-0.23,0.28-0.41,0.61-0.65,0.88
		c-0.21,0.23-0.53,0.4-0.83,0.22c-0.41-0.24-0.32-0.61-0.12-0.96c1.11-2.02,2.55-3.76,4.46-5.05c0.76-0.51,1.51-1.02,2.22-1.6
		c0.86-0.7,1.52-1.82,2.97-1.55c0.53,0.1,0.89-0.6,1.37-0.86c0.42-0.23,0.81-0.28,1.18,0.06c0.37,0.34,0.18,0.66-0.03,0.98
		c-0.55,0.84-0.9,1.72-0.79,2.77c0.04,0.36-0.12,0.82-0.55,0.83c-0.47,0.02-0.77-0.37-0.87-0.81
		C369.05,374.82,369.3,374.19,368.85,373.53z"/>
	<path d="M505.98,357.3c-0.6-0.12-0.82-0.44-0.62-0.94c0.11-0.27,0.35-0.5,0.57-0.7c3.15-2.88,5.56-6.35,7.86-9.91
		c0.36-0.55,0.66-1.43,1.48-0.93c0.86,0.52,0.18,1.17-0.2,1.69c-2.4,3.32-4.51,6.86-7.49,9.75
		C507.09,356.74,506.61,357.17,505.98,357.3z"/>
	<path d="M482.62,369.95c-0.15-0.63,0.24-1.05,0.6-1.45c1.83-2.02,3.29-4.29,4.58-6.68c0.62-1.15,1.44-2.14,2.42-3.01
		c0.37-0.33,0.77-0.64,1.31-0.57c0.39,0.05,0.71,0.24,0.78,0.66c0.05,0.33-0.07,0.63-0.4,0.75c-1.85,0.67-2.53,2.4-3.45,3.87
		c-1.37,2.19-2.83,4.3-4.69,6.12C483.45,369.94,483.12,370.24,482.62,369.95z"/>
	<path d="M236.91,343.74c0.03,0.27-0.18,0.52-0.43,0.68c-2.1,1.39-3.83,3.27-6.14,4.38c-1.16,0.56-1.95,1.69-3.11,2.28
		c-0.55,0.28-1.06,0.63-1.62,0.88c-0.33,0.15-0.77,0.23-0.97-0.19c-0.19-0.39,0.02-0.69,0.4-0.89c0.49-0.26,0.96-0.54,1.43-0.83
		c2.93-1.81,5.71-3.82,8.4-5.96c0.44-0.35,0.89-0.66,1.44-0.77C236.58,343.27,236.8,343.37,236.91,343.74z"/>
	<path d="M477.53,172.26c-1.26,0.6-2.59,0.67-3.9,0.87c-2.18,0.33-4.35-0.27-6.54,0.13c-0.84,0.15-1.68,0.35-2.53,0.45
		c-0.68,0.08-1.41,0.42-2.04-0.03c-0.08-0.58,0.27-0.59,0.55-0.65c2.58-0.56,5.16-1.11,7.74-1.67c0.55-0.12,1.11-0.31,1.28,0.54
		c0.11,0.54,0.52,0.34,0.88,0.29C474.48,172,476,172,477.53,172.26z"/>
	<path d="M277.8,350.44c-4.43,0.51-8.39,2.28-12.18,4.52c-0.37,0.22-0.73,0.47-1.1,0.68c-0.16,0.09-0.36,0.1-0.49-0.07
		c-0.11-0.15-0.14-0.33-0.04-0.51c0.22-0.39,0.6-0.61,0.96-0.84c2.85-1.85,5.83-3.42,9.13-4.34c1.01-0.28,2.04-0.47,3.1-0.39
		c0.71,0.05,0.78,0.44,0.56,1L277.8,350.44z"/>
	<path d="M277.75,350.49c0.34,0.21,0.91-0.01,1.06,0.56c0.15,0.58-0.33,0.74-0.68,0.95c-2.54,1.49-5.08,2.96-7.63,4.44
		c-0.32,0.18-0.63,0.37-0.97,0.5c-0.23,0.08-0.53,0.07-0.67-0.15c-0.22-0.34,0.04-0.56,0.31-0.73c2.57-1.55,4.85-3.56,7.59-4.86
		c0.39-0.18,0.78-0.38,1.04-0.75C277.8,350.44,277.75,350.49,277.75,350.49z"/>
	<path d="M291.44,361.76c2.62-2.12,5.31-4.13,8.59-5.13c0.83-0.25,1.69-0.38,2.52,0.02c0.27,0.13,0.54,0.33,0.44,0.71
		c-0.07,0.26-0.32,0.47-0.54,0.43c-3.32-0.55-5.62,1.71-8.27,2.99C293.31,361.2,292.53,361.82,291.44,361.76z"/>
	<path d="M591.58,134.18c-0.02-0.7,0.48-0.93,0.99-1.18c1.71-0.82,3.38-1.74,5.13-2.45c2.06-0.84,4.16-0.37,6.39-0.01
		c-0.53,0.81-1.21,0.82-1.75,0.7c-3.45-0.76-6.17,0.97-8.94,2.55C592.82,134.12,592.31,134.6,591.58,134.18z"/>
	<path d="M302.46,359.66c0.41-0.03,0.73-0.01,0.83,0.36c0.09,0.36-0.19,0.56-0.47,0.68c-0.51,0.21-1.02,0.45-1.55,0.57
		c-1.45,0.31-2.62,1.04-3.44,2.28c-0.37,0.56-0.89,0.83-1.5,0.98c-0.24,0.06-0.49,0.04-0.68-0.16c-0.27-0.28-0.16-0.59,0.02-0.83
		c0.7-0.95,1.53-1.81,2.55-2.36C299.56,360.45,301,359.87,302.46,359.66z"/>
	<path d="M492.72,170.44c-4.18,2.02-8.29,2.08-12.52,2.21c0.27-0.99,0.89-0.96,1.5-1.01c1.65-0.11,3.31-0.21,4.96-0.36
		c1.14-0.11,2.29-0.08,3.32-0.87C490.64,169.91,491.57,170.3,492.72,170.44z"/>
	<path d="M382.76,379.31c-1.22,0.51-2.17,1.32-2.73,2.53c-0.19,0.42-0.45,0.73-0.93,0.79c-0.37,0.05-0.75,0.06-0.99-0.3
		c-0.2-0.3-0.05-0.58,0.07-0.86c0.25-0.58,0.73-0.98,1.13-1.44c0.39-0.46,0.97-0.81,1-1.49c0.06-1.24,1-1.08,1.75-1.05
		c1.02,0.05,1.11,0.77,0.92,1.6C382.91,379.16,382.84,379.23,382.76,379.31z"/>
	<path d="M382.76,379.31c0.08-0.08,0.15-0.15,0.23-0.23c0.53-0.5,1.04-1.02,1.6-1.49c0.42-0.35,0.91-0.4,1.27,0.11
		c0.33,0.48,0.04,0.83-0.35,1.06c-1.49,0.9-2.25,2.35-2.91,3.87c-0.1,0.22-0.18,0.46-0.32,0.65c-0.14,0.2-0.37,0.33-0.64,0.28
		c-0.36-0.07-0.51-0.34-0.48-0.67C381.28,381.53,381.74,380.29,382.76,379.31z"/>
	<path d="M267.9,351.84c-3.46,0.5-5.92,3.16-9.12,4.17C261.27,352.87,265.68,350.81,267.9,351.84z"/>
	<path d="M499.36,170.04c-0.02-0.48,0.3-0.63,0.69-0.69c2.21-0.29,4.31-0.99,6.41-1.68c0.4-0.13,0.85-0.15,1.28-0.18
		c0.33-0.03,0.76,0.13,0.62,0.46c-0.36,0.87,0.62,0.89,0.84,1.4c-0.59,0.19-1.24,0.53-1.63,0.07c-0.86-1.02-1.73-0.5-2.67-0.26
		c-1.49,0.37-2.99,0.68-4.5,0.99C500.06,170.22,499.68,170.36,499.36,170.04z"/>
	<path d="M556.47,151.34c0.41-1.23,1.26-1.25,1.85-1.59c0.6-0.35,1.17-0.6,0.96-1.51c-0.15-0.65,0.3-1.12,0.81-1.53
		c1.14-0.91,1.92-1.2,3.03-1.02c0.04,0.41-0.32,0.47-0.56,0.62c-1.05,0.64-2.16,1.21-2.01,2.75c0.03,0.25-0.2,0.62-0.41,0.79
		C559.14,150.66,557.94,150.91,556.47,151.34z"/>
	<path d="M515.64,168.53c2.62-0.81,5.36-0.84,8.19-1.6c-0.33,0.93-0.85,1.08-1.4,1.14C520.17,168.32,517.99,169.33,515.64,168.53z"
		/>
	<path d="M604.37,129.89c2.2-0.92,4.1-1.09,6.05-0.83c0.88,0.12,1.1,0.71,0.59,1.43c-0.25,0.36-0.68,0.51-0.89,0.12
		c-0.6-1.07-1.53-0.76-2.41-0.69c-0.42,0.04-0.83,0.18-1.25,0.24C605.88,130.25,605.29,130.38,604.37,129.89z"/>
	<path d="M617.71,129.81c-0.52,0.63-1.25,0.58-1.69,0.34c-1.22-0.65-2.49-0.83-4.01-0.53c1.13-1.51,3.31-1.78,4.14-0.62
		C616.56,129.59,617.31,129.23,617.71,129.81z"/>
	<path d="M556.07,249.79c0.23,0.62,0.25,1.13-0.39,1.59c-0.88,0.63-1.69,1.35-1.7,2.61c0,0.36-0.34,0.66-0.78,0.55
		c-0.36-0.09-0.4-0.43-0.37-0.74c0.12-1.46,1.89-3.57,3.3-3.96C556.12,249.84,556.07,249.79,556.07,249.79z"/>
	<path d="M589.45,134.11c-0.76,0.61-1.35,0.59-2.21,0.16C588.01,133.67,588.61,133.74,589.45,134.11z"/>
	<path d="M513.23,168.74c-0.08,0.37-0.25,0.43-0.42,0.46c-0.31,0.05-0.76,0.36-0.84-0.19c-0.05-0.38,0.4-0.35,0.68-0.36
		C512.81,168.64,512.98,168.7,513.23,168.74z"/>
	<path d="M440.16,205.52c0.01,0.26-0.09,0.47-0.36,0.53c-0.36,0.08-0.42-0.22-0.41-0.44c0.02-0.22,0.11-0.51,0.44-0.46
		C440.01,205.17,440.16,205.28,440.16,205.52z"/>
	<path d="M408.05,328.81c-0.46,0.35-0.96,0.41-1.63,0.2c0.6-0.48,1.12-0.36,1.66-0.16C408.08,328.85,408.05,328.81,408.05,328.81z"
		/>
	<path d="M516.77,102.59c0.45-0.05,0.61,0.02,0.55,0.22c-0.04,0.14-0.21,0.27-0.35,0.33c-0.16,0.07-0.44,0.01-0.43-0.14
		C516.56,102.79,516.76,102.6,516.77,102.59z"/>
</g>
</svg>
