<?xml version="1.0" encoding="utf-8"?>
<!-- Generator: Adobe Illustrator 25.4.1, SVG Export Plug-In . SVG Version: 6.00 Build 0)  -->
<svg version="1.1" id="Calque_1" xmlns="http://www.w3.org/2000/svg" xmlns:xlink="http://www.w3.org/1999/xlink" x="0px" y="0px"
	 viewBox="0 0 595.3 841.9" style="enable-background:new 0 0 595.3 841.9;" xml:space="preserve">
<g id="Traits_de_coupe">
	<path d="M196.2,425.3c-0.2,2.1-0.5,4.2-0.5,6.3c-0.1,3.8,0.3,7.7,0.4,11.5c0,4-0.2,8,0.2,12c0.1,1.5-0.1,3.1-0.6,4.5
		c-0.5,1.6-1.6,3-3.1,3.8c-1.1,0.8-2.6,0.6-3.6-0.3c-2.1-2.4-3.8-4.7-4.1-8.3c-0.6-8.4,0.1-16.8,0.7-25.1c0.4-3.8,1.3-7.6,2.6-11.2
		c0.6-1.8,1.1-3.7,1.5-5.5c0.5-2.1,0.4-4.3-0.1-6.4c-0.1-0.9-0.7-1.7-1.5-2.1c-1.6,1.2-2.2,3.1-3,4.8c-0.7,1.6-2.2,2.6-3.9,2.7
		c-1.5,0.3-2.9-0.5-3.6-1.8c-1.8-3.7-2.8-7.4-1.4-11.5c0.8-2.4,1.8-4.6,2.7-6.9c0.5-1,0.7-2.1,0.5-3.2c-0.7,0.7-1.2,1.5-1.4,2.5
		c-0.2,0.6-0.5,1.2-0.8,1.7s-0.9,0.8-1.4,0.6c-0.6-0.1-0.9-0.7-0.9-1.3c0-0.9,0.1-1.8,0.3-2.6c0.8-2.1,1.6-4.2,2.5-6.2
		c0.1-0.4,0.5-0.9,0.8-0.9c2.3-0.2,2.2-2.2,2.9-3.6c0.2-0.4,0.3-0.7,0.4-1.1c-1.4-0.8-3.2-0.4-4.2,1c-0.3,0.5-0.6,0.9-0.9,1.4
		c-1.3,2.7-2.8,5.2-4.6,7.5c-0.4,0.5-0.7,1.1-0.7,1.8c-0.3,3.7-1.6,7.1-1.7,10.9c-0.1,3.2-1.4,6.2-3.5,8.5c-1,1.2-1.8,2.7-2.2,4.2
		c-1.1,4-3.4,7.6-4.7,11.5c-0.1,0.2-0.1,0.3-0.2,0.4c-0.6,0.8-0.9,2-2.2,1.8c-1-0.1-1.7-1.2-1.9-2.8c-0.5-2.8-0.2-5.7,0.7-8.5
		c0.8-1.8,1.2-3.7,1.2-5.6c0.1-1.1,0.5-2.2,1.2-3.1c2.5-3.5,3-7.7,4-11.7c0.1-0.5,0.2-1-0.2-1.3c-0.4-0.3-0.9,0-1.3,0.2
		c-2.8,1.4-5.5,3-8.1,4.7c-5.9,4.1-13.1,5.9-20.2,5.1c-2.2-0.3-4.2-1.2-5.7-2.8c-1.5-1.2-2.2-3.2-1.9-5.1c0.4-2.1,0.4-4.3,0-6.4
		c-0.2-0.8,0-1.6,0.6-2.2c0.8-0.9,1.7-1.7,2.7-2.4c0.9-0.8,2.4-0.7,3.2,0.2c0.2,0.3,0.4,0.6,0.5,0.9c0.3,0.7,0.5,1.5,0.6,2.3
		c0.3,1.7,0.9,3.4,1.8,4.9c1.5,2.7,3.2,3.4,6.2,2.5c6.2-2,12.1-5.1,17.3-9.1c0.9-0.7,1.8-1.3,2.9-2c-1-1.1-2.2-1.8-3.7-2.1
		c-2.7-0.8-5.3-1.6-8.2-1.4c-2.6,0.1-5.1-0.6-7.4-1.8c-1.4-0.7-2.9-1.5-3-3.4c-0.1-0.3-0.2-0.6-0.4-0.8c-2.6-2.8-2.8-6.3-3-9.9
		c0-0.7,0-1.5,0.8-1.9c0.8-0.3,1.7,0,2.1,0.7c0.9,1.2,1.7,2.5,2.5,3.8c0.6,1.5,2.3,2.2,3.8,1.7c1.4-0.4,2.8-0.6,4.3-0.6
		c-1.1-0.8-2.4-1.3-3.7-1.3c-2.3,0-3.1-1.8-4-3.3c-0.5-0.9,0.1-1.7,0.9-2.2s1.9-0.9,2.8-1.3c0.7-0.2,1.3-0.6,1.8-1.1
		c0.6-1,1.8-1.3,2.7-0.7l0,0c3.2,1.5,6.7,2,10.1,2.6c2.2,0.4,4.2,1.5,5.7,3.2c1.9,2.1,4.6,2.9,7.5,3c2.4,0.1,5,0,7.3,1
		c0.8,0.2,1.6,0.3,2.4,0.1c1.1-0.1,2.2,0.3,3.1,1c0.3,0.2,0.7,0.5,0.7,0.6c-0.4,1.8,1.6,3.6,0.1,5.5c-0.7,1-1.3,2-1.8,3.1
		c-0.9,1.5-1.4,3.2-1.5,5c1-0.7,2.2-1,3.4-1.1c0.6,0,1.1-0.4,1.2-1c0.4-1,0.7-2,0.9-3c0-0.4,0.1-0.8,0.2-1.2
		c0.4-1.5,1.3-2.6,2.2-2.5s1.6,1,2.2,2.5c0.5,1.4-0.9,1.5-1.2,2.4c0.8,0.5,1.4,0.3,1.7-0.5c0.5-1.4,1.4-1.2,2.2-0.5
		c1.5,1.1,2.8,0.7,4-0.6c0-0.8-0.7-1-1.2-1.3c-1.2-0.6-2.4-1.2-3.7-1.8c-1.2-0.6-2.4-1.4-3.3-2.4c-1-1.1-1-1.9,0.2-2.8
		c1-0.8,1.5-1.4,1.1-2.8c-0.4-1.4,0.4-2.7,2.2-3.2c1.6-0.5,2.9-1.5,3.9-2.8c0.3-0.3,0.9-0.5,0.5-1.1c-0.3-0.6-1.1-0.8-1.6-0.5l0,0
		c-0.5,0.3-1,0.7-1.5,1.2c-1,1-2,2.1-3.4,2.5c-0.7,0.2-0.9,0.9-1.2,1.4c-0.4,0.8-0.9,1.5-1.5,2.2c-0.6,0.8-1.4,0.8-2-0.1
		c-0.5-1-1.4-1.7-2.5-2.1c-1-0.4-1.1-1.5-1.5-2.3c-0.3-0.5-0.2-1.4-1.1-1.4c-0.7,0-0.6,0.8-0.8,1.3c-0.5,1.6-1.2,1.9-2.4,0.9
		c-2.6-2.4-5.8-3.9-8.9-5.7c-2.3-1.2-3.9-3.4-4.5-5.9c-0.1-0.7-0.5-1.5,0.3-1.9c0.8-0.5,1.8-0.3,2.4,0.4c0.5,0.5,0.9,1.2,1,1.9
		c0.2,1.2,1,2.2,2.1,2.7c1.2,0.8,2.5,1.5,3.9,2.1l0.3-0.4c-0.9-1.3-1.7-2.6-2.7-3.8c-2-2.6-4.1-5.1-6.3-7.5
		c-1.6-1.7-2.9-3.7-3.7-5.9c-2.1-5.4-5.8-9.3-10.3-12.7c-0.6-0.4-1.1-0.9-1.6-1.4c-1.1-1.2-1.2-1.2,0-2.6c0.3-0.3,0.4-0.9,0.1-1.3
		c-0.4-0.5-0.8-1-1.1-1.5c-1.7-2.2-2.7-5-2.8-7.8c-0.2-1,0.5-2,1.5-2.1c0.1,0,0.1,0,0.2,0c0.9-0.3,1.9,0.2,2.2,1.2
		c0,0.1,0,0.1,0,0.2c0.6,3.4,3.3,4.9,5.7,6.7c2,1.5,4.1,2.8,6.3,3.9c1.4,0.9,2.7,2.1,3.5,3.5c0.4,0.6,0.7,1.4,1.6,1.9
		c0-1.2,0-2.2,0-3.2c-0.2-5,0.7-10,0.7-15.1c0-4.7,0.9-9.4,0.9-14.1c0-0.7,0.2-1.4,0.5-2.1c1.3-2.9,2.6-5.9,3.9-8.8
		c0.5-1,1.1-2,1.7-2.9c1.9-2.9,4.4-2.4,6.7-1.2c0.7,0.4,1.3,0.9,1.9,1.4c1.6,1.3,1.4,3-0.4,3.9c-0.2,0.1-0.4,0.2-0.7,0.2
		c-2.5,0.8-3.5,2.1-3.6,4.6c0,0.8,0.1,1.6,0.1,2.4c0.2,2.7-0.3,5.5-1.3,8c-0.9,2.1-1.4,4.4-1.5,6.7c0,0.7-0.2,1.4-0.4,2.1
		c-1.2,3.2-0.5,6.3,0.5,9.4c0.1,0.2,0.3,0.4,0.5,0.5c0.9-0.3,1.1-1.2,1.3-1.9c0.9-2.2,2.2-4.3,3.9-6c0.4-0.6,1-1,1.7-1.2
		c1.9-0.5,3.8-1.1,5.6-2.1c1-0.6,2.2,0.1,2.9,1c0.8,1.1,0.2,1.9-0.6,2.7c-0.2,0.2-0.3,0.3-0.5,0.5c-1.5,1.6-1.5,2.7,0.2,4.3
		c1,1,2.2,1.9,3.3,2.7c3.7,2.9,6.9,6.2,9.7,10c2.1,2.6,2.7,6.1,1.6,9.3c-0.3,1.2-0.5,2.5-0.4,3.8c1.6-0.6,3.1-1.5,4.4-2.5
		c3.1-2.3,5.5-5.3,8.1-8.1c0.8-0.8,1-2,0.5-3.1c-2.1-5.8-2.4-12-4.4-17.9c-0.2-0.6-0.2-1.3-0.2-1.9c-0.1-0.8,0.4-1.4,1.2-1.6
		c0.7-0.3,1.5-0.1,2,0.5c0.5,0.6,0.9,1.3,1.3,2c1.3,2.5,2.9,4.8,4.8,6.9c0.4,0.4,0.7,0.9,1.3,1c1-0.7,1.1-1.7,1.2-2.7
		c0.4-2.1,1-4.2,2-6.1c1.4-2.8,2.4-5.7,3.6-8.6c0.6-1.6,1.6-3,2.9-4c0.9-0.7,2.1-0.8,3.1-0.1c2.4,1.5,4.4,3.5,5.7,6
		c0.9,1.5,0.6,3,0.2,4.9c2.4-1.4,5.3-2.1,8.1-2c1.3,0,2.5-0.3,3.7-0.9c1.1-0.5,2.3-0.8,3.5-0.9c1.2-0.2,2.3,0.5,2.6,1.6
		c0.4,1-0.1,2.2-1,2.7c-0.9,0.6-1.9,1.2-2.8,1.8c-1.7,1.2-3.1,2.7-4.3,4.4c-3.1,4.3-7,8-11.3,11c-2.1,1.4-4.6,2.3-7.1,2.4
		c-0.7,0-1.4,0.5-1.5,1.2c-1.4,3.5-3.6,6.6-6.4,9.2c-1.4,1.3-2.6,2.7-3.6,4.4c1.5-0.6,3-1.3,4.5-2c2.4-1,4.9-1.9,7.5-2.4
		c9.1-2.2,18.2-4.3,27.3-6.6c2.9-0.8,5.8-1.8,8.6-3c2.1-0.8,3.6-0.1,3.7,1.8c0,0.6-0.2,1.3-0.6,1.8c-1,1.2-1.9,2.4-2.8,3.6
		c-1.4,2-3.2,3.6-5.4,4.7c-3.5,1.9-6.9,4.1-10.1,6.5c-2.4,1.8-5,3.1-7.9,4c-4.7,1.6-9.5,2.9-14.3,3.9c-1.2,0.3-2.3,0.7-3.2,1.4
		c0.4,1.2,1.5,1.2,2.2,1.9c1.5,1.4,2.8,3.1,3.9,4.8c1.2,2.2,2.6,4.2,4.2,6.1c1.9,2.2,4.3,3.8,7,4.9c1,0.4,1.9,0.8,2.9,1.3
		c4.1,1.8,6.3,6.2,5.2,10.5c-0.2,1.3-1.4,2.2-2.7,2h-0.1c-2.3-0.2-4.4-1-6.1-2.5c-1-0.9-2.1-1.7-3.1-2.6c-1.2-1-2.5-1.9-4-2.5
		c-3.2-1.4-5.6-4.1-6.7-7.4c-0.3-1.2-1.1-2.3-2.2-2.9c-0.9-0.6-1.6-1.3-2.1-2.2s-1.5-1.4-2.5-1.5c-0.1,0.2-0.2,0.4-0.2,0.5
		c1.4,2,1.4,2-0.3,3.6c-1.4,1.2-2.6,2.6-3.4,4.3c-0.5,1.1-1,2-2.2,2.2c-0.7,0.1-0.8,0.6-0.7,1.3c0.6,3,0.4,6.2,2,9.1
		c0.3,0.7,0.3,1.4,0,2.1c-0.3,0.7-0.4,1.4-0.3,2.1c-0.1,1.8,1.1,3.4,2.8,3.8c5.5,1.8,11.2,2.6,17,2.4c4.3-0.3,8.5-1.3,12.4-3.2
		c3.7-1.7,7.7-3.4,12-2.2c1,0.2,2.1-0.2,2.8-1c2.5-2.5,5.1-4.9,7.6-7.3c7.1-6.8,14.5-13.3,21.8-19.9c11.3-10.4,23-20.4,35.1-29.8
		c5.2-4,10.5-7.8,15.8-11.7c1.1-0.8,2.2-1.5,2.2-3.1c0.1-0.6,0.5-1.2,1-1.5c2-1.8,4.2-3.4,6.6-4.8c5.1-2.8,10.2-5.7,15.3-8.5
		c0.4-0.2,0.8-0.5,1.2-0.7c1.6-1,1.6-1,1.1-3c-0.4-1.2-0.3-2.6,0.1-3.8c2.2-5.1,4.1-10.4,7.6-14.9c0.2-0.3,0.5-0.7,0.7-1
		c1.1-1,2.1-0.8,2.9,0.5c0.5,0.9,0,2.4,1,2.7c0.8,0.2,1.8-0.4,2.8-0.6c1-0.2,2,0.3,2.4,1.2c0.5,1,1.4,1.8,2.5,1.9
		c1.4,0.3,2.7,1.1,3.6,2.2c1.3,1.2,1.3,3.3,0.2,4.6c-0.9,1.2-2,2.3-3.2,3.2c-3.3,2.2-7.1,3.7-11.1,4.2c-1.4,0.1-2.6,0.8-3.5,1.8
		c-1,1.2-2.7,1.7-4,2.5c-4.7,2.8-9.5,5.6-14.2,8.5c-1.3,0.8-2.7,1.6-4.2,2.4c0.6,0.4,1.4,0.5,2,0.2c9.6-2.3,19.1-4.7,28.4-7.7
		c1.1-0.4,2.1-0.8,3.2-0.4c0.5,0.2,0.9-0.1,1.2-0.5c1.9-2.7,4.9-3.4,7.9-4.2c5.3-1.6,10.8-2.6,16.3-3c0.2-0.7-0.3-1-0.6-1.3
		c-0.8-0.8-1-2.1-0.5-3.1c0.6-1,0.7-2.2,0.3-3.2c-0.1-0.2-0.1-0.5,0-0.7c1.2-2.2,0.4-4.8,1-7.1c0.2-0.8-0.1-1.2-1-1.3
		c-3.5-0.4-6.8-2.1-9.1-4.8c-2-2.1-4-3-6.8-2c-2.2,0.8-4.5,0.8-6.8,1.4c-2.1,0.6-4.4,0.1-6.1-1.4c-2.1-1.8-4.6-2.6-7.1-3.3
		c-1.2-0.3-2.3-0.6-3.4-1.1c-1-0.3-1.5-1.4-1.3-2.3c0.2-1,1.1-1.7,2.1-1.5h0.1c5.1,0.3,10.4-0.5,15.4,1c0.8,0.2,2.1,0.6,2.6-0.4
		c0.4-0.9-0.6-1.5-1.2-2.1c-1.2-1.4-3-2.2-4.9-2.1c-1.3,0-2.6-0.2-3.8-0.7c-1.4-0.4-2.5-1.2-2.6-2.8c0-1.6,0.8-3.2,2.2-4
		c1.1-0.8,2.7-0.8,3.8,0c0.5,0.4,1,0.8,1.4,1.3c2,2.2,4.4,4,7,5.3c2.8,1.6,5.7,3.1,8.5,4.9c1.1,0.8,2.6,0.9,3.8,0.3
		c1.1-0.5,2.2-0.9,3.4-1.3c1.2-0.4,1.1-1,0.6-1.9c-0.4-0.7-0.9-1.3-1.5-1.9c-1.2-1.1-2.2-2.3-3-3.7c-0.9-1.6-2.6-2.1-4.1-2.7
		c-4.3-1.7-7.9-4.4-11.9-6.7c-0.9-0.6-1.9-1.1-3-1.5c-1.1-0.4-2.1-1.1-2.9-2c-1.4-1.5-2.6-3.1-2.1-5.3c0-0.2,0-0.3,0-0.5
		c-1.1-4.4,2.1-7.2,6-8.9c1.8-0.9,4-0.1,4.9,1.7c0.1,0.3,0.2,0.6,0.3,0.9c0.2,0.9,0.4,1.9,0.7,2.8c1,2.8,3,5.2,5.6,6.6
		c2.7,1.8,5.5,3.5,8.2,5.2c2.3,1.5,4.5,3.1,6.6,4.8c-0.5-2-1.5-3.9-3-5.4c-1.6-1.6-3.5-3-5.2-4.6c-1-0.9-2.3-1.6-2.3-3.2
		c-0.1-1.9,0.4-3.9,1.4-5.5c1-1.3,2.1-2.6,3.1-3.9c1.2-1.6,2.8-1.4,3.5,0.4c0.7,1.3,1.2,2.7,1.8,4.2c0.5,1.8,2,3.1,3.2,4.4
		c0.6,0.6,1,0.2,1.1-0.5s0-1.4,0-2.2c-0.2-1,0.5-1.9,1.5-2.1c1.3-0.2,1.6,0.6,1.9,1.6c0.7,2.6,1.2,5.1,1.6,7.7
		c0.1,1.1,0.5,2.2,1.2,3.1c0.8-0.5,0.8-1.2,0.8-1.9c0.1-1.5,0.6-3,1.5-4.2c1.1-1.6,1.9-3.4,2.4-5.2c0.5-1.7,1.3-3.3,2.3-4.7
		c0.4-0.8,1.3-1.2,2.2-1.1c1.1,0.2,1.4,1.1,1.6,1.9c0.3,1.2,0.2,2.4-0.3,3.5c-0.1,0.4-0.3,0.7-0.6,1.1c-3.6,4.4-4.5,9.8-5.9,15
		c-0.2,0.8-0.5,1.7-0.9,2.5c-0.4,1.2-0.6,2.5-0.5,3.8c0,3.2-0.3,6.4-1.1,9.5c-0.7,2.7-1.3,5.4-1.9,8.2c-0.5,2.6-1.3,5.1-2.3,7.5
		c-0.5,0.8-0.8,1.8-0.7,2.8c1.1,0,1.7-0.7,2.4-1.1c2.8-1.8,5.2-4,7.8-6s5.2-3.7,7.8-5.6c5.3-4.1,11.3-7.4,15.2-13.1
		c1.6-2.2,3.4-4.2,5.3-6.2c0.5-0.6,1.1-1.1,1.8-1.6c0.6-0.5,1.4-1,2.2-0.4c0.9,0.5,1.3,1.5,1,2.5c-0.4,1.5-1.1,3-2,4.4
		c-0.9,1.3-2,2.5-3.1,3.7c-3.5,3.7-7.2,7.3-11,10.7c-0.8,0.7-1.7,1.4-2.7,2c-4.2,2.5-8.1,5.4-12.4,7.8c-3.4,2-6.5,4.4-9.4,7
		c-0.6,0.5-1.1,1.1-1.6,1.8c-0.6,0.7-0.6,1.3,0.3,2c1.9,1.3,1.9,2.1,0.2,3.7c-0.5,0.5-1.4,0.5-1.5,1.4c0.8,0.4,1.6,0,2.3-0.3
		c5.1-1.5,10.1-3,15.1-4.5c2.6-0.8,2.7-1,2.8-3.7c0-0.8,0-1.7,1-1.9c1-0.2,2,0.3,2.3,1.2c0.8,1.6,0.3,3.1-0.6,4.5
		c-0.9,1.1-1.9,2.2-3.1,3c-0.7,0.6-1.1,1.1-0.5,2.2c0.6,1.1,0.5,2.4,1.8,3.1c0.4,0.2,0.5,1,0.5,1.5c0,0.6-0.2,1.1-0.7,1.5
		c-0.6,0.4-1,0-1.5-0.4c-2.7-2-4.5-2.3-8-1.6c0.4,0.6,1.1,0.6,1.7,0.7c1.8,0.4,3.5,1,5.2,1.8c1.1,0.4,1.8,1.5,1.8,2.6
		c0,0.6-0.4,1.1-0.9,1.3c-0.4,0.2-1,0.1-1.3-0.3c-2.5-2.8-6-2.9-9.4-3.5c-1.5-0.2-3.2,0.2-4.4-1.3c-0.5-0.5-1.2-0.2-1.8-0.1
		c-1.5,0.4-3,1-4.3-0.8c-0.4-0.6-1.7,0.1-1.6,1c0.4,2.4,1,4.8,1.3,7.2c0.1,0.6,0.6,0.6,1.1,0.6c2.1,0.3,2.5,0.9,2.8,2.9
		c0.7,4.8,1,9.7,3.3,14.1c0.5,1.2,0.9,2.6,1.2,3.9c0.5,1.9,1.2,3.6,3.3,4.4c1.6,0.6,2.1,2.1,2.7,3.5c1.6,4.2,3.7,8.2,6.1,11.9
		c2.1,3.3,3.8,6.8,5.1,10.5c0.6,1.3,0.9,2.8,0.8,4.2c-0.2,1.9-1.5,2.7-3.2,2c-1.3-0.6-2.4-1.6-3.1-2.9c-1.6-3.1-2.9-6.4-4.2-9.6
		c-0.7-1.6-1.3-3.2-2.2-4.8c-0.5,2.3-1.9,4.4-1.8,6.8c0,1.5-0.1,3-0.5,4.5c-0.9,3.6-1.2,7.4-2.2,11c-0.7,2.5-1.6,5-2.7,7.4
		c-0.1,0.2-0.2,0.4-0.3,0.6c-1,1.6-1.8,2.1-3,1.8c-1.5-0.4-2.1-1.5-1.9-3.4c0.3-3.9,1.1-7.7,1.9-11.6c0.2-1.2,0.4-2.5,0.6-4
		c-1.8,0.2-3.4,1.2-4.6,2.6c-1.8,2.4-3.1,5-3.9,7.9c-0.5,1.3-1,2.5-1.6,3.7c-0.7,1.5-1.2,1.7-2.4,1.4c-1.2-0.3-1.5-1.3-1.5-2.4
		c0-1.1,0.2-2.2,0.2-3.4c0-1.2-0.4-1.5-1.5-0.9c-1.4,0.8-2.9,1.4-4.5,1.6c-1.2,0.3-2.4-0.3-3-1.4c-0.7-1-0.6-2.4,0.2-3.4
		c0.3-0.4,0.6-0.8,1-1c2.9-2,5.5-4.4,9-5.4c1-0.2,1.7-0.9,2-1.9c2-6.6,4.4-13,6.1-19.7c0.5-1.2,0.5-2.6,0-3.8l-2.9,3.4
		c-1.2,1.5-2.5,2.9-3.7,4.4c-1,1.2-1.1,1.6-0.1,2.9c0.7,1,1.3,2.2,1.5,3.5c0.3,1.1,0.3,2.1-0.7,2.8c-1,0.7-1.7,0-2.4-0.5
		c-0.7-0.5-1.5-0.9-2.3-1.3c-1-0.5-2.1-0.2-2.8,0.6c-4.4,5-10.4,7.3-16.3,9.7c-1,0.6-2.3,0.4-3.1-0.5c-0.8-1-0.9-2.5-0.1-3.5
		c1.9-3.3,4.6-5.9,7.2-8.7l1-1c2.1-2.2,2.1-2.7-0.6-3.8c-3.8-1.5-7.6-3.4-11.9-3.5c-0.5,0-0.9-0.4-1.3-0.5c-3.5-1.5-6.2-4.1-8.8-6.9
		c-1.1-1.2-2-2.5-1.7-4.3c0.1-0.8-0.3-1-0.9-1.1c-6.1-1.3-11.5-4.4-17.2-6.6c-1.3-0.4-2.5-1.2-3.1-2.4c-0.5-1.1-1.3-0.9-2.2-0.3
		c-3.4,2.2-6.7,4.6-10,7.1c-5.6,4.1-10.9,8.6-16.5,12.8c-4.6,3.5-8.9,7.4-13.2,11.1c-3.8,3.3-7.4,6.8-11.2,10.1
		c-6.9,6-13.4,12.4-20.1,18.5c-2.9,2.6-5.6,5.2-8.4,7.8c-0.8,0.7-1.1,1.2-0.4,2.2c0.5,0.8,0.4,2-0.3,2.6c-0.7,0.8-1.3,1.7-1.8,2.5
		c-1.1,1.7-2.4,3-4.6,3c-0.8,0-1.6,0.4-2.2,0.9c-0.8,0.8-1.9,1.2-3.1,1.1c-0.6,0-1.1,0.2-1.5,0.6c-2,1.6-3.9,3.3-5.6,5.2
		c-0.9,1.1-0.9,1.1,0.3,1.9c0.8,0.6,1.7,0.9,2.7,1c1.9,0.2,3.8,0.7,5.5,1.4c2.2,0.7,3.7,2.7,3.8,5c0,1.7-1.2,3.1-2.9,3.3
		c-0.9,0.2-1.9,0.2-2.9,0.1c-4.7-0.6-9.4-1.3-13.1-4.6c-0.5-0.6-1.4-0.7-2-0.3c-0.1,0.1-0.2,0.2-0.3,0.3c-4.6,4.2-8.8,8.9-12.5,13.9
		c-1.4,2-1.4,2,1.1,3c-0.1-0.8-0.2-1.5-0.2-2.3c0.1-1.1,0.8-1.5,1.9-1.2c0.4,0.1,0.7,0.3,1.1,0.5c0.7,0.4,1.6,0.3,2-0.4
		c0,0,0-0.1,0.1-0.1c1.3-1.5,2.8-2.9,4.4-4c1.3-1,2.7-1.7,4.3-2.1c3.3-0.8,5.7,0.6,6.7,3.9c0.4,1.4,0.6,1.5,2,1
		c1.5-0.7,3-1.1,4.6-1.2c2.1-0.1,3.1,0.5,3.3,2c0.1,1.8-1.4,3.4-3.2,3.5c-0.1,0-0.2,0-0.3,0c-2.1-0.1-4.1,1.1-5.1,2.9
		c-0.9,1.6-2.2,2.8-4.5,2.5c-2.3-0.3-3.2,2-4.9,3.7c3.4-0.5,6.3-1,9.2-1.5c1.6-0.3,2.9-1.5,3.3-3.1c0.2-0.5,0.3-1.1,0.5-1.6
		c0.2-0.9,1.1-1.4,2-1.3c1,0.3,1.7,1.4,1.5,2.4c-0.1,0.3-0.2,0.6-0.3,0.9c-0.4,0.7-0.2,1.2,0.6,1.5c1.1,0.4,1.9,1.2,2.3,2.3
		c0.2,0.8,1,1,1.6,1.4c2.1,1.3,3.4,3.5,3.6,5.9c0.2,2.7,0.2,5.4,0,8.1c-0.5,5.7-1.3,11.3-2.2,16.9c-0.3,2.3-1.1,4.5-2.4,6.5
		c-0.5,0.9-0.8,1.9-1.1,2.9c-1.7,4-3,8.2-3.8,12.5c-0.4,2.1-0.4,4.2,1.3,5.8c2.7,2.5,1.2,7.7-0.6,9.7c-0.9,0.9-2.3,1.2-3.6,0.8
		c-0.8-0.2-1.7-0.1-2.5,0.3c-2,1.2-3,0.6-3.1-1.6c-0.3-3.3-0.2-6.5,0.3-9.8c0.2-1.5,0.2-3,0-4.5c-0.4-3.4-0.2-6.8,0.8-10
		c0.8-2.5,1.1-5.1,2.1-7.6c-0.9-0.2-0.8,0.5-0.9,0.9c-0.4,0.7-0.6,1.5-0.9,2.2c-1.4,4.3-2.8,8.7-4.2,13c-0.3,0.8-0.6,1.6-0.7,2.5
		c0,0.8-0.4,1.6-1,2.1c-0.6,0.4-1,1-1.2,1.7c-0.4,0.9-0.9,1.6-1.9,1.5c-1.1-0.1-2-0.9-2.2-1.9c-0.2-0.7-0.2-1.4,0.1-2.1
		c1-5.5,2.5-10.9,4-16.3c0.5-1.5,0.6-3,0.4-4.5c-0.3-3-0.3-5.9-0.1-8.9c0-1.5,0.3-3,0.8-4.5c0.4-0.8,0.5-1.5-0.4-2.1
		c-0.7-0.4-0.8-1.2-1-1.9c-0.4-1.3-0.9-2.6-1.7-3.7c-0.5-0.8-1-1.6-0.4-2.4s1.4-0.3,2.2-0.1c0.3,0.1,0.6,0.1,0.9-0.1
		c0.3-0.4,0.1-0.8-0.2-1.1c-1.3-1.7-2.6-3.4-4-5.1c-0.9-1-1.3-1-2.5,0.1c-0.8,0.7-1.2,1.4-0.2,2.1c1.8,1.3,2.4,3.1,2.6,5.1
		c0,0.4,0.1,0.8,0.3,1.1c2.2,3.8,2.4,7.9,1.9,12c-0.3,2.4-0.5,4.8-0.7,7.2c-0.3,3-1.9,5.6-3.2,8.2c-0.4,0.9-1.4,1.2-2.2,1.7
		c-1.9,1.2-4.3,1.9-5.5,4.1c-0.1,0.2-0.3,0.3-0.6,0.4c-2.1,0.1-2.9,1.8-4,3.1c-1.7,2-3.6,3.8-5.7,5.5c-1.9,1.7-4.6,2.3-7,1.4
		c-1.7-0.6-3.1,0.1-4.7,0.4s-2.2,0-2.8-1.4c-1.1-2.2-0.2-4.8,2-5.9c0.1-0.1,0.2-0.1,0.3-0.1c1.4-0.6,2.6-1.5,3.7-2.6
		c4.8-4.5,9.3-9.4,15-13c0.5-0.3,0.9-0.6,1.3-1c1.5-1.4,1.4-1.3,0-2.9c-1.3-1.5-2.1-3.2-2.4-5.1c-0.2-1-0.3-2.4-1.4-2.5
		s-1.3,1.4-1.7,2.3c-1.3,3.1-2.4,6.3-3.4,9.5c-0.7,2.1-2.1,3.9-4,5.1c-2,1.2-3.3,3.6-5.8,4.2c-0.1,0-0.1,0.1-0.2,0.2
		c-1.3,1.8-2.9,2.4-4.9,1.2c-1.5,4.3-2.1,8.7-3.1,12.9c-1.5,6.6-2.1,13.3-2.9,19.9c-1.2,9.7-2.5,19.3-4.1,29
		c-1,6.1-1.8,12.3-2.6,18.5c-0.7,5.7-1.1,11.4-1.5,17.2c-0.4,5.5-1.2,11-2,16.4c-0.7,4.4-1,8.9-0.9,13.4c0.1,3.4-0.7,6.7-1,10
		c-0.4,4.1-1.6,8.2-1.3,12.4c0.2,1.1-0.6,2.2-1.8,2.3h-0.1c-1.1,0-2-0.9-2-2c0-0.1,0-0.1,0-0.2c0.2-3.3-0.2-6.5,0.6-9.8
		c0.8-3,1.1-6.1,0.9-9.2c-0.1-1.3,0-3.1,1.6-4.1c0.4-0.2,0.5-0.7,0.3-1.1c0-0.1-0.1-0.1-0.1-0.1c-1-1.2-0.6-2.4-0.2-3.6
		c0.7-2.4,1.1-4.8,1.3-7.3c0.3-3.7,0.9-7.5,1.4-11.2c0.5-3.9,0.8-7.8,1.2-11.7c0.6-5.9,1-11.8,1.7-17.6c1-7.6,2.1-15.2,3.4-22.8
		c1.5-8.8,2.4-17.7,3.3-26.6c0.6-5.6,1.5-11.1,2.8-16.5c1.2-4.9,2-9.9,2.8-14.8c0.6-3.5,1.4-7,2.4-10.5c2.1-7.9,3.6-15.9,4.6-24
		c0.2-1.7,0.5-3.3,0.7-5c0.2-1.7,0.1-1.7-1.4-1.5c-1.6,0.3-3.1-0.7-3.5-2.2c-0.6-1.5-1.7-2.7-2.2-4.2c-0.2-0.4-0.5-0.8-0.9-1
		c-2.8-1.8-4.4-4.5-6-7.4C197.3,426.2,197.3,425.5,196.2,425.3z M424.3,322.1c-0.2-0.9-0.3-1.9-0.5-2.8c-0.6-2-1.5-2.6-3.6-2.8
		c-1.6-0.1-3.2,0.1-4.7-0.1c-3.8-0.4-7.6-1.1-11.3-1.8c-1.1-0.2-2.2-0.4-3.3-0.4c-1.9-0.1-3.8-0.6-4.9-2.2c-1.2-1.8-2.5-1.6-4.1-1.1
		c-5.5,1.9-11.2,3.3-16.8,4.9c-5.5,1.5-11,3-16.4,4.4c-0.4,0.1-1.1,0-1.2,0.6c-0.1,0.6,0.5,0.9,1,1.2c2.6,1.5,5.2,2.8,7.9,4
		c1.6,0.8,3.2,1.5,4.9,2c1.6,0.4,3.6,0.4,4.8,1.3c1.9,1.4,3.4,0,5,0.1c2.5,0.2,5.1,0.5,7.5,1c2.1,0.3,4.1,1,6,2c2.8,1.6,6,3,8,5.5
		c1.5,1.6,3.1,3.2,4.9,4.6c0.9,0.8,1.6,0.8,2.4-0.1c1.2-1.4,2.3-2.9,3.6-4.2c3.1-3.3,6-6.8,8.8-10.5
		C423.5,326.1,424.3,324.1,424.3,322.1z M197.8,385.3c0.3,1.9,0.9,3.7,1.9,5.3c0.4,0.6,0.6,1.3,0.7,2c0.3,2.5,0.2,5.1-0.2,7.6
		c-0.4,2-0.5,4.1-0.3,6.1c0.2,3.5,1.3,6.9,3.2,9.9c3,4.7,5.5,9.7,9,14.1c0.4,0.5,0.7,1.1,0.9,1.7c0.1,0.4,0,1,0.7,0.9
		c1.3-4.5,1.8-9.3,3.4-13.7c0.6-1.3,0.2-2.9-0.9-3.8c-1.4-1.2-2.5-2.7-3.8-4c-0.8-0.9-1.4-2-1.5-3.2c-0.4-2.3,0.1-4.5,0.4-6.7
		c0.5-3.5-0.9-6.4-2.3-9.4c-0.3-0.6-0.8-1-1.3-1.4c-2.2-1.5-4.2-3.1-6.1-5C200.5,385,199,384.7,197.8,385.3z M185.6,340.7
		c0.2-0.3,0.3-0.6,0.5-0.8c1-1.2,2.1-1.6,3.1-1.1s1.2,1.3,0.7,3c-0.4,1.1-0.7,2.3-0.8,3.5c-0.1,2.4-0.5,4.7-1.3,7
		c-1,3.3-0.4,6.7-0.2,10c0,0.5,0.2,1.2,0.8,1.4c0.8,0.2,1.1-0.5,1.5-1c0.9-1.1,1.5-2.5,1.9-3.9c0.8-3.8,3.2-6.5,6.1-8.9
		c1.2-1.1,2.8-2,1.8-4.1c-0.1-0.3-0.1-0.6,0-1c0.8-3.5,0-7-0.4-10.5c-0.4-3.5-2.2-6.6-5-8.7c-1.4-1.2-2.7-2.5-3.8-4
		c-0.5-0.7-1.1-1.4-1.6-2.1c-0.8-0.9-1.1-0.9-1.8,0.2c-1.5,2.4-2.8,4.9-2.9,7.8c-0.1,2.6,0,5.3,0.2,7.9
		C184.5,337,184.3,338.8,185.6,340.7L185.6,340.7z M223.8,400.4c-0.3,0.6-0.4,1.3-0.3,1.9c0.5,4.4,0.9,8.9,1.1,13.4
		c0.1,1.9,0.4,3.8,0.6,5.7c0.3,2,0.6,4.1,1.1,6.1c0.1,0.7,0.1,1.8,1,2c0.7,0.1,1.1-0.7,1.6-1.3c0.4-0.5,0.8-1,1.2-1.5
		c3.1-3,6.1-6.1,9.3-9c0.9-0.8,1.8-1.8,2.7-2.7c-1.8-1.5-3.2-3.1-5.2-3.8c-1.7-0.7-3.2-1.7-4.5-3.1c-1.4-1.5-2.7-2.9-4.1-4.4
		C227.2,402.3,225.6,401.1,223.8,400.4z M198.5,374c2.3,1.4,4.4,3.3,6,5.5c0.4,0.4,0.9,0.7,1.5,0.8c3.8,1.1,7.7,1.6,11.7,2.5
		c0.2-2.2-0.1-4.4-1-6.4c-0.6-1.7-1.3-3.2-3-4.2c-1.1-0.7-1.7-2-1.6-3.3c0-1.3-0.2-2.7-0.5-4c-0.9-3.6-0.9-3.6-4.4-2.6
		c-0.3,0.1-0.6,0.2-0.9,0.3c-2.2,1-4.5,2-6.8,2.7c-1.2,0.4-2.4,0.6-3.6,1c-0.6,0.2-1.5,0.6-1.1,1.5c0.2,0.6,1,0.2,1.5,0
		c0.5-0.2,1-0.5,1.6-0.6c1.1-0.4,2.4-0.4,3.5-0.2c0.6,0.2,1.1,0.5,1,1.1c0,0.6-0.4,1.1-1,1.1c-0.6,0.1-1.1,0.1-1.7,0.2
		c-1.8,0.4-3.7,0.8-4.9,2.6c0.7,0.4,1.5,0.2,2-0.5c1-0.9,2.5-1.2,3.8-0.6c1.1,0.4,2.2,1.1,3,1.9c0.5,0.5,1,1.1,0.5,1.9
		c-0.5,0.5-1.2,0.6-1.8,0.2c-0.5-0.2-1-0.5-1.5-0.8C200.1,373.6,199.2,373.6,198.5,374L198.5,374z M227.7,435.8
		c-0.6-0.8-1.5-1.4-2.5-1.6c-1.3-0.3-2.2-1.5-2-2.8c0.5-3.2-0.7-6.2-0.9-9.2c0-0.4-0.1-0.8-0.6-0.9c-0.4,0.3-0.6,0.8-0.6,1.3
		c-0.6,6.3-2.5,12.4-4.2,18.4c-1.4,4.8-3,9.4-3.4,14.4c-0.4,5-2,9.5-2.8,14.3c-0.4,2.2-0.8,4.5-1.2,7c0.6-0.6,1-1.3,1.2-2.1
		c0.6-2,1.3-4,3-5.3c0.7-0.6,1-1.5,0.9-2.4c-0.1-4.6,2.1-8.9,5.8-11.5c1.1-0.7,1.5-2.2,1-3.4c-0.5-1.7-0.9-3.4-1.1-5.1
		c-0.6-4.4,0.4-6.5,4.2-8.7C225.7,437.6,226.8,436.8,227.7,435.8L227.7,435.8z M247.7,450.2c0.8-0.4,0.7-1.3,1-1.9
		c0.4-0.8,0.8-1.4,1.8-1.3c0.8,0,1.6,0.6,1.8,1.4c0,1.3,1.1,2.2,2.4,2.2c0.1,0,0.1,0,0.2,0c0.4,0,0.8,0.1,1.1,0.3
		c0.8,0.4,1.6,0.9,1.6,1.9c0,0.9-0.6,1.7-1.5,1.9c-0.3,0.1-0.8,0-0.9,0.7c0.5,0.9,1,1.7,1.6,2.5c1.7,2.1,2.9,4.6,3.7,7.2
		c0.1,0.7,0.4,1.4,0.8,2c0.9-1.5,0.8-3.1,1.1-4.7c0.2-1.4,0.8-2.8,0.4-4.2c-0.5-1.8-0.9-3.5-1.3-5.3c-0.2-0.8-0.5-1.3-1.4-1.2
		c-1,0.1-1.9-0.5-2.2-1.5c-1-2.2-3.2-3.3-4.8-4.9c-0.3-0.4-0.9-0.5-1.3-0.4c-2.1,0.9-4.5,0.8-6.6,2.3
		C245.7,448.3,246.6,449.4,247.7,450.2L247.7,450.2z M429.7,344.3c-0.4,0.3-0.7,0.8-0.7,1.3c-0.5,3.6-1.3,7.2-2.5,10.7
		c-0.5,1.7-0.9,3.4-1.2,5.1c-0.1,0.6,0.2,0.9,0.8,0.7c2.3-0.7,4-2.7,4.4-5.1c0.1-1.4,0.2-2.9,0.5-4.3
		C431.7,349.8,430.8,347.2,429.7,344.3L429.7,344.3z M250.3,401.3c-1.6,0.4-3.5,0-5.1,0.6c-1.2,0.5-1.4,1-0.5,1.9
		c1.4,1.4,3.1,2.5,4.4,4c0.2,0.3,0.7,0.3,0.9,0.1c0,0,0,0,0.1-0.1c1.7-1.6,3.4-3.1,5-4.8c0.5-0.4,0.3-0.9-0.3-1
		C253.3,401.8,251.8,401.6,250.3,401.3L250.3,401.3z M219.5,411.4c0.1-0.4,0.3-0.9,0.4-1.4c0.3-3.3,0.4-6.7,0.3-10
		c0-0.1,0-0.2,0-0.2c0-0.8-0.6-1.4-1.4-1.5c-0.9-0.2-0.9,0.7-1.1,1.3c-1,2.1-0.4,4.2-0.4,6.4C217.3,407.9,218.1,409.9,219.5,411.4
		L219.5,411.4z M240.6,436.6c0.1,0.6,0,1.3-0.2,1.9c-0.2,0.5-0.1,1,0.3,1.3c0.6,0.4,1.1,0,1.5-0.3c0.9-1,2.1-1.7,2.8-2.9
		c0.4-0.7,1.9-0.8,1.5-1.9c-0.4-1.1-1.7-0.6-2.6-1c-0.1,0-0.2-0.1-0.2-0.1c-1.5-0.3-2.9,0.7-3.1,2.1
		C240.5,436.1,240.5,436.3,240.6,436.6L240.6,436.6z M231.8,449.1c1.2,0,2.4-0.3,3.6-0.7c0.5-0.1,0.8-0.6,0.7-1.1c0,0,0,0,0-0.1
		c-0.1-0.6-0.6-0.6-1.1-0.6c-2.1,0.1-2.1,0-2.3-1.9c-0.1-0.9-0.4-1.1-1.1-1.1c-1.6-0.1-2,0.2-1.9,1.9c0.1,0.7,0.2,1.4,0.4,2.1
		C230.1,448.7,230.7,449.2,231.8,449.1L231.8,449.1z M237.4,456.7c-1.9,1.3-2,3-2.2,4.6c-0.1,0.5-0.1,1,0.4,1.2s0.9-0.3,1.1-0.6
		C238.1,460.4,237.6,458.7,237.4,456.7L237.4,456.7z M255.3,477.7c1.6-2,3.5-3.9,4.5-6.3C258.7,473.7,255.4,474.6,255.3,477.7
		L255.3,477.7z M259.8,443.9c-0.3,0-0.6,0.3-0.6,0.6c0.1,1.1,0.8,2.1,1.8,2.6c0.3,0.1,0.6,0,0.8-0.3l0,0
		C262.3,445.8,260.9,443.8,259.8,443.9z M419.6,274.8c0.1-0.9,0-1.6-1-1.5c-0.6,0-1.1,0.2-1.2,0.9c-0.1,0.7,1.1,2.2,1.6,2.1
		C419.8,276.1,419.5,275.2,419.6,274.8L419.6,274.8z M247.8,428.7c0.3,0.1,0.6,0,0.6-0.2c0.1-0.3-0.1-0.5-0.4-0.6h-0.1
		c-0.3,0-0.7-0.1-0.7,0.3C247.2,428.6,247.5,428.6,247.8,428.7z M203,357.7c-0.3,0.1-0.6,0.2-0.5,0.6c0.1,0.1,0.2,0.2,0.3,0.3
		c0.3,0.1,0.6-0.2,0.7-0.5l0,0C203.5,357.8,203.2,357.7,203,357.7L203,357.7z"/>
	<path d="M444.7,319.2c0,0.6,0,1.3,0,1.9s-0.3,1.3-1,1.4c-0.8,0.2-1.5-0.3-1.7-1c-0.3-0.8-0.6-1.7-0.7-2.5c-0.4-1.8-1.6-3.2-3.4-3.7
		c-2.8-1.1-5.6-2.3-8.7-2.6c-1.8-0.2-2.3-1.2-1.4-2.8c1.3-2.2,2.6-2.9,5.1-2.1c3.7,1.2,7.1,2.8,9.9,5.7c1.2,1.1,1.9,2.8,1.9,4.5
		C444.7,318.4,444.7,318.8,444.7,319.2L444.7,319.2z"/>
	<path d="M184.2,367.9c-2.4-0.3-4.7-0.5-6.9-0.9c-1.5-0.1-2.6-1.4-2.5-2.9c0-0.3,0.1-0.5,0.2-0.8c0.1-0.6,0.6-1,1.2-1
		c0.6,0,0.7,0.5,0.7,1c0,1.6,1,2,2.3,2.2c0.9,0.1,1.9,0.2,2.8,0.3c0.7,0.1,1.4,0,2.1,0.1s2.1,0,2.1,1.1
		C186.2,368.5,184.9,367.6,184.2,367.9z"/>
	<path d="M219.9,200.8c-0.1,0.6-0.5,0.6-0.9,0.7s-1,0-1.2-0.5s0.3-0.7,0.7-0.7C219,200.1,219.6,200.3,219.9,200.8z"/>
	<path d="M373.7,521.1c0.1,0.2,0.1,0.3-0.1,0.3s-0.6-0.1-0.9-0.1c0.1-0.1,0.1-0.3,0.2-0.4C373.2,520.7,373.5,520.8,373.7,521.1
		C373.7,521,373.7,521,373.7,521.1z"/>
	<path d="M221.2,431.2c0.5,0.1,0.6,0.5,0.7,0.8c0.1,0.6,0.7,1.1,0.3,1.8c-0.1,0.2-0.4,0.3-0.6,0.2l0,0c-0.6-0.4-1-1.1-0.9-1.8
		C220.5,431.8,220.8,431.4,221.2,431.2z"/>
</g>
</svg>
